%TF.GenerationSoftware,KiCad,Pcbnew,9.0.4*%
%TF.CreationDate,2025-12-01T01:33:34-03:00*%
%TF.ProjectId,Cnal+Fonte,436e616c-2b46-46f6-9e74-652e6b696361,rev?*%
%TF.SameCoordinates,Original*%
%TF.FileFunction,Soldermask,Top*%
%TF.FilePolarity,Negative*%
%FSLAX46Y46*%
G04 Gerber Fmt 4.6, Leading zero omitted, Abs format (unit mm)*
G04 Created by KiCad (PCBNEW 9.0.4) date 2025-12-01 01:33:34*
%MOMM*%
%LPD*%
G01*
G04 APERTURE LIST*
G04 Aperture macros list*
%AMRoundRect*
0 Rectangle with rounded corners*
0 $1 Rounding radius*
0 $2 $3 $4 $5 $6 $7 $8 $9 X,Y pos of 4 corners*
0 Add a 4 corners polygon primitive as box body*
4,1,4,$2,$3,$4,$5,$6,$7,$8,$9,$2,$3,0*
0 Add four circle primitives for the rounded corners*
1,1,$1+$1,$2,$3*
1,1,$1+$1,$4,$5*
1,1,$1+$1,$6,$7*
1,1,$1+$1,$8,$9*
0 Add four rect primitives between the rounded corners*
20,1,$1+$1,$2,$3,$4,$5,0*
20,1,$1+$1,$4,$5,$6,$7,0*
20,1,$1+$1,$6,$7,$8,$9,0*
20,1,$1+$1,$8,$9,$2,$3,0*%
G04 Aperture macros list end*
%ADD10RoundRect,0.102000X0.990600X0.266700X-0.990600X0.266700X-0.990600X-0.266700X0.990600X-0.266700X0*%
%ADD11C,1.600000*%
%ADD12R,0.946899X0.558800*%
%ADD13R,1.800000X1.800000*%
%ADD14C,1.800000*%
%ADD15C,2.500000*%
%ADD16C,1.900000*%
%ADD17RoundRect,0.250000X-0.750000X0.750000X-0.750000X-0.750000X0.750000X-0.750000X0.750000X0.750000X0*%
%ADD18C,2.000000*%
%ADD19O,1.450000X0.599999*%
%ADD20R,0.972299X0.508000*%
%ADD21RoundRect,0.250000X0.750000X-0.750000X0.750000X0.750000X-0.750000X0.750000X-0.750000X-0.750000X0*%
%ADD22R,0.508000X0.972299*%
%ADD23R,0.558000X1.454899*%
G04 APERTURE END LIST*
D10*
%TO.C,U7*%
X89785899Y-183325000D03*
X89785899Y-182055000D03*
X89785899Y-180785000D03*
X89785899Y-179515000D03*
X94713499Y-179515000D03*
X94713499Y-180785000D03*
X94713499Y-182055000D03*
X94713499Y-183325000D03*
%TD*%
D11*
%TO.C,C10*%
X86874548Y-157230500D03*
X86874548Y-154730500D03*
%TD*%
D12*
%TO.C,U6*%
X91499397Y-171041000D03*
X91499397Y-171980500D03*
X91499397Y-172920000D03*
X94249699Y-172920000D03*
X94249699Y-171041000D03*
%TD*%
%TO.C,U5*%
X91999397Y-155041000D03*
X91999397Y-155980500D03*
X91999397Y-156920000D03*
X94749699Y-156920000D03*
X94749699Y-155041000D03*
%TD*%
D11*
%TO.C,R28*%
X87249699Y-170500000D03*
X87249699Y-160340000D03*
%TD*%
D13*
%TO.C,J6*%
X102249699Y-189230400D03*
D14*
X102249699Y-191770400D03*
%TD*%
%TO.C,J5*%
X88629699Y-192920000D03*
X91169699Y-192920000D03*
X93709699Y-192920000D03*
X96249699Y-192920000D03*
%TD*%
%TO.C,J4*%
X88629699Y-188770400D03*
X91169699Y-188770400D03*
X93709699Y-188770400D03*
X96249699Y-188770400D03*
%TD*%
D15*
%TO.C,J3*%
X98097799Y-150414400D03*
D16*
X93017799Y-150414400D03*
D15*
X87937799Y-150414400D03*
%TD*%
D11*
%TO.C,C14*%
X102749699Y-170170000D03*
X102749699Y-177670000D03*
%TD*%
%TO.C,C13*%
X94499699Y-161420000D03*
X101999699Y-161420000D03*
%TD*%
%TO.C,R16*%
X57500000Y-156340000D03*
X57500000Y-166500000D03*
%TD*%
%TO.C,R11*%
X59000000Y-175840000D03*
X59000000Y-186000000D03*
%TD*%
D17*
%TO.C,C4*%
X34221348Y-123273671D03*
D18*
X34221348Y-128273671D03*
%TD*%
D11*
%TO.C,R15*%
X54000000Y-189000000D03*
X54000000Y-178840000D03*
%TD*%
%TO.C,R26*%
X98249699Y-180500000D03*
X98249699Y-170340000D03*
%TD*%
%TO.C,R8*%
X30000000Y-178000000D03*
X30000000Y-167840000D03*
%TD*%
%TO.C,R24*%
X45500000Y-154580000D03*
X45500000Y-144420000D03*
%TD*%
%TO.C,C7*%
X64750000Y-190920000D03*
X57250000Y-190920000D03*
%TD*%
%TO.C,C6*%
X27000000Y-159670000D03*
X27000000Y-157170000D03*
%TD*%
%TO.C,R19*%
X61500000Y-136340000D03*
X61500000Y-146500000D03*
%TD*%
%TO.C,R5*%
X36000000Y-180000000D03*
X36000000Y-169840000D03*
%TD*%
D17*
%TO.C,C5*%
X52000000Y-123552323D03*
D18*
X52000000Y-128552323D03*
%TD*%
D11*
%TO.C,C9*%
X50250000Y-190920000D03*
X42750000Y-190920000D03*
%TD*%
%TO.C,R18*%
X56500000Y-136340000D03*
X56500000Y-146500000D03*
%TD*%
%TO.C,R27*%
X103829699Y-166920000D03*
X93669699Y-166920000D03*
%TD*%
%TO.C,R23*%
X74000000Y-156340000D03*
X74000000Y-166500000D03*
%TD*%
%TO.C,R10*%
X29920000Y-185920000D03*
X40080000Y-185920000D03*
%TD*%
%TO.C,C1*%
X38750000Y-190920000D03*
X31250000Y-190920000D03*
%TD*%
D14*
%TO.C,J1*%
X71960000Y-144460000D03*
X71960000Y-141920000D03*
X71960000Y-139380000D03*
X71960000Y-136840000D03*
%TD*%
%TO.C,J2*%
X16500000Y-182880000D03*
X16500000Y-185420000D03*
X16500000Y-187960000D03*
X16500000Y-190500000D03*
%TD*%
D11*
%TO.C,R4*%
X38721348Y-154721348D03*
X38721348Y-144561348D03*
%TD*%
%TO.C,R13*%
X64000000Y-168000000D03*
X64000000Y-157840000D03*
%TD*%
D19*
%TO.C,U2*%
X48774999Y-167610000D03*
X48774999Y-168880000D03*
X48774999Y-170150000D03*
X48774999Y-171420000D03*
X48774999Y-172690000D03*
X48774999Y-173960000D03*
X48774999Y-175230000D03*
X54224998Y-175230000D03*
X54224998Y-173960000D03*
X54224998Y-172690000D03*
X54224998Y-171420000D03*
X54224998Y-170150000D03*
X54224998Y-168880000D03*
X54224998Y-167610000D03*
%TD*%
D20*
%TO.C,U4*%
X59500000Y-150820002D03*
X59500000Y-149870001D03*
X59500000Y-148920000D03*
X56775098Y-148920000D03*
X56775098Y-150820002D03*
%TD*%
D11*
%TO.C,R14*%
X66500000Y-136340000D03*
X66500000Y-146500000D03*
%TD*%
%TO.C,R20*%
X64500000Y-182420000D03*
X64500000Y-172260000D03*
%TD*%
%TO.C,R21*%
X43580000Y-161420000D03*
X33420000Y-161420000D03*
%TD*%
D21*
%TO.C,C3*%
X43721348Y-137509025D03*
D18*
X43721348Y-132509025D03*
%TD*%
D11*
%TO.C,C12*%
X86749699Y-174670000D03*
X86749699Y-177170000D03*
%TD*%
%TO.C,R12*%
X70000000Y-165920000D03*
X70000000Y-176080000D03*
%TD*%
%TO.C,C2*%
X99374548Y-154730500D03*
X99374548Y-157230500D03*
%TD*%
D22*
%TO.C,U3*%
X51000000Y-158695098D03*
X50049999Y-158695098D03*
X49099998Y-158695098D03*
X49099998Y-161420000D03*
X51000000Y-161420000D03*
%TD*%
D11*
%TO.C,R6*%
X24000000Y-168840000D03*
X24000000Y-179000000D03*
%TD*%
D23*
%TO.C,U1*%
X33316348Y-137862696D03*
X34586348Y-137862696D03*
X35856348Y-137862696D03*
X37126348Y-137862696D03*
X37126348Y-132420000D03*
X35856348Y-132420000D03*
X34586348Y-132420000D03*
X33316348Y-132420000D03*
%TD*%
D11*
%TO.C,R9*%
X45000000Y-184500000D03*
X45000000Y-174340000D03*
%TD*%
%TO.C,R25*%
X70000000Y-191000000D03*
X70000000Y-180840000D03*
%TD*%
%TO.C,R1*%
X27221348Y-138061348D03*
X27221348Y-148221348D03*
%TD*%
%TO.C,R2*%
X23221348Y-140721348D03*
X23221348Y-130561348D03*
%TD*%
%TO.C,R17*%
X69580000Y-153420000D03*
X59420000Y-153420000D03*
%TD*%
%TO.C,R7*%
X24000000Y-192500000D03*
X24000000Y-182340000D03*
%TD*%
%TO.C,R22*%
X51000000Y-154580000D03*
X51000000Y-144420000D03*
%TD*%
%TO.C,C8*%
X21000000Y-158670000D03*
X21000000Y-166170000D03*
%TD*%
%TO.C,R3*%
X32721348Y-144561348D03*
X32721348Y-154721348D03*
%TD*%
M02*
