%TF.GenerationSoftware,KiCad,Pcbnew,9.0.4*%
%TF.CreationDate,2025-12-01T01:33:34-03:00*%
%TF.ProjectId,Cnal+Fonte,436e616c-2b46-46f6-9e74-652e6b696361,rev?*%
%TF.SameCoordinates,Original*%
%TF.FileFunction,Copper,L2,Bot*%
%TF.FilePolarity,Positive*%
%FSLAX46Y46*%
G04 Gerber Fmt 4.6, Leading zero omitted, Abs format (unit mm)*
G04 Created by KiCad (PCBNEW 9.0.4) date 2025-12-01 01:33:34*
%MOMM*%
%LPD*%
G01*
G04 APERTURE LIST*
G04 Aperture macros list*
%AMRoundRect*
0 Rectangle with rounded corners*
0 $1 Rounding radius*
0 $2 $3 $4 $5 $6 $7 $8 $9 X,Y pos of 4 corners*
0 Add a 4 corners polygon primitive as box body*
4,1,4,$2,$3,$4,$5,$6,$7,$8,$9,$2,$3,0*
0 Add four circle primitives for the rounded corners*
1,1,$1+$1,$2,$3*
1,1,$1+$1,$4,$5*
1,1,$1+$1,$6,$7*
1,1,$1+$1,$8,$9*
0 Add four rect primitives between the rounded corners*
20,1,$1+$1,$2,$3,$4,$5,0*
20,1,$1+$1,$4,$5,$6,$7,0*
20,1,$1+$1,$6,$7,$8,$9,0*
20,1,$1+$1,$8,$9,$2,$3,0*%
G04 Aperture macros list end*
%TA.AperFunction,ComponentPad*%
%ADD10C,1.600000*%
%TD*%
%TA.AperFunction,ComponentPad*%
%ADD11R,1.800000X1.800000*%
%TD*%
%TA.AperFunction,ComponentPad*%
%ADD12C,1.800000*%
%TD*%
%TA.AperFunction,ComponentPad*%
%ADD13C,2.500000*%
%TD*%
%TA.AperFunction,ComponentPad*%
%ADD14C,1.900000*%
%TD*%
%TA.AperFunction,ComponentPad*%
%ADD15RoundRect,0.250000X-0.750000X0.750000X-0.750000X-0.750000X0.750000X-0.750000X0.750000X0.750000X0*%
%TD*%
%TA.AperFunction,ComponentPad*%
%ADD16C,2.000000*%
%TD*%
%TA.AperFunction,ComponentPad*%
%ADD17RoundRect,0.250000X0.750000X-0.750000X0.750000X0.750000X-0.750000X0.750000X-0.750000X-0.750000X0*%
%TD*%
%TA.AperFunction,Conductor*%
%ADD18C,0.700000*%
%TD*%
G04 APERTURE END LIST*
D10*
%TO.P,C10,2*%
%TO.N,GND{slash}V-*%
X86874548Y-157230500D03*
%TO.P,C10,1*%
%TO.N,Net-(U5-VIN)*%
X86874548Y-154730500D03*
%TD*%
%TO.P,R28,1*%
%TO.N,GND{slash}V-*%
X87249699Y-170500000D03*
%TO.P,R28,2*%
%TO.N,EN_9V*%
X87249699Y-160340000D03*
%TD*%
D11*
%TO.P,J6,1,1*%
%TO.N,Bat+*%
X102249699Y-189230400D03*
D12*
%TO.P,J6,2,2*%
%TO.N,EN_9V*%
X102249699Y-191770400D03*
%TD*%
%TO.P,J5,1,1*%
%TO.N,V_2_1+*%
X88629699Y-192920000D03*
%TO.P,J5,2,2*%
%TO.N,V1+*%
X91169699Y-192920000D03*
%TO.P,J5,3,3*%
%TO.N,GND{slash}V-*%
X93709699Y-192920000D03*
%TO.P,J5,4,4*%
%TO.N,VT_GND*%
X96249699Y-192920000D03*
%TD*%
%TO.P,J4,1,1*%
%TO.N,V_2_1+*%
X88629699Y-188770400D03*
%TO.P,J4,2,2*%
%TO.N,V1+*%
X91169699Y-188770400D03*
%TO.P,J4,3,3*%
%TO.N,GND{slash}V-*%
X93709699Y-188770400D03*
%TO.P,J4,4,4*%
%TO.N,VT_GND*%
X96249699Y-188770400D03*
%TD*%
D13*
%TO.P,J3,1,1*%
%TO.N,Bat+*%
X98097799Y-150414400D03*
D14*
%TO.P,J3,2,2*%
%TO.N,unconnected-(J3-Pad2)*%
X93017799Y-150414400D03*
D13*
%TO.P,J3,3,3*%
%TO.N,GND{slash}V-*%
X87937799Y-150414400D03*
%TD*%
D10*
%TO.P,C14,1*%
%TO.N,Net-(U6-BP)*%
X102749699Y-170170000D03*
%TO.P,C14,2*%
%TO.N,VT_GND*%
X102749699Y-177670000D03*
%TD*%
%TO.P,C13,1*%
%TO.N,Net-(U5-BP)*%
X94499699Y-161420000D03*
%TO.P,C13,2*%
%TO.N,GND{slash}V-*%
X101999699Y-161420000D03*
%TD*%
%TO.P,R16,1*%
%TO.N,Net-(C7-Pad1)*%
X57500000Y-156340000D03*
%TO.P,R16,2*%
%TO.N,NOTCH60*%
X57500000Y-166500000D03*
%TD*%
%TO.P,R11,1*%
%TO.N,INC-*%
X59000000Y-175840000D03*
%TO.P,R11,2*%
%TO.N,NOTCH60*%
X59000000Y-186000000D03*
%TD*%
D15*
%TO.P,C4,1*%
%TO.N,GND*%
X34221348Y-123273671D03*
D16*
%TO.P,C4,2*%
%TO.N,VCC*%
X34221348Y-128273671D03*
%TD*%
D10*
%TO.P,R15,1*%
%TO.N,IND+*%
X54000000Y-189000000D03*
%TO.P,R15,2*%
%TO.N,OUTC*%
X54000000Y-178840000D03*
%TD*%
%TO.P,R26,1*%
%TO.N,Net-(U7-+IN)*%
X98249699Y-180500000D03*
%TO.P,R26,2*%
%TO.N,VT_GND*%
X98249699Y-170340000D03*
%TD*%
%TO.P,R8,1*%
%TO.N,INB-*%
X30000000Y-178000000D03*
%TO.P,R8,2*%
%TO.N,HP150M*%
X30000000Y-167840000D03*
%TD*%
%TO.P,R24,1*%
%TO.N,Net-(C7-Pad1)*%
X45500000Y-154580000D03*
%TO.P,R24,2*%
%TO.N,Net-(R22-Pad2)*%
X45500000Y-144420000D03*
%TD*%
%TO.P,C7,1*%
%TO.N,Net-(C7-Pad1)*%
X64750000Y-190920000D03*
%TO.P,C7,2*%
%TO.N,GND*%
X57250000Y-190920000D03*
%TD*%
%TO.P,C6,1*%
%TO.N,INOPA-*%
X27000000Y-159670000D03*
%TO.P,C6,2*%
%TO.N,LP160*%
X27000000Y-157170000D03*
%TD*%
%TO.P,R19,1*%
%TO.N,LP160*%
X61500000Y-136340000D03*
%TO.P,R19,2*%
%TO.N,Net-(U4-+IN)*%
X61500000Y-146500000D03*
%TD*%
%TO.P,R5,1*%
%TO.N,Net-(R5-Pad1)*%
X36000000Y-180000000D03*
%TO.P,R5,2*%
%TO.N,INA+*%
X36000000Y-169840000D03*
%TD*%
D15*
%TO.P,C5,1*%
%TO.N,INAMP*%
X52000000Y-123552323D03*
D16*
%TO.P,C5,2*%
%TO.N,INA+*%
X52000000Y-128552323D03*
%TD*%
D10*
%TO.P,C9,1*%
%TO.N,IND+*%
X50250000Y-190920000D03*
%TO.P,C9,2*%
%TO.N,HP150M*%
X42750000Y-190920000D03*
%TD*%
%TO.P,R18,1*%
%TO.N,GND*%
X56500000Y-136340000D03*
%TO.P,R18,2*%
%TO.N,Net-(U4--IN)*%
X56500000Y-146500000D03*
%TD*%
%TO.P,R27,2*%
%TO.N,Net-(U7-+IN)*%
X103829699Y-166920000D03*
%TO.P,R27,1*%
%TO.N,V1+*%
X93669699Y-166920000D03*
%TD*%
%TO.P,R23,1*%
%TO.N,GND*%
X74000000Y-156340000D03*
%TO.P,R23,2*%
%TO.N,Net-(R20-Pad1)*%
X74000000Y-166500000D03*
%TD*%
%TO.P,R10,1*%
%TO.N,INC-*%
X29920000Y-185920000D03*
%TO.P,R10,2*%
%TO.N,OUTB*%
X40080000Y-185920000D03*
%TD*%
%TO.P,C1,1*%
%TO.N,OUTC*%
X38750000Y-190920000D03*
%TO.P,C1,2*%
%TO.N,INC-*%
X31250000Y-190920000D03*
%TD*%
D12*
%TO.P,J1,1,1*%
%TO.N,VCC*%
X71960000Y-144460000D03*
%TO.P,J1,2,2*%
%TO.N,VEE*%
X71960000Y-141920000D03*
%TO.P,J1,3,3*%
%TO.N,GND*%
X71960000Y-139380000D03*
%TO.P,J1,4,4*%
%TO.N,V_2+*%
X71960000Y-136840000D03*
%TD*%
%TO.P,J2,1,1*%
%TO.N,A*%
X16500000Y-182880000D03*
%TO.P,J2,2,2*%
%TO.N,B*%
X16500000Y-185420000D03*
%TO.P,J2,3,3*%
%TO.N,OFFSET*%
X16500000Y-187960000D03*
%TO.P,J2,4,4*%
%TO.N,unconnected-(J2-Pad4)*%
X16500000Y-190500000D03*
%TD*%
D10*
%TO.P,R4,1*%
%TO.N,GND*%
X38721348Y-154721348D03*
%TO.P,R4,2*%
%TO.N,B*%
X38721348Y-144561348D03*
%TD*%
%TO.P,R13,1*%
%TO.N,IND-*%
X64000000Y-168000000D03*
%TO.P,R13,2*%
%TO.N,GND*%
X64000000Y-157840000D03*
%TD*%
%TO.P,R14,1*%
%TO.N,V_2+*%
X66500000Y-136340000D03*
%TO.P,R14,2*%
%TO.N,Net-(U4-+IN)*%
X66500000Y-146500000D03*
%TD*%
%TO.P,R20,1*%
%TO.N,Net-(R20-Pad1)*%
X64500000Y-182420000D03*
%TO.P,R20,2*%
%TO.N,IND+*%
X64500000Y-172260000D03*
%TD*%
%TO.P,R21,1*%
%TO.N,INOPA-*%
X43580000Y-161420000D03*
%TO.P,R21,2*%
%TO.N,Net-(C7-Pad1)*%
X33420000Y-161420000D03*
%TD*%
D17*
%TO.P,C3,1*%
%TO.N,VEE*%
X43721348Y-137509025D03*
D16*
%TO.P,C3,2*%
%TO.N,GND*%
X43721348Y-132509025D03*
%TD*%
D10*
%TO.P,C12,1*%
%TO.N,EN_9V*%
X86749699Y-174670000D03*
%TO.P,C12,2*%
%TO.N,VT_GND*%
X86749699Y-177170000D03*
%TD*%
%TO.P,R12,1*%
%TO.N,IND-*%
X70000000Y-165920000D03*
%TO.P,R12,2*%
%TO.N,NOTCH60*%
X70000000Y-176080000D03*
%TD*%
%TO.P,C2,1*%
%TO.N,VT_GND*%
X99374548Y-154730500D03*
%TO.P,C2,2*%
%TO.N,GND{slash}V-*%
X99374548Y-157230500D03*
%TD*%
%TO.P,R6,1*%
%TO.N,GND*%
X24000000Y-168840000D03*
%TO.P,R6,2*%
%TO.N,Net-(R5-Pad1)*%
X24000000Y-179000000D03*
%TD*%
%TO.P,R9,1*%
%TO.N,OUTB*%
X45000000Y-184500000D03*
%TO.P,R9,2*%
%TO.N,INB-*%
X45000000Y-174340000D03*
%TD*%
%TO.P,R25,1*%
%TO.N,Net-(C7-Pad1)*%
X70000000Y-191000000D03*
%TO.P,R25,2*%
%TO.N,NOTCH60*%
X70000000Y-180840000D03*
%TD*%
%TO.P,R1,1*%
%TO.N,Net-(R1-Pad1)*%
X27221348Y-138061348D03*
%TO.P,R1,2*%
%TO.N,Net-(R1-Pad2)*%
X27221348Y-148221348D03*
%TD*%
%TO.P,R2,1*%
%TO.N,Net-(R1-Pad2)*%
X23221348Y-140721348D03*
%TO.P,R2,2*%
%TO.N,Net-(R2-Pad2)*%
X23221348Y-130561348D03*
%TD*%
%TO.P,R17,1*%
%TO.N,Net-(U4--IN)*%
X69580000Y-153420000D03*
%TO.P,R17,2*%
%TO.N,OFFSET*%
X59420000Y-153420000D03*
%TD*%
%TO.P,R7,1*%
%TO.N,GND*%
X24000000Y-192500000D03*
%TO.P,R7,2*%
%TO.N,Net-(R5-Pad1)*%
X24000000Y-182340000D03*
%TD*%
%TO.P,R22,1*%
%TO.N,LP160*%
X51000000Y-154580000D03*
%TO.P,R22,2*%
%TO.N,Net-(R22-Pad2)*%
X51000000Y-144420000D03*
%TD*%
%TO.P,C8,1*%
%TO.N,Net-(C7-Pad1)*%
X21000000Y-158670000D03*
%TO.P,C8,2*%
%TO.N,GND*%
X21000000Y-166170000D03*
%TD*%
%TO.P,R3,1*%
%TO.N,A*%
X32721348Y-144561348D03*
%TO.P,R3,2*%
%TO.N,GND*%
X32721348Y-154721348D03*
%TD*%
D18*
%TO.N,INA+*%
X31160000Y-165000000D02*
X36000000Y-169840000D01*
X18500000Y-160000000D02*
X23500000Y-165000000D01*
X18500000Y-156420000D02*
X18500000Y-160000000D01*
X24500000Y-150420000D02*
X18500000Y-156420000D01*
X23500000Y-165000000D02*
X31160000Y-165000000D01*
X36000000Y-150420000D02*
X24500000Y-150420000D01*
X49500000Y-136920000D02*
X36000000Y-150420000D01*
X52000000Y-128552323D02*
X49500000Y-131052323D01*
X49500000Y-131052323D02*
X49500000Y-136920000D01*
%TO.N,EN_9V*%
X90249699Y-179770400D02*
X102249699Y-191770400D01*
X88499699Y-174670000D02*
X90249699Y-176420000D01*
X86749699Y-174670000D02*
X88499699Y-174670000D01*
X90249699Y-176420000D02*
X90249699Y-179770400D01*
%TO.N,V1+*%
X86249699Y-166920000D02*
X93669699Y-166920000D01*
X83249699Y-180850400D02*
X83249699Y-169920000D01*
X83249699Y-169920000D02*
X86249699Y-166920000D01*
X91169699Y-188770400D02*
X83249699Y-180850400D01*
%TO.N,Net-(U7-+IN)*%
X105249699Y-179250301D02*
X105249699Y-168340000D01*
X105249699Y-168340000D02*
X103829699Y-166920000D01*
X104000000Y-180500000D02*
X105249699Y-179250301D01*
X98249699Y-180500000D02*
X104000000Y-180500000D01*
%TO.N,Bat+*%
X96898699Y-183879400D02*
X102249699Y-189230400D01*
X96898699Y-151613500D02*
X96898699Y-183879400D01*
X98097799Y-150414400D02*
X96898699Y-151613500D01*
%TO.N,OFFSET*%
X59420000Y-153420000D02*
X59500000Y-153420000D01*
%TO.N,IND+*%
X54000000Y-187920000D02*
X64500000Y-177420000D01*
X64500000Y-177420000D02*
X64500000Y-172260000D01*
X54000000Y-189000000D02*
X54000000Y-187920000D01*
%TO.N,HP150M*%
X42750000Y-190920000D02*
X42500000Y-190920000D01*
%TO.N,B*%
X14500000Y-152420000D02*
X26000000Y-140920000D01*
X16500000Y-185420000D02*
X14500000Y-183420000D01*
X14500000Y-183420000D02*
X14500000Y-152420000D01*
X26000000Y-140920000D02*
X35080000Y-140920000D01*
X35080000Y-140920000D02*
X38721348Y-144561348D01*
%TO.N,A*%
X16500000Y-182880000D02*
X16500000Y-154920000D01*
X27000000Y-144420000D02*
X32580000Y-144420000D01*
X32580000Y-144420000D02*
X32721348Y-144561348D01*
X16500000Y-154920000D02*
X27000000Y-144420000D01*
%TO.N,INC-*%
X53420000Y-181420000D02*
X59000000Y-175840000D01*
X34420000Y-181420000D02*
X53420000Y-181420000D01*
X29920000Y-185920000D02*
X34420000Y-181420000D01*
%TO.N,NOTCH60*%
X59000000Y-185420000D02*
X59000000Y-186000000D01*
X66799000Y-172219000D02*
X66799000Y-177621000D01*
X66799000Y-177621000D02*
X59000000Y-185420000D01*
X57500000Y-166500000D02*
X60920000Y-169920000D01*
X64500000Y-169920000D02*
X66799000Y-172219000D01*
X60920000Y-169920000D02*
X64500000Y-169920000D01*
%TO.N,Net-(U4--IN)*%
X56580000Y-146500000D02*
X63500000Y-153420000D01*
X56500000Y-146500000D02*
X56580000Y-146500000D01*
X63500000Y-153420000D02*
X69580000Y-153420000D01*
%TO.N,Net-(C7-Pad1)*%
X45500000Y-154580000D02*
X47260000Y-156340000D01*
X47260000Y-156340000D02*
X57500000Y-156340000D01*
X25750000Y-163420000D02*
X31420000Y-163420000D01*
X68000000Y-187670000D02*
X64750000Y-190920000D01*
X68000000Y-166840000D02*
X68000000Y-187670000D01*
X31420000Y-163420000D02*
X33420000Y-161420000D01*
X57500000Y-156340000D02*
X68000000Y-166840000D01*
X21000000Y-158670000D02*
X25750000Y-163420000D01*
%TO.N,Net-(R22-Pad2)*%
X51000000Y-144420000D02*
X45500000Y-144420000D01*
%TO.N,Net-(R5-Pad1)*%
X24000000Y-179000000D02*
X24000000Y-182340000D01*
%TO.N,INOPA-*%
X41830000Y-159670000D02*
X43580000Y-161420000D01*
X27000000Y-159670000D02*
X41830000Y-159670000D01*
%TO.N,OFFSET*%
X16500000Y-187960000D02*
X23960000Y-195420000D01*
X23960000Y-195420000D02*
X72000000Y-195420000D01*
X72000000Y-195420000D02*
X77000000Y-190420000D01*
X77000000Y-190420000D02*
X77000000Y-163420000D01*
X77000000Y-163420000D02*
X69000000Y-155420000D01*
X61420000Y-155420000D02*
X59420000Y-153420000D01*
X69000000Y-155420000D02*
X61420000Y-155420000D01*
%TD*%
%TA.AperFunction,Conductor*%
%TO.N,VT_GND*%
G36*
X105692238Y-147940185D02*
G01*
X105737993Y-147992989D01*
X105749199Y-148044500D01*
X105749199Y-167337349D01*
X105729514Y-167404388D01*
X105676710Y-167450143D01*
X105607552Y-167460087D01*
X105543996Y-167431062D01*
X105537518Y-167425030D01*
X105166518Y-167054030D01*
X105133033Y-166992707D01*
X105130199Y-166966349D01*
X105130199Y-166817648D01*
X105098176Y-166615465D01*
X105034917Y-166420776D01*
X104952677Y-166259373D01*
X104941986Y-166238390D01*
X104934255Y-166227749D01*
X104821670Y-166072786D01*
X104676912Y-165928028D01*
X104511312Y-165807715D01*
X104511311Y-165807714D01*
X104511309Y-165807713D01*
X104454352Y-165778691D01*
X104328922Y-165714781D01*
X104134233Y-165651522D01*
X103959694Y-165623878D01*
X103932051Y-165619500D01*
X103727347Y-165619500D01*
X103703028Y-165623351D01*
X103525164Y-165651522D01*
X103330475Y-165714781D01*
X103148085Y-165807715D01*
X102982485Y-165928028D01*
X102837727Y-166072786D01*
X102717414Y-166238386D01*
X102624480Y-166420776D01*
X102561221Y-166615465D01*
X102529199Y-166817648D01*
X102529199Y-167022351D01*
X102561221Y-167224534D01*
X102624480Y-167419223D01*
X102717414Y-167601613D01*
X102837727Y-167767213D01*
X102982485Y-167911971D01*
X103137448Y-168024556D01*
X103148089Y-168032287D01*
X103264306Y-168091503D01*
X103330475Y-168125218D01*
X103330477Y-168125218D01*
X103330480Y-168125220D01*
X103434836Y-168159127D01*
X103525164Y-168188477D01*
X103626256Y-168204488D01*
X103727347Y-168220500D01*
X103876048Y-168220500D01*
X103943087Y-168240185D01*
X103963729Y-168256819D01*
X104362880Y-168655969D01*
X104396365Y-168717292D01*
X104399199Y-168743650D01*
X104399199Y-178846650D01*
X104379514Y-178913689D01*
X104362880Y-178934331D01*
X103684030Y-179613181D01*
X103622707Y-179646666D01*
X103596349Y-179649500D01*
X99289746Y-179649500D01*
X99222707Y-179629815D01*
X99202065Y-179613181D01*
X99096912Y-179508028D01*
X98931312Y-179387715D01*
X98931311Y-179387714D01*
X98931309Y-179387713D01*
X98874352Y-179358691D01*
X98748922Y-179294781D01*
X98554233Y-179231522D01*
X98379694Y-179203878D01*
X98352051Y-179199500D01*
X98147347Y-179199500D01*
X98091351Y-179208369D01*
X97945163Y-179231523D01*
X97945156Y-179231524D01*
X97911516Y-179242455D01*
X97841675Y-179244450D01*
X97781843Y-179208369D01*
X97751015Y-179145668D01*
X97749199Y-179124524D01*
X97749199Y-177567682D01*
X101449699Y-177567682D01*
X101449699Y-177772317D01*
X101481708Y-177974417D01*
X101544943Y-178169031D01*
X101637840Y-178351350D01*
X101637846Y-178351359D01*
X101670222Y-178395921D01*
X101670223Y-178395922D01*
X102349699Y-177716446D01*
X102349699Y-177722661D01*
X102376958Y-177824394D01*
X102429619Y-177915606D01*
X102504093Y-177990080D01*
X102595305Y-178042741D01*
X102697038Y-178070000D01*
X102703252Y-178070000D01*
X102023775Y-178749474D01*
X102068349Y-178781859D01*
X102250667Y-178874755D01*
X102445281Y-178937990D01*
X102647382Y-178970000D01*
X102852016Y-178970000D01*
X103054116Y-178937990D01*
X103248730Y-178874755D01*
X103431048Y-178781859D01*
X103475620Y-178749474D01*
X102796146Y-178070000D01*
X102802360Y-178070000D01*
X102904093Y-178042741D01*
X102995305Y-177990080D01*
X103069779Y-177915606D01*
X103122440Y-177824394D01*
X103149699Y-177722661D01*
X103149699Y-177716447D01*
X103829173Y-178395921D01*
X103861558Y-178351349D01*
X103954454Y-178169031D01*
X104017689Y-177974417D01*
X104049699Y-177772317D01*
X104049699Y-177567682D01*
X104017689Y-177365582D01*
X103954454Y-177170968D01*
X103861558Y-176988650D01*
X103829173Y-176944077D01*
X103829173Y-176944076D01*
X103149699Y-177623551D01*
X103149699Y-177617339D01*
X103122440Y-177515606D01*
X103069779Y-177424394D01*
X102995305Y-177349920D01*
X102904093Y-177297259D01*
X102802360Y-177270000D01*
X102796145Y-177270000D01*
X103475621Y-176590524D01*
X103475620Y-176590523D01*
X103431058Y-176558147D01*
X103431049Y-176558141D01*
X103248730Y-176465244D01*
X103054116Y-176402009D01*
X102852016Y-176370000D01*
X102647382Y-176370000D01*
X102445281Y-176402009D01*
X102250667Y-176465244D01*
X102068343Y-176558143D01*
X102023776Y-176590523D01*
X102023776Y-176590524D01*
X102703253Y-177270000D01*
X102697038Y-177270000D01*
X102595305Y-177297259D01*
X102504093Y-177349920D01*
X102429619Y-177424394D01*
X102376958Y-177515606D01*
X102349699Y-177617339D01*
X102349699Y-177623553D01*
X101670223Y-176944077D01*
X101670222Y-176944077D01*
X101637842Y-176988644D01*
X101544943Y-177170968D01*
X101481708Y-177365582D01*
X101449699Y-177567682D01*
X97749199Y-177567682D01*
X97749199Y-171714950D01*
X97768884Y-171647911D01*
X97821688Y-171602156D01*
X97890846Y-171592212D01*
X97911519Y-171597020D01*
X97945274Y-171607988D01*
X97945280Y-171607989D01*
X98147382Y-171640000D01*
X98352016Y-171640000D01*
X98554116Y-171607990D01*
X98748730Y-171544755D01*
X98931048Y-171451859D01*
X98975620Y-171419474D01*
X98296146Y-170740000D01*
X98302360Y-170740000D01*
X98404093Y-170712741D01*
X98495305Y-170660080D01*
X98569779Y-170585606D01*
X98622440Y-170494394D01*
X98649699Y-170392661D01*
X98649699Y-170386447D01*
X99329173Y-171065921D01*
X99361558Y-171021349D01*
X99454454Y-170839031D01*
X99517689Y-170644417D01*
X99549699Y-170442317D01*
X99549699Y-170237682D01*
X99525069Y-170082174D01*
X99522768Y-170067648D01*
X101449199Y-170067648D01*
X101449199Y-170272351D01*
X101481221Y-170474534D01*
X101544480Y-170669223D01*
X101637414Y-170851613D01*
X101757727Y-171017213D01*
X101902485Y-171161971D01*
X102057448Y-171274556D01*
X102068089Y-171282287D01*
X102184306Y-171341503D01*
X102250475Y-171375218D01*
X102250477Y-171375218D01*
X102250480Y-171375220D01*
X102354836Y-171409127D01*
X102445164Y-171438477D01*
X102529654Y-171451859D01*
X102647347Y-171470500D01*
X102647348Y-171470500D01*
X102852050Y-171470500D01*
X102852051Y-171470500D01*
X103054233Y-171438477D01*
X103248918Y-171375220D01*
X103431309Y-171282287D01*
X103524289Y-171214732D01*
X103596912Y-171161971D01*
X103596914Y-171161968D01*
X103596918Y-171161966D01*
X103741665Y-171017219D01*
X103741667Y-171017215D01*
X103741670Y-171017213D01*
X103794431Y-170944590D01*
X103861986Y-170851610D01*
X103954919Y-170669219D01*
X104018176Y-170474534D01*
X104050199Y-170272352D01*
X104050199Y-170067648D01*
X104018176Y-169865466D01*
X103954919Y-169670781D01*
X103954917Y-169670778D01*
X103954917Y-169670776D01*
X103876633Y-169517137D01*
X103861986Y-169488390D01*
X103854255Y-169477749D01*
X103741670Y-169322786D01*
X103596912Y-169178028D01*
X103431312Y-169057715D01*
X103431311Y-169057714D01*
X103431309Y-169057713D01*
X103374352Y-169028691D01*
X103248922Y-168964781D01*
X103054233Y-168901522D01*
X102879694Y-168873878D01*
X102852051Y-168869500D01*
X102647347Y-168869500D01*
X102623028Y-168873351D01*
X102445164Y-168901522D01*
X102250475Y-168964781D01*
X102068085Y-169057715D01*
X101902485Y-169178028D01*
X101757727Y-169322786D01*
X101637414Y-169488386D01*
X101544480Y-169670776D01*
X101481221Y-169865465D01*
X101449199Y-170067648D01*
X99522768Y-170067648D01*
X99517688Y-170035581D01*
X99454454Y-169840968D01*
X99361558Y-169658650D01*
X99329173Y-169614077D01*
X99329173Y-169614076D01*
X98649699Y-170293551D01*
X98649699Y-170287339D01*
X98622440Y-170185606D01*
X98569779Y-170094394D01*
X98495305Y-170019920D01*
X98404093Y-169967259D01*
X98302360Y-169940000D01*
X98296145Y-169940000D01*
X98975621Y-169260524D01*
X98975620Y-169260523D01*
X98931058Y-169228147D01*
X98931049Y-169228141D01*
X98748730Y-169135244D01*
X98554116Y-169072009D01*
X98352016Y-169040000D01*
X98147382Y-169040000D01*
X97945280Y-169072010D01*
X97945273Y-169072011D01*
X97911516Y-169082980D01*
X97841675Y-169084975D01*
X97781843Y-169048894D01*
X97751015Y-168986193D01*
X97749199Y-168965049D01*
X97749199Y-161317648D01*
X100699199Y-161317648D01*
X100699199Y-161522351D01*
X100731221Y-161724534D01*
X100794480Y-161919223D01*
X100887414Y-162101613D01*
X101007727Y-162267213D01*
X101152485Y-162411971D01*
X101307448Y-162524556D01*
X101318089Y-162532287D01*
X101434306Y-162591503D01*
X101500475Y-162625218D01*
X101500477Y-162625218D01*
X101500480Y-162625220D01*
X101604836Y-162659127D01*
X101695164Y-162688477D01*
X101796256Y-162704488D01*
X101897347Y-162720500D01*
X101897348Y-162720500D01*
X102102050Y-162720500D01*
X102102051Y-162720500D01*
X102304233Y-162688477D01*
X102498918Y-162625220D01*
X102681309Y-162532287D01*
X102774289Y-162464732D01*
X102846912Y-162411971D01*
X102846914Y-162411968D01*
X102846918Y-162411966D01*
X102991665Y-162267219D01*
X102991667Y-162267215D01*
X102991670Y-162267213D01*
X103044431Y-162194590D01*
X103111986Y-162101610D01*
X103204919Y-161919219D01*
X103268176Y-161724534D01*
X103300199Y-161522352D01*
X103300199Y-161317648D01*
X103268176Y-161115466D01*
X103204919Y-160920781D01*
X103204917Y-160920778D01*
X103204917Y-160920776D01*
X103163361Y-160839219D01*
X103111986Y-160738390D01*
X103104255Y-160727749D01*
X102991670Y-160572786D01*
X102846912Y-160428028D01*
X102681312Y-160307715D01*
X102681311Y-160307714D01*
X102681309Y-160307713D01*
X102624352Y-160278691D01*
X102498922Y-160214781D01*
X102304233Y-160151522D01*
X102129694Y-160123878D01*
X102102051Y-160119500D01*
X101897347Y-160119500D01*
X101873028Y-160123351D01*
X101695164Y-160151522D01*
X101500475Y-160214781D01*
X101318085Y-160307715D01*
X101152485Y-160428028D01*
X101007727Y-160572786D01*
X100887414Y-160738386D01*
X100794480Y-160920776D01*
X100731221Y-161115465D01*
X100699199Y-161317648D01*
X97749199Y-161317648D01*
X97749199Y-157128148D01*
X98074048Y-157128148D01*
X98074048Y-157332851D01*
X98106070Y-157535034D01*
X98169329Y-157729723D01*
X98262263Y-157912113D01*
X98382576Y-158077713D01*
X98527334Y-158222471D01*
X98682297Y-158335056D01*
X98692938Y-158342787D01*
X98809155Y-158402003D01*
X98875324Y-158435718D01*
X98875326Y-158435718D01*
X98875329Y-158435720D01*
X98979685Y-158469627D01*
X99070013Y-158498977D01*
X99171105Y-158514988D01*
X99272196Y-158531000D01*
X99272197Y-158531000D01*
X99476899Y-158531000D01*
X99476900Y-158531000D01*
X99679082Y-158498977D01*
X99873767Y-158435720D01*
X100056158Y-158342787D01*
X100149138Y-158275232D01*
X100221761Y-158222471D01*
X100221763Y-158222468D01*
X100221767Y-158222466D01*
X100366514Y-158077719D01*
X100366516Y-158077715D01*
X100366519Y-158077713D01*
X100419280Y-158005090D01*
X100486835Y-157912110D01*
X100579768Y-157729719D01*
X100643025Y-157535034D01*
X100675048Y-157332852D01*
X100675048Y-157128148D01*
X100643025Y-156925966D01*
X100579768Y-156731281D01*
X100579766Y-156731278D01*
X100579766Y-156731276D01*
X100546051Y-156665107D01*
X100486835Y-156548890D01*
X100479104Y-156538249D01*
X100366519Y-156383286D01*
X100221761Y-156238528D01*
X100056159Y-156118213D01*
X100002169Y-156090703D01*
X99951373Y-156042728D01*
X99934579Y-155974907D01*
X99957117Y-155908772D01*
X100002172Y-155869733D01*
X100055897Y-155842359D01*
X100100469Y-155809974D01*
X99420995Y-155130500D01*
X99427209Y-155130500D01*
X99528942Y-155103241D01*
X99620154Y-155050580D01*
X99694628Y-154976106D01*
X99747289Y-154884894D01*
X99774548Y-154783161D01*
X99774548Y-154776948D01*
X100454022Y-155456422D01*
X100454022Y-155456421D01*
X100486407Y-155411849D01*
X100579303Y-155229531D01*
X100642538Y-155034917D01*
X100674548Y-154832817D01*
X100674548Y-154628182D01*
X100642538Y-154426082D01*
X100579303Y-154231468D01*
X100486407Y-154049150D01*
X100454022Y-154004577D01*
X100454022Y-154004576D01*
X99774548Y-154684051D01*
X99774548Y-154677839D01*
X99747289Y-154576106D01*
X99694628Y-154484894D01*
X99620154Y-154410420D01*
X99528942Y-154357759D01*
X99427209Y-154330500D01*
X99420994Y-154330500D01*
X100100470Y-153651024D01*
X100100469Y-153651023D01*
X100055907Y-153618647D01*
X100055898Y-153618641D01*
X99873579Y-153525744D01*
X99678965Y-153462509D01*
X99476865Y-153430500D01*
X99272231Y-153430500D01*
X99070130Y-153462509D01*
X98875516Y-153525744D01*
X98693192Y-153618643D01*
X98648625Y-153651023D01*
X98648625Y-153651024D01*
X99328102Y-154330500D01*
X99321887Y-154330500D01*
X99220154Y-154357759D01*
X99128942Y-154410420D01*
X99054468Y-154484894D01*
X99001807Y-154576106D01*
X98974548Y-154677839D01*
X98974548Y-154684053D01*
X98295072Y-154004577D01*
X98295071Y-154004577D01*
X98262691Y-154049144D01*
X98169792Y-154231468D01*
X98106557Y-154426082D01*
X98074548Y-154628182D01*
X98074548Y-154832817D01*
X98106557Y-155034917D01*
X98169792Y-155229531D01*
X98262689Y-155411850D01*
X98262695Y-155411859D01*
X98295071Y-155456421D01*
X98295072Y-155456422D01*
X98974548Y-154776946D01*
X98974548Y-154783161D01*
X99001807Y-154884894D01*
X99054468Y-154976106D01*
X99128942Y-155050580D01*
X99220154Y-155103241D01*
X99321887Y-155130500D01*
X99328101Y-155130500D01*
X98648624Y-155809974D01*
X98693200Y-155842361D01*
X98746924Y-155869734D01*
X98797720Y-155917708D01*
X98814516Y-155985528D01*
X98791979Y-156051664D01*
X98746927Y-156090703D01*
X98692934Y-156118214D01*
X98527334Y-156238528D01*
X98382576Y-156383286D01*
X98262263Y-156548886D01*
X98169329Y-156731276D01*
X98106070Y-156925965D01*
X98074048Y-157128148D01*
X97749199Y-157128148D01*
X97749199Y-152275505D01*
X97768884Y-152208466D01*
X97821688Y-152162711D01*
X97889382Y-152152566D01*
X97983065Y-152164900D01*
X97983072Y-152164900D01*
X98212526Y-152164900D01*
X98212533Y-152164900D01*
X98440037Y-152134948D01*
X98661686Y-152075558D01*
X98873687Y-151987744D01*
X99072411Y-151873011D01*
X99254460Y-151733319D01*
X99254464Y-151733314D01*
X99254469Y-151733311D01*
X99416710Y-151571070D01*
X99416713Y-151571065D01*
X99416718Y-151571061D01*
X99556410Y-151389012D01*
X99671143Y-151190288D01*
X99758957Y-150978287D01*
X99818347Y-150756638D01*
X99848299Y-150529134D01*
X99848299Y-150299666D01*
X99818347Y-150072162D01*
X99758957Y-149850513D01*
X99677630Y-149654172D01*
X99671148Y-149638523D01*
X99671145Y-149638517D01*
X99671143Y-149638512D01*
X99556410Y-149439788D01*
X99556407Y-149439785D01*
X99556406Y-149439782D01*
X99416717Y-149257738D01*
X99416710Y-149257730D01*
X99254469Y-149095489D01*
X99254460Y-149095481D01*
X99072416Y-148955792D01*
X98873689Y-148841057D01*
X98873675Y-148841050D01*
X98661686Y-148753242D01*
X98440037Y-148693852D01*
X98402014Y-148688846D01*
X98212540Y-148663900D01*
X98212533Y-148663900D01*
X97983065Y-148663900D01*
X97983057Y-148663900D01*
X97766514Y-148692409D01*
X97755561Y-148693852D01*
X97661875Y-148718954D01*
X97533911Y-148753242D01*
X97321922Y-148841050D01*
X97321908Y-148841057D01*
X97123181Y-148955792D01*
X96941137Y-149095481D01*
X96778880Y-149257738D01*
X96639191Y-149439782D01*
X96524456Y-149638509D01*
X96524449Y-149638523D01*
X96436641Y-149850512D01*
X96377252Y-150072159D01*
X96377250Y-150072170D01*
X96347299Y-150299658D01*
X96347299Y-150529141D01*
X96377251Y-150756636D01*
X96377253Y-150756648D01*
X96395813Y-150825915D01*
X96394150Y-150895765D01*
X96363720Y-150945689D01*
X96238071Y-151071338D01*
X96144998Y-151210630D01*
X96144991Y-151210643D01*
X96099661Y-151320083D01*
X96080884Y-151365413D01*
X96080881Y-151365425D01*
X96048199Y-151529728D01*
X96048199Y-183963171D01*
X96068503Y-184065245D01*
X96062276Y-184134836D01*
X96019413Y-184190014D01*
X95953523Y-184213258D01*
X95885526Y-184197190D01*
X95859205Y-184177117D01*
X91136518Y-179454430D01*
X91103033Y-179393107D01*
X91100199Y-179366749D01*
X91100199Y-176336232D01*
X91100198Y-176336228D01*
X91067516Y-176171924D01*
X91067515Y-176171918D01*
X91048736Y-176126584D01*
X91003403Y-176017137D01*
X90910326Y-175877838D01*
X90910323Y-175877834D01*
X89041864Y-174009375D01*
X89041860Y-174009372D01*
X88902565Y-173916297D01*
X88902562Y-173916296D01*
X88793115Y-173870962D01*
X88793113Y-173870961D01*
X88747785Y-173852185D01*
X88747773Y-173852182D01*
X88583470Y-173819500D01*
X88583466Y-173819500D01*
X87789746Y-173819500D01*
X87722707Y-173799815D01*
X87702065Y-173783181D01*
X87596912Y-173678028D01*
X87431312Y-173557715D01*
X87431311Y-173557714D01*
X87431309Y-173557713D01*
X87374352Y-173528691D01*
X87248922Y-173464781D01*
X87054233Y-173401522D01*
X86879694Y-173373878D01*
X86852051Y-173369500D01*
X86647347Y-173369500D01*
X86623028Y-173373351D01*
X86445164Y-173401522D01*
X86250475Y-173464781D01*
X86068085Y-173557715D01*
X85902485Y-173678028D01*
X85757727Y-173822786D01*
X85637414Y-173988386D01*
X85544480Y-174170776D01*
X85481221Y-174365465D01*
X85449199Y-174567648D01*
X85449199Y-174772351D01*
X85481221Y-174974534D01*
X85544480Y-175169223D01*
X85637414Y-175351613D01*
X85757727Y-175517213D01*
X85902485Y-175661971D01*
X86068084Y-175782284D01*
X86068086Y-175782285D01*
X86068089Y-175782287D01*
X86122077Y-175809795D01*
X86172873Y-175857769D01*
X86189668Y-175925590D01*
X86167131Y-175991725D01*
X86122077Y-176030765D01*
X86068343Y-176058143D01*
X86023776Y-176090523D01*
X86023776Y-176090524D01*
X86703253Y-176770000D01*
X86697038Y-176770000D01*
X86595305Y-176797259D01*
X86504093Y-176849920D01*
X86429619Y-176924394D01*
X86376958Y-177015606D01*
X86349699Y-177117339D01*
X86349699Y-177123553D01*
X85670223Y-176444077D01*
X85670222Y-176444077D01*
X85637842Y-176488644D01*
X85544943Y-176670968D01*
X85481708Y-176865582D01*
X85449699Y-177067682D01*
X85449699Y-177272317D01*
X85481708Y-177474417D01*
X85544943Y-177669031D01*
X85637840Y-177851350D01*
X85637846Y-177851359D01*
X85670222Y-177895921D01*
X85670223Y-177895922D01*
X86349699Y-177216446D01*
X86349699Y-177222661D01*
X86376958Y-177324394D01*
X86429619Y-177415606D01*
X86504093Y-177490080D01*
X86595305Y-177542741D01*
X86697038Y-177570000D01*
X86703252Y-177570000D01*
X86023775Y-178249474D01*
X86068349Y-178281859D01*
X86250667Y-178374755D01*
X86445281Y-178437990D01*
X86647382Y-178470000D01*
X86852016Y-178470000D01*
X87054116Y-178437990D01*
X87248730Y-178374755D01*
X87431048Y-178281859D01*
X87475620Y-178249474D01*
X86796146Y-177570000D01*
X86802360Y-177570000D01*
X86904093Y-177542741D01*
X86995305Y-177490080D01*
X87069779Y-177415606D01*
X87122440Y-177324394D01*
X87149699Y-177222661D01*
X87149699Y-177216447D01*
X87829173Y-177895921D01*
X87861558Y-177851349D01*
X87954454Y-177669031D01*
X88017689Y-177474417D01*
X88049699Y-177272317D01*
X88049699Y-177067682D01*
X88017689Y-176865582D01*
X87954454Y-176670968D01*
X87861558Y-176488650D01*
X87829173Y-176444077D01*
X87829173Y-176444076D01*
X87149699Y-177123551D01*
X87149699Y-177117339D01*
X87122440Y-177015606D01*
X87069779Y-176924394D01*
X86995305Y-176849920D01*
X86904093Y-176797259D01*
X86802360Y-176770000D01*
X86796145Y-176770000D01*
X87475621Y-176090524D01*
X87475620Y-176090523D01*
X87431058Y-176058147D01*
X87431049Y-176058141D01*
X87377320Y-176030765D01*
X87326524Y-175982791D01*
X87309729Y-175914970D01*
X87332266Y-175848835D01*
X87377320Y-175809795D01*
X87431309Y-175782287D01*
X87480843Y-175746298D01*
X87596912Y-175661971D01*
X87596914Y-175661968D01*
X87596918Y-175661966D01*
X87702065Y-175556819D01*
X87763388Y-175523334D01*
X87789746Y-175520500D01*
X88096048Y-175520500D01*
X88163087Y-175540185D01*
X88183729Y-175556819D01*
X89362880Y-176735970D01*
X89396365Y-176797293D01*
X89399199Y-176823651D01*
X89399199Y-179854171D01*
X89431881Y-180018474D01*
X89431884Y-180018486D01*
X89450660Y-180063814D01*
X89450661Y-180063816D01*
X89495995Y-180173263D01*
X89495996Y-180173266D01*
X89589071Y-180312561D01*
X89589074Y-180312565D01*
X96435229Y-187158719D01*
X96468714Y-187220042D01*
X96463730Y-187289734D01*
X96421858Y-187345667D01*
X96356394Y-187370084D01*
X96347548Y-187370400D01*
X96139518Y-187370400D01*
X95921863Y-187404873D01*
X95712288Y-187472967D01*
X95515932Y-187573016D01*
X95452184Y-187619331D01*
X95452184Y-187619332D01*
X96113757Y-188280904D01*
X96053618Y-188297019D01*
X95937779Y-188363898D01*
X95843197Y-188458480D01*
X95776318Y-188574319D01*
X95760203Y-188634457D01*
X95098631Y-187972885D01*
X95098629Y-187972885D01*
X95080325Y-187998079D01*
X95024995Y-188040745D01*
X94955382Y-188046724D01*
X94893587Y-188014118D01*
X94879689Y-187998079D01*
X94777946Y-187858040D01*
X94622062Y-187702156D01*
X94622057Y-187702152D01*
X94443724Y-187572587D01*
X94443723Y-187572586D01*
X94443721Y-187572585D01*
X94380795Y-187540522D01*
X94247305Y-187472504D01*
X94247302Y-187472503D01*
X94037651Y-187404385D01*
X93873253Y-187378347D01*
X93819921Y-187369900D01*
X93599477Y-187369900D01*
X93546145Y-187378347D01*
X93381746Y-187404385D01*
X93172095Y-187472503D01*
X93172092Y-187472504D01*
X92975673Y-187572587D01*
X92797340Y-187702152D01*
X92797335Y-187702156D01*
X92641455Y-187858036D01*
X92641451Y-187858041D01*
X92540017Y-187997654D01*
X92484687Y-188040320D01*
X92415074Y-188046299D01*
X92353279Y-188013693D01*
X92339381Y-187997654D01*
X92237946Y-187858041D01*
X92237942Y-187858036D01*
X92082062Y-187702156D01*
X92082057Y-187702152D01*
X91903724Y-187572587D01*
X91903723Y-187572586D01*
X91903721Y-187572585D01*
X91840795Y-187540522D01*
X91707305Y-187472504D01*
X91707302Y-187472503D01*
X91497651Y-187404385D01*
X91333253Y-187378347D01*
X91279921Y-187369900D01*
X91059477Y-187369900D01*
X91059471Y-187369900D01*
X91046351Y-187371978D01*
X90977058Y-187363023D01*
X90939273Y-187337186D01*
X84136518Y-180534430D01*
X84103033Y-180473107D01*
X84100199Y-180446749D01*
X84100199Y-170397648D01*
X85949199Y-170397648D01*
X85949199Y-170602352D01*
X85953577Y-170629995D01*
X85981221Y-170804534D01*
X86044480Y-170999223D01*
X86078465Y-171065921D01*
X86127405Y-171161971D01*
X86137414Y-171181613D01*
X86257727Y-171347213D01*
X86402485Y-171491971D01*
X86554145Y-171602156D01*
X86568089Y-171612287D01*
X86684306Y-171671503D01*
X86750475Y-171705218D01*
X86750477Y-171705218D01*
X86750480Y-171705220D01*
X86854836Y-171739127D01*
X86945164Y-171768477D01*
X87046256Y-171784488D01*
X87147347Y-171800500D01*
X87147348Y-171800500D01*
X87352050Y-171800500D01*
X87352051Y-171800500D01*
X87554233Y-171768477D01*
X87748918Y-171705220D01*
X87931309Y-171612287D01*
X88024289Y-171544732D01*
X88096912Y-171491971D01*
X88096914Y-171491968D01*
X88096918Y-171491966D01*
X88241665Y-171347219D01*
X88241667Y-171347215D01*
X88241670Y-171347213D01*
X88294431Y-171274590D01*
X88361986Y-171181610D01*
X88454919Y-170999219D01*
X88518176Y-170804534D01*
X88550199Y-170602352D01*
X88550199Y-170397648D01*
X88538479Y-170323651D01*
X88518176Y-170195465D01*
X88466226Y-170035581D01*
X88454919Y-170000781D01*
X88454917Y-170000778D01*
X88454917Y-170000776D01*
X88385972Y-169865466D01*
X88361986Y-169818390D01*
X88354255Y-169807749D01*
X88241670Y-169652786D01*
X88096912Y-169508028D01*
X87931312Y-169387715D01*
X87931311Y-169387714D01*
X87931309Y-169387713D01*
X87874352Y-169358691D01*
X87748922Y-169294781D01*
X87554233Y-169231522D01*
X87379694Y-169203878D01*
X87352051Y-169199500D01*
X87147347Y-169199500D01*
X87123028Y-169203351D01*
X86945164Y-169231522D01*
X86750475Y-169294781D01*
X86568085Y-169387715D01*
X86402485Y-169508028D01*
X86257727Y-169652786D01*
X86137414Y-169818386D01*
X86044480Y-170000776D01*
X85981221Y-170195465D01*
X85949989Y-170392661D01*
X85949199Y-170397648D01*
X84100199Y-170397648D01*
X84100199Y-170323651D01*
X84119884Y-170256612D01*
X84136518Y-170235970D01*
X86565669Y-167806819D01*
X86626992Y-167773334D01*
X86653350Y-167770500D01*
X92629652Y-167770500D01*
X92696691Y-167790185D01*
X92717333Y-167806819D01*
X92822485Y-167911971D01*
X92977448Y-168024556D01*
X92988089Y-168032287D01*
X93104306Y-168091503D01*
X93170475Y-168125218D01*
X93170477Y-168125218D01*
X93170480Y-168125220D01*
X93274836Y-168159127D01*
X93365164Y-168188477D01*
X93466256Y-168204488D01*
X93567347Y-168220500D01*
X93567348Y-168220500D01*
X93772050Y-168220500D01*
X93772051Y-168220500D01*
X93974233Y-168188477D01*
X94168918Y-168125220D01*
X94351309Y-168032287D01*
X94444289Y-167964732D01*
X94516912Y-167911971D01*
X94516914Y-167911968D01*
X94516918Y-167911966D01*
X94661665Y-167767219D01*
X94661667Y-167767215D01*
X94661670Y-167767213D01*
X94714431Y-167694590D01*
X94781986Y-167601610D01*
X94874919Y-167419219D01*
X94938176Y-167224534D01*
X94970199Y-167022352D01*
X94970199Y-166817648D01*
X94938176Y-166615466D01*
X94874919Y-166420781D01*
X94874917Y-166420778D01*
X94874917Y-166420776D01*
X94792677Y-166259373D01*
X94781986Y-166238390D01*
X94774255Y-166227749D01*
X94661670Y-166072786D01*
X94516912Y-165928028D01*
X94351312Y-165807715D01*
X94351311Y-165807714D01*
X94351309Y-165807713D01*
X94294352Y-165778691D01*
X94168922Y-165714781D01*
X93974233Y-165651522D01*
X93799694Y-165623878D01*
X93772051Y-165619500D01*
X93567347Y-165619500D01*
X93543028Y-165623351D01*
X93365164Y-165651522D01*
X93170475Y-165714781D01*
X92988085Y-165807715D01*
X92822485Y-165928028D01*
X92822481Y-165928032D01*
X92717333Y-166033181D01*
X92656010Y-166066666D01*
X92629652Y-166069500D01*
X86165927Y-166069500D01*
X86001624Y-166102182D01*
X86001612Y-166102185D01*
X85956282Y-166120962D01*
X85846842Y-166166292D01*
X85846829Y-166166299D01*
X85707537Y-166259372D01*
X85707533Y-166259375D01*
X82589074Y-169377834D01*
X82589071Y-169377838D01*
X82495996Y-169517133D01*
X82495995Y-169517136D01*
X82463344Y-169595964D01*
X82463344Y-169595965D01*
X82431883Y-169671917D01*
X82431881Y-169671925D01*
X82399199Y-169836228D01*
X82399199Y-180934171D01*
X82431880Y-181098473D01*
X82431883Y-181098482D01*
X82495995Y-181253263D01*
X82495996Y-181253266D01*
X82589071Y-181392561D01*
X82589074Y-181392565D01*
X88387910Y-187191399D01*
X88421395Y-187252722D01*
X88416411Y-187322414D01*
X88374539Y-187378347D01*
X88319627Y-187401553D01*
X88301746Y-187404385D01*
X88092095Y-187472503D01*
X88092092Y-187472504D01*
X87895673Y-187572587D01*
X87717340Y-187702152D01*
X87717335Y-187702156D01*
X87561455Y-187858036D01*
X87561451Y-187858041D01*
X87431886Y-188036374D01*
X87331803Y-188232793D01*
X87331802Y-188232796D01*
X87263684Y-188442447D01*
X87229199Y-188660178D01*
X87229199Y-188880621D01*
X87263684Y-189098352D01*
X87331802Y-189308003D01*
X87331803Y-189308006D01*
X87399821Y-189441496D01*
X87426828Y-189494500D01*
X87431886Y-189504425D01*
X87561451Y-189682758D01*
X87561455Y-189682763D01*
X87717335Y-189838643D01*
X87717340Y-189838647D01*
X87831331Y-189921465D01*
X87895677Y-189968215D01*
X88024074Y-190033637D01*
X88092092Y-190068295D01*
X88092095Y-190068296D01*
X88196920Y-190102355D01*
X88301748Y-190136415D01*
X88519477Y-190170900D01*
X88519478Y-190170900D01*
X88739920Y-190170900D01*
X88739921Y-190170900D01*
X88957650Y-190136415D01*
X89167305Y-190068295D01*
X89363721Y-189968215D01*
X89542064Y-189838642D01*
X89697941Y-189682765D01*
X89781385Y-189567914D01*
X89799381Y-189543145D01*
X89854710Y-189500479D01*
X89924324Y-189494500D01*
X89986119Y-189527105D01*
X90000017Y-189543145D01*
X90101451Y-189682758D01*
X90101455Y-189682763D01*
X90257335Y-189838643D01*
X90257340Y-189838647D01*
X90371331Y-189921465D01*
X90435677Y-189968215D01*
X90564074Y-190033637D01*
X90632092Y-190068295D01*
X90632095Y-190068296D01*
X90736920Y-190102355D01*
X90841748Y-190136415D01*
X91059477Y-190170900D01*
X91059478Y-190170900D01*
X91279920Y-190170900D01*
X91279921Y-190170900D01*
X91497650Y-190136415D01*
X91707305Y-190068295D01*
X91903721Y-189968215D01*
X92082064Y-189838642D01*
X92237941Y-189682765D01*
X92321385Y-189567914D01*
X92339381Y-189543145D01*
X92394710Y-189500479D01*
X92464324Y-189494500D01*
X92526119Y-189527105D01*
X92540017Y-189543145D01*
X92641451Y-189682758D01*
X92641455Y-189682763D01*
X92797335Y-189838643D01*
X92797340Y-189838647D01*
X92911331Y-189921465D01*
X92975677Y-189968215D01*
X93104074Y-190033637D01*
X93172092Y-190068295D01*
X93172095Y-190068296D01*
X93276920Y-190102355D01*
X93381748Y-190136415D01*
X93599477Y-190170900D01*
X93599478Y-190170900D01*
X93819920Y-190170900D01*
X93819921Y-190170900D01*
X94037650Y-190136415D01*
X94247305Y-190068295D01*
X94443721Y-189968215D01*
X94622064Y-189838642D01*
X94777941Y-189682765D01*
X94879690Y-189542717D01*
X94935019Y-189500053D01*
X95004632Y-189494074D01*
X95066428Y-189526679D01*
X95080327Y-189542719D01*
X95098631Y-189567913D01*
X95760203Y-188906341D01*
X95776318Y-188966481D01*
X95843197Y-189082320D01*
X95937779Y-189176902D01*
X96053618Y-189243781D01*
X96113756Y-189259894D01*
X95452184Y-189921465D01*
X95452184Y-189921466D01*
X95515942Y-189967788D01*
X95712288Y-190067832D01*
X95921863Y-190135926D01*
X96139518Y-190170400D01*
X96359880Y-190170400D01*
X96577534Y-190135926D01*
X96787109Y-190067832D01*
X96983459Y-189967786D01*
X97047212Y-189921466D01*
X97047213Y-189921466D01*
X96385641Y-189259895D01*
X96445780Y-189243781D01*
X96561619Y-189176902D01*
X96656201Y-189082320D01*
X96723080Y-188966481D01*
X96739194Y-188906341D01*
X97400765Y-189567914D01*
X97400765Y-189567913D01*
X97447085Y-189504160D01*
X97547131Y-189307810D01*
X97615225Y-189098235D01*
X97649699Y-188880581D01*
X97649699Y-188672551D01*
X97669384Y-188605512D01*
X97722188Y-188559757D01*
X97791346Y-188549813D01*
X97854902Y-188578838D01*
X97861380Y-188584870D01*
X100816484Y-191539974D01*
X100849969Y-191601297D01*
X100851277Y-191647047D01*
X100849199Y-191660171D01*
X100849199Y-191880621D01*
X100883684Y-192098352D01*
X100951802Y-192308003D01*
X100951803Y-192308006D01*
X101051886Y-192504425D01*
X101181451Y-192682758D01*
X101181455Y-192682763D01*
X101337335Y-192838643D01*
X101337340Y-192838647D01*
X101492891Y-192951660D01*
X101515677Y-192968215D01*
X101637291Y-193030181D01*
X101712092Y-193068295D01*
X101712095Y-193068296D01*
X101816920Y-193102355D01*
X101921748Y-193136415D01*
X102139477Y-193170900D01*
X102139478Y-193170900D01*
X102359920Y-193170900D01*
X102359921Y-193170900D01*
X102577650Y-193136415D01*
X102787305Y-193068295D01*
X102983721Y-192968215D01*
X103162064Y-192838642D01*
X103317941Y-192682765D01*
X103447514Y-192504422D01*
X103547594Y-192308006D01*
X103615714Y-192098351D01*
X103650199Y-191880622D01*
X103650199Y-191660178D01*
X103615714Y-191442449D01*
X103547594Y-191232794D01*
X103547594Y-191232793D01*
X103512936Y-191164775D01*
X103447514Y-191036378D01*
X103430959Y-191013592D01*
X103317946Y-190858041D01*
X103317942Y-190858036D01*
X103267770Y-190807864D01*
X103234285Y-190746541D01*
X103239269Y-190676849D01*
X103281141Y-190620916D01*
X103312119Y-190604001D01*
X103392025Y-190574198D01*
X103392025Y-190574197D01*
X103392030Y-190574196D01*
X103507245Y-190487946D01*
X103593495Y-190372731D01*
X103643790Y-190237883D01*
X103650199Y-190178273D01*
X103650198Y-188282528D01*
X103643790Y-188222917D01*
X103593495Y-188088069D01*
X103593494Y-188088068D01*
X103593492Y-188088064D01*
X103507246Y-187972855D01*
X103507243Y-187972852D01*
X103392034Y-187886606D01*
X103392027Y-187886602D01*
X103257181Y-187836308D01*
X103257182Y-187836308D01*
X103197582Y-187829901D01*
X103197580Y-187829900D01*
X103197572Y-187829900D01*
X103197564Y-187829900D01*
X102103350Y-187829900D01*
X102036311Y-187810215D01*
X102015669Y-187793581D01*
X97785518Y-183563430D01*
X97752033Y-183502107D01*
X97749199Y-183475749D01*
X97749199Y-181875475D01*
X97768884Y-181808436D01*
X97821688Y-181762681D01*
X97890846Y-181752737D01*
X97911519Y-181757545D01*
X97945157Y-181768475D01*
X97945160Y-181768475D01*
X97945165Y-181768477D01*
X98147347Y-181800500D01*
X98147348Y-181800500D01*
X98352050Y-181800500D01*
X98352051Y-181800500D01*
X98554233Y-181768477D01*
X98748918Y-181705220D01*
X98931309Y-181612287D01*
X99024289Y-181544732D01*
X99096912Y-181491971D01*
X99096914Y-181491968D01*
X99096918Y-181491966D01*
X99202065Y-181386819D01*
X99263388Y-181353334D01*
X99289746Y-181350500D01*
X104083768Y-181350500D01*
X104083769Y-181350499D01*
X104248082Y-181317816D01*
X104295890Y-181298013D01*
X104402863Y-181253704D01*
X104542162Y-181160627D01*
X105537518Y-180165269D01*
X105598841Y-180131785D01*
X105668532Y-180136769D01*
X105724466Y-180178640D01*
X105748883Y-180244105D01*
X105749199Y-180252951D01*
X105749199Y-196295500D01*
X105729514Y-196362539D01*
X105676710Y-196408294D01*
X105625199Y-196419500D01*
X80874199Y-196419500D01*
X80807160Y-196399815D01*
X80761405Y-196347011D01*
X80750199Y-196295500D01*
X80750199Y-192809778D01*
X87229199Y-192809778D01*
X87229199Y-193030221D01*
X87263684Y-193247952D01*
X87331802Y-193457603D01*
X87331803Y-193457606D01*
X87399821Y-193591096D01*
X87426828Y-193644100D01*
X87431886Y-193654025D01*
X87561451Y-193832358D01*
X87561455Y-193832363D01*
X87717335Y-193988243D01*
X87717340Y-193988247D01*
X87831331Y-194071065D01*
X87895677Y-194117815D01*
X88024074Y-194183237D01*
X88092092Y-194217895D01*
X88092095Y-194217896D01*
X88196920Y-194251955D01*
X88301748Y-194286015D01*
X88519477Y-194320500D01*
X88519478Y-194320500D01*
X88739920Y-194320500D01*
X88739921Y-194320500D01*
X88957650Y-194286015D01*
X89167305Y-194217895D01*
X89363721Y-194117815D01*
X89542064Y-193988242D01*
X89697941Y-193832365D01*
X89781385Y-193717514D01*
X89799381Y-193692745D01*
X89854710Y-193650079D01*
X89924324Y-193644100D01*
X89986119Y-193676705D01*
X90000017Y-193692745D01*
X90101451Y-193832358D01*
X90101455Y-193832363D01*
X90257335Y-193988243D01*
X90257340Y-193988247D01*
X90371331Y-194071065D01*
X90435677Y-194117815D01*
X90564074Y-194183237D01*
X90632092Y-194217895D01*
X90632095Y-194217896D01*
X90736920Y-194251955D01*
X90841748Y-194286015D01*
X91059477Y-194320500D01*
X91059478Y-194320500D01*
X91279920Y-194320500D01*
X91279921Y-194320500D01*
X91497650Y-194286015D01*
X91707305Y-194217895D01*
X91903721Y-194117815D01*
X92082064Y-193988242D01*
X92237941Y-193832365D01*
X92321385Y-193717514D01*
X92339381Y-193692745D01*
X92394710Y-193650079D01*
X92464324Y-193644100D01*
X92526119Y-193676705D01*
X92540017Y-193692745D01*
X92641451Y-193832358D01*
X92641455Y-193832363D01*
X92797335Y-193988243D01*
X92797340Y-193988247D01*
X92911331Y-194071065D01*
X92975677Y-194117815D01*
X93104074Y-194183237D01*
X93172092Y-194217895D01*
X93172095Y-194217896D01*
X93276920Y-194251955D01*
X93381748Y-194286015D01*
X93599477Y-194320500D01*
X93599478Y-194320500D01*
X93819920Y-194320500D01*
X93819921Y-194320500D01*
X94037650Y-194286015D01*
X94247305Y-194217895D01*
X94443721Y-194117815D01*
X94622064Y-193988242D01*
X94777941Y-193832365D01*
X94879690Y-193692317D01*
X94935019Y-193649653D01*
X95004632Y-193643674D01*
X95066428Y-193676279D01*
X95080327Y-193692319D01*
X95098631Y-193717513D01*
X95760203Y-193055941D01*
X95776318Y-193116081D01*
X95843197Y-193231920D01*
X95937779Y-193326502D01*
X96053618Y-193393381D01*
X96113756Y-193409494D01*
X95452184Y-194071065D01*
X95452184Y-194071066D01*
X95515942Y-194117388D01*
X95712288Y-194217432D01*
X95921863Y-194285526D01*
X96139518Y-194320000D01*
X96359880Y-194320000D01*
X96577534Y-194285526D01*
X96787109Y-194217432D01*
X96983459Y-194117386D01*
X97047212Y-194071066D01*
X97047213Y-194071066D01*
X96385641Y-193409495D01*
X96445780Y-193393381D01*
X96561619Y-193326502D01*
X96656201Y-193231920D01*
X96723080Y-193116081D01*
X96739193Y-193055942D01*
X97400765Y-193717514D01*
X97400765Y-193717513D01*
X97447085Y-193653760D01*
X97547131Y-193457410D01*
X97615225Y-193247835D01*
X97649699Y-193030181D01*
X97649699Y-192809818D01*
X97615225Y-192592164D01*
X97547131Y-192382589D01*
X97447087Y-192186243D01*
X97400765Y-192122485D01*
X97400764Y-192122485D01*
X96739193Y-192784056D01*
X96723080Y-192723919D01*
X96656201Y-192608080D01*
X96561619Y-192513498D01*
X96445780Y-192446619D01*
X96385639Y-192430504D01*
X97047212Y-191768932D01*
X96983455Y-191722611D01*
X96787109Y-191622567D01*
X96577534Y-191554473D01*
X96359880Y-191520000D01*
X96139518Y-191520000D01*
X95921863Y-191554473D01*
X95712288Y-191622567D01*
X95515932Y-191722616D01*
X95452184Y-191768931D01*
X95452184Y-191768932D01*
X96113756Y-192430504D01*
X96053618Y-192446619D01*
X95937779Y-192513498D01*
X95843197Y-192608080D01*
X95776318Y-192723919D01*
X95760203Y-192784057D01*
X95098631Y-192122485D01*
X95098629Y-192122485D01*
X95080325Y-192147679D01*
X95024995Y-192190345D01*
X94955382Y-192196324D01*
X94893587Y-192163718D01*
X94879689Y-192147679D01*
X94777946Y-192007640D01*
X94622062Y-191851756D01*
X94622057Y-191851752D01*
X94443724Y-191722187D01*
X94443723Y-191722186D01*
X94443721Y-191722185D01*
X94380795Y-191690122D01*
X94247305Y-191622104D01*
X94247302Y-191622103D01*
X94037651Y-191553985D01*
X93928785Y-191536742D01*
X93819921Y-191519500D01*
X93599477Y-191519500D01*
X93526900Y-191530995D01*
X93381746Y-191553985D01*
X93172095Y-191622103D01*
X93172092Y-191622104D01*
X92975673Y-191722187D01*
X92797340Y-191851752D01*
X92797335Y-191851756D01*
X92641455Y-192007636D01*
X92641451Y-192007641D01*
X92540017Y-192147254D01*
X92484687Y-192189920D01*
X92415074Y-192195899D01*
X92353279Y-192163293D01*
X92339381Y-192147254D01*
X92237946Y-192007641D01*
X92237942Y-192007636D01*
X92082062Y-191851756D01*
X92082057Y-191851752D01*
X91903724Y-191722187D01*
X91903723Y-191722186D01*
X91903721Y-191722185D01*
X91840795Y-191690122D01*
X91707305Y-191622104D01*
X91707302Y-191622103D01*
X91497651Y-191553985D01*
X91388785Y-191536742D01*
X91279921Y-191519500D01*
X91059477Y-191519500D01*
X90986900Y-191530995D01*
X90841746Y-191553985D01*
X90632095Y-191622103D01*
X90632092Y-191622104D01*
X90435673Y-191722187D01*
X90257340Y-191851752D01*
X90257335Y-191851756D01*
X90101455Y-192007636D01*
X90101451Y-192007641D01*
X90000017Y-192147254D01*
X89944687Y-192189920D01*
X89875074Y-192195899D01*
X89813279Y-192163293D01*
X89799381Y-192147254D01*
X89697946Y-192007641D01*
X89697942Y-192007636D01*
X89542062Y-191851756D01*
X89542057Y-191851752D01*
X89363724Y-191722187D01*
X89363723Y-191722186D01*
X89363721Y-191722185D01*
X89300795Y-191690122D01*
X89167305Y-191622104D01*
X89167302Y-191622103D01*
X88957651Y-191553985D01*
X88848785Y-191536742D01*
X88739921Y-191519500D01*
X88519477Y-191519500D01*
X88446900Y-191530995D01*
X88301746Y-191553985D01*
X88092095Y-191622103D01*
X88092092Y-191622104D01*
X87895673Y-191722187D01*
X87717340Y-191851752D01*
X87717335Y-191851756D01*
X87561455Y-192007636D01*
X87561451Y-192007641D01*
X87431886Y-192185974D01*
X87331803Y-192382393D01*
X87331802Y-192382396D01*
X87263684Y-192592047D01*
X87229199Y-192809778D01*
X80750199Y-192809778D01*
X80750199Y-160237648D01*
X85949199Y-160237648D01*
X85949199Y-160442351D01*
X85981221Y-160644534D01*
X86044480Y-160839223D01*
X86137414Y-161021613D01*
X86257727Y-161187213D01*
X86402485Y-161331971D01*
X86557448Y-161444556D01*
X86568089Y-161452287D01*
X86684306Y-161511503D01*
X86750475Y-161545218D01*
X86750477Y-161545218D01*
X86750480Y-161545220D01*
X86854836Y-161579127D01*
X86945164Y-161608477D01*
X87046256Y-161624488D01*
X87147347Y-161640500D01*
X87147348Y-161640500D01*
X87352050Y-161640500D01*
X87352051Y-161640500D01*
X87554233Y-161608477D01*
X87748918Y-161545220D01*
X87931309Y-161452287D01*
X88024289Y-161384732D01*
X88096912Y-161331971D01*
X88096914Y-161331968D01*
X88096918Y-161331966D01*
X88111236Y-161317648D01*
X93199199Y-161317648D01*
X93199199Y-161522351D01*
X93231221Y-161724534D01*
X93294480Y-161919223D01*
X93387414Y-162101613D01*
X93507727Y-162267213D01*
X93652485Y-162411971D01*
X93807448Y-162524556D01*
X93818089Y-162532287D01*
X93934306Y-162591503D01*
X94000475Y-162625218D01*
X94000477Y-162625218D01*
X94000480Y-162625220D01*
X94104836Y-162659127D01*
X94195164Y-162688477D01*
X94296256Y-162704488D01*
X94397347Y-162720500D01*
X94397348Y-162720500D01*
X94602050Y-162720500D01*
X94602051Y-162720500D01*
X94804233Y-162688477D01*
X94998918Y-162625220D01*
X95181309Y-162532287D01*
X95274289Y-162464732D01*
X95346912Y-162411971D01*
X95346914Y-162411968D01*
X95346918Y-162411966D01*
X95491665Y-162267219D01*
X95491667Y-162267215D01*
X95491670Y-162267213D01*
X95544431Y-162194590D01*
X95611986Y-162101610D01*
X95704919Y-161919219D01*
X95768176Y-161724534D01*
X95800199Y-161522352D01*
X95800199Y-161317648D01*
X95768176Y-161115466D01*
X95704919Y-160920781D01*
X95704917Y-160920778D01*
X95704917Y-160920776D01*
X95663361Y-160839219D01*
X95611986Y-160738390D01*
X95604255Y-160727749D01*
X95491670Y-160572786D01*
X95346912Y-160428028D01*
X95181312Y-160307715D01*
X95181311Y-160307714D01*
X95181309Y-160307713D01*
X95124352Y-160278691D01*
X94998922Y-160214781D01*
X94804233Y-160151522D01*
X94629694Y-160123878D01*
X94602051Y-160119500D01*
X94397347Y-160119500D01*
X94373028Y-160123351D01*
X94195164Y-160151522D01*
X94000475Y-160214781D01*
X93818085Y-160307715D01*
X93652485Y-160428028D01*
X93507727Y-160572786D01*
X93387414Y-160738386D01*
X93294480Y-160920776D01*
X93231221Y-161115465D01*
X93199199Y-161317648D01*
X88111236Y-161317648D01*
X88241665Y-161187219D01*
X88241667Y-161187215D01*
X88241670Y-161187213D01*
X88294431Y-161114590D01*
X88361986Y-161021610D01*
X88454919Y-160839219D01*
X88518176Y-160644534D01*
X88550199Y-160442352D01*
X88550199Y-160237648D01*
X88518176Y-160035466D01*
X88454919Y-159840781D01*
X88454917Y-159840778D01*
X88454917Y-159840776D01*
X88421202Y-159774607D01*
X88361986Y-159658390D01*
X88354255Y-159647749D01*
X88241670Y-159492786D01*
X88096912Y-159348028D01*
X87931312Y-159227715D01*
X87931311Y-159227714D01*
X87931309Y-159227713D01*
X87874352Y-159198691D01*
X87748922Y-159134781D01*
X87554233Y-159071522D01*
X87379694Y-159043878D01*
X87352051Y-159039500D01*
X87147347Y-159039500D01*
X87123028Y-159043351D01*
X86945164Y-159071522D01*
X86750475Y-159134781D01*
X86568085Y-159227715D01*
X86402485Y-159348028D01*
X86257727Y-159492786D01*
X86137414Y-159658386D01*
X86044480Y-159840776D01*
X85981221Y-160035465D01*
X85949199Y-160237648D01*
X80750199Y-160237648D01*
X80750199Y-154628148D01*
X85574048Y-154628148D01*
X85574048Y-154832851D01*
X85606070Y-155035034D01*
X85669329Y-155229723D01*
X85733239Y-155355153D01*
X85762133Y-155411859D01*
X85762263Y-155412113D01*
X85882576Y-155577713D01*
X86027334Y-155722471D01*
X86192936Y-155842786D01*
X86246376Y-155870016D01*
X86297171Y-155917990D01*
X86313966Y-155985812D01*
X86291428Y-156051946D01*
X86246376Y-156090984D01*
X86192936Y-156118213D01*
X86027334Y-156238528D01*
X85882576Y-156383286D01*
X85762263Y-156548886D01*
X85669329Y-156731276D01*
X85606070Y-156925965D01*
X85574048Y-157128148D01*
X85574048Y-157332851D01*
X85606070Y-157535034D01*
X85669329Y-157729723D01*
X85762263Y-157912113D01*
X85882576Y-158077713D01*
X86027334Y-158222471D01*
X86182297Y-158335056D01*
X86192938Y-158342787D01*
X86309155Y-158402003D01*
X86375324Y-158435718D01*
X86375326Y-158435718D01*
X86375329Y-158435720D01*
X86479685Y-158469627D01*
X86570013Y-158498977D01*
X86671105Y-158514988D01*
X86772196Y-158531000D01*
X86772197Y-158531000D01*
X86976899Y-158531000D01*
X86976900Y-158531000D01*
X87179082Y-158498977D01*
X87373767Y-158435720D01*
X87556158Y-158342787D01*
X87649138Y-158275232D01*
X87721761Y-158222471D01*
X87721763Y-158222468D01*
X87721767Y-158222466D01*
X87866514Y-158077719D01*
X87866516Y-158077715D01*
X87866519Y-158077713D01*
X87919280Y-158005090D01*
X87986835Y-157912110D01*
X88079768Y-157729719D01*
X88143025Y-157535034D01*
X88175048Y-157332852D01*
X88175048Y-157128148D01*
X88143025Y-156925966D01*
X88079768Y-156731281D01*
X88079766Y-156731278D01*
X88079766Y-156731276D01*
X88046051Y-156665107D01*
X87986835Y-156548890D01*
X87979104Y-156538249D01*
X87866519Y-156383286D01*
X87721761Y-156238528D01*
X87556161Y-156118215D01*
X87556160Y-156118214D01*
X87556158Y-156118213D01*
X87502719Y-156090984D01*
X87451924Y-156043010D01*
X87435129Y-155975189D01*
X87457666Y-155909054D01*
X87502720Y-155870015D01*
X87556158Y-155842787D01*
X87649138Y-155775232D01*
X87721761Y-155722471D01*
X87721763Y-155722468D01*
X87721767Y-155722466D01*
X87866514Y-155577719D01*
X87866516Y-155577715D01*
X87866519Y-155577713D01*
X87919280Y-155505090D01*
X87986835Y-155412110D01*
X88079768Y-155229719D01*
X88143025Y-155035034D01*
X88175048Y-154832852D01*
X88175048Y-154628148D01*
X88166805Y-154576106D01*
X88143025Y-154425965D01*
X88112006Y-154330500D01*
X88079768Y-154231281D01*
X88079766Y-154231278D01*
X88079766Y-154231276D01*
X87986967Y-154049150D01*
X87986835Y-154048890D01*
X87954640Y-154004577D01*
X87866519Y-153883286D01*
X87721761Y-153738528D01*
X87556161Y-153618215D01*
X87556160Y-153618214D01*
X87556158Y-153618213D01*
X87499201Y-153589191D01*
X87373771Y-153525281D01*
X87179082Y-153462022D01*
X87004543Y-153434378D01*
X86976900Y-153430000D01*
X86772196Y-153430000D01*
X86747877Y-153433851D01*
X86570013Y-153462022D01*
X86375324Y-153525281D01*
X86192934Y-153618215D01*
X86027334Y-153738528D01*
X85882576Y-153883286D01*
X85762263Y-154048886D01*
X85669329Y-154231276D01*
X85606070Y-154425965D01*
X85574048Y-154628148D01*
X80750199Y-154628148D01*
X80750199Y-150299658D01*
X86187299Y-150299658D01*
X86187299Y-150529141D01*
X86212245Y-150718615D01*
X86217251Y-150756638D01*
X86274742Y-150971199D01*
X86276641Y-150978287D01*
X86364449Y-151190276D01*
X86364456Y-151190290D01*
X86479191Y-151389017D01*
X86618880Y-151571061D01*
X86618888Y-151571070D01*
X86781129Y-151733311D01*
X86781137Y-151733318D01*
X86781138Y-151733319D01*
X86814125Y-151758631D01*
X86963181Y-151873007D01*
X86963184Y-151873008D01*
X86963187Y-151873011D01*
X87161911Y-151987744D01*
X87161916Y-151987746D01*
X87161922Y-151987749D01*
X87253279Y-152025590D01*
X87373912Y-152075558D01*
X87595561Y-152134948D01*
X87823065Y-152164900D01*
X87823072Y-152164900D01*
X88052526Y-152164900D01*
X88052533Y-152164900D01*
X88280037Y-152134948D01*
X88501686Y-152075558D01*
X88713687Y-151987744D01*
X88912411Y-151873011D01*
X89094460Y-151733319D01*
X89094464Y-151733314D01*
X89094469Y-151733311D01*
X89256710Y-151571070D01*
X89256713Y-151571065D01*
X89256718Y-151571061D01*
X89396410Y-151389012D01*
X89511143Y-151190288D01*
X89598957Y-150978287D01*
X89658347Y-150756638D01*
X89688299Y-150529134D01*
X89688299Y-150300237D01*
X91567299Y-150300237D01*
X91567299Y-150528562D01*
X91603014Y-150754060D01*
X91673569Y-150971203D01*
X91724591Y-151071338D01*
X91777220Y-151174628D01*
X91911420Y-151359337D01*
X92072862Y-151520779D01*
X92257571Y-151654979D01*
X92353683Y-151703950D01*
X92460995Y-151758629D01*
X92460997Y-151758629D01*
X92461000Y-151758631D01*
X92577391Y-151796449D01*
X92678138Y-151829184D01*
X92903637Y-151864900D01*
X92903642Y-151864900D01*
X93131961Y-151864900D01*
X93357459Y-151829184D01*
X93574598Y-151758631D01*
X93778027Y-151654979D01*
X93962736Y-151520779D01*
X94124178Y-151359337D01*
X94258378Y-151174628D01*
X94362030Y-150971199D01*
X94432583Y-150754060D01*
X94468208Y-150529134D01*
X94468299Y-150528562D01*
X94468299Y-150300237D01*
X94432583Y-150074739D01*
X94362028Y-149857596D01*
X94258377Y-149654171D01*
X94246998Y-149638509D01*
X94124178Y-149469463D01*
X93962736Y-149308021D01*
X93778027Y-149173821D01*
X93574602Y-149070170D01*
X93357459Y-148999615D01*
X93131961Y-148963900D01*
X93131956Y-148963900D01*
X92903642Y-148963900D01*
X92903637Y-148963900D01*
X92678138Y-148999615D01*
X92460995Y-149070170D01*
X92257570Y-149173821D01*
X92072860Y-149308022D01*
X91911421Y-149469461D01*
X91777220Y-149654171D01*
X91673569Y-149857596D01*
X91603014Y-150074739D01*
X91567299Y-150300237D01*
X89688299Y-150300237D01*
X89688299Y-150299666D01*
X89658347Y-150072162D01*
X89598957Y-149850513D01*
X89517630Y-149654172D01*
X89511148Y-149638523D01*
X89511145Y-149638517D01*
X89511143Y-149638512D01*
X89396410Y-149439788D01*
X89396407Y-149439785D01*
X89396406Y-149439782D01*
X89256717Y-149257738D01*
X89256710Y-149257730D01*
X89094469Y-149095489D01*
X89094460Y-149095481D01*
X88912416Y-148955792D01*
X88713689Y-148841057D01*
X88713675Y-148841050D01*
X88501686Y-148753242D01*
X88280037Y-148693852D01*
X88242014Y-148688846D01*
X88052540Y-148663900D01*
X88052533Y-148663900D01*
X87823065Y-148663900D01*
X87823057Y-148663900D01*
X87606514Y-148692409D01*
X87595561Y-148693852D01*
X87501875Y-148718954D01*
X87373911Y-148753242D01*
X87161922Y-148841050D01*
X87161908Y-148841057D01*
X86963181Y-148955792D01*
X86781137Y-149095481D01*
X86618880Y-149257738D01*
X86479191Y-149439782D01*
X86364456Y-149638509D01*
X86364449Y-149638523D01*
X86276641Y-149850512D01*
X86217252Y-150072159D01*
X86217250Y-150072170D01*
X86187299Y-150299658D01*
X80750199Y-150299658D01*
X80750199Y-148044500D01*
X80769884Y-147977461D01*
X80822688Y-147931706D01*
X80874199Y-147920500D01*
X105625199Y-147920500D01*
X105692238Y-147940185D01*
G37*
%TD.AperFunction*%
%TD*%
%TA.AperFunction,Conductor*%
%TO.N,LP160*%
G36*
X77942539Y-119519685D02*
G01*
X77988294Y-119572489D01*
X77999500Y-119624000D01*
X77999500Y-161376000D01*
X77979815Y-161443039D01*
X77927011Y-161488794D01*
X77875500Y-161500000D01*
X76334150Y-161500000D01*
X76267111Y-161480315D01*
X76246469Y-161463681D01*
X71103247Y-156320457D01*
X71020438Y-156237648D01*
X72699500Y-156237648D01*
X72699500Y-156442351D01*
X72731522Y-156644534D01*
X72794781Y-156839223D01*
X72838179Y-156924394D01*
X72873026Y-156992786D01*
X72887715Y-157021613D01*
X73008028Y-157187213D01*
X73152786Y-157331971D01*
X73307749Y-157444556D01*
X73318390Y-157452287D01*
X73434607Y-157511503D01*
X73500776Y-157545218D01*
X73500778Y-157545218D01*
X73500781Y-157545220D01*
X73539237Y-157557715D01*
X73695465Y-157608477D01*
X73796557Y-157624488D01*
X73897648Y-157640500D01*
X73897649Y-157640500D01*
X74102351Y-157640500D01*
X74102352Y-157640500D01*
X74304534Y-157608477D01*
X74499219Y-157545220D01*
X74681610Y-157452287D01*
X74774590Y-157384732D01*
X74847213Y-157331971D01*
X74847215Y-157331968D01*
X74847219Y-157331966D01*
X74991966Y-157187219D01*
X74991968Y-157187215D01*
X74991971Y-157187213D01*
X75078814Y-157067682D01*
X75112287Y-157021610D01*
X75205220Y-156839219D01*
X75268477Y-156644534D01*
X75300500Y-156442352D01*
X75300500Y-156237648D01*
X75277418Y-156091917D01*
X75268477Y-156035465D01*
X75225114Y-155902009D01*
X75205220Y-155840781D01*
X75205218Y-155840778D01*
X75205218Y-155840776D01*
X75171503Y-155774607D01*
X75112287Y-155658390D01*
X75104556Y-155647749D01*
X74991971Y-155492786D01*
X74847213Y-155348028D01*
X74681613Y-155227715D01*
X74681612Y-155227714D01*
X74681610Y-155227713D01*
X74624653Y-155198691D01*
X74499223Y-155134781D01*
X74304534Y-155071522D01*
X74129995Y-155043878D01*
X74102352Y-155039500D01*
X73897648Y-155039500D01*
X73873329Y-155043351D01*
X73695465Y-155071522D01*
X73500776Y-155134781D01*
X73318386Y-155227715D01*
X73152786Y-155348028D01*
X73008028Y-155492786D01*
X72887715Y-155658386D01*
X72794781Y-155840776D01*
X72731522Y-156035465D01*
X72699500Y-156237648D01*
X71020438Y-156237648D01*
X69699856Y-154917066D01*
X69666371Y-154855743D01*
X69671355Y-154786051D01*
X69713227Y-154730118D01*
X69768137Y-154706912D01*
X69884534Y-154688477D01*
X70079219Y-154625220D01*
X70261610Y-154532287D01*
X70354590Y-154464732D01*
X70427213Y-154411971D01*
X70427215Y-154411968D01*
X70427219Y-154411966D01*
X70571966Y-154267219D01*
X70571968Y-154267215D01*
X70571971Y-154267213D01*
X70639910Y-154173701D01*
X70692287Y-154101610D01*
X70785220Y-153919219D01*
X70848477Y-153724534D01*
X70880500Y-153522352D01*
X70880500Y-153317648D01*
X70848477Y-153115466D01*
X70785220Y-152920781D01*
X70785218Y-152920778D01*
X70785218Y-152920776D01*
X70751503Y-152854607D01*
X70692287Y-152738390D01*
X70684556Y-152727749D01*
X70571971Y-152572786D01*
X70427213Y-152428028D01*
X70261613Y-152307715D01*
X70261612Y-152307714D01*
X70261610Y-152307713D01*
X70204653Y-152278691D01*
X70079223Y-152214781D01*
X69884534Y-152151522D01*
X69709995Y-152123878D01*
X69682352Y-152119500D01*
X69477648Y-152119500D01*
X69453329Y-152123351D01*
X69275465Y-152151522D01*
X69080776Y-152214781D01*
X68898386Y-152307715D01*
X68732786Y-152428028D01*
X68732782Y-152428032D01*
X68627634Y-152533181D01*
X68566311Y-152566666D01*
X68539953Y-152569500D01*
X63903651Y-152569500D01*
X63836612Y-152549815D01*
X63815970Y-152533181D01*
X57836819Y-146554030D01*
X57822115Y-146527102D01*
X57805523Y-146501284D01*
X57804631Y-146495083D01*
X57803334Y-146492707D01*
X57800500Y-146466349D01*
X57800500Y-146397648D01*
X60199500Y-146397648D01*
X60199500Y-146602351D01*
X60231522Y-146804534D01*
X60294781Y-146999223D01*
X60387715Y-147181613D01*
X60508028Y-147347213D01*
X60652786Y-147491971D01*
X60807749Y-147604556D01*
X60818390Y-147612287D01*
X60934607Y-147671503D01*
X61000776Y-147705218D01*
X61000778Y-147705218D01*
X61000781Y-147705220D01*
X61052822Y-147722129D01*
X61195465Y-147768477D01*
X61296557Y-147784488D01*
X61397648Y-147800500D01*
X61397649Y-147800500D01*
X61602351Y-147800500D01*
X61602352Y-147800500D01*
X61804534Y-147768477D01*
X61999219Y-147705220D01*
X62181610Y-147612287D01*
X62281466Y-147539738D01*
X62347213Y-147491971D01*
X62347215Y-147491968D01*
X62347219Y-147491966D01*
X62491966Y-147347219D01*
X62491968Y-147347215D01*
X62491971Y-147347213D01*
X62544732Y-147274590D01*
X62612287Y-147181610D01*
X62705220Y-146999219D01*
X62768477Y-146804534D01*
X62800500Y-146602352D01*
X62800500Y-146397648D01*
X65199500Y-146397648D01*
X65199500Y-146602351D01*
X65231522Y-146804534D01*
X65294781Y-146999223D01*
X65387715Y-147181613D01*
X65508028Y-147347213D01*
X65652786Y-147491971D01*
X65807749Y-147604556D01*
X65818390Y-147612287D01*
X65934607Y-147671503D01*
X66000776Y-147705218D01*
X66000778Y-147705218D01*
X66000781Y-147705220D01*
X66052822Y-147722129D01*
X66195465Y-147768477D01*
X66296557Y-147784488D01*
X66397648Y-147800500D01*
X66397649Y-147800500D01*
X66602351Y-147800500D01*
X66602352Y-147800500D01*
X66804534Y-147768477D01*
X66999219Y-147705220D01*
X67181610Y-147612287D01*
X67281466Y-147539738D01*
X67347213Y-147491971D01*
X67347215Y-147491968D01*
X67347219Y-147491966D01*
X67491966Y-147347219D01*
X67491968Y-147347215D01*
X67491971Y-147347213D01*
X67544732Y-147274590D01*
X67612287Y-147181610D01*
X67705220Y-146999219D01*
X67768477Y-146804534D01*
X67800500Y-146602352D01*
X67800500Y-146397648D01*
X67768477Y-146195466D01*
X67705220Y-146000781D01*
X67705218Y-146000778D01*
X67705218Y-146000776D01*
X67660096Y-145912221D01*
X67612287Y-145818390D01*
X67604556Y-145807749D01*
X67491971Y-145652786D01*
X67347213Y-145508028D01*
X67181613Y-145387715D01*
X67181612Y-145387714D01*
X67181610Y-145387713D01*
X67124653Y-145358691D01*
X66999223Y-145294781D01*
X66804534Y-145231522D01*
X66629995Y-145203878D01*
X66602352Y-145199500D01*
X66397648Y-145199500D01*
X66373329Y-145203351D01*
X66195465Y-145231522D01*
X66000776Y-145294781D01*
X65818386Y-145387715D01*
X65652786Y-145508028D01*
X65508028Y-145652786D01*
X65387715Y-145818386D01*
X65294781Y-146000776D01*
X65231522Y-146195465D01*
X65199500Y-146397648D01*
X62800500Y-146397648D01*
X62768477Y-146195466D01*
X62705220Y-146000781D01*
X62705218Y-146000778D01*
X62705218Y-146000776D01*
X62660096Y-145912221D01*
X62612287Y-145818390D01*
X62604556Y-145807749D01*
X62491971Y-145652786D01*
X62347213Y-145508028D01*
X62181613Y-145387715D01*
X62181612Y-145387714D01*
X62181610Y-145387713D01*
X62124653Y-145358691D01*
X61999223Y-145294781D01*
X61804534Y-145231522D01*
X61629995Y-145203878D01*
X61602352Y-145199500D01*
X61397648Y-145199500D01*
X61373329Y-145203351D01*
X61195465Y-145231522D01*
X61000776Y-145294781D01*
X60818386Y-145387715D01*
X60652786Y-145508028D01*
X60508028Y-145652786D01*
X60387715Y-145818386D01*
X60294781Y-146000776D01*
X60231522Y-146195465D01*
X60199500Y-146397648D01*
X57800500Y-146397648D01*
X57768477Y-146195465D01*
X57705218Y-146000776D01*
X57660096Y-145912221D01*
X57612287Y-145818390D01*
X57604556Y-145807749D01*
X57491971Y-145652786D01*
X57347213Y-145508028D01*
X57181613Y-145387715D01*
X57181612Y-145387714D01*
X57181610Y-145387713D01*
X57124653Y-145358691D01*
X56999223Y-145294781D01*
X56804534Y-145231522D01*
X56629995Y-145203878D01*
X56602352Y-145199500D01*
X56397648Y-145199500D01*
X56373329Y-145203351D01*
X56195465Y-145231522D01*
X56000776Y-145294781D01*
X55818386Y-145387715D01*
X55652786Y-145508028D01*
X55508028Y-145652786D01*
X55387715Y-145818386D01*
X55294781Y-146000776D01*
X55231522Y-146195465D01*
X55199500Y-146397648D01*
X55199500Y-146602351D01*
X55231522Y-146804534D01*
X55294781Y-146999223D01*
X55387715Y-147181613D01*
X55508028Y-147347213D01*
X55652786Y-147491971D01*
X55807749Y-147604556D01*
X55818390Y-147612287D01*
X55934607Y-147671503D01*
X56000776Y-147705218D01*
X56000778Y-147705218D01*
X56000781Y-147705220D01*
X56052822Y-147722129D01*
X56195465Y-147768477D01*
X56296557Y-147784488D01*
X56397648Y-147800500D01*
X56397649Y-147800500D01*
X56602344Y-147800500D01*
X56602352Y-147800500D01*
X56604992Y-147800081D01*
X56606004Y-147800212D01*
X56607203Y-147800118D01*
X56607222Y-147800369D01*
X56674282Y-147809027D01*
X56712082Y-147834871D01*
X62957834Y-154080624D01*
X62957838Y-154080627D01*
X63097132Y-154173701D01*
X63097133Y-154173701D01*
X63097137Y-154173704D01*
X63204110Y-154218013D01*
X63251918Y-154237816D01*
X63399708Y-154267213D01*
X63416228Y-154270499D01*
X63416232Y-154270500D01*
X63416233Y-154270500D01*
X68539953Y-154270500D01*
X68569393Y-154279144D01*
X68599380Y-154285668D01*
X68604395Y-154289422D01*
X68606992Y-154290185D01*
X68627634Y-154306819D01*
X68678634Y-154357819D01*
X68712119Y-154419142D01*
X68707135Y-154488834D01*
X68665263Y-154544767D01*
X68599799Y-154569184D01*
X68590953Y-154569500D01*
X61823650Y-154569500D01*
X61756611Y-154549815D01*
X61735969Y-154533181D01*
X60756819Y-153554030D01*
X60723334Y-153492707D01*
X60720500Y-153466349D01*
X60720500Y-153317648D01*
X60688477Y-153115465D01*
X60625218Y-152920776D01*
X60591503Y-152854607D01*
X60532287Y-152738390D01*
X60524556Y-152727749D01*
X60411971Y-152572786D01*
X60267213Y-152428028D01*
X60101613Y-152307715D01*
X60101612Y-152307714D01*
X60101610Y-152307713D01*
X60044653Y-152278691D01*
X59919223Y-152214781D01*
X59724534Y-152151522D01*
X59549995Y-152123878D01*
X59522352Y-152119500D01*
X59317648Y-152119500D01*
X59293329Y-152123351D01*
X59115465Y-152151522D01*
X58920776Y-152214781D01*
X58738386Y-152307715D01*
X58572786Y-152428028D01*
X58428028Y-152572786D01*
X58307715Y-152738386D01*
X58214781Y-152920776D01*
X58151522Y-153115465D01*
X58119500Y-153317648D01*
X58119500Y-153522351D01*
X58151522Y-153724534D01*
X58214781Y-153919223D01*
X58276186Y-154039734D01*
X58297195Y-154080968D01*
X58307715Y-154101613D01*
X58428028Y-154267213D01*
X58572786Y-154411971D01*
X58717532Y-154517133D01*
X58738390Y-154532287D01*
X58811423Y-154569499D01*
X58920776Y-154625218D01*
X58920778Y-154625218D01*
X58920781Y-154625220D01*
X59005377Y-154652707D01*
X59115465Y-154688477D01*
X59173040Y-154697596D01*
X59317648Y-154720500D01*
X59466349Y-154720500D01*
X59533388Y-154740185D01*
X59554030Y-154756819D01*
X60877831Y-156080620D01*
X60877834Y-156080622D01*
X60877838Y-156080626D01*
X61017137Y-156173704D01*
X61126584Y-156219037D01*
X61171918Y-156237816D01*
X61336228Y-156270499D01*
X61336232Y-156270500D01*
X61336233Y-156270500D01*
X68596349Y-156270500D01*
X68663388Y-156290185D01*
X68684030Y-156306819D01*
X72546434Y-160169223D01*
X73665531Y-161288319D01*
X73699016Y-161349642D01*
X73694032Y-161419334D01*
X73652160Y-161475267D01*
X73586696Y-161499684D01*
X73577850Y-161500000D01*
X63914150Y-161500000D01*
X63847111Y-161480315D01*
X63826469Y-161463681D01*
X63712430Y-161349642D01*
X60100437Y-157737648D01*
X62699500Y-157737648D01*
X62699500Y-157942351D01*
X62731522Y-158144534D01*
X62794781Y-158339223D01*
X62887715Y-158521613D01*
X63008028Y-158687213D01*
X63152786Y-158831971D01*
X63307749Y-158944556D01*
X63318390Y-158952287D01*
X63430427Y-159009373D01*
X63500776Y-159045218D01*
X63500778Y-159045218D01*
X63500781Y-159045220D01*
X63605137Y-159079127D01*
X63695465Y-159108477D01*
X63796557Y-159124488D01*
X63897648Y-159140500D01*
X63897649Y-159140500D01*
X64102351Y-159140500D01*
X64102352Y-159140500D01*
X64304534Y-159108477D01*
X64499219Y-159045220D01*
X64681610Y-158952287D01*
X64819390Y-158852185D01*
X64847213Y-158831971D01*
X64847215Y-158831968D01*
X64847219Y-158831966D01*
X64991966Y-158687219D01*
X64991968Y-158687215D01*
X64991971Y-158687213D01*
X65044732Y-158614590D01*
X65112287Y-158521610D01*
X65205220Y-158339219D01*
X65268477Y-158144534D01*
X65300500Y-157942352D01*
X65300500Y-157737648D01*
X65291057Y-157678028D01*
X65268477Y-157535465D01*
X65205218Y-157340776D01*
X65147153Y-157226819D01*
X65112287Y-157158390D01*
X65082462Y-157117339D01*
X64991971Y-156992786D01*
X64847213Y-156848028D01*
X64681613Y-156727715D01*
X64681612Y-156727714D01*
X64681610Y-156727713D01*
X64624653Y-156698691D01*
X64499223Y-156634781D01*
X64304534Y-156571522D01*
X64129995Y-156543878D01*
X64102352Y-156539500D01*
X63897648Y-156539500D01*
X63873329Y-156543351D01*
X63695465Y-156571522D01*
X63500776Y-156634781D01*
X63318386Y-156727715D01*
X63152786Y-156848028D01*
X63008028Y-156992786D01*
X62887715Y-157158386D01*
X62794781Y-157340776D01*
X62731522Y-157535465D01*
X62699500Y-157737648D01*
X60100437Y-157737648D01*
X58836819Y-156474030D01*
X58803334Y-156412707D01*
X58800500Y-156386349D01*
X58800500Y-156237648D01*
X58768477Y-156035465D01*
X58725114Y-155902009D01*
X58705220Y-155840781D01*
X58705218Y-155840778D01*
X58705218Y-155840776D01*
X58671503Y-155774607D01*
X58612287Y-155658390D01*
X58604556Y-155647749D01*
X58491971Y-155492786D01*
X58347213Y-155348028D01*
X58181613Y-155227715D01*
X58181612Y-155227714D01*
X58181610Y-155227713D01*
X58124653Y-155198691D01*
X57999223Y-155134781D01*
X57804534Y-155071522D01*
X57629995Y-155043878D01*
X57602352Y-155039500D01*
X57397648Y-155039500D01*
X57373329Y-155043351D01*
X57195465Y-155071522D01*
X57000776Y-155134781D01*
X56818386Y-155227715D01*
X56652786Y-155348028D01*
X56652782Y-155348032D01*
X56547634Y-155453181D01*
X56486311Y-155486666D01*
X56459953Y-155489500D01*
X52189462Y-155489500D01*
X52122423Y-155469815D01*
X52076668Y-155417011D01*
X52066724Y-155347853D01*
X52089145Y-155292613D01*
X52111859Y-155261350D01*
X52204755Y-155079031D01*
X52267990Y-154884417D01*
X52300000Y-154682317D01*
X52300000Y-154477682D01*
X52267990Y-154275582D01*
X52204755Y-154080968D01*
X52111859Y-153898650D01*
X52079474Y-153854077D01*
X52079474Y-153854076D01*
X51400000Y-154533551D01*
X51400000Y-154527339D01*
X51372741Y-154425606D01*
X51320080Y-154334394D01*
X51245606Y-154259920D01*
X51154394Y-154207259D01*
X51052661Y-154180000D01*
X51046446Y-154180000D01*
X51725922Y-153500524D01*
X51725921Y-153500523D01*
X51681359Y-153468147D01*
X51681350Y-153468141D01*
X51499031Y-153375244D01*
X51304417Y-153312009D01*
X51102317Y-153280000D01*
X50897683Y-153280000D01*
X50695582Y-153312009D01*
X50500968Y-153375244D01*
X50318644Y-153468143D01*
X50274077Y-153500523D01*
X50274077Y-153500524D01*
X50953554Y-154180000D01*
X50947339Y-154180000D01*
X50845606Y-154207259D01*
X50754394Y-154259920D01*
X50679920Y-154334394D01*
X50627259Y-154425606D01*
X50600000Y-154527339D01*
X50600000Y-154533553D01*
X49920524Y-153854077D01*
X49920523Y-153854077D01*
X49888143Y-153898644D01*
X49795244Y-154080968D01*
X49732009Y-154275582D01*
X49700000Y-154477682D01*
X49700000Y-154682317D01*
X49732009Y-154884417D01*
X49795244Y-155079031D01*
X49888140Y-155261350D01*
X49910855Y-155292613D01*
X49934336Y-155358420D01*
X49918511Y-155426474D01*
X49868406Y-155475169D01*
X49810538Y-155489500D01*
X47663651Y-155489500D01*
X47596612Y-155469815D01*
X47575970Y-155453181D01*
X46836819Y-154714030D01*
X46803334Y-154652707D01*
X46800500Y-154626349D01*
X46800500Y-154477648D01*
X46768477Y-154275465D01*
X46737458Y-154180000D01*
X46705220Y-154080781D01*
X46705218Y-154080778D01*
X46705218Y-154080776D01*
X46671503Y-154014607D01*
X46612287Y-153898390D01*
X46594664Y-153874134D01*
X46491971Y-153732786D01*
X46347213Y-153588028D01*
X46181613Y-153467715D01*
X46181612Y-153467714D01*
X46181610Y-153467713D01*
X46124653Y-153438691D01*
X45999223Y-153374781D01*
X45804534Y-153311522D01*
X45629995Y-153283878D01*
X45602352Y-153279500D01*
X45397648Y-153279500D01*
X45373329Y-153283351D01*
X45195465Y-153311522D01*
X45000776Y-153374781D01*
X44818386Y-153467715D01*
X44652786Y-153588028D01*
X44508028Y-153732786D01*
X44387715Y-153898386D01*
X44294781Y-154080776D01*
X44231522Y-154275465D01*
X44199500Y-154477648D01*
X44199500Y-154682352D01*
X44202704Y-154702580D01*
X44231522Y-154884534D01*
X44294781Y-155079223D01*
X44387715Y-155261613D01*
X44508028Y-155427213D01*
X44652786Y-155571971D01*
X44771734Y-155658390D01*
X44818390Y-155692287D01*
X44934607Y-155751503D01*
X45000776Y-155785218D01*
X45000778Y-155785218D01*
X45000781Y-155785220D01*
X45105137Y-155819127D01*
X45195465Y-155848477D01*
X45296557Y-155864488D01*
X45397648Y-155880500D01*
X45546349Y-155880500D01*
X45613388Y-155900185D01*
X45634030Y-155916819D01*
X46717834Y-157000624D01*
X46717838Y-157000627D01*
X46857132Y-157093701D01*
X46857133Y-157093701D01*
X46857137Y-157093704D01*
X46964110Y-157138013D01*
X47011918Y-157157816D01*
X47159708Y-157187213D01*
X47176228Y-157190499D01*
X47176232Y-157190500D01*
X47176233Y-157190500D01*
X56459953Y-157190500D01*
X56526992Y-157210185D01*
X56547634Y-157226819D01*
X56652786Y-157331971D01*
X56807749Y-157444556D01*
X56818390Y-157452287D01*
X56934607Y-157511503D01*
X57000776Y-157545218D01*
X57000778Y-157545218D01*
X57000781Y-157545220D01*
X57039237Y-157557715D01*
X57195465Y-157608477D01*
X57296557Y-157624488D01*
X57397648Y-157640500D01*
X57546349Y-157640500D01*
X57613388Y-157660185D01*
X57634030Y-157676819D01*
X61245530Y-161288319D01*
X61279015Y-161349642D01*
X61274031Y-161419334D01*
X61232159Y-161475267D01*
X61166695Y-161499684D01*
X61157849Y-161500000D01*
X45004500Y-161500000D01*
X44937461Y-161480315D01*
X44891706Y-161427511D01*
X44880500Y-161376000D01*
X44880500Y-161317648D01*
X44848477Y-161115465D01*
X44819127Y-161025137D01*
X44785220Y-160920781D01*
X44785218Y-160920778D01*
X44785218Y-160920776D01*
X44751503Y-160854607D01*
X44692287Y-160738390D01*
X44636763Y-160661967D01*
X44571971Y-160572786D01*
X44427213Y-160428028D01*
X44261613Y-160307715D01*
X44261612Y-160307714D01*
X44261610Y-160307713D01*
X44204653Y-160278691D01*
X44079223Y-160214781D01*
X43884534Y-160151522D01*
X43709995Y-160123878D01*
X43682352Y-160119500D01*
X43682351Y-160119500D01*
X43533651Y-160119500D01*
X43466612Y-160099815D01*
X43445970Y-160083181D01*
X42372165Y-159009375D01*
X42372161Y-159009372D01*
X42232866Y-158916297D01*
X42232863Y-158916296D01*
X42123416Y-158870962D01*
X42123414Y-158870961D01*
X42078086Y-158852185D01*
X42078074Y-158852182D01*
X41913771Y-158819500D01*
X41913767Y-158819500D01*
X28040047Y-158819500D01*
X27973008Y-158799815D01*
X27952366Y-158783181D01*
X27847213Y-158678028D01*
X27681611Y-158557713D01*
X27627621Y-158530203D01*
X27576825Y-158482228D01*
X27560031Y-158414407D01*
X27582569Y-158348272D01*
X27627624Y-158309233D01*
X27681349Y-158281859D01*
X27725921Y-158249474D01*
X27046447Y-157570000D01*
X27052661Y-157570000D01*
X27154394Y-157542741D01*
X27245606Y-157490080D01*
X27320080Y-157415606D01*
X27372741Y-157324394D01*
X27400000Y-157222661D01*
X27400000Y-157216447D01*
X28079474Y-157895921D01*
X28111859Y-157851349D01*
X28204755Y-157669031D01*
X28267990Y-157474417D01*
X28300000Y-157272317D01*
X28300000Y-157067682D01*
X28267990Y-156865582D01*
X28204755Y-156670968D01*
X28111859Y-156488650D01*
X28079474Y-156444077D01*
X28079474Y-156444076D01*
X27400000Y-157123551D01*
X27400000Y-157117339D01*
X27372741Y-157015606D01*
X27320080Y-156924394D01*
X27245606Y-156849920D01*
X27154394Y-156797259D01*
X27052661Y-156770000D01*
X27046446Y-156770000D01*
X27725922Y-156090524D01*
X27725921Y-156090523D01*
X27681359Y-156058147D01*
X27681350Y-156058141D01*
X27499031Y-155965244D01*
X27304417Y-155902009D01*
X27102317Y-155870000D01*
X26897683Y-155870000D01*
X26695582Y-155902009D01*
X26500968Y-155965244D01*
X26318644Y-156058143D01*
X26274077Y-156090523D01*
X26274077Y-156090524D01*
X26953554Y-156770000D01*
X26947339Y-156770000D01*
X26845606Y-156797259D01*
X26754394Y-156849920D01*
X26679920Y-156924394D01*
X26627259Y-157015606D01*
X26600000Y-157117339D01*
X26600000Y-157123553D01*
X25920524Y-156444077D01*
X25920523Y-156444077D01*
X25888143Y-156488644D01*
X25795244Y-156670968D01*
X25732009Y-156865582D01*
X25700000Y-157067682D01*
X25700000Y-157272317D01*
X25732009Y-157474417D01*
X25795244Y-157669031D01*
X25888141Y-157851350D01*
X25888147Y-157851359D01*
X25920523Y-157895921D01*
X25920524Y-157895922D01*
X26600000Y-157216446D01*
X26600000Y-157222661D01*
X26627259Y-157324394D01*
X26679920Y-157415606D01*
X26754394Y-157490080D01*
X26845606Y-157542741D01*
X26947339Y-157570000D01*
X26953553Y-157570000D01*
X26274076Y-158249474D01*
X26318652Y-158281861D01*
X26372376Y-158309234D01*
X26423172Y-158357208D01*
X26439968Y-158425028D01*
X26417431Y-158491164D01*
X26372379Y-158530203D01*
X26318386Y-158557714D01*
X26152786Y-158678028D01*
X26008028Y-158822786D01*
X25887715Y-158988386D01*
X25794781Y-159170776D01*
X25731522Y-159365465D01*
X25699500Y-159567648D01*
X25699500Y-159772351D01*
X25731522Y-159974534D01*
X25794781Y-160169223D01*
X25887715Y-160351613D01*
X26008028Y-160517213D01*
X26152786Y-160661971D01*
X26257970Y-160738390D01*
X26318390Y-160782287D01*
X26434607Y-160841503D01*
X26500776Y-160875218D01*
X26500778Y-160875218D01*
X26500781Y-160875220D01*
X26605137Y-160909127D01*
X26695465Y-160938477D01*
X26796557Y-160954488D01*
X26897648Y-160970500D01*
X26897649Y-160970500D01*
X27102351Y-160970500D01*
X27102352Y-160970500D01*
X27304534Y-160938477D01*
X27499219Y-160875220D01*
X27681610Y-160782287D01*
X27774590Y-160714732D01*
X27847213Y-160661971D01*
X27847215Y-160661968D01*
X27847219Y-160661966D01*
X27952366Y-160556819D01*
X28013689Y-160523334D01*
X28040047Y-160520500D01*
X32222655Y-160520500D01*
X32289694Y-160540185D01*
X32335449Y-160592989D01*
X32345393Y-160662147D01*
X32322974Y-160717385D01*
X32307712Y-160738390D01*
X32214781Y-160920776D01*
X32151522Y-161115465D01*
X32119500Y-161317648D01*
X32119500Y-161376000D01*
X32099815Y-161443039D01*
X32047011Y-161488794D01*
X31995500Y-161500000D01*
X25084150Y-161500000D01*
X25017111Y-161480315D01*
X24996469Y-161463681D01*
X24315075Y-160782287D01*
X22336819Y-158804030D01*
X22303334Y-158742707D01*
X22300500Y-158716349D01*
X22300500Y-158567648D01*
X22268477Y-158365465D01*
X22205218Y-158170776D01*
X22171503Y-158104607D01*
X22112287Y-157988390D01*
X22045106Y-157895922D01*
X21991971Y-157822786D01*
X21847213Y-157678028D01*
X21681613Y-157557715D01*
X21681612Y-157557714D01*
X21681610Y-157557713D01*
X21614567Y-157523553D01*
X21499223Y-157464781D01*
X21304534Y-157401522D01*
X21129995Y-157373878D01*
X21102352Y-157369500D01*
X20897648Y-157369500D01*
X20873329Y-157373351D01*
X20695465Y-157401522D01*
X20500776Y-157464781D01*
X20318386Y-157557715D01*
X20152786Y-157678028D01*
X20008028Y-157822786D01*
X19887715Y-157988386D01*
X19794781Y-158170776D01*
X19731522Y-158365465D01*
X19699500Y-158567648D01*
X19699500Y-158772351D01*
X19731522Y-158974534D01*
X19794781Y-159169223D01*
X19887715Y-159351613D01*
X20008028Y-159517213D01*
X20152786Y-159661971D01*
X20307749Y-159774556D01*
X20318390Y-159782287D01*
X20434607Y-159841503D01*
X20500776Y-159875218D01*
X20500778Y-159875218D01*
X20500781Y-159875220D01*
X20605137Y-159909127D01*
X20695465Y-159938477D01*
X20796557Y-159954488D01*
X20897648Y-159970500D01*
X21046349Y-159970500D01*
X21113388Y-159990185D01*
X21134030Y-160006819D01*
X22415530Y-161288319D01*
X22449015Y-161349642D01*
X22444031Y-161419334D01*
X22402159Y-161475267D01*
X22336695Y-161499684D01*
X22327849Y-161500000D01*
X21254151Y-161500000D01*
X21187112Y-161480315D01*
X21166470Y-161463681D01*
X19386819Y-159684030D01*
X19353334Y-159622707D01*
X19350500Y-159596349D01*
X19350500Y-156823650D01*
X19370185Y-156756611D01*
X19386819Y-156735969D01*
X21503792Y-154618996D01*
X31420848Y-154618996D01*
X31420848Y-154823699D01*
X31452870Y-155025882D01*
X31516129Y-155220571D01*
X31609063Y-155402961D01*
X31729376Y-155568561D01*
X31874134Y-155713319D01*
X32029097Y-155825904D01*
X32039738Y-155833635D01*
X32131716Y-155880500D01*
X32222124Y-155926566D01*
X32222126Y-155926566D01*
X32222129Y-155926568D01*
X32326485Y-155960475D01*
X32416813Y-155989825D01*
X32517905Y-156005836D01*
X32618996Y-156021848D01*
X32618997Y-156021848D01*
X32823699Y-156021848D01*
X32823700Y-156021848D01*
X33025882Y-155989825D01*
X33220567Y-155926568D01*
X33402958Y-155833635D01*
X33495938Y-155766080D01*
X33568561Y-155713319D01*
X33568563Y-155713316D01*
X33568567Y-155713314D01*
X33713314Y-155568567D01*
X33713316Y-155568563D01*
X33713319Y-155568561D01*
X33816008Y-155427219D01*
X33833635Y-155402958D01*
X33926568Y-155220567D01*
X33989825Y-155025882D01*
X34021848Y-154823700D01*
X34021848Y-154618996D01*
X37420848Y-154618996D01*
X37420848Y-154823699D01*
X37452870Y-155025882D01*
X37516129Y-155220571D01*
X37609063Y-155402961D01*
X37729376Y-155568561D01*
X37874134Y-155713319D01*
X38029097Y-155825904D01*
X38039738Y-155833635D01*
X38131716Y-155880500D01*
X38222124Y-155926566D01*
X38222126Y-155926566D01*
X38222129Y-155926568D01*
X38326485Y-155960475D01*
X38416813Y-155989825D01*
X38517905Y-156005836D01*
X38618996Y-156021848D01*
X38618997Y-156021848D01*
X38823699Y-156021848D01*
X38823700Y-156021848D01*
X39025882Y-155989825D01*
X39220567Y-155926568D01*
X39402958Y-155833635D01*
X39495938Y-155766080D01*
X39568561Y-155713319D01*
X39568563Y-155713316D01*
X39568567Y-155713314D01*
X39713314Y-155568567D01*
X39713316Y-155568563D01*
X39713319Y-155568561D01*
X39816008Y-155427219D01*
X39833635Y-155402958D01*
X39926568Y-155220567D01*
X39989825Y-155025882D01*
X40021848Y-154823700D01*
X40021848Y-154618996D01*
X40015672Y-154580000D01*
X39989825Y-154416813D01*
X39943898Y-154275465D01*
X39926568Y-154222129D01*
X39926566Y-154222126D01*
X39926566Y-154222124D01*
X39892851Y-154155955D01*
X39833635Y-154039738D01*
X39825904Y-154029097D01*
X39713319Y-153874134D01*
X39568561Y-153729376D01*
X39402961Y-153609063D01*
X39402960Y-153609062D01*
X39402958Y-153609061D01*
X39346001Y-153580039D01*
X39220571Y-153516129D01*
X39025882Y-153452870D01*
X38851343Y-153425226D01*
X38823700Y-153420848D01*
X38618996Y-153420848D01*
X38594677Y-153424699D01*
X38416813Y-153452870D01*
X38222124Y-153516129D01*
X38039734Y-153609063D01*
X37874134Y-153729376D01*
X37729376Y-153874134D01*
X37609063Y-154039734D01*
X37516129Y-154222124D01*
X37452870Y-154416813D01*
X37420848Y-154618996D01*
X34021848Y-154618996D01*
X34015672Y-154580000D01*
X33989825Y-154416813D01*
X33943898Y-154275465D01*
X33926568Y-154222129D01*
X33926566Y-154222126D01*
X33926566Y-154222124D01*
X33892851Y-154155955D01*
X33833635Y-154039738D01*
X33825904Y-154029097D01*
X33713319Y-153874134D01*
X33568561Y-153729376D01*
X33402961Y-153609063D01*
X33402960Y-153609062D01*
X33402958Y-153609061D01*
X33346001Y-153580039D01*
X33220571Y-153516129D01*
X33025882Y-153452870D01*
X32851343Y-153425226D01*
X32823700Y-153420848D01*
X32618996Y-153420848D01*
X32594677Y-153424699D01*
X32416813Y-153452870D01*
X32222124Y-153516129D01*
X32039734Y-153609063D01*
X31874134Y-153729376D01*
X31729376Y-153874134D01*
X31609063Y-154039734D01*
X31516129Y-154222124D01*
X31452870Y-154416813D01*
X31420848Y-154618996D01*
X21503792Y-154618996D01*
X24815969Y-151306819D01*
X24877292Y-151273334D01*
X24903650Y-151270500D01*
X36083768Y-151270500D01*
X36083769Y-151270499D01*
X36138538Y-151259605D01*
X36248074Y-151237818D01*
X36248078Y-151237816D01*
X36248082Y-151237816D01*
X36293415Y-151219037D01*
X36402863Y-151173704D01*
X36542162Y-151080627D01*
X43305141Y-144317648D01*
X44199500Y-144317648D01*
X44199500Y-144522351D01*
X44231522Y-144724534D01*
X44294781Y-144919223D01*
X44387715Y-145101613D01*
X44508028Y-145267213D01*
X44652786Y-145411971D01*
X44785000Y-145508028D01*
X44818390Y-145532287D01*
X44934607Y-145591503D01*
X45000776Y-145625218D01*
X45000778Y-145625218D01*
X45000781Y-145625220D01*
X45101089Y-145657812D01*
X45195465Y-145688477D01*
X45296557Y-145704488D01*
X45397648Y-145720500D01*
X45397649Y-145720500D01*
X45602351Y-145720500D01*
X45602352Y-145720500D01*
X45804534Y-145688477D01*
X45999219Y-145625220D01*
X46181610Y-145532287D01*
X46274590Y-145464732D01*
X46347213Y-145411971D01*
X46347215Y-145411968D01*
X46347219Y-145411966D01*
X46452366Y-145306819D01*
X46513689Y-145273334D01*
X46540047Y-145270500D01*
X49959953Y-145270500D01*
X50026992Y-145290185D01*
X50047634Y-145306819D01*
X50152786Y-145411971D01*
X50285000Y-145508028D01*
X50318390Y-145532287D01*
X50434607Y-145591503D01*
X50500776Y-145625218D01*
X50500778Y-145625218D01*
X50500781Y-145625220D01*
X50601089Y-145657812D01*
X50695465Y-145688477D01*
X50796557Y-145704488D01*
X50897648Y-145720500D01*
X50897649Y-145720500D01*
X51102351Y-145720500D01*
X51102352Y-145720500D01*
X51304534Y-145688477D01*
X51499219Y-145625220D01*
X51681610Y-145532287D01*
X51774590Y-145464732D01*
X51847213Y-145411971D01*
X51847215Y-145411968D01*
X51847219Y-145411966D01*
X51991966Y-145267219D01*
X51991968Y-145267215D01*
X51991971Y-145267213D01*
X52045146Y-145194022D01*
X52112287Y-145101610D01*
X52205220Y-144919219D01*
X52268477Y-144724534D01*
X52300500Y-144522352D01*
X52300500Y-144317648D01*
X52268477Y-144115466D01*
X52205220Y-143920781D01*
X52205218Y-143920778D01*
X52205218Y-143920776D01*
X52171503Y-143854607D01*
X52112287Y-143738390D01*
X52094664Y-143714134D01*
X51991971Y-143572786D01*
X51847213Y-143428028D01*
X51681613Y-143307715D01*
X51681612Y-143307714D01*
X51681610Y-143307713D01*
X51620194Y-143276420D01*
X51499223Y-143214781D01*
X51304534Y-143151522D01*
X51129995Y-143123878D01*
X51102352Y-143119500D01*
X50897648Y-143119500D01*
X50873329Y-143123351D01*
X50695465Y-143151522D01*
X50500776Y-143214781D01*
X50318386Y-143307715D01*
X50152786Y-143428028D01*
X50152782Y-143428032D01*
X50047634Y-143533181D01*
X49986311Y-143566666D01*
X49959953Y-143569500D01*
X46540047Y-143569500D01*
X46473008Y-143549815D01*
X46452366Y-143533181D01*
X46347213Y-143428028D01*
X46181613Y-143307715D01*
X46181612Y-143307714D01*
X46181610Y-143307713D01*
X46120194Y-143276420D01*
X45999223Y-143214781D01*
X45804534Y-143151522D01*
X45629995Y-143123878D01*
X45602352Y-143119500D01*
X45397648Y-143119500D01*
X45373329Y-143123351D01*
X45195465Y-143151522D01*
X45000776Y-143214781D01*
X44818386Y-143307715D01*
X44652786Y-143428028D01*
X44508028Y-143572786D01*
X44387715Y-143738386D01*
X44294781Y-143920776D01*
X44231522Y-144115465D01*
X44199500Y-144317648D01*
X43305141Y-144317648D01*
X50160620Y-137462169D01*
X50160620Y-137462168D01*
X50160619Y-137462168D01*
X50160626Y-137462162D01*
X50253704Y-137322863D01*
X50317816Y-137168081D01*
X50323797Y-137138013D01*
X50350500Y-137003767D01*
X50350500Y-136237648D01*
X55199500Y-136237648D01*
X55199500Y-136442351D01*
X55231522Y-136644534D01*
X55294781Y-136839223D01*
X55350747Y-136949061D01*
X55387585Y-137021359D01*
X55387715Y-137021613D01*
X55508028Y-137187213D01*
X55652786Y-137331971D01*
X55773226Y-137419474D01*
X55818390Y-137452287D01*
X55934607Y-137511503D01*
X56000776Y-137545218D01*
X56000778Y-137545218D01*
X56000781Y-137545220D01*
X56089434Y-137574025D01*
X56195465Y-137608477D01*
X56296557Y-137624488D01*
X56397648Y-137640500D01*
X56397649Y-137640500D01*
X56602351Y-137640500D01*
X56602352Y-137640500D01*
X56804534Y-137608477D01*
X56999219Y-137545220D01*
X57181610Y-137452287D01*
X57281466Y-137379738D01*
X57347213Y-137331971D01*
X57347215Y-137331968D01*
X57347219Y-137331966D01*
X57491966Y-137187219D01*
X57491968Y-137187215D01*
X57491971Y-137187213D01*
X57544732Y-137114590D01*
X57612287Y-137021610D01*
X57705220Y-136839219D01*
X57768477Y-136644534D01*
X57800500Y-136442352D01*
X57800500Y-136237682D01*
X60200000Y-136237682D01*
X60200000Y-136442317D01*
X60232009Y-136644417D01*
X60295244Y-136839031D01*
X60388141Y-137021350D01*
X60388147Y-137021359D01*
X60420523Y-137065921D01*
X60420524Y-137065922D01*
X61100000Y-136386446D01*
X61100000Y-136392661D01*
X61127259Y-136494394D01*
X61179920Y-136585606D01*
X61254394Y-136660080D01*
X61345606Y-136712741D01*
X61447339Y-136740000D01*
X61453553Y-136740000D01*
X60774076Y-137419474D01*
X60818650Y-137451859D01*
X61000968Y-137544755D01*
X61195582Y-137607990D01*
X61397683Y-137640000D01*
X61602317Y-137640000D01*
X61804417Y-137607990D01*
X61999031Y-137544755D01*
X62181349Y-137451859D01*
X62225921Y-137419474D01*
X61546447Y-136740000D01*
X61552661Y-136740000D01*
X61654394Y-136712741D01*
X61745606Y-136660080D01*
X61820080Y-136585606D01*
X61872741Y-136494394D01*
X61900000Y-136392661D01*
X61900000Y-136386447D01*
X62579474Y-137065921D01*
X62611859Y-137021349D01*
X62704755Y-136839031D01*
X62767990Y-136644417D01*
X62800000Y-136442317D01*
X62800000Y-136237682D01*
X62799995Y-136237648D01*
X65199500Y-136237648D01*
X65199500Y-136442351D01*
X65231522Y-136644534D01*
X65294781Y-136839223D01*
X65350747Y-136949061D01*
X65387585Y-137021359D01*
X65387715Y-137021613D01*
X65508028Y-137187213D01*
X65652786Y-137331971D01*
X65773226Y-137419474D01*
X65818390Y-137452287D01*
X65934607Y-137511503D01*
X66000776Y-137545218D01*
X66000778Y-137545218D01*
X66000781Y-137545220D01*
X66089434Y-137574025D01*
X66195465Y-137608477D01*
X66296557Y-137624488D01*
X66397648Y-137640500D01*
X66397649Y-137640500D01*
X66602351Y-137640500D01*
X66602352Y-137640500D01*
X66804534Y-137608477D01*
X66999219Y-137545220D01*
X67181610Y-137452287D01*
X67281466Y-137379738D01*
X67347213Y-137331971D01*
X67347215Y-137331968D01*
X67347219Y-137331966D01*
X67491966Y-137187219D01*
X67491968Y-137187215D01*
X67491971Y-137187213D01*
X67544732Y-137114590D01*
X67612287Y-137021610D01*
X67705220Y-136839219D01*
X67740780Y-136729778D01*
X70559500Y-136729778D01*
X70559500Y-136950222D01*
X70570766Y-137021350D01*
X70593985Y-137167952D01*
X70662103Y-137377603D01*
X70662104Y-137377606D01*
X70700157Y-137452287D01*
X70756125Y-137562129D01*
X70762187Y-137574025D01*
X70891752Y-137752358D01*
X70891756Y-137752363D01*
X71047636Y-137908243D01*
X71047641Y-137908247D01*
X71187254Y-138009682D01*
X71229920Y-138065012D01*
X71235899Y-138134625D01*
X71203293Y-138196420D01*
X71187254Y-138210318D01*
X71047641Y-138311752D01*
X71047636Y-138311756D01*
X70891756Y-138467636D01*
X70891752Y-138467641D01*
X70762187Y-138645974D01*
X70662104Y-138842393D01*
X70662103Y-138842396D01*
X70593985Y-139052047D01*
X70559500Y-139269778D01*
X70559500Y-139490221D01*
X70593985Y-139707952D01*
X70662103Y-139917603D01*
X70662104Y-139917606D01*
X70724333Y-140039734D01*
X70756153Y-140102184D01*
X70762187Y-140114025D01*
X70891752Y-140292358D01*
X70891756Y-140292363D01*
X71047636Y-140448243D01*
X71047641Y-140448247D01*
X71187254Y-140549682D01*
X71229920Y-140605012D01*
X71235899Y-140674625D01*
X71203293Y-140736420D01*
X71187254Y-140750318D01*
X71047641Y-140851752D01*
X71047636Y-140851756D01*
X70891756Y-141007636D01*
X70891752Y-141007641D01*
X70762187Y-141185974D01*
X70662104Y-141382393D01*
X70662103Y-141382396D01*
X70593985Y-141592047D01*
X70559500Y-141809778D01*
X70559500Y-142030221D01*
X70593985Y-142247952D01*
X70662103Y-142457603D01*
X70662104Y-142457606D01*
X70762187Y-142654025D01*
X70891752Y-142832358D01*
X70891756Y-142832363D01*
X71047636Y-142988243D01*
X71047641Y-142988247D01*
X71187254Y-143089682D01*
X71229920Y-143145012D01*
X71235899Y-143214625D01*
X71203293Y-143276420D01*
X71187254Y-143290318D01*
X71047641Y-143391752D01*
X71047636Y-143391756D01*
X70891756Y-143547636D01*
X70891752Y-143547641D01*
X70762187Y-143725974D01*
X70662104Y-143922393D01*
X70662103Y-143922396D01*
X70593985Y-144132047D01*
X70559500Y-144349778D01*
X70559500Y-144570221D01*
X70593985Y-144787952D01*
X70662103Y-144997603D01*
X70662104Y-144997606D01*
X70762187Y-145194025D01*
X70891752Y-145372358D01*
X70891756Y-145372363D01*
X71047636Y-145528243D01*
X71047641Y-145528247D01*
X71203192Y-145641260D01*
X71225978Y-145657815D01*
X71349003Y-145720500D01*
X71422393Y-145757895D01*
X71422396Y-145757896D01*
X71527221Y-145791955D01*
X71632049Y-145826015D01*
X71849778Y-145860500D01*
X71849779Y-145860500D01*
X72070221Y-145860500D01*
X72070222Y-145860500D01*
X72287951Y-145826015D01*
X72497606Y-145757895D01*
X72694022Y-145657815D01*
X72872365Y-145528242D01*
X73028242Y-145372365D01*
X73157815Y-145194022D01*
X73257895Y-144997606D01*
X73326015Y-144787951D01*
X73360500Y-144570222D01*
X73360500Y-144349778D01*
X73326015Y-144132049D01*
X73257895Y-143922394D01*
X73257895Y-143922393D01*
X73174831Y-143759374D01*
X73157815Y-143725978D01*
X73114457Y-143666300D01*
X73028247Y-143547641D01*
X73028243Y-143547636D01*
X72872363Y-143391756D01*
X72872358Y-143391752D01*
X72732745Y-143290318D01*
X72690079Y-143234989D01*
X72684100Y-143165375D01*
X72716705Y-143103580D01*
X72732745Y-143089682D01*
X72872358Y-142988247D01*
X72872356Y-142988247D01*
X72872365Y-142988242D01*
X73028242Y-142832365D01*
X73157815Y-142654022D01*
X73257895Y-142457606D01*
X73326015Y-142247951D01*
X73360500Y-142030222D01*
X73360500Y-141809778D01*
X73326015Y-141592049D01*
X73257895Y-141382394D01*
X73257895Y-141382393D01*
X73223237Y-141314375D01*
X73157815Y-141185978D01*
X73141260Y-141163192D01*
X73028247Y-141007641D01*
X73028243Y-141007636D01*
X72872363Y-140851756D01*
X72872358Y-140851752D01*
X72732745Y-140750318D01*
X72690079Y-140694989D01*
X72684100Y-140625375D01*
X72716705Y-140563580D01*
X72732745Y-140549682D01*
X72872358Y-140448247D01*
X72872356Y-140448247D01*
X72872365Y-140448242D01*
X73028242Y-140292365D01*
X73157815Y-140114022D01*
X73257895Y-139917606D01*
X73326015Y-139707951D01*
X73360500Y-139490222D01*
X73360500Y-139269778D01*
X73326015Y-139052049D01*
X73257895Y-138842394D01*
X73257895Y-138842393D01*
X73207229Y-138742958D01*
X73157815Y-138645978D01*
X73095761Y-138560567D01*
X73028247Y-138467641D01*
X73028243Y-138467636D01*
X72872363Y-138311756D01*
X72872358Y-138311752D01*
X72732745Y-138210318D01*
X72690079Y-138154989D01*
X72684100Y-138085375D01*
X72716705Y-138023580D01*
X72732745Y-138009682D01*
X72872358Y-137908247D01*
X72872356Y-137908247D01*
X72872365Y-137908242D01*
X73028242Y-137752365D01*
X73157815Y-137574022D01*
X73257895Y-137377606D01*
X73326015Y-137167951D01*
X73360500Y-136950222D01*
X73360500Y-136729778D01*
X73326015Y-136512049D01*
X73270114Y-136340000D01*
X73257896Y-136302396D01*
X73257895Y-136302393D01*
X73188558Y-136166314D01*
X73157815Y-136105978D01*
X73106670Y-136035582D01*
X73028247Y-135927641D01*
X73028243Y-135927636D01*
X72872363Y-135771756D01*
X72872358Y-135771752D01*
X72694025Y-135642187D01*
X72694024Y-135642186D01*
X72694022Y-135642185D01*
X72631096Y-135610122D01*
X72497606Y-135542104D01*
X72497603Y-135542103D01*
X72287952Y-135473985D01*
X72179086Y-135456742D01*
X72070222Y-135439500D01*
X71849778Y-135439500D01*
X71777201Y-135450995D01*
X71632047Y-135473985D01*
X71422396Y-135542103D01*
X71422393Y-135542104D01*
X71225974Y-135642187D01*
X71047641Y-135771752D01*
X71047636Y-135771756D01*
X70891756Y-135927636D01*
X70891752Y-135927641D01*
X70762187Y-136105974D01*
X70662104Y-136302393D01*
X70662103Y-136302396D01*
X70593985Y-136512047D01*
X70579069Y-136606225D01*
X70559500Y-136729778D01*
X67740780Y-136729778D01*
X67768477Y-136644534D01*
X67800500Y-136442352D01*
X67800500Y-136237648D01*
X67789202Y-136166314D01*
X67768477Y-136035465D01*
X67737458Y-135940000D01*
X67705220Y-135840781D01*
X67705218Y-135840778D01*
X67705218Y-135840776D01*
X67612419Y-135658650D01*
X67612287Y-135658390D01*
X67600515Y-135642187D01*
X67491971Y-135492786D01*
X67347213Y-135348028D01*
X67181613Y-135227715D01*
X67181612Y-135227714D01*
X67181610Y-135227713D01*
X67124653Y-135198691D01*
X66999223Y-135134781D01*
X66804534Y-135071522D01*
X66629995Y-135043878D01*
X66602352Y-135039500D01*
X66397648Y-135039500D01*
X66373329Y-135043351D01*
X66195465Y-135071522D01*
X66000776Y-135134781D01*
X65818386Y-135227715D01*
X65652786Y-135348028D01*
X65508028Y-135492786D01*
X65387715Y-135658386D01*
X65294781Y-135840776D01*
X65231522Y-136035465D01*
X65199500Y-136237648D01*
X62799995Y-136237648D01*
X62767990Y-136035582D01*
X62704755Y-135840968D01*
X62611859Y-135658650D01*
X62579474Y-135614077D01*
X62579474Y-135614076D01*
X61900000Y-136293551D01*
X61900000Y-136287339D01*
X61872741Y-136185606D01*
X61820080Y-136094394D01*
X61745606Y-136019920D01*
X61654394Y-135967259D01*
X61552661Y-135940000D01*
X61546446Y-135940000D01*
X62225922Y-135260524D01*
X62225921Y-135260523D01*
X62181359Y-135228147D01*
X62181350Y-135228141D01*
X61999031Y-135135244D01*
X61804417Y-135072009D01*
X61602317Y-135040000D01*
X61397683Y-135040000D01*
X61195582Y-135072009D01*
X61000968Y-135135244D01*
X60818644Y-135228143D01*
X60774077Y-135260523D01*
X60774077Y-135260524D01*
X61453554Y-135940000D01*
X61447339Y-135940000D01*
X61345606Y-135967259D01*
X61254394Y-136019920D01*
X61179920Y-136094394D01*
X61127259Y-136185606D01*
X61100000Y-136287339D01*
X61100000Y-136293553D01*
X60420524Y-135614077D01*
X60420523Y-135614077D01*
X60388143Y-135658644D01*
X60295244Y-135840968D01*
X60232009Y-136035582D01*
X60200000Y-136237682D01*
X57800500Y-136237682D01*
X57800500Y-136237648D01*
X57789202Y-136166314D01*
X57768477Y-136035465D01*
X57737458Y-135940000D01*
X57705220Y-135840781D01*
X57705218Y-135840778D01*
X57705218Y-135840776D01*
X57612419Y-135658650D01*
X57612287Y-135658390D01*
X57600515Y-135642187D01*
X57491971Y-135492786D01*
X57347213Y-135348028D01*
X57181613Y-135227715D01*
X57181612Y-135227714D01*
X57181610Y-135227713D01*
X57124653Y-135198691D01*
X56999223Y-135134781D01*
X56804534Y-135071522D01*
X56629995Y-135043878D01*
X56602352Y-135039500D01*
X56397648Y-135039500D01*
X56373329Y-135043351D01*
X56195465Y-135071522D01*
X56000776Y-135134781D01*
X55818386Y-135227715D01*
X55652786Y-135348028D01*
X55508028Y-135492786D01*
X55387715Y-135658386D01*
X55294781Y-135840776D01*
X55231522Y-136035465D01*
X55199500Y-136237648D01*
X50350500Y-136237648D01*
X50350500Y-131455973D01*
X50370185Y-131388934D01*
X50386814Y-131368297D01*
X51682173Y-130072937D01*
X51743494Y-130039454D01*
X51789247Y-130038147D01*
X51838604Y-130045964D01*
X51881904Y-130052823D01*
X51881908Y-130052823D01*
X52118097Y-130052823D01*
X52351368Y-130015876D01*
X52575992Y-129942891D01*
X52786433Y-129835666D01*
X52977510Y-129696840D01*
X53144517Y-129529833D01*
X53283343Y-129338756D01*
X53390568Y-129128315D01*
X53463553Y-128903691D01*
X53468865Y-128870150D01*
X53500500Y-128670420D01*
X53500500Y-128434225D01*
X53463553Y-128200954D01*
X53390566Y-127976326D01*
X53283342Y-127765889D01*
X53144517Y-127574813D01*
X52977510Y-127407806D01*
X52786433Y-127268980D01*
X52575996Y-127161756D01*
X52351368Y-127088769D01*
X52118097Y-127051823D01*
X52118092Y-127051823D01*
X51881908Y-127051823D01*
X51881903Y-127051823D01*
X51648631Y-127088769D01*
X51424003Y-127161756D01*
X51213566Y-127268980D01*
X51104550Y-127348185D01*
X51022490Y-127407806D01*
X51022488Y-127407808D01*
X51022487Y-127407808D01*
X50855485Y-127574810D01*
X50855485Y-127574811D01*
X50855483Y-127574813D01*
X50795862Y-127656873D01*
X50716657Y-127765889D01*
X50609433Y-127976326D01*
X50536446Y-128200954D01*
X50499500Y-128434225D01*
X50499500Y-128670420D01*
X50514174Y-128763072D01*
X50505219Y-128832365D01*
X50479382Y-128870150D01*
X48839375Y-130510157D01*
X48839372Y-130510161D01*
X48746299Y-130649453D01*
X48746292Y-130649466D01*
X48700962Y-130758906D01*
X48682185Y-130804236D01*
X48682182Y-130804248D01*
X48649500Y-130968551D01*
X48649500Y-136516349D01*
X48629815Y-136583388D01*
X48613181Y-136604030D01*
X40181049Y-145036161D01*
X40119726Y-145069646D01*
X40050034Y-145064662D01*
X39994101Y-145022790D01*
X39969684Y-144957326D01*
X39975437Y-144910161D01*
X39989825Y-144865882D01*
X40021848Y-144663700D01*
X40021848Y-144458996D01*
X39989825Y-144256814D01*
X39926568Y-144062129D01*
X39926566Y-144062126D01*
X39926566Y-144062124D01*
X39855369Y-143922394D01*
X39833635Y-143879738D01*
X39825904Y-143869097D01*
X39713319Y-143714134D01*
X39568561Y-143569376D01*
X39402961Y-143449063D01*
X39402960Y-143449062D01*
X39402958Y-143449061D01*
X39346001Y-143420039D01*
X39220571Y-143356129D01*
X39025882Y-143292870D01*
X38832141Y-143262185D01*
X38823700Y-143260848D01*
X38823699Y-143260848D01*
X38674999Y-143260848D01*
X38607960Y-143241163D01*
X38587318Y-143224529D01*
X35622165Y-140259375D01*
X35622161Y-140259372D01*
X35482866Y-140166297D01*
X35482863Y-140166296D01*
X35356661Y-140114022D01*
X35328082Y-140102184D01*
X35328074Y-140102182D01*
X35163771Y-140069500D01*
X35163767Y-140069500D01*
X25916233Y-140069500D01*
X25916228Y-140069500D01*
X25751925Y-140102182D01*
X25751917Y-140102184D01*
X25723339Y-140114022D01*
X25723338Y-140114022D01*
X25597136Y-140166296D01*
X25597133Y-140166297D01*
X25457838Y-140259372D01*
X25457834Y-140259375D01*
X24721758Y-140995451D01*
X24660435Y-141028936D01*
X24590743Y-141023952D01*
X24534810Y-140982080D01*
X24510393Y-140916616D01*
X24511603Y-140888379D01*
X24521848Y-140823700D01*
X24521848Y-140618996D01*
X24489825Y-140416814D01*
X24426568Y-140222129D01*
X24426566Y-140222126D01*
X24426566Y-140222124D01*
X24371486Y-140114025D01*
X24333635Y-140039738D01*
X24325904Y-140029097D01*
X24213319Y-139874134D01*
X24068561Y-139729376D01*
X23902961Y-139609063D01*
X23902960Y-139609062D01*
X23902958Y-139609061D01*
X23846001Y-139580039D01*
X23720571Y-139516129D01*
X23525882Y-139452870D01*
X23351343Y-139425226D01*
X23323700Y-139420848D01*
X23118996Y-139420848D01*
X23094677Y-139424699D01*
X22916813Y-139452870D01*
X22722124Y-139516129D01*
X22539734Y-139609063D01*
X22374134Y-139729376D01*
X22229376Y-139874134D01*
X22109063Y-140039734D01*
X22016129Y-140222124D01*
X21952870Y-140416813D01*
X21920848Y-140618996D01*
X21920848Y-140823699D01*
X21952870Y-141025882D01*
X22016129Y-141220571D01*
X22109063Y-141402961D01*
X22229376Y-141568561D01*
X22374134Y-141713319D01*
X22506901Y-141809778D01*
X22539738Y-141833635D01*
X22655955Y-141892851D01*
X22722124Y-141926566D01*
X22722126Y-141926566D01*
X22722129Y-141926568D01*
X22826485Y-141960475D01*
X22916813Y-141989825D01*
X23017905Y-142005836D01*
X23118996Y-142021848D01*
X23118997Y-142021848D01*
X23323698Y-142021848D01*
X23323700Y-142021848D01*
X23388374Y-142011604D01*
X23457664Y-142020558D01*
X23511117Y-142065554D01*
X23531757Y-142132305D01*
X23513033Y-142199619D01*
X23495451Y-142221758D01*
X13839375Y-151877834D01*
X13839372Y-151877838D01*
X13746299Y-152017130D01*
X13746294Y-152017140D01*
X13739061Y-152034603D01*
X13695219Y-152089007D01*
X13628925Y-152111071D01*
X13561226Y-152093791D01*
X13513616Y-152042654D01*
X13500500Y-151987150D01*
X13500500Y-137958996D01*
X25920848Y-137958996D01*
X25920848Y-138163699D01*
X25952870Y-138365882D01*
X26016129Y-138560571D01*
X26059645Y-138645974D01*
X26101277Y-138727682D01*
X26109063Y-138742961D01*
X26229376Y-138908561D01*
X26374134Y-139053319D01*
X26529097Y-139165904D01*
X26539738Y-139173635D01*
X26655955Y-139232851D01*
X26722124Y-139266566D01*
X26722126Y-139266566D01*
X26722129Y-139266568D01*
X26826485Y-139300475D01*
X26916813Y-139329825D01*
X27017905Y-139345836D01*
X27118996Y-139361848D01*
X27118997Y-139361848D01*
X27323699Y-139361848D01*
X27323700Y-139361848D01*
X27525882Y-139329825D01*
X27720567Y-139266568D01*
X27902958Y-139173635D01*
X27995938Y-139106080D01*
X28068561Y-139053319D01*
X28068563Y-139053316D01*
X28068567Y-139053314D01*
X28213314Y-138908567D01*
X28213316Y-138908563D01*
X28213319Y-138908561D01*
X28266080Y-138835938D01*
X28333635Y-138742958D01*
X28426568Y-138560567D01*
X28489825Y-138365882D01*
X28521848Y-138163700D01*
X28521848Y-137958996D01*
X28489825Y-137756814D01*
X28488379Y-137752365D01*
X28426566Y-137562124D01*
X28392851Y-137495955D01*
X28333635Y-137379738D01*
X28298927Y-137331966D01*
X28213319Y-137214134D01*
X28068561Y-137069376D01*
X27902961Y-136949063D01*
X27902960Y-136949062D01*
X27902958Y-136949061D01*
X27720567Y-136856128D01*
X27599809Y-136816891D01*
X27525882Y-136792870D01*
X27351343Y-136765226D01*
X27323700Y-136760848D01*
X27118996Y-136760848D01*
X27094677Y-136764699D01*
X26916813Y-136792870D01*
X26722124Y-136856129D01*
X26539734Y-136949063D01*
X26374134Y-137069376D01*
X26229376Y-137214134D01*
X26109063Y-137379734D01*
X26016129Y-137562124D01*
X25952870Y-137756813D01*
X25920848Y-137958996D01*
X13500500Y-137958996D01*
X13500500Y-136709008D01*
X42220848Y-136709008D01*
X42220848Y-138309026D01*
X42220849Y-138309043D01*
X42231348Y-138411821D01*
X42231349Y-138411824D01*
X42280638Y-138560567D01*
X42286534Y-138578359D01*
X42378636Y-138727681D01*
X42502692Y-138851737D01*
X42652014Y-138943839D01*
X42818551Y-138999024D01*
X42921339Y-139009525D01*
X44521356Y-139009524D01*
X44624145Y-138999024D01*
X44790682Y-138943839D01*
X44940004Y-138851737D01*
X45064060Y-138727681D01*
X45156162Y-138578359D01*
X45211347Y-138411822D01*
X45221848Y-138309034D01*
X45221847Y-136709017D01*
X45211347Y-136606228D01*
X45156162Y-136439691D01*
X45064060Y-136290369D01*
X44940004Y-136166313D01*
X44790682Y-136074211D01*
X44624145Y-136019026D01*
X44624143Y-136019025D01*
X44521358Y-136008525D01*
X42921346Y-136008525D01*
X42921329Y-136008526D01*
X42818551Y-136019025D01*
X42818548Y-136019026D01*
X42652016Y-136074210D01*
X42652011Y-136074212D01*
X42502690Y-136166314D01*
X42378637Y-136290367D01*
X42286535Y-136439688D01*
X42286533Y-136439693D01*
X42285652Y-136442352D01*
X42231349Y-136606228D01*
X42231349Y-136606229D01*
X42231348Y-136606229D01*
X42220848Y-136709008D01*
X13500500Y-136709008D01*
X13500500Y-132390927D01*
X42220848Y-132390927D01*
X42220848Y-132627122D01*
X42257794Y-132860393D01*
X42330781Y-133085021D01*
X42438005Y-133295458D01*
X42576831Y-133486535D01*
X42743838Y-133653542D01*
X42934915Y-133792368D01*
X43034339Y-133843027D01*
X43145351Y-133899591D01*
X43145353Y-133899591D01*
X43145356Y-133899593D01*
X43265760Y-133938714D01*
X43369979Y-133972578D01*
X43603251Y-134009525D01*
X43603256Y-134009525D01*
X43839445Y-134009525D01*
X44072716Y-133972578D01*
X44297340Y-133899593D01*
X44507781Y-133792368D01*
X44698858Y-133653542D01*
X44865865Y-133486535D01*
X45004691Y-133295458D01*
X45111916Y-133085017D01*
X45184901Y-132860393D01*
X45221848Y-132627122D01*
X45221848Y-132390927D01*
X45184901Y-132157656D01*
X45111914Y-131933028D01*
X45004690Y-131722591D01*
X44865865Y-131531515D01*
X44698858Y-131364508D01*
X44507781Y-131225682D01*
X44297344Y-131118458D01*
X44072716Y-131045471D01*
X43839445Y-131008525D01*
X43839440Y-131008525D01*
X43603256Y-131008525D01*
X43603251Y-131008525D01*
X43369979Y-131045471D01*
X43145351Y-131118458D01*
X42934914Y-131225682D01*
X42825898Y-131304887D01*
X42743838Y-131364508D01*
X42743836Y-131364510D01*
X42743835Y-131364510D01*
X42576833Y-131531512D01*
X42576833Y-131531513D01*
X42576831Y-131531515D01*
X42517210Y-131613575D01*
X42438005Y-131722591D01*
X42330781Y-131933028D01*
X42257794Y-132157656D01*
X42220848Y-132390927D01*
X13500500Y-132390927D01*
X13500500Y-130458996D01*
X21920848Y-130458996D01*
X21920848Y-130663699D01*
X21952870Y-130865882D01*
X22016129Y-131060571D01*
X22080039Y-131186001D01*
X22100258Y-131225682D01*
X22109063Y-131242961D01*
X22229376Y-131408561D01*
X22374134Y-131553319D01*
X22529097Y-131665904D01*
X22539738Y-131673635D01*
X22655955Y-131732851D01*
X22722124Y-131766566D01*
X22722126Y-131766566D01*
X22722129Y-131766568D01*
X22826485Y-131800475D01*
X22916813Y-131829825D01*
X23017905Y-131845836D01*
X23118996Y-131861848D01*
X23118997Y-131861848D01*
X23323699Y-131861848D01*
X23323700Y-131861848D01*
X23525882Y-131829825D01*
X23720567Y-131766568D01*
X23902958Y-131673635D01*
X23995938Y-131606080D01*
X24068561Y-131553319D01*
X24068563Y-131553316D01*
X24068567Y-131553314D01*
X24213314Y-131408567D01*
X24213316Y-131408563D01*
X24213319Y-131408561D01*
X24266080Y-131335938D01*
X24333635Y-131242958D01*
X24426568Y-131060567D01*
X24489825Y-130865882D01*
X24521848Y-130663700D01*
X24521848Y-130458996D01*
X24489825Y-130256814D01*
X24426568Y-130062129D01*
X24426566Y-130062126D01*
X24426566Y-130062124D01*
X24365812Y-129942889D01*
X24333635Y-129879738D01*
X24301615Y-129835666D01*
X24213319Y-129714134D01*
X24068561Y-129569376D01*
X23902961Y-129449063D01*
X23902960Y-129449062D01*
X23902958Y-129449061D01*
X23842361Y-129418185D01*
X23720571Y-129356129D01*
X23525882Y-129292870D01*
X23351343Y-129265226D01*
X23323700Y-129260848D01*
X23118996Y-129260848D01*
X23094677Y-129264699D01*
X22916813Y-129292870D01*
X22722124Y-129356129D01*
X22539734Y-129449063D01*
X22374134Y-129569376D01*
X22229376Y-129714134D01*
X22109063Y-129879734D01*
X22016129Y-130062124D01*
X21952870Y-130256813D01*
X21920848Y-130458996D01*
X13500500Y-130458996D01*
X13500500Y-128155573D01*
X32720848Y-128155573D01*
X32720848Y-128391768D01*
X32757794Y-128625039D01*
X32830781Y-128849667D01*
X32938005Y-129060104D01*
X33076831Y-129251181D01*
X33243838Y-129418188D01*
X33434915Y-129557014D01*
X33459189Y-129569382D01*
X33645351Y-129664237D01*
X33645353Y-129664237D01*
X33645356Y-129664239D01*
X33745682Y-129696837D01*
X33869979Y-129737224D01*
X34103251Y-129774171D01*
X34103256Y-129774171D01*
X34339445Y-129774171D01*
X34572716Y-129737224D01*
X34643779Y-129714134D01*
X34797340Y-129664239D01*
X35007781Y-129557014D01*
X35198858Y-129418188D01*
X35365865Y-129251181D01*
X35504691Y-129060104D01*
X35611916Y-128849663D01*
X35684901Y-128625039D01*
X35715123Y-128434225D01*
X35721848Y-128391768D01*
X35721848Y-128155573D01*
X35684901Y-127922302D01*
X35611914Y-127697674D01*
X35504690Y-127487237D01*
X35365865Y-127296161D01*
X35198858Y-127129154D01*
X35007781Y-126990328D01*
X34797344Y-126883104D01*
X34572716Y-126810117D01*
X34339445Y-126773171D01*
X34339440Y-126773171D01*
X34103256Y-126773171D01*
X34103251Y-126773171D01*
X33869979Y-126810117D01*
X33645351Y-126883104D01*
X33434914Y-126990328D01*
X33325898Y-127069533D01*
X33243838Y-127129154D01*
X33243836Y-127129156D01*
X33243835Y-127129156D01*
X33076833Y-127296158D01*
X33076833Y-127296159D01*
X33076831Y-127296161D01*
X33017210Y-127378221D01*
X32938005Y-127487237D01*
X32830781Y-127697674D01*
X32757794Y-127922302D01*
X32720848Y-128155573D01*
X13500500Y-128155573D01*
X13500500Y-122473654D01*
X32720848Y-122473654D01*
X32720848Y-124073672D01*
X32720849Y-124073689D01*
X32731348Y-124176467D01*
X32731349Y-124176470D01*
X32786533Y-124343002D01*
X32786534Y-124343005D01*
X32878636Y-124492327D01*
X33002692Y-124616383D01*
X33152014Y-124708485D01*
X33318551Y-124763670D01*
X33421339Y-124774171D01*
X35021356Y-124774170D01*
X35124145Y-124763670D01*
X35290682Y-124708485D01*
X35440004Y-124616383D01*
X35564060Y-124492327D01*
X35656162Y-124343005D01*
X35711347Y-124176468D01*
X35721848Y-124073680D01*
X35721847Y-122752306D01*
X50499500Y-122752306D01*
X50499500Y-124352324D01*
X50499501Y-124352341D01*
X50510000Y-124455119D01*
X50510001Y-124455122D01*
X50563438Y-124616381D01*
X50565186Y-124621657D01*
X50657288Y-124770979D01*
X50781344Y-124895035D01*
X50930666Y-124987137D01*
X51097203Y-125042322D01*
X51199991Y-125052823D01*
X52800008Y-125052822D01*
X52902797Y-125042322D01*
X53069334Y-124987137D01*
X53218656Y-124895035D01*
X53342712Y-124770979D01*
X53434814Y-124621657D01*
X53489999Y-124455120D01*
X53500500Y-124352332D01*
X53500499Y-122752315D01*
X53489999Y-122649526D01*
X53434814Y-122482989D01*
X53342712Y-122333667D01*
X53218656Y-122209611D01*
X53069334Y-122117509D01*
X52902797Y-122062324D01*
X52902795Y-122062323D01*
X52800010Y-122051823D01*
X51199998Y-122051823D01*
X51199981Y-122051824D01*
X51097203Y-122062323D01*
X51097200Y-122062324D01*
X50930668Y-122117508D01*
X50930663Y-122117510D01*
X50781342Y-122209612D01*
X50657289Y-122333665D01*
X50565187Y-122482986D01*
X50565186Y-122482989D01*
X50510001Y-122649526D01*
X50510001Y-122649527D01*
X50510000Y-122649527D01*
X50499500Y-122752306D01*
X35721847Y-122752306D01*
X35721847Y-122473663D01*
X35711347Y-122370874D01*
X35656162Y-122204337D01*
X35564060Y-122055015D01*
X35440004Y-121930959D01*
X35290682Y-121838857D01*
X35124145Y-121783672D01*
X35124143Y-121783671D01*
X35021358Y-121773171D01*
X33421346Y-121773171D01*
X33421329Y-121773172D01*
X33318551Y-121783671D01*
X33318548Y-121783672D01*
X33152016Y-121838856D01*
X33152011Y-121838858D01*
X33002690Y-121930960D01*
X32878637Y-122055013D01*
X32786535Y-122204334D01*
X32786534Y-122204337D01*
X32731349Y-122370874D01*
X32731349Y-122370875D01*
X32731348Y-122370875D01*
X32720848Y-122473654D01*
X13500500Y-122473654D01*
X13500500Y-119624000D01*
X13520185Y-119556961D01*
X13572989Y-119511206D01*
X13624500Y-119500000D01*
X77875500Y-119500000D01*
X77942539Y-119519685D01*
G37*
%TD.AperFunction*%
%TD*%
%TA.AperFunction,NonConductor*%
G36*
X41493388Y-160540185D02*
G01*
X41514030Y-160556819D01*
X42243181Y-161285970D01*
X42257884Y-161312897D01*
X42274477Y-161338716D01*
X42275368Y-161344916D01*
X42276666Y-161347293D01*
X42279500Y-161373651D01*
X42279500Y-161376000D01*
X42259815Y-161443039D01*
X42207011Y-161488794D01*
X42155500Y-161500000D01*
X34844500Y-161500000D01*
X34777461Y-161480315D01*
X34731706Y-161427511D01*
X34720500Y-161376000D01*
X34720500Y-161317648D01*
X34688477Y-161115465D01*
X34659127Y-161025137D01*
X34625220Y-160920781D01*
X34625218Y-160920778D01*
X34625218Y-160920776D01*
X34532287Y-160738390D01*
X34517026Y-160717385D01*
X34493547Y-160651578D01*
X34509373Y-160583524D01*
X34559479Y-160534830D01*
X34617345Y-160520500D01*
X41426349Y-160520500D01*
X41493388Y-160540185D01*
G37*
%TD.AperFunction*%
%TA.AperFunction,NonConductor*%
G36*
X34743388Y-141790185D02*
G01*
X34764030Y-141806819D01*
X37384529Y-144427318D01*
X37418014Y-144488641D01*
X37420848Y-144514999D01*
X37420848Y-144663699D01*
X37452870Y-144865882D01*
X37516129Y-145060571D01*
X37609063Y-145242961D01*
X37729376Y-145408561D01*
X37874134Y-145553319D01*
X38017959Y-145657812D01*
X38039738Y-145673635D01*
X38131716Y-145720500D01*
X38222124Y-145766566D01*
X38222126Y-145766566D01*
X38222129Y-145766568D01*
X38326485Y-145800475D01*
X38416813Y-145829825D01*
X38517905Y-145845836D01*
X38618996Y-145861848D01*
X38618997Y-145861848D01*
X38823699Y-145861848D01*
X38823700Y-145861848D01*
X39025882Y-145829825D01*
X39070160Y-145815437D01*
X39140000Y-145813441D01*
X39199834Y-145849520D01*
X39230663Y-145912221D01*
X39222700Y-145981635D01*
X39196161Y-146021049D01*
X35684030Y-149533181D01*
X35622707Y-149566666D01*
X35596349Y-149569500D01*
X27956544Y-149569500D01*
X27889505Y-149549815D01*
X27843750Y-149497011D01*
X27833806Y-149427853D01*
X27862831Y-149364297D01*
X27900249Y-149335014D01*
X27902958Y-149333635D01*
X27924118Y-149318261D01*
X28068561Y-149213319D01*
X28068563Y-149213316D01*
X28068567Y-149213314D01*
X28213314Y-149068567D01*
X28213316Y-149068563D01*
X28213319Y-149068561D01*
X28266080Y-148995938D01*
X28333635Y-148902958D01*
X28426568Y-148720567D01*
X28489825Y-148525882D01*
X28521848Y-148323700D01*
X28521848Y-148118996D01*
X28489825Y-147916814D01*
X28426568Y-147722129D01*
X28426566Y-147722126D01*
X28426566Y-147722124D01*
X28392851Y-147655955D01*
X28333635Y-147539738D01*
X28298927Y-147491966D01*
X28213319Y-147374134D01*
X28068561Y-147229376D01*
X27902961Y-147109063D01*
X27902960Y-147109062D01*
X27902958Y-147109061D01*
X27846001Y-147080039D01*
X27720571Y-147016129D01*
X27525882Y-146952870D01*
X27351343Y-146925226D01*
X27323700Y-146920848D01*
X27118996Y-146920848D01*
X27094677Y-146924699D01*
X26916813Y-146952870D01*
X26722124Y-147016129D01*
X26539734Y-147109063D01*
X26374134Y-147229376D01*
X26229376Y-147374134D01*
X26109063Y-147539734D01*
X26016129Y-147722124D01*
X25952870Y-147916813D01*
X25920848Y-148118996D01*
X25920848Y-148323699D01*
X25952870Y-148525882D01*
X26016129Y-148720571D01*
X26109063Y-148902961D01*
X26229376Y-149068561D01*
X26374134Y-149213319D01*
X26539733Y-149333632D01*
X26539735Y-149333633D01*
X26539738Y-149333635D01*
X26542445Y-149335014D01*
X26543290Y-149335812D01*
X26543890Y-149336180D01*
X26543812Y-149336305D01*
X26593242Y-149382988D01*
X26610038Y-149450808D01*
X26587502Y-149516944D01*
X26532788Y-149560396D01*
X26486152Y-149569500D01*
X24416228Y-149569500D01*
X24251925Y-149602182D01*
X24251917Y-149602184D01*
X24097139Y-149666295D01*
X23957837Y-149759373D01*
X23957834Y-149759376D01*
X17839375Y-155877834D01*
X17839372Y-155877838D01*
X17746299Y-156017130D01*
X17746292Y-156017143D01*
X17715321Y-156091917D01*
X17682185Y-156171913D01*
X17682182Y-156171925D01*
X17649500Y-156336228D01*
X17649500Y-160083771D01*
X17682181Y-160248073D01*
X17682184Y-160248082D01*
X17746296Y-160402863D01*
X17746297Y-160402866D01*
X17839372Y-160542161D01*
X17839375Y-160542165D01*
X18585530Y-161288319D01*
X18619015Y-161349642D01*
X18614031Y-161419333D01*
X18572159Y-161475267D01*
X18506695Y-161499684D01*
X18497849Y-161500000D01*
X17474500Y-161500000D01*
X17407461Y-161480315D01*
X17361706Y-161427511D01*
X17350500Y-161376000D01*
X17350500Y-155323650D01*
X17370185Y-155256611D01*
X17386819Y-155235969D01*
X27315969Y-145306819D01*
X27377292Y-145273334D01*
X27403650Y-145270500D01*
X31565890Y-145270500D01*
X31632929Y-145290185D01*
X31666209Y-145321616D01*
X31729378Y-145408563D01*
X31874134Y-145553319D01*
X32017959Y-145657812D01*
X32039738Y-145673635D01*
X32131716Y-145720500D01*
X32222124Y-145766566D01*
X32222126Y-145766566D01*
X32222129Y-145766568D01*
X32326485Y-145800475D01*
X32416813Y-145829825D01*
X32517905Y-145845836D01*
X32618996Y-145861848D01*
X32618997Y-145861848D01*
X32823699Y-145861848D01*
X32823700Y-145861848D01*
X33025882Y-145829825D01*
X33220567Y-145766568D01*
X33402958Y-145673635D01*
X33495938Y-145606080D01*
X33568561Y-145553319D01*
X33568563Y-145553316D01*
X33568567Y-145553314D01*
X33713314Y-145408567D01*
X33713316Y-145408563D01*
X33713319Y-145408561D01*
X33776487Y-145321616D01*
X33833635Y-145242958D01*
X33926568Y-145060567D01*
X33989825Y-144865882D01*
X34021848Y-144663700D01*
X34021848Y-144458996D01*
X33989825Y-144256814D01*
X33926568Y-144062129D01*
X33926566Y-144062126D01*
X33926566Y-144062124D01*
X33855369Y-143922394D01*
X33833635Y-143879738D01*
X33825904Y-143869097D01*
X33713319Y-143714134D01*
X33568561Y-143569376D01*
X33402961Y-143449063D01*
X33402960Y-143449062D01*
X33402958Y-143449061D01*
X33346001Y-143420039D01*
X33220571Y-143356129D01*
X33025882Y-143292870D01*
X32832141Y-143262185D01*
X32823700Y-143260848D01*
X32618996Y-143260848D01*
X32610555Y-143262185D01*
X32416813Y-143292870D01*
X32222124Y-143356129D01*
X32039734Y-143449063D01*
X31906561Y-143545818D01*
X31840754Y-143569298D01*
X31833676Y-143569500D01*
X26916228Y-143569500D01*
X26751925Y-143602182D01*
X26751917Y-143602184D01*
X26610292Y-143660848D01*
X26610291Y-143660848D01*
X26597142Y-143666293D01*
X26597130Y-143666300D01*
X26457838Y-143759373D01*
X26457834Y-143759376D01*
X15839375Y-154377834D01*
X15839372Y-154377838D01*
X15746297Y-154517133D01*
X15746296Y-154517136D01*
X15724607Y-154569499D01*
X15724607Y-154569500D01*
X15682184Y-154671917D01*
X15682182Y-154671925D01*
X15649500Y-154836228D01*
X15649500Y-161376000D01*
X15646949Y-161384685D01*
X15648238Y-161393647D01*
X15637259Y-161417687D01*
X15629815Y-161443039D01*
X15622974Y-161448966D01*
X15619213Y-161457203D01*
X15596978Y-161471492D01*
X15577011Y-161488794D01*
X15566496Y-161491081D01*
X15560435Y-161494977D01*
X15525500Y-161500000D01*
X15474500Y-161500000D01*
X15407461Y-161480315D01*
X15361706Y-161427511D01*
X15350500Y-161376000D01*
X15350500Y-152823651D01*
X15370185Y-152756612D01*
X15386819Y-152735970D01*
X26315970Y-141806819D01*
X26377293Y-141773334D01*
X26403651Y-141770500D01*
X34676349Y-141770500D01*
X34743388Y-141790185D01*
G37*
%TD.AperFunction*%
%TA.AperFunction,Conductor*%
%TO.N,HP150M*%
G36*
X21312888Y-164019685D02*
G01*
X21333530Y-164036319D01*
X22957834Y-165660624D01*
X22957838Y-165660627D01*
X23097137Y-165753704D01*
X23097139Y-165753705D01*
X23097143Y-165753707D01*
X23179222Y-165787703D01*
X23206584Y-165799037D01*
X23251918Y-165817816D01*
X23416228Y-165850499D01*
X23416232Y-165850500D01*
X23416233Y-165850500D01*
X30756349Y-165850500D01*
X30823388Y-165870185D01*
X30844030Y-165886819D01*
X34663181Y-169705970D01*
X34696666Y-169767293D01*
X34699500Y-169793651D01*
X34699500Y-169942351D01*
X34731522Y-170144534D01*
X34794781Y-170339223D01*
X34887715Y-170521613D01*
X35008028Y-170687213D01*
X35152786Y-170831971D01*
X35307749Y-170944556D01*
X35318390Y-170952287D01*
X35434607Y-171011503D01*
X35500776Y-171045218D01*
X35500778Y-171045218D01*
X35500781Y-171045220D01*
X35568884Y-171067348D01*
X35695465Y-171108477D01*
X35796557Y-171124488D01*
X35897648Y-171140500D01*
X35897649Y-171140500D01*
X36102351Y-171140500D01*
X36102352Y-171140500D01*
X36304534Y-171108477D01*
X36499219Y-171045220D01*
X36681610Y-170952287D01*
X36774590Y-170884732D01*
X36847213Y-170831971D01*
X36847215Y-170831968D01*
X36847219Y-170831966D01*
X36991966Y-170687219D01*
X36991968Y-170687215D01*
X36991971Y-170687213D01*
X37069409Y-170580627D01*
X37112287Y-170521610D01*
X37205220Y-170339219D01*
X37268477Y-170144534D01*
X37300500Y-169942352D01*
X37300500Y-169737648D01*
X37268477Y-169535466D01*
X37205220Y-169340781D01*
X37205218Y-169340778D01*
X37205218Y-169340776D01*
X37171503Y-169274607D01*
X37112287Y-169158390D01*
X37075670Y-169107990D01*
X36991971Y-168992786D01*
X36847213Y-168848028D01*
X36681613Y-168727715D01*
X36681612Y-168727714D01*
X36681610Y-168727713D01*
X36591128Y-168681610D01*
X36499223Y-168634781D01*
X36304534Y-168571522D01*
X36129995Y-168543878D01*
X36102352Y-168539500D01*
X36102351Y-168539500D01*
X35953651Y-168539500D01*
X35886612Y-168519815D01*
X35865970Y-168503181D01*
X31751593Y-164388803D01*
X31718108Y-164327480D01*
X31723092Y-164257788D01*
X31764964Y-164201855D01*
X31791818Y-164186562D01*
X31822863Y-164173704D01*
X31962162Y-164080627D01*
X32006469Y-164036320D01*
X32067792Y-164002834D01*
X32094151Y-164000000D01*
X63905850Y-164000000D01*
X63972889Y-164019685D01*
X63993531Y-164036319D01*
X67113181Y-167155969D01*
X67146666Y-167217292D01*
X67149500Y-167243650D01*
X67149500Y-171067348D01*
X67129815Y-171134387D01*
X67077011Y-171180142D01*
X67007853Y-171190086D01*
X66944297Y-171161061D01*
X66937819Y-171155029D01*
X65042165Y-169259375D01*
X65042161Y-169259372D01*
X64902865Y-169166297D01*
X64900450Y-169165006D01*
X64899421Y-169163995D01*
X64897798Y-169162911D01*
X64898003Y-169162603D01*
X64850604Y-169116045D01*
X64835142Y-169047908D01*
X64858971Y-168982228D01*
X64871206Y-168967978D01*
X64991966Y-168847219D01*
X65112287Y-168681610D01*
X65205220Y-168499219D01*
X65268477Y-168304534D01*
X65300500Y-168102352D01*
X65300500Y-167897648D01*
X65292641Y-167848028D01*
X65268477Y-167695465D01*
X65228205Y-167571522D01*
X65205220Y-167500781D01*
X65205218Y-167500778D01*
X65205218Y-167500776D01*
X65141242Y-167375218D01*
X65112287Y-167318390D01*
X65057986Y-167243650D01*
X64991971Y-167152786D01*
X64847213Y-167008028D01*
X64681613Y-166887715D01*
X64681612Y-166887714D01*
X64681610Y-166887713D01*
X64610754Y-166851610D01*
X64499223Y-166794781D01*
X64304534Y-166731522D01*
X64129995Y-166703878D01*
X64102352Y-166699500D01*
X63897648Y-166699500D01*
X63873329Y-166703351D01*
X63695465Y-166731522D01*
X63500776Y-166794781D01*
X63318386Y-166887715D01*
X63152786Y-167008028D01*
X63008028Y-167152786D01*
X62887715Y-167318386D01*
X62794781Y-167500776D01*
X62731522Y-167695465D01*
X62699500Y-167897648D01*
X62699500Y-168102351D01*
X62731522Y-168304534D01*
X62794781Y-168499223D01*
X62887715Y-168681613D01*
X63008028Y-168847213D01*
X63018634Y-168857819D01*
X63052119Y-168919142D01*
X63047135Y-168988834D01*
X63005263Y-169044767D01*
X62939799Y-169069184D01*
X62930953Y-169069500D01*
X61323650Y-169069500D01*
X61256611Y-169049815D01*
X61235969Y-169033181D01*
X58836819Y-166634030D01*
X58803334Y-166572707D01*
X58800500Y-166546349D01*
X58800500Y-166397648D01*
X58768477Y-166195465D01*
X58712229Y-166022352D01*
X58705220Y-166000781D01*
X58705218Y-166000778D01*
X58705218Y-166000776D01*
X58647153Y-165886819D01*
X58612287Y-165818390D01*
X58598226Y-165799036D01*
X58491971Y-165652786D01*
X58347213Y-165508028D01*
X58181613Y-165387715D01*
X58181612Y-165387714D01*
X58181610Y-165387713D01*
X58124653Y-165358691D01*
X57999223Y-165294781D01*
X57804534Y-165231522D01*
X57629995Y-165203878D01*
X57602352Y-165199500D01*
X57397648Y-165199500D01*
X57373329Y-165203351D01*
X57195465Y-165231522D01*
X57000776Y-165294781D01*
X56818386Y-165387715D01*
X56652786Y-165508028D01*
X56508028Y-165652786D01*
X56387715Y-165818386D01*
X56294781Y-166000776D01*
X56231522Y-166195465D01*
X56199500Y-166397648D01*
X56199500Y-166602351D01*
X56231522Y-166804534D01*
X56294781Y-166999223D01*
X56353303Y-167114076D01*
X56377706Y-167161971D01*
X56387715Y-167181613D01*
X56508028Y-167347213D01*
X56652786Y-167491971D01*
X56793762Y-167594394D01*
X56818390Y-167612287D01*
X56934607Y-167671503D01*
X57000776Y-167705218D01*
X57000778Y-167705218D01*
X57000781Y-167705220D01*
X57100689Y-167737682D01*
X57195465Y-167768477D01*
X57296557Y-167784488D01*
X57397648Y-167800500D01*
X57546349Y-167800500D01*
X57613388Y-167820185D01*
X57634030Y-167836819D01*
X58955598Y-169158386D01*
X60259374Y-170462162D01*
X60377838Y-170580626D01*
X60517137Y-170673703D01*
X60671918Y-170737816D01*
X60836228Y-170770499D01*
X60836232Y-170770500D01*
X60836233Y-170770500D01*
X64092801Y-170770500D01*
X64159840Y-170790185D01*
X64205595Y-170842989D01*
X64215539Y-170912147D01*
X64186514Y-170975703D01*
X64131120Y-171012430D01*
X64030210Y-171045218D01*
X64000778Y-171054781D01*
X63818386Y-171147715D01*
X63652786Y-171268028D01*
X63508028Y-171412786D01*
X63387715Y-171578386D01*
X63294781Y-171760776D01*
X63231522Y-171955465D01*
X63199500Y-172157648D01*
X63199500Y-172362351D01*
X63231522Y-172564534D01*
X63294781Y-172759223D01*
X63387715Y-172941613D01*
X63508028Y-173107213D01*
X63613181Y-173212366D01*
X63646666Y-173273689D01*
X63649500Y-173300047D01*
X63649500Y-177016348D01*
X63629815Y-177083387D01*
X63613181Y-177104029D01*
X53339375Y-187377834D01*
X53339372Y-187377838D01*
X53246299Y-187517131D01*
X53246292Y-187517144D01*
X53229728Y-187557136D01*
X53229728Y-187557137D01*
X53182184Y-187671917D01*
X53182182Y-187671925D01*
X53149500Y-187836228D01*
X53149500Y-187959953D01*
X53129815Y-188026992D01*
X53113181Y-188047634D01*
X53008032Y-188152782D01*
X53008028Y-188152786D01*
X52887715Y-188318386D01*
X52794781Y-188500776D01*
X52731522Y-188695465D01*
X52699500Y-188897648D01*
X52699500Y-189102351D01*
X52731522Y-189304534D01*
X52794781Y-189499223D01*
X52839833Y-189587641D01*
X52872382Y-189651522D01*
X52887715Y-189681613D01*
X53008028Y-189847213D01*
X53152786Y-189991971D01*
X53307025Y-190104030D01*
X53318390Y-190112287D01*
X53397864Y-190152781D01*
X53500776Y-190205218D01*
X53500778Y-190205218D01*
X53500781Y-190205220D01*
X53602855Y-190238386D01*
X53695465Y-190268477D01*
X53796557Y-190284488D01*
X53897648Y-190300500D01*
X53897649Y-190300500D01*
X54102351Y-190300500D01*
X54102352Y-190300500D01*
X54304534Y-190268477D01*
X54499219Y-190205220D01*
X54681610Y-190112287D01*
X54774590Y-190044732D01*
X54847213Y-189991971D01*
X54847215Y-189991968D01*
X54847219Y-189991966D01*
X54991966Y-189847219D01*
X54991968Y-189847215D01*
X54991971Y-189847213D01*
X55044732Y-189774590D01*
X55112287Y-189681610D01*
X55205220Y-189499219D01*
X55268477Y-189304534D01*
X55300500Y-189102352D01*
X55300500Y-188897648D01*
X55268477Y-188695466D01*
X55205220Y-188500781D01*
X55205218Y-188500778D01*
X55205218Y-188500776D01*
X55171503Y-188434607D01*
X55112287Y-188318390D01*
X55090172Y-188287951D01*
X55044975Y-188225741D01*
X55021495Y-188159934D01*
X55037321Y-188091881D01*
X55057612Y-188065175D01*
X57518916Y-185603871D01*
X57580239Y-185570386D01*
X57649931Y-185575370D01*
X57705864Y-185617242D01*
X57730281Y-185682706D01*
X57729070Y-185710950D01*
X57699500Y-185897648D01*
X57699500Y-186102351D01*
X57731522Y-186304534D01*
X57794781Y-186499223D01*
X57855208Y-186617815D01*
X57869065Y-186645012D01*
X57887715Y-186681613D01*
X58008028Y-186847213D01*
X58152786Y-186991971D01*
X58307749Y-187104556D01*
X58318390Y-187112287D01*
X58434607Y-187171503D01*
X58500776Y-187205218D01*
X58500778Y-187205218D01*
X58500781Y-187205220D01*
X58564668Y-187225978D01*
X58695465Y-187268477D01*
X58796557Y-187284488D01*
X58897648Y-187300500D01*
X58897649Y-187300500D01*
X59102351Y-187300500D01*
X59102352Y-187300500D01*
X59304534Y-187268477D01*
X59499219Y-187205220D01*
X59681610Y-187112287D01*
X59774590Y-187044732D01*
X59847213Y-186991971D01*
X59847215Y-186991968D01*
X59847219Y-186991966D01*
X59991966Y-186847219D01*
X59991968Y-186847215D01*
X59991971Y-186847213D01*
X60106191Y-186690000D01*
X60112287Y-186681610D01*
X60205220Y-186499219D01*
X60268477Y-186304534D01*
X60300500Y-186102352D01*
X60300500Y-185897648D01*
X60280041Y-185768477D01*
X60268477Y-185695465D01*
X60214786Y-185530222D01*
X60208293Y-185510241D01*
X60206299Y-185440401D01*
X60238542Y-185384245D01*
X63013873Y-182608915D01*
X63075194Y-182575432D01*
X63144886Y-182580416D01*
X63200819Y-182622288D01*
X63224025Y-182677198D01*
X63231523Y-182724536D01*
X63294781Y-182919223D01*
X63387715Y-183101613D01*
X63508028Y-183267213D01*
X63652786Y-183411971D01*
X63779135Y-183503767D01*
X63818390Y-183532287D01*
X63934607Y-183591503D01*
X64000776Y-183625218D01*
X64000778Y-183625218D01*
X64000781Y-183625220D01*
X64105137Y-183659127D01*
X64195465Y-183688477D01*
X64296557Y-183704488D01*
X64397648Y-183720500D01*
X64397649Y-183720500D01*
X64602351Y-183720500D01*
X64602352Y-183720500D01*
X64804534Y-183688477D01*
X64999219Y-183625220D01*
X65181610Y-183532287D01*
X65274590Y-183464732D01*
X65347213Y-183411971D01*
X65347215Y-183411968D01*
X65347219Y-183411966D01*
X65491966Y-183267219D01*
X65491968Y-183267215D01*
X65491971Y-183267213D01*
X65550093Y-183187213D01*
X65612287Y-183101610D01*
X65705220Y-182919219D01*
X65768477Y-182724534D01*
X65800500Y-182522352D01*
X65800500Y-182317648D01*
X65787856Y-182237816D01*
X65768477Y-182115465D01*
X65705218Y-181920776D01*
X65671503Y-181854607D01*
X65612287Y-181738390D01*
X65587032Y-181703629D01*
X65491971Y-181572786D01*
X65347213Y-181428028D01*
X65181613Y-181307715D01*
X65181612Y-181307714D01*
X65181610Y-181307713D01*
X65124653Y-181278691D01*
X64999223Y-181214781D01*
X64804536Y-181151523D01*
X64757198Y-181144025D01*
X64694064Y-181114094D01*
X64657134Y-181054782D01*
X64658132Y-180984920D01*
X64688915Y-180933873D01*
X66937819Y-178684970D01*
X66999142Y-178651485D01*
X67068834Y-178656469D01*
X67124767Y-178698341D01*
X67149184Y-178763805D01*
X67149500Y-178772651D01*
X67149500Y-187266349D01*
X67129815Y-187333388D01*
X67113181Y-187354030D01*
X64884030Y-189583181D01*
X64822707Y-189616666D01*
X64796349Y-189619500D01*
X64647648Y-189619500D01*
X64623329Y-189623351D01*
X64445465Y-189651522D01*
X64250776Y-189714781D01*
X64068386Y-189807715D01*
X63902786Y-189928028D01*
X63758028Y-190072786D01*
X63637715Y-190238386D01*
X63544781Y-190420776D01*
X63481522Y-190615465D01*
X63449500Y-190817648D01*
X63449500Y-191022351D01*
X63481522Y-191224534D01*
X63544781Y-191419223D01*
X63608691Y-191544653D01*
X63637585Y-191601359D01*
X63637715Y-191601613D01*
X63758028Y-191767213D01*
X63902786Y-191911971D01*
X64012892Y-191991966D01*
X64068390Y-192032287D01*
X64184607Y-192091503D01*
X64250776Y-192125218D01*
X64250778Y-192125218D01*
X64250781Y-192125220D01*
X64355137Y-192159127D01*
X64445465Y-192188477D01*
X64489592Y-192195466D01*
X64647648Y-192220500D01*
X64647649Y-192220500D01*
X64852351Y-192220500D01*
X64852352Y-192220500D01*
X65054534Y-192188477D01*
X65249219Y-192125220D01*
X65431610Y-192032287D01*
X65524590Y-191964732D01*
X65597213Y-191911971D01*
X65597215Y-191911968D01*
X65597219Y-191911966D01*
X65741966Y-191767219D01*
X65741968Y-191767215D01*
X65741971Y-191767213D01*
X65804164Y-191681610D01*
X65862287Y-191601610D01*
X65955220Y-191419219D01*
X66018477Y-191224534D01*
X66050500Y-191022352D01*
X66050500Y-190897648D01*
X68699500Y-190897648D01*
X68699500Y-191102351D01*
X68731522Y-191304534D01*
X68794781Y-191499223D01*
X68846818Y-191601349D01*
X68873026Y-191652786D01*
X68887715Y-191681613D01*
X69008028Y-191847213D01*
X69152786Y-191991971D01*
X69307749Y-192104556D01*
X69318390Y-192112287D01*
X69434607Y-192171503D01*
X69500776Y-192205218D01*
X69500778Y-192205218D01*
X69500781Y-192205220D01*
X69605137Y-192239127D01*
X69695465Y-192268477D01*
X69796557Y-192284488D01*
X69897648Y-192300500D01*
X69897649Y-192300500D01*
X70102351Y-192300500D01*
X70102352Y-192300500D01*
X70304534Y-192268477D01*
X70499219Y-192205220D01*
X70681610Y-192112287D01*
X70774590Y-192044732D01*
X70847213Y-191991971D01*
X70847215Y-191991968D01*
X70847219Y-191991966D01*
X70991966Y-191847219D01*
X70991968Y-191847215D01*
X70991971Y-191847213D01*
X71100513Y-191697815D01*
X71112287Y-191681610D01*
X71205220Y-191499219D01*
X71268477Y-191304534D01*
X71300500Y-191102352D01*
X71300500Y-190897648D01*
X71284613Y-190797343D01*
X71268477Y-190695465D01*
X71225530Y-190563288D01*
X71205220Y-190500781D01*
X71205218Y-190500778D01*
X71205218Y-190500776D01*
X71148661Y-190389778D01*
X71112287Y-190318390D01*
X71099289Y-190300500D01*
X70991971Y-190152786D01*
X70847213Y-190008028D01*
X70681613Y-189887715D01*
X70681612Y-189887714D01*
X70681610Y-189887713D01*
X70624653Y-189858691D01*
X70499223Y-189794781D01*
X70304534Y-189731522D01*
X70129995Y-189703878D01*
X70102352Y-189699500D01*
X69897648Y-189699500D01*
X69873329Y-189703351D01*
X69695465Y-189731522D01*
X69500776Y-189794781D01*
X69318386Y-189887715D01*
X69152786Y-190008028D01*
X69008028Y-190152786D01*
X68887715Y-190318386D01*
X68794781Y-190500776D01*
X68731522Y-190695465D01*
X68699500Y-190897648D01*
X66050500Y-190897648D01*
X66050500Y-190873650D01*
X66070185Y-190806611D01*
X66086819Y-190785969D01*
X68660620Y-188212168D01*
X68660626Y-188212162D01*
X68753704Y-188072863D01*
X68756889Y-188065175D01*
X68800472Y-187959953D01*
X68817816Y-187918081D01*
X68850500Y-187753767D01*
X68850500Y-181829047D01*
X68870185Y-181762008D01*
X68922989Y-181716253D01*
X68992147Y-181706309D01*
X69055703Y-181735334D01*
X69062181Y-181741366D01*
X69152786Y-181831971D01*
X69275018Y-181920776D01*
X69318390Y-181952287D01*
X69434607Y-182011503D01*
X69500776Y-182045218D01*
X69500778Y-182045218D01*
X69500781Y-182045220D01*
X69605137Y-182079127D01*
X69695465Y-182108477D01*
X69739592Y-182115466D01*
X69897648Y-182140500D01*
X69897649Y-182140500D01*
X70102351Y-182140500D01*
X70102352Y-182140500D01*
X70304534Y-182108477D01*
X70499219Y-182045220D01*
X70681610Y-181952287D01*
X70774590Y-181884732D01*
X70847213Y-181831971D01*
X70847215Y-181831968D01*
X70847219Y-181831966D01*
X70991966Y-181687219D01*
X70991968Y-181687215D01*
X70991971Y-181687213D01*
X71044732Y-181614590D01*
X71112287Y-181521610D01*
X71205220Y-181339219D01*
X71268477Y-181144534D01*
X71300500Y-180942352D01*
X71300500Y-180737648D01*
X71289198Y-180666292D01*
X71268477Y-180535465D01*
X71205218Y-180340776D01*
X71171503Y-180274607D01*
X71112287Y-180158390D01*
X71080267Y-180114318D01*
X70991971Y-179992786D01*
X70847213Y-179848028D01*
X70681613Y-179727715D01*
X70681612Y-179727714D01*
X70681610Y-179727713D01*
X70618320Y-179695465D01*
X70499223Y-179634781D01*
X70304534Y-179571522D01*
X70129995Y-179543878D01*
X70102352Y-179539500D01*
X69897648Y-179539500D01*
X69873329Y-179543351D01*
X69695465Y-179571522D01*
X69500776Y-179634781D01*
X69318386Y-179727715D01*
X69152786Y-179848028D01*
X69152782Y-179848032D01*
X69062181Y-179938634D01*
X69000858Y-179972119D01*
X68931166Y-179967135D01*
X68875233Y-179925263D01*
X68850816Y-179859799D01*
X68850500Y-179850953D01*
X68850500Y-177069047D01*
X68870185Y-177002008D01*
X68922989Y-176956253D01*
X68992147Y-176946309D01*
X69055703Y-176975334D01*
X69062181Y-176981366D01*
X69152786Y-177071971D01*
X69251011Y-177143334D01*
X69318390Y-177192287D01*
X69434607Y-177251503D01*
X69500776Y-177285218D01*
X69500778Y-177285218D01*
X69500781Y-177285220D01*
X69561747Y-177305029D01*
X69695465Y-177348477D01*
X69796557Y-177364488D01*
X69897648Y-177380500D01*
X69897649Y-177380500D01*
X70102351Y-177380500D01*
X70102352Y-177380500D01*
X70304534Y-177348477D01*
X70499219Y-177285220D01*
X70681610Y-177192287D01*
X70803088Y-177104029D01*
X70847213Y-177071971D01*
X70847215Y-177071968D01*
X70847219Y-177071966D01*
X70991966Y-176927219D01*
X70991968Y-176927215D01*
X70991971Y-176927213D01*
X71088187Y-176794781D01*
X71112287Y-176761610D01*
X71205220Y-176579219D01*
X71268477Y-176384534D01*
X71300500Y-176182352D01*
X71300500Y-175977648D01*
X71294909Y-175942351D01*
X71268477Y-175775465D01*
X71205218Y-175580776D01*
X71171503Y-175514607D01*
X71112287Y-175398390D01*
X71070432Y-175340781D01*
X70991971Y-175232786D01*
X70847213Y-175088028D01*
X70681613Y-174967715D01*
X70681612Y-174967714D01*
X70681610Y-174967713D01*
X70624653Y-174938691D01*
X70499223Y-174874781D01*
X70304534Y-174811522D01*
X70129995Y-174783878D01*
X70102352Y-174779500D01*
X69897648Y-174779500D01*
X69873329Y-174783351D01*
X69695465Y-174811522D01*
X69500776Y-174874781D01*
X69318386Y-174967715D01*
X69152786Y-175088028D01*
X69152782Y-175088032D01*
X69062181Y-175178634D01*
X69000858Y-175212119D01*
X68931166Y-175207135D01*
X68875233Y-175165263D01*
X68850816Y-175099799D01*
X68850500Y-175090953D01*
X68850500Y-166909047D01*
X68870185Y-166842008D01*
X68922989Y-166796253D01*
X68992147Y-166786309D01*
X69055703Y-166815334D01*
X69062181Y-166821366D01*
X69152786Y-166911971D01*
X69307749Y-167024556D01*
X69318390Y-167032287D01*
X69434607Y-167091503D01*
X69500776Y-167125218D01*
X69500778Y-167125218D01*
X69500781Y-167125220D01*
X69595417Y-167155969D01*
X69695465Y-167188477D01*
X69719527Y-167192288D01*
X69897648Y-167220500D01*
X69897649Y-167220500D01*
X70102351Y-167220500D01*
X70102352Y-167220500D01*
X70304534Y-167188477D01*
X70499219Y-167125220D01*
X70681610Y-167032287D01*
X70774590Y-166964732D01*
X70847213Y-166911971D01*
X70847215Y-166911968D01*
X70847219Y-166911966D01*
X70991966Y-166767219D01*
X70991968Y-166767215D01*
X70991971Y-166767213D01*
X71044732Y-166694590D01*
X71112287Y-166601610D01*
X71205220Y-166419219D01*
X71212229Y-166397648D01*
X72699500Y-166397648D01*
X72699500Y-166602351D01*
X72731522Y-166804534D01*
X72794781Y-166999223D01*
X72853303Y-167114076D01*
X72877706Y-167161971D01*
X72887715Y-167181613D01*
X73008028Y-167347213D01*
X73152786Y-167491971D01*
X73293762Y-167594394D01*
X73318390Y-167612287D01*
X73434607Y-167671503D01*
X73500776Y-167705218D01*
X73500778Y-167705218D01*
X73500781Y-167705220D01*
X73600689Y-167737682D01*
X73695465Y-167768477D01*
X73796557Y-167784488D01*
X73897648Y-167800500D01*
X73897649Y-167800500D01*
X74102351Y-167800500D01*
X74102352Y-167800500D01*
X74304534Y-167768477D01*
X74499219Y-167705220D01*
X74681610Y-167612287D01*
X74787186Y-167535582D01*
X74847213Y-167491971D01*
X74847215Y-167491968D01*
X74847219Y-167491966D01*
X74991966Y-167347219D01*
X74991968Y-167347215D01*
X74991971Y-167347213D01*
X75044732Y-167274590D01*
X75112287Y-167181610D01*
X75205220Y-166999219D01*
X75268477Y-166804534D01*
X75300500Y-166602352D01*
X75300500Y-166397648D01*
X75268477Y-166195466D01*
X75263248Y-166179374D01*
X75212229Y-166022352D01*
X75205220Y-166000781D01*
X75205218Y-166000778D01*
X75205218Y-166000776D01*
X75147153Y-165886819D01*
X75112287Y-165818390D01*
X75098226Y-165799036D01*
X74991971Y-165652786D01*
X74847213Y-165508028D01*
X74681613Y-165387715D01*
X74681612Y-165387714D01*
X74681610Y-165387713D01*
X74624653Y-165358691D01*
X74499223Y-165294781D01*
X74304534Y-165231522D01*
X74129995Y-165203878D01*
X74102352Y-165199500D01*
X73897648Y-165199500D01*
X73873329Y-165203351D01*
X73695465Y-165231522D01*
X73500776Y-165294781D01*
X73318386Y-165387715D01*
X73152786Y-165508028D01*
X73008028Y-165652786D01*
X72887715Y-165818386D01*
X72794781Y-166000776D01*
X72731522Y-166195465D01*
X72699500Y-166397648D01*
X71212229Y-166397648D01*
X71268477Y-166224534D01*
X71300500Y-166022352D01*
X71300500Y-165817648D01*
X71290372Y-165753704D01*
X71268477Y-165615465D01*
X71205218Y-165420776D01*
X71155286Y-165322781D01*
X71112287Y-165238390D01*
X71084032Y-165199500D01*
X70991971Y-165072786D01*
X70847213Y-164928028D01*
X70681613Y-164807715D01*
X70681612Y-164807714D01*
X70681610Y-164807713D01*
X70624653Y-164778691D01*
X70499223Y-164714781D01*
X70304534Y-164651522D01*
X70129995Y-164623878D01*
X70102352Y-164619500D01*
X69897648Y-164619500D01*
X69873329Y-164623351D01*
X69695465Y-164651522D01*
X69500776Y-164714781D01*
X69318386Y-164807715D01*
X69152786Y-164928028D01*
X69008028Y-165072786D01*
X68887715Y-165238386D01*
X68794781Y-165420776D01*
X68731522Y-165615465D01*
X68699500Y-165817648D01*
X68699500Y-166022352D01*
X68699882Y-166027203D01*
X68697878Y-166027360D01*
X68689990Y-166088265D01*
X68644978Y-166141704D01*
X68578220Y-166162324D01*
X68510912Y-166143579D01*
X68488805Y-166126017D01*
X66574469Y-164211681D01*
X66540984Y-164150358D01*
X66545968Y-164080666D01*
X66587840Y-164024733D01*
X66653304Y-164000316D01*
X66662150Y-164000000D01*
X76025500Y-164000000D01*
X76092539Y-164019685D01*
X76138294Y-164072489D01*
X76149500Y-164124000D01*
X76149500Y-190016349D01*
X76129815Y-190083388D01*
X76113181Y-190104030D01*
X71684030Y-194533181D01*
X71622707Y-194566666D01*
X71596349Y-194569500D01*
X24363650Y-194569500D01*
X24296611Y-194549815D01*
X24275969Y-194533181D01*
X23746454Y-194003666D01*
X23712969Y-193942343D01*
X23717953Y-193872651D01*
X23759825Y-193816718D01*
X23825289Y-193792301D01*
X23853525Y-193793511D01*
X23897648Y-193800500D01*
X23897651Y-193800500D01*
X24102351Y-193800500D01*
X24102352Y-193800500D01*
X24304534Y-193768477D01*
X24499219Y-193705220D01*
X24681610Y-193612287D01*
X24774590Y-193544732D01*
X24847213Y-193491971D01*
X24847215Y-193491968D01*
X24847219Y-193491966D01*
X24991966Y-193347219D01*
X24991968Y-193347215D01*
X24991971Y-193347213D01*
X25044732Y-193274590D01*
X25112287Y-193181610D01*
X25205220Y-192999219D01*
X25268477Y-192804534D01*
X25300500Y-192602352D01*
X25300500Y-192397648D01*
X25268477Y-192195466D01*
X25205220Y-192000781D01*
X25205218Y-192000778D01*
X25205218Y-192000776D01*
X25136553Y-191866015D01*
X25112287Y-191818390D01*
X25097397Y-191797895D01*
X24991971Y-191652786D01*
X24847213Y-191508028D01*
X24681613Y-191387715D01*
X24681612Y-191387714D01*
X24681610Y-191387713D01*
X24624653Y-191358691D01*
X24499223Y-191294781D01*
X24304534Y-191231522D01*
X24129995Y-191203878D01*
X24102352Y-191199500D01*
X23897648Y-191199500D01*
X23873329Y-191203351D01*
X23695465Y-191231522D01*
X23500776Y-191294781D01*
X23318386Y-191387715D01*
X23152786Y-191508028D01*
X23008028Y-191652786D01*
X22887715Y-191818386D01*
X22794781Y-192000776D01*
X22731522Y-192195465D01*
X22699500Y-192397648D01*
X22699500Y-192602351D01*
X22706487Y-192646466D01*
X22697532Y-192715760D01*
X22652536Y-192769212D01*
X22585784Y-192789851D01*
X22518471Y-192771126D01*
X22496333Y-192753545D01*
X20643245Y-190900457D01*
X20560436Y-190817648D01*
X29949500Y-190817648D01*
X29949500Y-191022351D01*
X29981522Y-191224534D01*
X30044781Y-191419223D01*
X30108691Y-191544653D01*
X30137585Y-191601359D01*
X30137715Y-191601613D01*
X30258028Y-191767213D01*
X30402786Y-191911971D01*
X30512892Y-191991966D01*
X30568390Y-192032287D01*
X30684607Y-192091503D01*
X30750776Y-192125218D01*
X30750778Y-192125218D01*
X30750781Y-192125220D01*
X30855137Y-192159127D01*
X30945465Y-192188477D01*
X30989592Y-192195466D01*
X31147648Y-192220500D01*
X31147649Y-192220500D01*
X31352351Y-192220500D01*
X31352352Y-192220500D01*
X31554534Y-192188477D01*
X31749219Y-192125220D01*
X31931610Y-192032287D01*
X32024590Y-191964732D01*
X32097213Y-191911971D01*
X32097215Y-191911968D01*
X32097219Y-191911966D01*
X32241966Y-191767219D01*
X32241968Y-191767215D01*
X32241971Y-191767213D01*
X32304164Y-191681610D01*
X32362287Y-191601610D01*
X32455220Y-191419219D01*
X32518477Y-191224534D01*
X32550500Y-191022352D01*
X32550500Y-190817648D01*
X37449500Y-190817648D01*
X37449500Y-191022351D01*
X37481522Y-191224534D01*
X37544781Y-191419223D01*
X37608691Y-191544653D01*
X37637585Y-191601359D01*
X37637715Y-191601613D01*
X37758028Y-191767213D01*
X37902786Y-191911971D01*
X38012892Y-191991966D01*
X38068390Y-192032287D01*
X38184607Y-192091503D01*
X38250776Y-192125218D01*
X38250778Y-192125218D01*
X38250781Y-192125220D01*
X38355137Y-192159127D01*
X38445465Y-192188477D01*
X38489592Y-192195466D01*
X38647648Y-192220500D01*
X38647649Y-192220500D01*
X38852351Y-192220500D01*
X38852352Y-192220500D01*
X39054534Y-192188477D01*
X39249219Y-192125220D01*
X39431610Y-192032287D01*
X39524590Y-191964732D01*
X39597213Y-191911971D01*
X39597215Y-191911968D01*
X39597219Y-191911966D01*
X39741966Y-191767219D01*
X39741968Y-191767215D01*
X39741971Y-191767213D01*
X39804164Y-191681610D01*
X39862287Y-191601610D01*
X39955220Y-191419219D01*
X40018477Y-191224534D01*
X40050500Y-191022352D01*
X40050500Y-190817682D01*
X41450000Y-190817682D01*
X41450000Y-191022317D01*
X41482009Y-191224417D01*
X41545244Y-191419031D01*
X41638141Y-191601350D01*
X41638147Y-191601359D01*
X41670523Y-191645921D01*
X41670524Y-191645922D01*
X42350000Y-190966446D01*
X42350000Y-190972661D01*
X42377259Y-191074394D01*
X42429920Y-191165606D01*
X42504394Y-191240080D01*
X42595606Y-191292741D01*
X42697339Y-191320000D01*
X42703553Y-191320000D01*
X42024076Y-191999474D01*
X42068650Y-192031859D01*
X42250968Y-192124755D01*
X42445582Y-192187990D01*
X42647683Y-192220000D01*
X42852317Y-192220000D01*
X43054417Y-192187990D01*
X43249031Y-192124755D01*
X43431349Y-192031859D01*
X43475921Y-191999474D01*
X42796447Y-191320000D01*
X42802661Y-191320000D01*
X42904394Y-191292741D01*
X42995606Y-191240080D01*
X43070080Y-191165606D01*
X43122741Y-191074394D01*
X43150000Y-190972661D01*
X43150000Y-190966447D01*
X43829474Y-191645921D01*
X43861859Y-191601349D01*
X43954755Y-191419031D01*
X44017990Y-191224417D01*
X44050000Y-191022317D01*
X44050000Y-190817682D01*
X44049995Y-190817648D01*
X48949500Y-190817648D01*
X48949500Y-191022351D01*
X48981522Y-191224534D01*
X49044781Y-191419223D01*
X49108691Y-191544653D01*
X49137585Y-191601359D01*
X49137715Y-191601613D01*
X49258028Y-191767213D01*
X49402786Y-191911971D01*
X49512892Y-191991966D01*
X49568390Y-192032287D01*
X49684607Y-192091503D01*
X49750776Y-192125218D01*
X49750778Y-192125218D01*
X49750781Y-192125220D01*
X49855137Y-192159127D01*
X49945465Y-192188477D01*
X49989592Y-192195466D01*
X50147648Y-192220500D01*
X50147649Y-192220500D01*
X50352351Y-192220500D01*
X50352352Y-192220500D01*
X50554534Y-192188477D01*
X50749219Y-192125220D01*
X50931610Y-192032287D01*
X51024590Y-191964732D01*
X51097213Y-191911971D01*
X51097215Y-191911968D01*
X51097219Y-191911966D01*
X51241966Y-191767219D01*
X51241968Y-191767215D01*
X51241971Y-191767213D01*
X51304164Y-191681610D01*
X51362287Y-191601610D01*
X51455220Y-191419219D01*
X51518477Y-191224534D01*
X51550500Y-191022352D01*
X51550500Y-190817648D01*
X55949500Y-190817648D01*
X55949500Y-191022351D01*
X55981522Y-191224534D01*
X56044781Y-191419223D01*
X56108691Y-191544653D01*
X56137585Y-191601359D01*
X56137715Y-191601613D01*
X56258028Y-191767213D01*
X56402786Y-191911971D01*
X56512892Y-191991966D01*
X56568390Y-192032287D01*
X56684607Y-192091503D01*
X56750776Y-192125218D01*
X56750778Y-192125218D01*
X56750781Y-192125220D01*
X56855137Y-192159127D01*
X56945465Y-192188477D01*
X56989592Y-192195466D01*
X57147648Y-192220500D01*
X57147649Y-192220500D01*
X57352351Y-192220500D01*
X57352352Y-192220500D01*
X57554534Y-192188477D01*
X57749219Y-192125220D01*
X57931610Y-192032287D01*
X58024590Y-191964732D01*
X58097213Y-191911971D01*
X58097215Y-191911968D01*
X58097219Y-191911966D01*
X58241966Y-191767219D01*
X58241968Y-191767215D01*
X58241971Y-191767213D01*
X58304164Y-191681610D01*
X58362287Y-191601610D01*
X58455220Y-191419219D01*
X58518477Y-191224534D01*
X58550500Y-191022352D01*
X58550500Y-190817648D01*
X58531148Y-190695465D01*
X58518477Y-190615465D01*
X58482184Y-190503767D01*
X58455220Y-190420781D01*
X58455218Y-190420778D01*
X58455218Y-190420776D01*
X58403047Y-190318386D01*
X58362287Y-190238390D01*
X58338188Y-190205220D01*
X58241971Y-190072786D01*
X58097213Y-189928028D01*
X57931613Y-189807715D01*
X57931612Y-189807714D01*
X57931610Y-189807713D01*
X57849693Y-189765974D01*
X57749223Y-189714781D01*
X57554534Y-189651522D01*
X57379995Y-189623878D01*
X57352352Y-189619500D01*
X57147648Y-189619500D01*
X57123329Y-189623351D01*
X56945465Y-189651522D01*
X56750776Y-189714781D01*
X56568386Y-189807715D01*
X56402786Y-189928028D01*
X56258028Y-190072786D01*
X56137715Y-190238386D01*
X56044781Y-190420776D01*
X55981522Y-190615465D01*
X55949500Y-190817648D01*
X51550500Y-190817648D01*
X51531148Y-190695465D01*
X51518477Y-190615465D01*
X51482184Y-190503767D01*
X51455220Y-190420781D01*
X51455218Y-190420778D01*
X51455218Y-190420776D01*
X51403047Y-190318386D01*
X51362287Y-190238390D01*
X51338188Y-190205220D01*
X51241971Y-190072786D01*
X51097213Y-189928028D01*
X50931613Y-189807715D01*
X50931612Y-189807714D01*
X50931610Y-189807713D01*
X50849693Y-189765974D01*
X50749223Y-189714781D01*
X50554534Y-189651522D01*
X50379995Y-189623878D01*
X50352352Y-189619500D01*
X50147648Y-189619500D01*
X50123329Y-189623351D01*
X49945465Y-189651522D01*
X49750776Y-189714781D01*
X49568386Y-189807715D01*
X49402786Y-189928028D01*
X49258028Y-190072786D01*
X49137715Y-190238386D01*
X49044781Y-190420776D01*
X48981522Y-190615465D01*
X48949500Y-190817648D01*
X44049995Y-190817648D01*
X44017990Y-190615582D01*
X43954755Y-190420968D01*
X43861859Y-190238650D01*
X43829474Y-190194077D01*
X43829474Y-190194076D01*
X43150000Y-190873551D01*
X43150000Y-190867339D01*
X43122741Y-190765606D01*
X43070080Y-190674394D01*
X42995606Y-190599920D01*
X42904394Y-190547259D01*
X42802661Y-190520000D01*
X42796446Y-190520000D01*
X43475922Y-189840524D01*
X43475921Y-189840523D01*
X43431359Y-189808147D01*
X43431350Y-189808141D01*
X43249031Y-189715244D01*
X43054417Y-189652009D01*
X42852317Y-189620000D01*
X42647683Y-189620000D01*
X42445582Y-189652009D01*
X42250968Y-189715244D01*
X42068644Y-189808143D01*
X42024077Y-189840523D01*
X42024077Y-189840524D01*
X42703554Y-190520000D01*
X42697339Y-190520000D01*
X42595606Y-190547259D01*
X42504394Y-190599920D01*
X42429920Y-190674394D01*
X42377259Y-190765606D01*
X42350000Y-190867339D01*
X42350000Y-190873553D01*
X41670524Y-190194077D01*
X41670523Y-190194077D01*
X41638143Y-190238644D01*
X41545244Y-190420968D01*
X41482009Y-190615582D01*
X41450000Y-190817682D01*
X40050500Y-190817682D01*
X40050500Y-190817648D01*
X40031148Y-190695465D01*
X40018477Y-190615465D01*
X39982184Y-190503767D01*
X39955220Y-190420781D01*
X39955218Y-190420778D01*
X39955218Y-190420776D01*
X39903047Y-190318386D01*
X39862287Y-190238390D01*
X39838188Y-190205220D01*
X39741971Y-190072786D01*
X39597213Y-189928028D01*
X39431613Y-189807715D01*
X39431612Y-189807714D01*
X39431610Y-189807713D01*
X39349693Y-189765974D01*
X39249223Y-189714781D01*
X39054534Y-189651522D01*
X38879995Y-189623878D01*
X38852352Y-189619500D01*
X38647648Y-189619500D01*
X38623329Y-189623351D01*
X38445465Y-189651522D01*
X38250776Y-189714781D01*
X38068386Y-189807715D01*
X37902786Y-189928028D01*
X37758028Y-190072786D01*
X37637715Y-190238386D01*
X37544781Y-190420776D01*
X37481522Y-190615465D01*
X37449500Y-190817648D01*
X32550500Y-190817648D01*
X32531148Y-190695465D01*
X32518477Y-190615465D01*
X32482184Y-190503767D01*
X32455220Y-190420781D01*
X32455218Y-190420778D01*
X32455218Y-190420776D01*
X32403047Y-190318386D01*
X32362287Y-190238390D01*
X32338188Y-190205220D01*
X32241971Y-190072786D01*
X32097213Y-189928028D01*
X31931613Y-189807715D01*
X31931612Y-189807714D01*
X31931610Y-189807713D01*
X31849693Y-189765974D01*
X31749223Y-189714781D01*
X31554534Y-189651522D01*
X31379995Y-189623878D01*
X31352352Y-189619500D01*
X31147648Y-189619500D01*
X31123329Y-189623351D01*
X30945465Y-189651522D01*
X30750776Y-189714781D01*
X30568386Y-189807715D01*
X30402786Y-189928028D01*
X30258028Y-190072786D01*
X30137715Y-190238386D01*
X30044781Y-190420776D01*
X29981522Y-190615465D01*
X29949500Y-190817648D01*
X20560436Y-190817648D01*
X20358370Y-190615582D01*
X17933213Y-188190424D01*
X17899728Y-188129101D01*
X17898421Y-188083346D01*
X17900500Y-188070222D01*
X17900500Y-187849778D01*
X17866015Y-187632049D01*
X17797895Y-187422394D01*
X17797895Y-187422393D01*
X17735786Y-187300500D01*
X17697815Y-187225978D01*
X17670569Y-187188477D01*
X17568247Y-187047641D01*
X17568243Y-187047636D01*
X17412363Y-186891756D01*
X17412358Y-186891752D01*
X17272745Y-186790318D01*
X17230079Y-186734989D01*
X17224100Y-186665375D01*
X17256705Y-186603580D01*
X17272745Y-186589682D01*
X17412358Y-186488247D01*
X17412356Y-186488247D01*
X17412365Y-186488242D01*
X17568242Y-186332365D01*
X17697815Y-186154022D01*
X17797895Y-185957606D01*
X17834739Y-185844210D01*
X17843370Y-185817648D01*
X28619500Y-185817648D01*
X28619500Y-186022351D01*
X28651522Y-186224534D01*
X28714781Y-186419223D01*
X28755542Y-186499219D01*
X28801635Y-186589682D01*
X28807715Y-186601613D01*
X28928028Y-186767213D01*
X29072786Y-186911971D01*
X29182892Y-186991966D01*
X29238390Y-187032287D01*
X29354607Y-187091503D01*
X29420776Y-187125218D01*
X29420778Y-187125218D01*
X29420781Y-187125220D01*
X29525137Y-187159127D01*
X29615465Y-187188477D01*
X29716557Y-187204488D01*
X29817648Y-187220500D01*
X29817649Y-187220500D01*
X30022351Y-187220500D01*
X30022352Y-187220500D01*
X30224534Y-187188477D01*
X30419219Y-187125220D01*
X30601610Y-187032287D01*
X30694590Y-186964732D01*
X30767213Y-186911971D01*
X30767215Y-186911968D01*
X30767219Y-186911966D01*
X30911966Y-186767219D01*
X30911968Y-186767215D01*
X30911971Y-186767213D01*
X30985959Y-186665375D01*
X31032287Y-186601610D01*
X31125220Y-186419219D01*
X31188477Y-186224534D01*
X31220500Y-186022352D01*
X31220500Y-185873651D01*
X31229144Y-185844210D01*
X31234923Y-185817648D01*
X38779500Y-185817648D01*
X38779500Y-186022351D01*
X38811522Y-186224534D01*
X38874781Y-186419223D01*
X38915542Y-186499219D01*
X38961635Y-186589682D01*
X38967715Y-186601613D01*
X39088028Y-186767213D01*
X39232786Y-186911971D01*
X39342892Y-186991966D01*
X39398390Y-187032287D01*
X39514607Y-187091503D01*
X39580776Y-187125218D01*
X39580778Y-187125218D01*
X39580781Y-187125220D01*
X39685137Y-187159127D01*
X39775465Y-187188477D01*
X39876557Y-187204488D01*
X39977648Y-187220500D01*
X39977649Y-187220500D01*
X40182351Y-187220500D01*
X40182352Y-187220500D01*
X40384534Y-187188477D01*
X40579219Y-187125220D01*
X40761610Y-187032287D01*
X40854590Y-186964732D01*
X40927213Y-186911971D01*
X40927215Y-186911968D01*
X40927219Y-186911966D01*
X41071966Y-186767219D01*
X41071968Y-186767215D01*
X41071971Y-186767213D01*
X41145959Y-186665375D01*
X41192287Y-186601610D01*
X41285220Y-186419219D01*
X41348477Y-186224534D01*
X41380500Y-186022352D01*
X41380500Y-185817648D01*
X41369461Y-185747951D01*
X41348477Y-185615465D01*
X41314288Y-185510243D01*
X41285220Y-185420781D01*
X41285218Y-185420778D01*
X41285218Y-185420776D01*
X41221973Y-185296652D01*
X41192287Y-185238390D01*
X41184556Y-185227749D01*
X41071971Y-185072786D01*
X40927213Y-184928028D01*
X40761613Y-184807715D01*
X40761612Y-184807714D01*
X40761610Y-184807713D01*
X40704653Y-184778691D01*
X40579223Y-184714781D01*
X40384534Y-184651522D01*
X40209995Y-184623878D01*
X40182352Y-184619500D01*
X39977648Y-184619500D01*
X39953329Y-184623351D01*
X39775465Y-184651522D01*
X39580776Y-184714781D01*
X39398386Y-184807715D01*
X39232786Y-184928028D01*
X39088028Y-185072786D01*
X38967715Y-185238386D01*
X38874781Y-185420776D01*
X38811522Y-185615465D01*
X38779500Y-185817648D01*
X31234923Y-185817648D01*
X31235668Y-185814224D01*
X31239422Y-185809208D01*
X31240185Y-185806612D01*
X31256819Y-185785970D01*
X32645141Y-184397648D01*
X43699500Y-184397648D01*
X43699500Y-184602351D01*
X43731522Y-184804534D01*
X43794781Y-184999223D01*
X43887715Y-185181613D01*
X44008028Y-185347213D01*
X44152786Y-185491971D01*
X44306806Y-185603871D01*
X44318390Y-185612287D01*
X44434607Y-185671503D01*
X44500776Y-185705218D01*
X44500778Y-185705218D01*
X44500781Y-185705220D01*
X44605137Y-185739127D01*
X44695465Y-185768477D01*
X44796557Y-185784488D01*
X44897648Y-185800500D01*
X44897649Y-185800500D01*
X45102351Y-185800500D01*
X45102352Y-185800500D01*
X45304534Y-185768477D01*
X45499219Y-185705220D01*
X45681610Y-185612287D01*
X45822063Y-185510243D01*
X45847213Y-185491971D01*
X45847215Y-185491968D01*
X45847219Y-185491966D01*
X45991966Y-185347219D01*
X45991968Y-185347215D01*
X45991971Y-185347213D01*
X46074042Y-185234250D01*
X46112287Y-185181610D01*
X46205220Y-184999219D01*
X46268477Y-184804534D01*
X46300500Y-184602352D01*
X46300500Y-184397648D01*
X46268477Y-184195466D01*
X46205220Y-184000781D01*
X46205218Y-184000778D01*
X46205218Y-184000776D01*
X46129844Y-183852848D01*
X46112287Y-183818390D01*
X46093379Y-183792365D01*
X45991971Y-183652786D01*
X45847213Y-183508028D01*
X45681613Y-183387715D01*
X45681612Y-183387714D01*
X45681610Y-183387713D01*
X45624653Y-183358691D01*
X45499223Y-183294781D01*
X45304534Y-183231522D01*
X45129995Y-183203878D01*
X45102352Y-183199500D01*
X44897648Y-183199500D01*
X44873329Y-183203351D01*
X44695465Y-183231522D01*
X44500776Y-183294781D01*
X44318386Y-183387715D01*
X44152786Y-183508028D01*
X44008028Y-183652786D01*
X43887715Y-183818386D01*
X43794781Y-184000776D01*
X43731522Y-184195465D01*
X43699500Y-184397648D01*
X32645141Y-184397648D01*
X34735970Y-182306819D01*
X34797293Y-182273334D01*
X34823651Y-182270500D01*
X53503768Y-182270500D01*
X53503769Y-182270499D01*
X53558538Y-182259605D01*
X53668074Y-182237818D01*
X53668078Y-182237816D01*
X53668082Y-182237816D01*
X53713415Y-182219037D01*
X53822863Y-182173704D01*
X53962162Y-182080627D01*
X58865970Y-177176819D01*
X58927293Y-177143334D01*
X58953651Y-177140500D01*
X59102351Y-177140500D01*
X59102352Y-177140500D01*
X59304534Y-177108477D01*
X59499219Y-177045220D01*
X59681610Y-176952287D01*
X59774590Y-176884732D01*
X59847213Y-176831971D01*
X59847215Y-176831968D01*
X59847219Y-176831966D01*
X59991966Y-176687219D01*
X59991968Y-176687215D01*
X59991971Y-176687213D01*
X60070432Y-176579219D01*
X60112287Y-176521610D01*
X60205220Y-176339219D01*
X60268477Y-176144534D01*
X60300500Y-175942352D01*
X60300500Y-175737648D01*
X60268477Y-175535466D01*
X60247668Y-175471424D01*
X60205218Y-175340776D01*
X60171503Y-175274607D01*
X60112287Y-175158390D01*
X60104556Y-175147749D01*
X59991971Y-174992786D01*
X59847213Y-174848028D01*
X59681613Y-174727715D01*
X59681612Y-174727714D01*
X59681610Y-174727713D01*
X59624653Y-174698691D01*
X59499223Y-174634781D01*
X59304534Y-174571522D01*
X59129995Y-174543878D01*
X59102352Y-174539500D01*
X58897648Y-174539500D01*
X58873329Y-174543351D01*
X58695465Y-174571522D01*
X58500776Y-174634781D01*
X58318386Y-174727715D01*
X58152786Y-174848028D01*
X58008028Y-174992786D01*
X57887715Y-175158386D01*
X57794781Y-175340776D01*
X57731522Y-175535465D01*
X57699500Y-175737648D01*
X57699500Y-175886348D01*
X57679815Y-175953387D01*
X57663181Y-175974029D01*
X55356689Y-178280520D01*
X55295366Y-178314005D01*
X55225674Y-178309021D01*
X55169741Y-178267149D01*
X55158523Y-178249134D01*
X55112284Y-178158385D01*
X54991971Y-177992786D01*
X54847213Y-177848028D01*
X54681613Y-177727715D01*
X54681612Y-177727714D01*
X54681610Y-177727713D01*
X54618320Y-177695465D01*
X54499223Y-177634781D01*
X54304534Y-177571522D01*
X54129995Y-177543878D01*
X54102352Y-177539500D01*
X53897648Y-177539500D01*
X53873329Y-177543351D01*
X53695465Y-177571522D01*
X53500776Y-177634781D01*
X53318386Y-177727715D01*
X53152786Y-177848028D01*
X53008028Y-177992786D01*
X52887715Y-178158386D01*
X52794781Y-178340776D01*
X52731522Y-178535465D01*
X52699500Y-178737648D01*
X52699500Y-178942351D01*
X52731522Y-179144534D01*
X52794781Y-179339223D01*
X52858691Y-179464653D01*
X52876306Y-179499223D01*
X52887715Y-179521613D01*
X53008028Y-179687213D01*
X53152786Y-179831971D01*
X53318385Y-179952284D01*
X53318387Y-179952285D01*
X53318390Y-179952287D01*
X53409135Y-179998523D01*
X53459930Y-180046497D01*
X53476725Y-180114318D01*
X53454188Y-180180453D01*
X53440521Y-180196689D01*
X53104028Y-180533182D01*
X53042707Y-180566666D01*
X53016349Y-180569500D01*
X37353056Y-180569500D01*
X37286017Y-180549815D01*
X37240262Y-180497011D01*
X37230318Y-180427853D01*
X37235125Y-180407182D01*
X37268476Y-180304538D01*
X37268476Y-180304537D01*
X37268477Y-180304534D01*
X37300500Y-180102352D01*
X37300500Y-179897648D01*
X37292642Y-179848034D01*
X37268477Y-179695465D01*
X37228205Y-179571522D01*
X37205220Y-179500781D01*
X37205218Y-179500778D01*
X37205218Y-179500776D01*
X37171503Y-179434607D01*
X37112287Y-179318390D01*
X37099289Y-179300500D01*
X36991971Y-179152786D01*
X36847213Y-179008028D01*
X36681613Y-178887715D01*
X36681612Y-178887714D01*
X36681610Y-178887713D01*
X36624653Y-178858691D01*
X36499223Y-178794781D01*
X36304534Y-178731522D01*
X36129995Y-178703878D01*
X36102352Y-178699500D01*
X35897648Y-178699500D01*
X35873329Y-178703351D01*
X35695465Y-178731522D01*
X35500776Y-178794781D01*
X35318386Y-178887715D01*
X35152786Y-179008028D01*
X35008028Y-179152786D01*
X34887715Y-179318386D01*
X34794781Y-179500776D01*
X34731522Y-179695465D01*
X34699500Y-179897648D01*
X34699500Y-180102351D01*
X34731523Y-180304535D01*
X34731523Y-180304538D01*
X34764875Y-180407182D01*
X34766870Y-180477023D01*
X34730790Y-180536856D01*
X34668089Y-180567684D01*
X34646944Y-180569500D01*
X34336228Y-180569500D01*
X34171925Y-180602182D01*
X34171913Y-180602185D01*
X34126583Y-180620962D01*
X34017143Y-180666292D01*
X34017130Y-180666299D01*
X33877838Y-180759372D01*
X33877834Y-180759375D01*
X30054030Y-184583181D01*
X29992707Y-184616666D01*
X29966349Y-184619500D01*
X29817648Y-184619500D01*
X29793329Y-184623351D01*
X29615465Y-184651522D01*
X29420776Y-184714781D01*
X29238386Y-184807715D01*
X29072786Y-184928028D01*
X28928028Y-185072786D01*
X28807715Y-185238386D01*
X28714781Y-185420776D01*
X28651522Y-185615465D01*
X28619500Y-185817648D01*
X17843370Y-185817648D01*
X17857403Y-185774458D01*
X17857403Y-185774457D01*
X17866014Y-185747954D01*
X17866013Y-185747954D01*
X17866015Y-185747951D01*
X17900500Y-185530222D01*
X17900500Y-185309778D01*
X17866015Y-185092049D01*
X17812722Y-184928028D01*
X17797896Y-184882396D01*
X17797895Y-184882393D01*
X17758223Y-184804534D01*
X17697815Y-184685978D01*
X17623129Y-184583181D01*
X17568247Y-184507641D01*
X17568243Y-184507636D01*
X17412363Y-184351756D01*
X17412358Y-184351752D01*
X17272745Y-184250318D01*
X17230079Y-184194989D01*
X17224100Y-184125375D01*
X17256705Y-184063580D01*
X17272745Y-184049682D01*
X17412358Y-183948247D01*
X17412356Y-183948247D01*
X17412365Y-183948242D01*
X17568242Y-183792365D01*
X17697815Y-183614022D01*
X17797895Y-183417606D01*
X17866015Y-183207951D01*
X17900500Y-182990222D01*
X17900500Y-182769778D01*
X17866015Y-182552049D01*
X17797895Y-182342394D01*
X17797895Y-182342393D01*
X17744609Y-182237815D01*
X17697815Y-182145978D01*
X17650333Y-182080624D01*
X17568247Y-181967641D01*
X17568243Y-181967636D01*
X17412367Y-181811760D01*
X17412361Y-181811755D01*
X17401612Y-181803945D01*
X17358948Y-181748614D01*
X17350500Y-181703629D01*
X17350500Y-178897648D01*
X22699500Y-178897648D01*
X22699500Y-179102351D01*
X22731522Y-179304534D01*
X22794781Y-179499223D01*
X22887715Y-179681613D01*
X23008028Y-179847213D01*
X23113181Y-179952366D01*
X23146666Y-180013689D01*
X23149500Y-180040047D01*
X23149500Y-181299953D01*
X23129815Y-181366992D01*
X23113181Y-181387634D01*
X23008032Y-181492782D01*
X23008028Y-181492786D01*
X22887715Y-181658386D01*
X22794781Y-181840776D01*
X22731522Y-182035465D01*
X22699500Y-182237648D01*
X22699500Y-182442351D01*
X22731522Y-182644534D01*
X22794781Y-182839223D01*
X22835542Y-182919219D01*
X22871719Y-182990221D01*
X22887715Y-183021613D01*
X23008028Y-183187213D01*
X23152786Y-183331971D01*
X23262892Y-183411966D01*
X23318390Y-183452287D01*
X23434607Y-183511503D01*
X23500776Y-183545218D01*
X23500778Y-183545218D01*
X23500781Y-183545220D01*
X23605137Y-183579127D01*
X23695465Y-183608477D01*
X23796557Y-183624488D01*
X23897648Y-183640500D01*
X23897649Y-183640500D01*
X24102351Y-183640500D01*
X24102352Y-183640500D01*
X24304534Y-183608477D01*
X24499219Y-183545220D01*
X24681610Y-183452287D01*
X24774590Y-183384732D01*
X24847213Y-183331971D01*
X24847215Y-183331968D01*
X24847219Y-183331966D01*
X24991966Y-183187219D01*
X24991968Y-183187215D01*
X24991971Y-183187213D01*
X25054164Y-183101610D01*
X25112287Y-183021610D01*
X25205220Y-182839219D01*
X25268477Y-182644534D01*
X25300500Y-182442352D01*
X25300500Y-182237648D01*
X25290372Y-182173704D01*
X25268477Y-182035465D01*
X25239127Y-181945137D01*
X25205220Y-181840781D01*
X25205218Y-181840778D01*
X25205218Y-181840776D01*
X25159916Y-181751867D01*
X25112287Y-181658390D01*
X25050093Y-181572786D01*
X24991971Y-181492786D01*
X24886819Y-181387634D01*
X24853334Y-181326311D01*
X24850500Y-181299953D01*
X24850500Y-180040047D01*
X24870185Y-179973008D01*
X24886819Y-179952366D01*
X24913922Y-179925263D01*
X24991966Y-179847219D01*
X24991968Y-179847215D01*
X24991971Y-179847213D01*
X25078791Y-179727713D01*
X25112287Y-179681610D01*
X25205220Y-179499219D01*
X25268477Y-179304534D01*
X25300500Y-179102352D01*
X25300500Y-178897648D01*
X25269116Y-178699500D01*
X25268477Y-178695465D01*
X25216490Y-178535466D01*
X25205220Y-178500781D01*
X25205218Y-178500778D01*
X25205218Y-178500776D01*
X25158772Y-178409622D01*
X25112287Y-178318390D01*
X25061970Y-178249134D01*
X24991971Y-178152786D01*
X24847213Y-178008028D01*
X24826657Y-177993094D01*
X24695285Y-177897648D01*
X28699500Y-177897648D01*
X28699500Y-178102351D01*
X28731522Y-178304534D01*
X28794781Y-178499223D01*
X28887715Y-178681613D01*
X29008028Y-178847213D01*
X29152786Y-178991971D01*
X29307749Y-179104556D01*
X29318390Y-179112287D01*
X29397864Y-179152781D01*
X29500776Y-179205218D01*
X29500778Y-179205218D01*
X29500781Y-179205220D01*
X29605137Y-179239127D01*
X29695465Y-179268477D01*
X29796557Y-179284488D01*
X29897648Y-179300500D01*
X29897649Y-179300500D01*
X30102351Y-179300500D01*
X30102352Y-179300500D01*
X30304534Y-179268477D01*
X30499219Y-179205220D01*
X30681610Y-179112287D01*
X30774590Y-179044732D01*
X30847213Y-178991971D01*
X30847215Y-178991968D01*
X30847219Y-178991966D01*
X30991966Y-178847219D01*
X30991968Y-178847215D01*
X30991971Y-178847213D01*
X31100131Y-178698341D01*
X31112287Y-178681610D01*
X31205220Y-178499219D01*
X31268477Y-178304534D01*
X31300500Y-178102352D01*
X31300500Y-177897648D01*
X31268477Y-177695466D01*
X31259579Y-177668082D01*
X31239127Y-177605137D01*
X31205220Y-177500781D01*
X31205218Y-177500778D01*
X31205218Y-177500776D01*
X31171503Y-177434607D01*
X31112287Y-177318390D01*
X31088188Y-177285220D01*
X30991971Y-177152786D01*
X30847213Y-177008028D01*
X30681613Y-176887715D01*
X30681612Y-176887714D01*
X30681610Y-176887713D01*
X30624653Y-176858691D01*
X30499223Y-176794781D01*
X30304534Y-176731522D01*
X30129995Y-176703878D01*
X30102352Y-176699500D01*
X29897648Y-176699500D01*
X29873329Y-176703351D01*
X29695465Y-176731522D01*
X29500776Y-176794781D01*
X29318386Y-176887715D01*
X29152786Y-177008028D01*
X29008028Y-177152786D01*
X28887715Y-177318386D01*
X28794781Y-177500776D01*
X28731522Y-177695465D01*
X28699500Y-177897648D01*
X24695285Y-177897648D01*
X24681613Y-177887715D01*
X24681612Y-177887714D01*
X24681610Y-177887713D01*
X24603724Y-177848028D01*
X24499223Y-177794781D01*
X24304534Y-177731522D01*
X24129995Y-177703878D01*
X24102352Y-177699500D01*
X23897648Y-177699500D01*
X23873329Y-177703351D01*
X23695465Y-177731522D01*
X23500776Y-177794781D01*
X23318386Y-177887715D01*
X23152786Y-178008028D01*
X23008028Y-178152786D01*
X22887715Y-178318386D01*
X22794781Y-178500776D01*
X22731522Y-178695465D01*
X22699500Y-178897648D01*
X17350500Y-178897648D01*
X17350500Y-174237648D01*
X43699500Y-174237648D01*
X43699500Y-174442351D01*
X43731522Y-174644534D01*
X43794781Y-174839223D01*
X43858691Y-174964653D01*
X43873026Y-174992786D01*
X43887715Y-175021613D01*
X44008028Y-175187213D01*
X44152786Y-175331971D01*
X44307749Y-175444556D01*
X44318390Y-175452287D01*
X44434607Y-175511503D01*
X44500776Y-175545218D01*
X44500778Y-175545218D01*
X44500781Y-175545220D01*
X44605137Y-175579127D01*
X44695465Y-175608477D01*
X44796557Y-175624488D01*
X44897648Y-175640500D01*
X44897649Y-175640500D01*
X45102351Y-175640500D01*
X45102352Y-175640500D01*
X45304534Y-175608477D01*
X45499219Y-175545220D01*
X45681610Y-175452287D01*
X45774590Y-175384732D01*
X45847213Y-175331971D01*
X45847215Y-175331968D01*
X45847219Y-175331966D01*
X45991966Y-175187219D01*
X45991968Y-175187215D01*
X45991971Y-175187213D01*
X46061907Y-175090953D01*
X46112287Y-175021610D01*
X46205220Y-174839219D01*
X46268477Y-174644534D01*
X46300500Y-174442352D01*
X46300500Y-174237648D01*
X46268477Y-174035466D01*
X46205220Y-173840781D01*
X46205218Y-173840778D01*
X46205218Y-173840776D01*
X46171503Y-173774607D01*
X46112287Y-173658390D01*
X46104556Y-173647749D01*
X45991971Y-173492786D01*
X45847213Y-173348028D01*
X45681613Y-173227715D01*
X45681612Y-173227714D01*
X45681610Y-173227713D01*
X45624653Y-173198691D01*
X45499223Y-173134781D01*
X45304534Y-173071522D01*
X45129995Y-173043878D01*
X45102352Y-173039500D01*
X44897648Y-173039500D01*
X44873329Y-173043351D01*
X44695465Y-173071522D01*
X44500776Y-173134781D01*
X44318386Y-173227715D01*
X44152786Y-173348028D01*
X44008028Y-173492786D01*
X43887715Y-173658386D01*
X43794781Y-173840776D01*
X43731522Y-174035465D01*
X43699500Y-174237648D01*
X17350500Y-174237648D01*
X17350500Y-168737648D01*
X22699500Y-168737648D01*
X22699500Y-168942351D01*
X22731522Y-169144534D01*
X22794781Y-169339223D01*
X22887715Y-169521613D01*
X23008028Y-169687213D01*
X23152786Y-169831971D01*
X23307749Y-169944556D01*
X23318390Y-169952287D01*
X23434607Y-170011503D01*
X23500776Y-170045218D01*
X23500778Y-170045218D01*
X23500781Y-170045220D01*
X23605137Y-170079127D01*
X23695465Y-170108477D01*
X23796557Y-170124488D01*
X23897648Y-170140500D01*
X23897649Y-170140500D01*
X24102351Y-170140500D01*
X24102352Y-170140500D01*
X24304534Y-170108477D01*
X24499219Y-170045220D01*
X24681610Y-169952287D01*
X24774590Y-169884732D01*
X24847213Y-169831971D01*
X24847215Y-169831968D01*
X24847219Y-169831966D01*
X24991966Y-169687219D01*
X24991968Y-169687215D01*
X24991971Y-169687213D01*
X25044732Y-169614590D01*
X25112287Y-169521610D01*
X25205220Y-169339219D01*
X25268477Y-169144534D01*
X25300500Y-168942352D01*
X25300500Y-168737648D01*
X25268477Y-168535466D01*
X25263893Y-168521359D01*
X25205218Y-168340776D01*
X25130203Y-168193553D01*
X25112287Y-168158390D01*
X25102135Y-168144417D01*
X24991971Y-167992786D01*
X24847219Y-167848034D01*
X24826712Y-167833135D01*
X24826710Y-167833132D01*
X24695332Y-167737682D01*
X28700000Y-167737682D01*
X28700000Y-167942317D01*
X28732009Y-168144417D01*
X28795244Y-168339031D01*
X28888141Y-168521350D01*
X28888147Y-168521359D01*
X28920523Y-168565921D01*
X28920524Y-168565922D01*
X29600000Y-167886446D01*
X29600000Y-167892661D01*
X29627259Y-167994394D01*
X29679920Y-168085606D01*
X29754394Y-168160080D01*
X29845606Y-168212741D01*
X29947339Y-168240000D01*
X29953553Y-168240000D01*
X29274076Y-168919474D01*
X29318650Y-168951859D01*
X29500968Y-169044755D01*
X29695582Y-169107990D01*
X29897683Y-169140000D01*
X30102317Y-169140000D01*
X30304417Y-169107990D01*
X30499031Y-169044755D01*
X30681349Y-168951859D01*
X30725921Y-168919474D01*
X30046447Y-168240000D01*
X30052661Y-168240000D01*
X30154394Y-168212741D01*
X30245606Y-168160080D01*
X30320080Y-168085606D01*
X30372741Y-167994394D01*
X30400000Y-167892661D01*
X30400000Y-167886447D01*
X31079474Y-168565921D01*
X31111859Y-168521349D01*
X31204755Y-168339031D01*
X31267990Y-168144417D01*
X31300000Y-167942317D01*
X31300000Y-167737682D01*
X31267990Y-167535582D01*
X31204755Y-167340968D01*
X31111859Y-167158650D01*
X31079474Y-167114077D01*
X31079474Y-167114076D01*
X30400000Y-167793551D01*
X30400000Y-167787339D01*
X30372741Y-167685606D01*
X30320080Y-167594394D01*
X30245606Y-167519920D01*
X30154394Y-167467259D01*
X30052661Y-167440000D01*
X30046446Y-167440000D01*
X30725922Y-166760524D01*
X30725921Y-166760523D01*
X30681359Y-166728147D01*
X30681350Y-166728141D01*
X30499031Y-166635244D01*
X30304417Y-166572009D01*
X30102317Y-166540000D01*
X29897683Y-166540000D01*
X29695582Y-166572009D01*
X29500968Y-166635244D01*
X29318644Y-166728143D01*
X29274077Y-166760523D01*
X29274077Y-166760524D01*
X29953554Y-167440000D01*
X29947339Y-167440000D01*
X29845606Y-167467259D01*
X29754394Y-167519920D01*
X29679920Y-167594394D01*
X29627259Y-167685606D01*
X29600000Y-167787339D01*
X29600000Y-167793553D01*
X28920524Y-167114077D01*
X28920523Y-167114077D01*
X28888143Y-167158644D01*
X28795244Y-167340968D01*
X28732009Y-167535582D01*
X28700000Y-167737682D01*
X24695332Y-167737682D01*
X24681613Y-167727715D01*
X24681612Y-167727714D01*
X24681610Y-167727713D01*
X24618320Y-167695465D01*
X24499223Y-167634781D01*
X24304534Y-167571522D01*
X24129995Y-167543878D01*
X24102352Y-167539500D01*
X23897648Y-167539500D01*
X23873329Y-167543351D01*
X23695465Y-167571522D01*
X23500776Y-167634781D01*
X23318386Y-167727715D01*
X23152786Y-167848028D01*
X23008028Y-167992786D01*
X22887715Y-168158386D01*
X22794781Y-168340776D01*
X22731522Y-168535465D01*
X22699500Y-168737648D01*
X17350500Y-168737648D01*
X17350500Y-166067648D01*
X19699500Y-166067648D01*
X19699500Y-166272351D01*
X19731522Y-166474534D01*
X19794781Y-166669223D01*
X19854440Y-166786309D01*
X19869229Y-166815334D01*
X19887715Y-166851613D01*
X20008028Y-167017213D01*
X20152786Y-167161971D01*
X20265210Y-167243650D01*
X20318390Y-167282287D01*
X20433558Y-167340968D01*
X20500776Y-167375218D01*
X20500778Y-167375218D01*
X20500781Y-167375220D01*
X20605137Y-167409127D01*
X20695465Y-167438477D01*
X20796557Y-167454488D01*
X20897648Y-167470500D01*
X20897649Y-167470500D01*
X21102351Y-167470500D01*
X21102352Y-167470500D01*
X21304534Y-167438477D01*
X21499219Y-167375220D01*
X21681610Y-167282287D01*
X21805484Y-167192288D01*
X21847213Y-167161971D01*
X21847215Y-167161968D01*
X21847219Y-167161966D01*
X21991966Y-167017219D01*
X21991968Y-167017215D01*
X21991971Y-167017213D01*
X22044732Y-166944590D01*
X22112287Y-166851610D01*
X22173475Y-166731523D01*
X22205218Y-166669223D01*
X22205218Y-166669222D01*
X22205220Y-166669219D01*
X22268477Y-166474534D01*
X22300500Y-166272352D01*
X22300500Y-166067648D01*
X22271859Y-165886819D01*
X22268477Y-165865465D01*
X22205218Y-165670776D01*
X22171503Y-165604607D01*
X22112287Y-165488390D01*
X22063163Y-165420776D01*
X21991971Y-165322786D01*
X21847213Y-165178028D01*
X21681613Y-165057715D01*
X21681612Y-165057714D01*
X21681610Y-165057713D01*
X21624653Y-165028691D01*
X21499223Y-164964781D01*
X21304534Y-164901522D01*
X21129995Y-164873878D01*
X21102352Y-164869500D01*
X20897648Y-164869500D01*
X20873329Y-164873351D01*
X20695465Y-164901522D01*
X20500776Y-164964781D01*
X20318386Y-165057715D01*
X20152786Y-165178028D01*
X20008028Y-165322786D01*
X19887715Y-165488386D01*
X19794781Y-165670776D01*
X19731522Y-165865465D01*
X19699500Y-166067648D01*
X17350500Y-166067648D01*
X17350500Y-164124000D01*
X17370185Y-164056961D01*
X17422989Y-164011206D01*
X17474500Y-164000000D01*
X21245849Y-164000000D01*
X21312888Y-164019685D01*
G37*
%TD.AperFunction*%
%TD*%
%TA.AperFunction,NonConductor*%
G36*
X65879211Y-172682106D02*
G01*
X65930687Y-172729350D01*
X65948500Y-172793384D01*
X65948500Y-177217348D01*
X65928815Y-177284387D01*
X65912181Y-177305029D01*
X65549426Y-177667784D01*
X65488103Y-177701269D01*
X65418411Y-177696285D01*
X65362478Y-177654413D01*
X65338061Y-177588949D01*
X65340128Y-177555911D01*
X65343392Y-177539500D01*
X65350500Y-177503767D01*
X65350500Y-173300047D01*
X65370185Y-173233008D01*
X65386819Y-173212366D01*
X65491966Y-173107219D01*
X65491968Y-173107215D01*
X65491971Y-173107213D01*
X65544732Y-173034590D01*
X65612287Y-172941610D01*
X65705220Y-172759219D01*
X65706569Y-172755066D01*
X65746006Y-172697391D01*
X65810364Y-172670192D01*
X65879211Y-172682106D01*
G37*
%TD.AperFunction*%
%TA.AperFunction,NonConductor*%
G36*
X15592539Y-164019685D02*
G01*
X15638294Y-164072489D01*
X15649500Y-164124000D01*
X15649500Y-181703629D01*
X15639979Y-181736051D01*
X15631060Y-181768692D01*
X15630086Y-181769741D01*
X15629815Y-181770668D01*
X15608454Y-181795796D01*
X15603635Y-181800132D01*
X15587635Y-181811758D01*
X15559864Y-181839528D01*
X15557454Y-181841698D01*
X15528763Y-181855459D01*
X15500858Y-181870697D01*
X15497496Y-181870456D01*
X15494456Y-181871915D01*
X15462887Y-181867981D01*
X15431166Y-181865713D01*
X15428467Y-181863692D01*
X15425122Y-181863276D01*
X15400689Y-181842898D01*
X15375233Y-181823841D01*
X15374055Y-181820683D01*
X15371466Y-181818524D01*
X15361930Y-181788175D01*
X15350816Y-181758377D01*
X15350591Y-181752087D01*
X15350522Y-181751867D01*
X15350576Y-181751668D01*
X15350500Y-181749531D01*
X15350500Y-164124000D01*
X15370185Y-164056961D01*
X15422989Y-164011206D01*
X15474500Y-164000000D01*
X15525500Y-164000000D01*
X15592539Y-164019685D01*
G37*
%TD.AperFunction*%
%TA.AperFunction,NonConductor*%
G36*
X13705703Y-183759135D02*
G01*
X13739059Y-183805392D01*
X13746296Y-183822863D01*
X13746298Y-183822866D01*
X13746299Y-183822868D01*
X13839372Y-183962161D01*
X13839375Y-183962165D01*
X15066786Y-185189574D01*
X15100271Y-185250897D01*
X15101578Y-185296652D01*
X15099500Y-185309772D01*
X15099500Y-185530221D01*
X15133985Y-185747952D01*
X15202103Y-185957603D01*
X15202104Y-185957606D01*
X15302187Y-186154025D01*
X15431752Y-186332358D01*
X15431756Y-186332363D01*
X15587636Y-186488243D01*
X15587641Y-186488247D01*
X15727254Y-186589682D01*
X15769920Y-186645012D01*
X15775899Y-186714625D01*
X15743293Y-186776420D01*
X15727254Y-186790318D01*
X15587641Y-186891752D01*
X15587636Y-186891756D01*
X15431756Y-187047636D01*
X15431752Y-187047641D01*
X15302187Y-187225974D01*
X15202104Y-187422393D01*
X15202103Y-187422396D01*
X15133985Y-187632047D01*
X15114706Y-187753771D01*
X15099500Y-187849778D01*
X15099500Y-188070222D01*
X15108826Y-188129101D01*
X15133985Y-188287952D01*
X15202103Y-188497603D01*
X15202104Y-188497606D01*
X15302187Y-188694025D01*
X15431752Y-188872358D01*
X15431756Y-188872363D01*
X15587636Y-189028243D01*
X15587641Y-189028247D01*
X15727254Y-189129682D01*
X15769920Y-189185012D01*
X15775899Y-189254625D01*
X15743293Y-189316420D01*
X15727254Y-189330318D01*
X15587641Y-189431752D01*
X15587636Y-189431756D01*
X15431756Y-189587636D01*
X15431752Y-189587641D01*
X15302187Y-189765974D01*
X15202104Y-189962393D01*
X15202103Y-189962396D01*
X15133985Y-190172047D01*
X15123437Y-190238644D01*
X15099500Y-190389778D01*
X15099500Y-190610222D01*
X15100331Y-190615466D01*
X15133985Y-190827952D01*
X15202103Y-191037603D01*
X15202104Y-191037606D01*
X15235095Y-191102352D01*
X15300911Y-191231522D01*
X15302187Y-191234025D01*
X15431752Y-191412358D01*
X15431756Y-191412363D01*
X15587636Y-191568243D01*
X15587641Y-191568247D01*
X15743192Y-191681260D01*
X15765978Y-191697815D01*
X15894375Y-191763237D01*
X15962393Y-191797895D01*
X15962396Y-191797896D01*
X16025472Y-191818390D01*
X16172049Y-191866015D01*
X16389778Y-191900500D01*
X16389779Y-191900500D01*
X16610221Y-191900500D01*
X16610222Y-191900500D01*
X16827951Y-191866015D01*
X17037606Y-191797895D01*
X17234022Y-191697815D01*
X17412365Y-191568242D01*
X17568242Y-191412365D01*
X17697815Y-191234022D01*
X17797895Y-191037606D01*
X17866015Y-190827951D01*
X17868846Y-190810073D01*
X17898771Y-190746941D01*
X17958081Y-190710007D01*
X18027944Y-190711001D01*
X18079000Y-190741788D01*
X23417831Y-196080620D01*
X23417834Y-196080622D01*
X23417838Y-196080626D01*
X23557137Y-196173704D01*
X23666584Y-196219037D01*
X23711918Y-196237816D01*
X23876228Y-196270499D01*
X23876232Y-196270500D01*
X23876233Y-196270500D01*
X72083768Y-196270500D01*
X72083769Y-196270499D01*
X72138538Y-196259605D01*
X72248074Y-196237818D01*
X72248078Y-196237816D01*
X72248082Y-196237816D01*
X72293415Y-196219037D01*
X72402863Y-196173704D01*
X72542162Y-196080627D01*
X77660627Y-190962162D01*
X77753704Y-190822863D01*
X77760939Y-190805395D01*
X77804779Y-190750994D01*
X77871073Y-190728928D01*
X77938772Y-190746207D01*
X77986383Y-190797343D01*
X77999500Y-190852849D01*
X77999500Y-196795500D01*
X77979815Y-196862539D01*
X77927011Y-196908294D01*
X77875500Y-196919500D01*
X13624500Y-196919500D01*
X13557461Y-196899815D01*
X13511706Y-196847011D01*
X13500500Y-196795500D01*
X13500500Y-183852848D01*
X13520185Y-183785809D01*
X13572989Y-183740054D01*
X13642147Y-183730110D01*
X13705703Y-183759135D01*
G37*
%TD.AperFunction*%
M02*
