%TF.GenerationSoftware,KiCad,Pcbnew,9.0.4*%
%TF.CreationDate,2025-12-01T01:33:34-03:00*%
%TF.ProjectId,Cnal+Fonte,436e616c-2b46-46f6-9e74-652e6b696361,rev?*%
%TF.SameCoordinates,Original*%
%TF.FileFunction,Paste,Top*%
%TF.FilePolarity,Positive*%
%FSLAX46Y46*%
G04 Gerber Fmt 4.6, Leading zero omitted, Abs format (unit mm)*
G04 Created by KiCad (PCBNEW 9.0.4) date 2025-12-01 01:33:34*
%MOMM*%
%LPD*%
G01*
G04 APERTURE LIST*
%ADD10R,1.981200X0.533400*%
%ADD11R,0.946899X0.558800*%
%ADD12O,1.450000X0.599999*%
%ADD13R,0.972299X0.508000*%
%ADD14R,0.508000X0.972299*%
%ADD15R,0.558000X1.454899*%
G04 APERTURE END LIST*
D10*
%TO.C,U7*%
X89785899Y-183325000D03*
X89785899Y-182055000D03*
X89785899Y-180785000D03*
X89785899Y-179515000D03*
X94713499Y-179515000D03*
X94713499Y-180785000D03*
X94713499Y-182055000D03*
X94713499Y-183325000D03*
%TD*%
D11*
%TO.C,U6*%
X91499397Y-171041000D03*
X91499397Y-171980500D03*
X91499397Y-172920000D03*
X94249699Y-172920000D03*
X94249699Y-171041000D03*
%TD*%
%TO.C,U5*%
X91999397Y-155041000D03*
X91999397Y-155980500D03*
X91999397Y-156920000D03*
X94749699Y-156920000D03*
X94749699Y-155041000D03*
%TD*%
D12*
%TO.C,U2*%
X48774999Y-167610000D03*
X48774999Y-168880000D03*
X48774999Y-170150000D03*
X48774999Y-171420000D03*
X48774999Y-172690000D03*
X48774999Y-173960000D03*
X48774999Y-175230000D03*
X54224998Y-175230000D03*
X54224998Y-173960000D03*
X54224998Y-172690000D03*
X54224998Y-171420000D03*
X54224998Y-170150000D03*
X54224998Y-168880000D03*
X54224998Y-167610000D03*
%TD*%
D13*
%TO.C,U4*%
X59500000Y-150820002D03*
X59500000Y-149870001D03*
X59500000Y-148920000D03*
X56775098Y-148920000D03*
X56775098Y-150820002D03*
%TD*%
D14*
%TO.C,U3*%
X51000000Y-158695098D03*
X50049999Y-158695098D03*
X49099998Y-158695098D03*
X49099998Y-161420000D03*
X51000000Y-161420000D03*
%TD*%
D15*
%TO.C,U1*%
X33316348Y-137862696D03*
X34586348Y-137862696D03*
X35856348Y-137862696D03*
X37126348Y-137862696D03*
X37126348Y-132420000D03*
X35856348Y-132420000D03*
X34586348Y-132420000D03*
X33316348Y-132420000D03*
%TD*%
M02*
