%TF.GenerationSoftware,KiCad,Pcbnew,9.0.4*%
%TF.CreationDate,2025-12-01T10:12:17-03:00*%
%TF.ProjectId,Canal,43616e61-6c2e-46b6-9963-61645f706362,rev?*%
%TF.SameCoordinates,Original*%
%TF.FileFunction,Copper,L2,Bot*%
%TF.FilePolarity,Positive*%
%FSLAX46Y46*%
G04 Gerber Fmt 4.6, Leading zero omitted, Abs format (unit mm)*
G04 Created by KiCad (PCBNEW 9.0.4) date 2025-12-01 10:12:17*
%MOMM*%
%LPD*%
G01*
G04 APERTURE LIST*
G04 Aperture macros list*
%AMRoundRect*
0 Rectangle with rounded corners*
0 $1 Rounding radius*
0 $2 $3 $4 $5 $6 $7 $8 $9 X,Y pos of 4 corners*
0 Add a 4 corners polygon primitive as box body*
4,1,4,$2,$3,$4,$5,$6,$7,$8,$9,$2,$3,0*
0 Add four circle primitives for the rounded corners*
1,1,$1+$1,$2,$3*
1,1,$1+$1,$4,$5*
1,1,$1+$1,$6,$7*
1,1,$1+$1,$8,$9*
0 Add four rect primitives between the rounded corners*
20,1,$1+$1,$2,$3,$4,$5,0*
20,1,$1+$1,$4,$5,$6,$7,0*
20,1,$1+$1,$6,$7,$8,$9,0*
20,1,$1+$1,$8,$9,$2,$3,0*%
G04 Aperture macros list end*
%TA.AperFunction,ComponentPad*%
%ADD10C,1.600000*%
%TD*%
%TA.AperFunction,ComponentPad*%
%ADD11C,1.524000*%
%TD*%
%TA.AperFunction,ComponentPad*%
%ADD12RoundRect,0.250000X-0.750000X0.750000X-0.750000X-0.750000X0.750000X-0.750000X0.750000X0.750000X0*%
%TD*%
%TA.AperFunction,ComponentPad*%
%ADD13C,2.000000*%
%TD*%
%TA.AperFunction,ComponentPad*%
%ADD14RoundRect,0.250000X0.750000X-0.750000X0.750000X0.750000X-0.750000X0.750000X-0.750000X-0.750000X0*%
%TD*%
%TA.AperFunction,Conductor*%
%ADD15C,0.700000*%
%TD*%
G04 APERTURE END LIST*
D10*
%TO.P,C6,1*%
%TO.N,INOPA-*%
X27750000Y-159080000D03*
%TO.P,C6,2*%
%TO.N,LP160*%
X27750000Y-156580000D03*
%TD*%
%TO.P,R22,1*%
%TO.N,LP160*%
X51750000Y-153990000D03*
%TO.P,R22,2*%
%TO.N,Net-(R22-Pad2)*%
X51750000Y-143830000D03*
%TD*%
%TO.P,R18,1*%
%TO.N,GND*%
X57250000Y-135750000D03*
%TO.P,R18,2*%
%TO.N,Net-(U4--IN)*%
X57250000Y-145910000D03*
%TD*%
%TO.P,R19,1*%
%TO.N,LP160*%
X62250000Y-135750000D03*
%TO.P,R19,2*%
%TO.N,Net-(U4-+IN)*%
X62250000Y-145910000D03*
%TD*%
%TO.P,C1,1*%
%TO.N,OUTC*%
X39500000Y-190330000D03*
%TO.P,C1,2*%
%TO.N,INC-*%
X32000000Y-190330000D03*
%TD*%
%TO.P,R16,1*%
%TO.N,Net-(C7-Pad1)*%
X58250000Y-155750000D03*
%TO.P,R16,2*%
%TO.N,NOTCH60*%
X58250000Y-165910000D03*
%TD*%
D11*
%TO.P,J1,1,1*%
%TO.N,VCC*%
X72710000Y-143870000D03*
%TO.P,J1,2,2*%
%TO.N,VEE*%
X72710000Y-141330000D03*
%TO.P,J1,3,3*%
%TO.N,GND*%
X72710000Y-138790000D03*
%TO.P,J1,4,4*%
%TO.N,V_2+*%
X72710000Y-136250000D03*
%TD*%
D10*
%TO.P,R14,1*%
%TO.N,V_2+*%
X67250000Y-135750000D03*
%TO.P,R14,2*%
%TO.N,Net-(U4-+IN)*%
X67250000Y-145910000D03*
%TD*%
D11*
%TO.P,J2,1,1*%
%TO.N,A*%
X17250000Y-182290000D03*
%TO.P,J2,2,2*%
%TO.N,B*%
X17250000Y-184830000D03*
%TO.P,J2,3,3*%
%TO.N,OFFSET*%
X17250000Y-187370000D03*
%TO.P,J2,4,4*%
%TO.N,unconnected-(J2-Pad4)*%
X17250000Y-189910000D03*
%TD*%
D10*
%TO.P,R10,1*%
%TO.N,INC-*%
X30670000Y-185330000D03*
%TO.P,R10,2*%
%TO.N,OUTB*%
X40830000Y-185330000D03*
%TD*%
%TO.P,R12,1*%
%TO.N,IND-*%
X70750000Y-165330000D03*
%TO.P,R12,2*%
%TO.N,NOTCH60*%
X70750000Y-175490000D03*
%TD*%
%TO.P,R23,1*%
%TO.N,GND*%
X74750000Y-155750000D03*
%TO.P,R23,2*%
%TO.N,Net-(R20-Pad1)*%
X74750000Y-165910000D03*
%TD*%
%TO.P,R8,1*%
%TO.N,INB-*%
X30750000Y-177410000D03*
%TO.P,R8,2*%
%TO.N,HP150M*%
X30750000Y-167250000D03*
%TD*%
%TO.P,R1,1*%
%TO.N,Net-(R1-Pad1)*%
X27971348Y-137471348D03*
%TO.P,R1,2*%
%TO.N,Net-(R1-Pad2)*%
X27971348Y-147631348D03*
%TD*%
%TO.P,R5,1*%
%TO.N,Net-(R5-Pad1)*%
X36750000Y-179410000D03*
%TO.P,R5,2*%
%TO.N,INA+*%
X36750000Y-169250000D03*
%TD*%
%TO.P,R20,1*%
%TO.N,Net-(R20-Pad1)*%
X65250000Y-181830000D03*
%TO.P,R20,2*%
%TO.N,IND+*%
X65250000Y-171670000D03*
%TD*%
D12*
%TO.P,C5,1*%
%TO.N,INAMP*%
X52750000Y-122962323D03*
D13*
%TO.P,C5,2*%
%TO.N,INA+*%
X52750000Y-127962323D03*
%TD*%
D10*
%TO.P,C7,1*%
%TO.N,Net-(C7-Pad1)*%
X65500000Y-190330000D03*
%TO.P,C7,2*%
%TO.N,GND*%
X58000000Y-190330000D03*
%TD*%
%TO.P,C9,1*%
%TO.N,IND+*%
X51000000Y-190330000D03*
%TO.P,C9,2*%
%TO.N,HP150M*%
X43500000Y-190330000D03*
%TD*%
%TO.P,R11,1*%
%TO.N,INC-*%
X59750000Y-175250000D03*
%TO.P,R11,2*%
%TO.N,NOTCH60*%
X59750000Y-185410000D03*
%TD*%
%TO.P,R13,1*%
%TO.N,IND-*%
X64750000Y-167410000D03*
%TO.P,R13,2*%
%TO.N,GND*%
X64750000Y-157250000D03*
%TD*%
%TO.P,R6,1*%
%TO.N,GND*%
X24750000Y-168250000D03*
%TO.P,R6,2*%
%TO.N,Net-(R5-Pad1)*%
X24750000Y-178410000D03*
%TD*%
%TO.P,R17,1*%
%TO.N,Net-(U4--IN)*%
X70330000Y-152830000D03*
%TO.P,R17,2*%
%TO.N,OFFSET*%
X60170000Y-152830000D03*
%TD*%
D12*
%TO.P,C4,1*%
%TO.N,GND*%
X34971348Y-122683671D03*
D13*
%TO.P,C4,2*%
%TO.N,VCC*%
X34971348Y-127683671D03*
%TD*%
D10*
%TO.P,R24,1*%
%TO.N,Net-(C7-Pad1)*%
X46250000Y-153990000D03*
%TO.P,R24,2*%
%TO.N,Net-(R22-Pad2)*%
X46250000Y-143830000D03*
%TD*%
%TO.P,R7,1*%
%TO.N,GND*%
X24750000Y-191910000D03*
%TO.P,R7,2*%
%TO.N,Net-(R5-Pad1)*%
X24750000Y-181750000D03*
%TD*%
%TO.P,R15,1*%
%TO.N,IND+*%
X54750000Y-188410000D03*
%TO.P,R15,2*%
%TO.N,OUTC*%
X54750000Y-178250000D03*
%TD*%
D14*
%TO.P,C3,1*%
%TO.N,VEE*%
X44471348Y-136919025D03*
D13*
%TO.P,C3,2*%
%TO.N,GND*%
X44471348Y-131919025D03*
%TD*%
D10*
%TO.P,R3,1*%
%TO.N,A*%
X33471348Y-143971348D03*
%TO.P,R3,2*%
%TO.N,GND*%
X33471348Y-154131348D03*
%TD*%
%TO.P,C8,1*%
%TO.N,Net-(C7-Pad1)*%
X21750000Y-158080000D03*
%TO.P,C8,2*%
%TO.N,GND*%
X21750000Y-165580000D03*
%TD*%
%TO.P,R25,1*%
%TO.N,Net-(C7-Pad1)*%
X70750000Y-190410000D03*
%TO.P,R25,2*%
%TO.N,NOTCH60*%
X70750000Y-180250000D03*
%TD*%
%TO.P,R9,1*%
%TO.N,OUTB*%
X45750000Y-183910000D03*
%TO.P,R9,2*%
%TO.N,INB-*%
X45750000Y-173750000D03*
%TD*%
%TO.P,R2,1*%
%TO.N,Net-(R1-Pad2)*%
X23971348Y-140131348D03*
%TO.P,R2,2*%
%TO.N,Net-(R2-Pad2)*%
X23971348Y-129971348D03*
%TD*%
%TO.P,R4,1*%
%TO.N,GND*%
X39471348Y-154131348D03*
%TO.P,R4,2*%
%TO.N,B*%
X39471348Y-143971348D03*
%TD*%
%TO.P,R21,1*%
%TO.N,INOPA-*%
X44330000Y-160830000D03*
%TO.P,R21,2*%
%TO.N,Net-(C7-Pad1)*%
X34170000Y-160830000D03*
%TD*%
D15*
%TO.N,A*%
X33330000Y-143830000D02*
X33471348Y-143971348D01*
X27750000Y-143830000D02*
X33330000Y-143830000D01*
X17250000Y-154330000D02*
X27750000Y-143830000D01*
X17250000Y-182290000D02*
X17250000Y-154330000D01*
%TO.N,OFFSET*%
X72750000Y-194830000D02*
X77750000Y-189830000D01*
X24710000Y-194830000D02*
X72750000Y-194830000D01*
X77750000Y-189830000D02*
X77750000Y-162830000D01*
X69750000Y-154830000D02*
X62170000Y-154830000D01*
X62170000Y-154830000D02*
X60170000Y-152830000D01*
X60170000Y-152830000D02*
X60250000Y-152830000D01*
X77750000Y-162830000D02*
X69750000Y-154830000D01*
X17250000Y-187370000D02*
X24710000Y-194830000D01*
%TO.N,B*%
X15250000Y-182830000D02*
X15250000Y-151830000D01*
X35830000Y-140330000D02*
X39471348Y-143971348D01*
X15250000Y-151830000D02*
X26750000Y-140330000D01*
X26750000Y-140330000D02*
X35830000Y-140330000D01*
X17250000Y-184830000D02*
X15250000Y-182830000D01*
%TO.N,IND+*%
X54750000Y-188410000D02*
X54750000Y-187330000D01*
X65250000Y-176830000D02*
X65250000Y-171670000D01*
X54750000Y-187330000D02*
X65250000Y-176830000D01*
%TO.N,HP150M*%
X30750000Y-192830000D02*
X27250000Y-189330000D01*
X43500000Y-190330000D02*
X43250000Y-190330000D01*
X27250000Y-189330000D02*
X27250000Y-170750000D01*
X27250000Y-170750000D02*
X30750000Y-167250000D01*
X40750000Y-192830000D02*
X30750000Y-192830000D01*
X43250000Y-190330000D02*
X40750000Y-192830000D01*
%TO.N,INC-*%
X30670000Y-185330000D02*
X35170000Y-180830000D01*
X35170000Y-180830000D02*
X54170000Y-180830000D01*
X54170000Y-180830000D02*
X59750000Y-175250000D01*
%TO.N,INA+*%
X25250000Y-149830000D02*
X19250000Y-155830000D01*
X36750000Y-149830000D02*
X25250000Y-149830000D01*
X50250000Y-130462323D02*
X50250000Y-136330000D01*
X33399000Y-165899000D02*
X36750000Y-169250000D01*
X19250000Y-155830000D02*
X19250000Y-160330000D01*
X24819000Y-165899000D02*
X33399000Y-165899000D01*
X50250000Y-136330000D02*
X36750000Y-149830000D01*
X52750000Y-127962323D02*
X50250000Y-130462323D01*
X19250000Y-160330000D02*
X24819000Y-165899000D01*
%TO.N,NOTCH60*%
X67549000Y-171629000D02*
X67549000Y-177031000D01*
X61670000Y-169330000D02*
X65250000Y-169330000D01*
X59750000Y-184830000D02*
X59750000Y-185410000D01*
X58250000Y-165910000D02*
X61670000Y-169330000D01*
X67549000Y-177031000D02*
X59750000Y-184830000D01*
X65250000Y-169330000D02*
X67549000Y-171629000D01*
%TO.N,LP160*%
X62250000Y-137330000D02*
X52250000Y-147330000D01*
X51750000Y-147830000D02*
X51750000Y-153990000D01*
X47250000Y-152330000D02*
X52250000Y-147330000D01*
X32000000Y-152330000D02*
X47250000Y-152330000D01*
X27750000Y-156580000D02*
X32000000Y-152330000D01*
X62250000Y-135750000D02*
X62250000Y-137330000D01*
X52250000Y-147330000D02*
X51750000Y-147830000D01*
%TO.N,INOPA-*%
X42580000Y-159080000D02*
X44330000Y-160830000D01*
X27750000Y-159080000D02*
X42580000Y-159080000D01*
%TO.N,Net-(U4--IN)*%
X64250000Y-152830000D02*
X70330000Y-152830000D01*
X57250000Y-145910000D02*
X57330000Y-145910000D01*
X57330000Y-145910000D02*
X64250000Y-152830000D01*
%TO.N,Net-(R5-Pad1)*%
X24750000Y-178410000D02*
X24750000Y-181750000D01*
%TO.N,Net-(C7-Pad1)*%
X48010000Y-155750000D02*
X58250000Y-155750000D01*
X26500000Y-162830000D02*
X32170000Y-162830000D01*
X58250000Y-155750000D02*
X68750000Y-166250000D01*
X46250000Y-153990000D02*
X48010000Y-155750000D01*
X68750000Y-166250000D02*
X68750000Y-187080000D01*
X21750000Y-158080000D02*
X26500000Y-162830000D01*
X32170000Y-162830000D02*
X34170000Y-160830000D01*
X68750000Y-187080000D02*
X65500000Y-190330000D01*
%TO.N,Net-(R22-Pad2)*%
X51750000Y-143830000D02*
X46250000Y-143830000D01*
%TD*%
%TA.AperFunction,Conductor*%
%TO.N,LP160*%
G36*
X78692539Y-119019685D02*
G01*
X78738294Y-119072489D01*
X78749500Y-119124000D01*
X78749500Y-155967348D01*
X78729815Y-156034387D01*
X78677011Y-156080142D01*
X78626454Y-156091344D01*
X76155775Y-156110349D01*
X76088586Y-156091181D01*
X76042426Y-156038731D01*
X76031951Y-155969651D01*
X76032348Y-155966955D01*
X76035152Y-155949256D01*
X76050500Y-155852352D01*
X76050500Y-155647648D01*
X76027418Y-155501917D01*
X76018477Y-155445465D01*
X75975114Y-155312009D01*
X75955220Y-155250781D01*
X75955218Y-155250778D01*
X75955218Y-155250776D01*
X75921503Y-155184607D01*
X75862287Y-155068390D01*
X75854556Y-155057749D01*
X75741971Y-154902786D01*
X75597213Y-154758028D01*
X75431613Y-154637715D01*
X75431612Y-154637714D01*
X75431610Y-154637713D01*
X75374653Y-154608691D01*
X75249223Y-154544781D01*
X75054534Y-154481522D01*
X74879995Y-154453878D01*
X74852352Y-154449500D01*
X74647648Y-154449500D01*
X74623329Y-154453351D01*
X74445465Y-154481522D01*
X74250776Y-154544781D01*
X74068386Y-154637715D01*
X73902786Y-154758028D01*
X73758028Y-154902786D01*
X73637715Y-155068386D01*
X73544781Y-155250776D01*
X73481522Y-155445465D01*
X73449500Y-155647648D01*
X73449500Y-155852351D01*
X73471070Y-155988541D01*
X73462115Y-156057835D01*
X73417119Y-156111287D01*
X73350367Y-156131926D01*
X73349551Y-156131935D01*
X72315002Y-156139893D01*
X72247813Y-156120725D01*
X72226367Y-156103578D01*
X70449856Y-154327066D01*
X70416371Y-154265743D01*
X70421355Y-154196051D01*
X70463227Y-154140118D01*
X70518137Y-154116912D01*
X70634534Y-154098477D01*
X70829219Y-154035220D01*
X71011610Y-153942287D01*
X71104590Y-153874732D01*
X71177213Y-153821971D01*
X71177215Y-153821968D01*
X71177219Y-153821966D01*
X71321966Y-153677219D01*
X71321968Y-153677215D01*
X71321971Y-153677213D01*
X71389910Y-153583701D01*
X71442287Y-153511610D01*
X71535220Y-153329219D01*
X71598477Y-153134534D01*
X71630500Y-152932352D01*
X71630500Y-152727648D01*
X71598477Y-152525466D01*
X71535220Y-152330781D01*
X71535218Y-152330778D01*
X71535218Y-152330776D01*
X71501503Y-152264607D01*
X71442287Y-152148390D01*
X71434556Y-152137749D01*
X71321971Y-151982786D01*
X71177213Y-151838028D01*
X71011613Y-151717715D01*
X71011612Y-151717714D01*
X71011610Y-151717713D01*
X70954653Y-151688691D01*
X70829223Y-151624781D01*
X70634534Y-151561522D01*
X70459995Y-151533878D01*
X70432352Y-151529500D01*
X70227648Y-151529500D01*
X70203329Y-151533351D01*
X70025465Y-151561522D01*
X69830776Y-151624781D01*
X69648386Y-151717715D01*
X69482786Y-151838028D01*
X69482782Y-151838032D01*
X69377634Y-151943181D01*
X69316311Y-151976666D01*
X69289953Y-151979500D01*
X64653651Y-151979500D01*
X64586612Y-151959815D01*
X64565970Y-151943181D01*
X58586819Y-145964030D01*
X58572115Y-145937102D01*
X58555523Y-145911284D01*
X58554631Y-145905083D01*
X58553334Y-145902707D01*
X58550500Y-145876349D01*
X58550500Y-145807648D01*
X60949500Y-145807648D01*
X60949500Y-146012351D01*
X60981522Y-146214534D01*
X61044781Y-146409223D01*
X61137715Y-146591613D01*
X61258028Y-146757213D01*
X61402786Y-146901971D01*
X61557749Y-147014556D01*
X61568390Y-147022287D01*
X61684607Y-147081503D01*
X61750776Y-147115218D01*
X61750778Y-147115218D01*
X61750781Y-147115220D01*
X61802822Y-147132129D01*
X61945465Y-147178477D01*
X62046557Y-147194488D01*
X62147648Y-147210500D01*
X62147649Y-147210500D01*
X62352351Y-147210500D01*
X62352352Y-147210500D01*
X62554534Y-147178477D01*
X62749219Y-147115220D01*
X62931610Y-147022287D01*
X63031466Y-146949738D01*
X63097213Y-146901971D01*
X63097215Y-146901968D01*
X63097219Y-146901966D01*
X63241966Y-146757219D01*
X63241968Y-146757215D01*
X63241971Y-146757213D01*
X63294732Y-146684590D01*
X63362287Y-146591610D01*
X63455220Y-146409219D01*
X63518477Y-146214534D01*
X63550500Y-146012352D01*
X63550500Y-145807648D01*
X65949500Y-145807648D01*
X65949500Y-146012351D01*
X65981522Y-146214534D01*
X66044781Y-146409223D01*
X66137715Y-146591613D01*
X66258028Y-146757213D01*
X66402786Y-146901971D01*
X66557749Y-147014556D01*
X66568390Y-147022287D01*
X66684607Y-147081503D01*
X66750776Y-147115218D01*
X66750778Y-147115218D01*
X66750781Y-147115220D01*
X66802822Y-147132129D01*
X66945465Y-147178477D01*
X67046557Y-147194488D01*
X67147648Y-147210500D01*
X67147649Y-147210500D01*
X67352351Y-147210500D01*
X67352352Y-147210500D01*
X67554534Y-147178477D01*
X67749219Y-147115220D01*
X67931610Y-147022287D01*
X68031466Y-146949738D01*
X68097213Y-146901971D01*
X68097215Y-146901968D01*
X68097219Y-146901966D01*
X68241966Y-146757219D01*
X68241968Y-146757215D01*
X68241971Y-146757213D01*
X68294732Y-146684590D01*
X68362287Y-146591610D01*
X68455220Y-146409219D01*
X68518477Y-146214534D01*
X68550500Y-146012352D01*
X68550500Y-145807648D01*
X68518477Y-145605466D01*
X68455220Y-145410781D01*
X68455218Y-145410778D01*
X68455218Y-145410776D01*
X68410096Y-145322221D01*
X68362287Y-145228390D01*
X68354556Y-145217749D01*
X68241971Y-145062786D01*
X68097213Y-144918028D01*
X67931613Y-144797715D01*
X67931612Y-144797714D01*
X67931610Y-144797713D01*
X67874653Y-144768691D01*
X67749223Y-144704781D01*
X67554534Y-144641522D01*
X67379995Y-144613878D01*
X67352352Y-144609500D01*
X67147648Y-144609500D01*
X67123329Y-144613351D01*
X66945465Y-144641522D01*
X66750776Y-144704781D01*
X66568386Y-144797715D01*
X66402786Y-144918028D01*
X66258028Y-145062786D01*
X66137715Y-145228386D01*
X66044781Y-145410776D01*
X65981522Y-145605465D01*
X65949500Y-145807648D01*
X63550500Y-145807648D01*
X63518477Y-145605466D01*
X63455220Y-145410781D01*
X63455218Y-145410778D01*
X63455218Y-145410776D01*
X63410096Y-145322221D01*
X63362287Y-145228390D01*
X63354556Y-145217749D01*
X63241971Y-145062786D01*
X63097213Y-144918028D01*
X62931613Y-144797715D01*
X62931612Y-144797714D01*
X62931610Y-144797713D01*
X62874653Y-144768691D01*
X62749223Y-144704781D01*
X62554534Y-144641522D01*
X62379995Y-144613878D01*
X62352352Y-144609500D01*
X62147648Y-144609500D01*
X62123329Y-144613351D01*
X61945465Y-144641522D01*
X61750776Y-144704781D01*
X61568386Y-144797715D01*
X61402786Y-144918028D01*
X61258028Y-145062786D01*
X61137715Y-145228386D01*
X61044781Y-145410776D01*
X60981522Y-145605465D01*
X60949500Y-145807648D01*
X58550500Y-145807648D01*
X58518477Y-145605465D01*
X58455218Y-145410776D01*
X58410096Y-145322221D01*
X58362287Y-145228390D01*
X58354556Y-145217749D01*
X58241971Y-145062786D01*
X58097213Y-144918028D01*
X57931613Y-144797715D01*
X57931612Y-144797714D01*
X57931610Y-144797713D01*
X57874653Y-144768691D01*
X57749223Y-144704781D01*
X57554534Y-144641522D01*
X57379995Y-144613878D01*
X57352352Y-144609500D01*
X57147648Y-144609500D01*
X57123329Y-144613351D01*
X56945465Y-144641522D01*
X56750776Y-144704781D01*
X56568386Y-144797715D01*
X56402786Y-144918028D01*
X56258028Y-145062786D01*
X56137715Y-145228386D01*
X56044781Y-145410776D01*
X55981522Y-145605465D01*
X55949500Y-145807648D01*
X55949500Y-146012351D01*
X55981522Y-146214534D01*
X56044781Y-146409223D01*
X56137715Y-146591613D01*
X56258028Y-146757213D01*
X56402786Y-146901971D01*
X56557749Y-147014556D01*
X56568390Y-147022287D01*
X56684607Y-147081503D01*
X56750776Y-147115218D01*
X56750778Y-147115218D01*
X56750781Y-147115220D01*
X56802822Y-147132129D01*
X56945465Y-147178477D01*
X57046557Y-147194488D01*
X57147648Y-147210500D01*
X57147649Y-147210500D01*
X57352344Y-147210500D01*
X57352352Y-147210500D01*
X57354992Y-147210081D01*
X57356004Y-147210212D01*
X57357203Y-147210118D01*
X57357222Y-147210369D01*
X57424282Y-147219027D01*
X57462082Y-147244871D01*
X63707834Y-153490624D01*
X63707838Y-153490627D01*
X63847132Y-153583701D01*
X63847133Y-153583701D01*
X63847137Y-153583704D01*
X63954110Y-153628013D01*
X64001918Y-153647816D01*
X64149708Y-153677213D01*
X64166228Y-153680499D01*
X64166232Y-153680500D01*
X64166233Y-153680500D01*
X64333767Y-153680500D01*
X69289953Y-153680500D01*
X69319393Y-153689144D01*
X69349380Y-153695668D01*
X69354395Y-153699422D01*
X69356992Y-153700185D01*
X69377634Y-153716819D01*
X69428634Y-153767819D01*
X69462119Y-153829142D01*
X69457135Y-153898834D01*
X69415263Y-153954767D01*
X69349799Y-153979184D01*
X69340953Y-153979500D01*
X62573650Y-153979500D01*
X62506611Y-153959815D01*
X62485969Y-153943181D01*
X61506819Y-152964030D01*
X61473334Y-152902707D01*
X61470500Y-152876349D01*
X61470500Y-152727648D01*
X61438477Y-152525465D01*
X61375218Y-152330776D01*
X61341503Y-152264607D01*
X61282287Y-152148390D01*
X61274556Y-152137749D01*
X61161971Y-151982786D01*
X61017213Y-151838028D01*
X60851613Y-151717715D01*
X60851612Y-151717714D01*
X60851610Y-151717713D01*
X60794653Y-151688691D01*
X60669223Y-151624781D01*
X60474534Y-151561522D01*
X60299995Y-151533878D01*
X60272352Y-151529500D01*
X60067648Y-151529500D01*
X60043329Y-151533351D01*
X59865465Y-151561522D01*
X59670776Y-151624781D01*
X59488386Y-151717715D01*
X59322786Y-151838028D01*
X59178028Y-151982786D01*
X59057715Y-152148386D01*
X58964781Y-152330776D01*
X58901522Y-152525465D01*
X58869500Y-152727648D01*
X58869500Y-152932351D01*
X58901522Y-153134534D01*
X58964781Y-153329223D01*
X59026186Y-153449734D01*
X59047195Y-153490968D01*
X59057715Y-153511613D01*
X59178028Y-153677213D01*
X59322786Y-153821971D01*
X59467532Y-153927133D01*
X59488390Y-153942287D01*
X59561423Y-153979499D01*
X59670776Y-154035218D01*
X59670778Y-154035218D01*
X59670781Y-154035220D01*
X59755377Y-154062707D01*
X59865465Y-154098477D01*
X59923040Y-154107596D01*
X60067648Y-154130500D01*
X60216349Y-154130500D01*
X60283388Y-154150185D01*
X60304030Y-154166819D01*
X61627831Y-155490620D01*
X61627834Y-155490622D01*
X61627838Y-155490626D01*
X61767137Y-155583704D01*
X61876584Y-155629037D01*
X61921918Y-155647816D01*
X62086228Y-155680499D01*
X62086232Y-155680500D01*
X62086233Y-155680500D01*
X69346349Y-155680500D01*
X69413388Y-155700185D01*
X69434030Y-155716819D01*
X69666467Y-155949256D01*
X69699952Y-156010579D01*
X69694968Y-156080271D01*
X69653096Y-156136204D01*
X69587632Y-156160621D01*
X69579740Y-156160933D01*
X65547512Y-156191951D01*
X65480323Y-156172783D01*
X65473687Y-156168283D01*
X65431610Y-156137713D01*
X65401229Y-156122233D01*
X65249223Y-156044781D01*
X65054534Y-155981522D01*
X64879995Y-155953878D01*
X64852352Y-155949500D01*
X64647648Y-155949500D01*
X64623329Y-155953351D01*
X64445465Y-155981522D01*
X64250776Y-156044781D01*
X64068391Y-156137712D01*
X64009276Y-156180660D01*
X63943469Y-156204138D01*
X63937347Y-156204336D01*
X59989811Y-156234702D01*
X59922622Y-156215534D01*
X59901176Y-156198387D01*
X59586819Y-155884030D01*
X59553334Y-155822707D01*
X59550500Y-155796349D01*
X59550500Y-155647648D01*
X59518477Y-155445465D01*
X59475114Y-155312009D01*
X59455220Y-155250781D01*
X59455218Y-155250778D01*
X59455218Y-155250776D01*
X59421503Y-155184607D01*
X59362287Y-155068390D01*
X59354556Y-155057749D01*
X59241971Y-154902786D01*
X59097213Y-154758028D01*
X58931613Y-154637715D01*
X58931612Y-154637714D01*
X58931610Y-154637713D01*
X58874653Y-154608691D01*
X58749223Y-154544781D01*
X58554534Y-154481522D01*
X58379995Y-154453878D01*
X58352352Y-154449500D01*
X58147648Y-154449500D01*
X58123329Y-154453351D01*
X57945465Y-154481522D01*
X57750776Y-154544781D01*
X57568386Y-154637715D01*
X57402786Y-154758028D01*
X57402782Y-154758032D01*
X57297634Y-154863181D01*
X57236311Y-154896666D01*
X57209953Y-154899500D01*
X52939462Y-154899500D01*
X52872423Y-154879815D01*
X52826668Y-154827011D01*
X52816724Y-154757853D01*
X52839145Y-154702613D01*
X52861859Y-154671350D01*
X52954755Y-154489031D01*
X53017990Y-154294417D01*
X53050000Y-154092317D01*
X53050000Y-153887682D01*
X53017990Y-153685582D01*
X52954755Y-153490968D01*
X52861859Y-153308650D01*
X52829474Y-153264077D01*
X52829474Y-153264076D01*
X52150000Y-153943551D01*
X52150000Y-153937339D01*
X52122741Y-153835606D01*
X52070080Y-153744394D01*
X51995606Y-153669920D01*
X51904394Y-153617259D01*
X51802661Y-153590000D01*
X51796446Y-153590000D01*
X52475922Y-152910524D01*
X52475921Y-152910523D01*
X52431359Y-152878147D01*
X52431350Y-152878141D01*
X52249031Y-152785244D01*
X52054417Y-152722009D01*
X51852317Y-152690000D01*
X51647683Y-152690000D01*
X51445582Y-152722009D01*
X51250968Y-152785244D01*
X51068644Y-152878143D01*
X51024077Y-152910523D01*
X51024077Y-152910524D01*
X51703554Y-153590000D01*
X51697339Y-153590000D01*
X51595606Y-153617259D01*
X51504394Y-153669920D01*
X51429920Y-153744394D01*
X51377259Y-153835606D01*
X51350000Y-153937339D01*
X51350000Y-153943553D01*
X50670524Y-153264077D01*
X50670523Y-153264077D01*
X50638143Y-153308644D01*
X50545244Y-153490968D01*
X50482009Y-153685582D01*
X50450000Y-153887682D01*
X50450000Y-154092317D01*
X50482009Y-154294417D01*
X50545244Y-154489031D01*
X50638140Y-154671350D01*
X50660855Y-154702613D01*
X50684336Y-154768420D01*
X50668511Y-154836474D01*
X50618406Y-154885169D01*
X50560538Y-154899500D01*
X48413651Y-154899500D01*
X48346612Y-154879815D01*
X48325970Y-154863181D01*
X47586819Y-154124030D01*
X47553334Y-154062707D01*
X47550500Y-154036349D01*
X47550500Y-153887648D01*
X47518477Y-153685465D01*
X47487458Y-153590000D01*
X47455220Y-153490781D01*
X47455218Y-153490778D01*
X47455218Y-153490776D01*
X47421503Y-153424607D01*
X47362287Y-153308390D01*
X47344664Y-153284134D01*
X47241971Y-153142786D01*
X47097213Y-152998028D01*
X46931613Y-152877715D01*
X46931612Y-152877714D01*
X46931610Y-152877713D01*
X46874653Y-152848691D01*
X46749223Y-152784781D01*
X46554534Y-152721522D01*
X46379995Y-152693878D01*
X46352352Y-152689500D01*
X46147648Y-152689500D01*
X46123329Y-152693351D01*
X45945465Y-152721522D01*
X45750776Y-152784781D01*
X45568386Y-152877715D01*
X45402786Y-152998028D01*
X45258028Y-153142786D01*
X45137715Y-153308386D01*
X45044781Y-153490776D01*
X44981522Y-153685465D01*
X44949500Y-153887648D01*
X44949500Y-154092352D01*
X44952704Y-154112580D01*
X44981522Y-154294534D01*
X45044781Y-154489223D01*
X45137715Y-154671613D01*
X45258028Y-154837213D01*
X45402786Y-154981971D01*
X45521734Y-155068390D01*
X45568390Y-155102287D01*
X45684607Y-155161503D01*
X45750776Y-155195218D01*
X45750778Y-155195218D01*
X45750781Y-155195220D01*
X45855137Y-155229127D01*
X45945465Y-155258477D01*
X46046557Y-155274488D01*
X46147648Y-155290500D01*
X46296349Y-155290500D01*
X46363388Y-155310185D01*
X46384030Y-155326819D01*
X47179444Y-156122233D01*
X47212929Y-156183556D01*
X47207945Y-156253248D01*
X47166073Y-156309181D01*
X47100609Y-156333598D01*
X47092717Y-156333910D01*
X29155941Y-156471885D01*
X29088752Y-156452717D01*
X29042592Y-156400267D01*
X29032514Y-156367286D01*
X29017990Y-156275582D01*
X28954755Y-156080968D01*
X28861859Y-155898650D01*
X28829474Y-155854077D01*
X28829474Y-155854076D01*
X28204344Y-156479206D01*
X28137241Y-156479722D01*
X28122741Y-156425606D01*
X28070080Y-156334394D01*
X27995606Y-156259920D01*
X27904394Y-156207259D01*
X27802661Y-156180000D01*
X27796446Y-156180000D01*
X28475922Y-155500524D01*
X28475921Y-155500523D01*
X28431359Y-155468147D01*
X28431350Y-155468141D01*
X28249031Y-155375244D01*
X28054417Y-155312009D01*
X27852317Y-155280000D01*
X27647683Y-155280000D01*
X27445582Y-155312009D01*
X27250968Y-155375244D01*
X27068644Y-155468143D01*
X27024077Y-155500523D01*
X27024077Y-155500524D01*
X27703554Y-156180000D01*
X27697339Y-156180000D01*
X27595606Y-156207259D01*
X27504394Y-156259920D01*
X27429920Y-156334394D01*
X27377259Y-156425606D01*
X27361159Y-156485692D01*
X27302590Y-156486143D01*
X26670524Y-155854077D01*
X26670523Y-155854077D01*
X26638143Y-155898644D01*
X26545244Y-156080968D01*
X26482009Y-156275582D01*
X26464057Y-156388929D01*
X26434127Y-156452064D01*
X26374816Y-156488995D01*
X26342538Y-156493527D01*
X20225454Y-156540581D01*
X20216288Y-156537966D01*
X20206853Y-156539323D01*
X20183232Y-156528535D01*
X20158265Y-156521413D01*
X20151967Y-156514257D01*
X20143297Y-156510298D01*
X20129259Y-156488455D01*
X20112105Y-156468963D01*
X20109670Y-156457972D01*
X20105523Y-156451520D01*
X20100500Y-156416585D01*
X20100500Y-156233650D01*
X20120185Y-156166611D01*
X20136819Y-156145969D01*
X22253792Y-154028996D01*
X32170848Y-154028996D01*
X32170848Y-154233699D01*
X32202870Y-154435882D01*
X32266129Y-154630571D01*
X32359063Y-154812961D01*
X32479376Y-154978561D01*
X32624134Y-155123319D01*
X32779097Y-155235904D01*
X32789738Y-155243635D01*
X32881716Y-155290500D01*
X32972124Y-155336566D01*
X32972126Y-155336566D01*
X32972129Y-155336568D01*
X33076485Y-155370475D01*
X33166813Y-155399825D01*
X33267905Y-155415836D01*
X33368996Y-155431848D01*
X33368997Y-155431848D01*
X33573699Y-155431848D01*
X33573700Y-155431848D01*
X33775882Y-155399825D01*
X33970567Y-155336568D01*
X34152958Y-155243635D01*
X34245938Y-155176080D01*
X34318561Y-155123319D01*
X34318563Y-155123316D01*
X34318567Y-155123314D01*
X34463314Y-154978567D01*
X34463316Y-154978563D01*
X34463319Y-154978561D01*
X34566008Y-154837219D01*
X34583635Y-154812958D01*
X34676568Y-154630567D01*
X34739825Y-154435882D01*
X34771848Y-154233700D01*
X34771848Y-154028996D01*
X38170848Y-154028996D01*
X38170848Y-154233699D01*
X38202870Y-154435882D01*
X38266129Y-154630571D01*
X38359063Y-154812961D01*
X38479376Y-154978561D01*
X38624134Y-155123319D01*
X38779097Y-155235904D01*
X38789738Y-155243635D01*
X38881716Y-155290500D01*
X38972124Y-155336566D01*
X38972126Y-155336566D01*
X38972129Y-155336568D01*
X39076485Y-155370475D01*
X39166813Y-155399825D01*
X39267905Y-155415836D01*
X39368996Y-155431848D01*
X39368997Y-155431848D01*
X39573699Y-155431848D01*
X39573700Y-155431848D01*
X39775882Y-155399825D01*
X39970567Y-155336568D01*
X40152958Y-155243635D01*
X40245938Y-155176080D01*
X40318561Y-155123319D01*
X40318563Y-155123316D01*
X40318567Y-155123314D01*
X40463314Y-154978567D01*
X40463316Y-154978563D01*
X40463319Y-154978561D01*
X40566008Y-154837219D01*
X40583635Y-154812958D01*
X40676568Y-154630567D01*
X40739825Y-154435882D01*
X40771848Y-154233700D01*
X40771848Y-154028996D01*
X40765672Y-153990000D01*
X40739825Y-153826813D01*
X40693898Y-153685465D01*
X40676568Y-153632129D01*
X40676566Y-153632126D01*
X40676566Y-153632124D01*
X40642851Y-153565955D01*
X40583635Y-153449738D01*
X40575904Y-153439097D01*
X40463319Y-153284134D01*
X40318561Y-153139376D01*
X40152961Y-153019063D01*
X40152960Y-153019062D01*
X40152958Y-153019061D01*
X40096001Y-152990039D01*
X39970571Y-152926129D01*
X39775882Y-152862870D01*
X39601343Y-152835226D01*
X39573700Y-152830848D01*
X39368996Y-152830848D01*
X39344677Y-152834699D01*
X39166813Y-152862870D01*
X38972124Y-152926129D01*
X38789734Y-153019063D01*
X38624134Y-153139376D01*
X38479376Y-153284134D01*
X38359063Y-153449734D01*
X38266129Y-153632124D01*
X38202870Y-153826813D01*
X38170848Y-154028996D01*
X34771848Y-154028996D01*
X34765672Y-153990000D01*
X34739825Y-153826813D01*
X34693898Y-153685465D01*
X34676568Y-153632129D01*
X34676566Y-153632126D01*
X34676566Y-153632124D01*
X34642851Y-153565955D01*
X34583635Y-153449738D01*
X34575904Y-153439097D01*
X34463319Y-153284134D01*
X34318561Y-153139376D01*
X34152961Y-153019063D01*
X34152960Y-153019062D01*
X34152958Y-153019061D01*
X34096001Y-152990039D01*
X33970571Y-152926129D01*
X33775882Y-152862870D01*
X33601343Y-152835226D01*
X33573700Y-152830848D01*
X33368996Y-152830848D01*
X33344677Y-152834699D01*
X33166813Y-152862870D01*
X32972124Y-152926129D01*
X32789734Y-153019063D01*
X32624134Y-153139376D01*
X32479376Y-153284134D01*
X32359063Y-153449734D01*
X32266129Y-153632124D01*
X32202870Y-153826813D01*
X32170848Y-154028996D01*
X22253792Y-154028996D01*
X25565969Y-150716819D01*
X25627292Y-150683334D01*
X25653650Y-150680500D01*
X36833768Y-150680500D01*
X36833769Y-150680499D01*
X36888538Y-150669605D01*
X36998074Y-150647818D01*
X36998078Y-150647816D01*
X36998082Y-150647816D01*
X37043415Y-150629037D01*
X37152863Y-150583704D01*
X37292162Y-150490627D01*
X44055141Y-143727648D01*
X44949500Y-143727648D01*
X44949500Y-143932351D01*
X44981522Y-144134534D01*
X45044781Y-144329223D01*
X45137715Y-144511613D01*
X45258028Y-144677213D01*
X45402786Y-144821971D01*
X45535000Y-144918028D01*
X45568390Y-144942287D01*
X45684607Y-145001503D01*
X45750776Y-145035218D01*
X45750778Y-145035218D01*
X45750781Y-145035220D01*
X45855137Y-145069127D01*
X45945465Y-145098477D01*
X46046557Y-145114488D01*
X46147648Y-145130500D01*
X46147649Y-145130500D01*
X46352351Y-145130500D01*
X46352352Y-145130500D01*
X46554534Y-145098477D01*
X46749219Y-145035220D01*
X46931610Y-144942287D01*
X47024590Y-144874732D01*
X47097213Y-144821971D01*
X47097215Y-144821968D01*
X47097219Y-144821966D01*
X47202366Y-144716819D01*
X47263689Y-144683334D01*
X47290047Y-144680500D01*
X50709953Y-144680500D01*
X50776992Y-144700185D01*
X50797634Y-144716819D01*
X50902786Y-144821971D01*
X51035000Y-144918028D01*
X51068390Y-144942287D01*
X51184607Y-145001503D01*
X51250776Y-145035218D01*
X51250778Y-145035218D01*
X51250781Y-145035220D01*
X51355137Y-145069127D01*
X51445465Y-145098477D01*
X51546557Y-145114488D01*
X51647648Y-145130500D01*
X51647649Y-145130500D01*
X51852351Y-145130500D01*
X51852352Y-145130500D01*
X52054534Y-145098477D01*
X52249219Y-145035220D01*
X52431610Y-144942287D01*
X52524590Y-144874732D01*
X52597213Y-144821971D01*
X52597215Y-144821968D01*
X52597219Y-144821966D01*
X52741966Y-144677219D01*
X52741968Y-144677215D01*
X52741971Y-144677213D01*
X52847695Y-144531694D01*
X52862287Y-144511610D01*
X52955220Y-144329219D01*
X53018477Y-144134534D01*
X53050500Y-143932352D01*
X53050500Y-143727648D01*
X53026222Y-143574364D01*
X53018477Y-143525465D01*
X52955218Y-143330776D01*
X52921503Y-143264607D01*
X52862287Y-143148390D01*
X52844664Y-143124134D01*
X52741971Y-142982786D01*
X52597213Y-142838028D01*
X52431613Y-142717715D01*
X52431612Y-142717714D01*
X52431610Y-142717713D01*
X52374653Y-142688691D01*
X52249223Y-142624781D01*
X52054534Y-142561522D01*
X51879995Y-142533878D01*
X51852352Y-142529500D01*
X51647648Y-142529500D01*
X51623329Y-142533351D01*
X51445465Y-142561522D01*
X51250776Y-142624781D01*
X51068386Y-142717715D01*
X50902786Y-142838028D01*
X50902782Y-142838032D01*
X50797634Y-142943181D01*
X50736311Y-142976666D01*
X50709953Y-142979500D01*
X47290047Y-142979500D01*
X47223008Y-142959815D01*
X47202366Y-142943181D01*
X47097213Y-142838028D01*
X46931613Y-142717715D01*
X46931612Y-142717714D01*
X46931610Y-142717713D01*
X46874653Y-142688691D01*
X46749223Y-142624781D01*
X46554534Y-142561522D01*
X46379995Y-142533878D01*
X46352352Y-142529500D01*
X46147648Y-142529500D01*
X46123329Y-142533351D01*
X45945465Y-142561522D01*
X45750776Y-142624781D01*
X45568386Y-142717715D01*
X45402786Y-142838028D01*
X45258028Y-142982786D01*
X45137715Y-143148386D01*
X45044781Y-143330776D01*
X44981522Y-143525465D01*
X44949500Y-143727648D01*
X44055141Y-143727648D01*
X50910620Y-136872169D01*
X50910620Y-136872168D01*
X50910619Y-136872168D01*
X50910626Y-136872162D01*
X51003704Y-136732863D01*
X51067816Y-136578081D01*
X51073797Y-136548013D01*
X51100500Y-136413767D01*
X51100500Y-135647648D01*
X55949500Y-135647648D01*
X55949500Y-135852351D01*
X55981522Y-136054534D01*
X56044781Y-136249223D01*
X56095804Y-136349360D01*
X56137585Y-136431359D01*
X56137715Y-136431613D01*
X56258028Y-136597213D01*
X56402786Y-136741971D01*
X56523226Y-136829474D01*
X56568390Y-136862287D01*
X56665357Y-136911694D01*
X56750776Y-136955218D01*
X56750778Y-136955218D01*
X56750781Y-136955220D01*
X56802822Y-136972129D01*
X56945465Y-137018477D01*
X57046557Y-137034488D01*
X57147648Y-137050500D01*
X57147649Y-137050500D01*
X57352351Y-137050500D01*
X57352352Y-137050500D01*
X57554534Y-137018477D01*
X57749219Y-136955220D01*
X57931610Y-136862287D01*
X58031466Y-136789738D01*
X58097213Y-136741971D01*
X58097215Y-136741968D01*
X58097219Y-136741966D01*
X58241966Y-136597219D01*
X58241968Y-136597215D01*
X58241971Y-136597213D01*
X58294732Y-136524590D01*
X58362287Y-136431610D01*
X58455220Y-136249219D01*
X58518477Y-136054534D01*
X58550500Y-135852352D01*
X58550500Y-135647682D01*
X60950000Y-135647682D01*
X60950000Y-135852317D01*
X60982009Y-136054417D01*
X61045244Y-136249031D01*
X61138141Y-136431350D01*
X61138147Y-136431359D01*
X61170523Y-136475921D01*
X61170524Y-136475922D01*
X61850000Y-135796446D01*
X61850000Y-135802661D01*
X61877259Y-135904394D01*
X61929920Y-135995606D01*
X62004394Y-136070080D01*
X62095606Y-136122741D01*
X62197339Y-136150000D01*
X62203553Y-136150000D01*
X61524076Y-136829474D01*
X61568650Y-136861859D01*
X61750968Y-136954755D01*
X61945582Y-137017990D01*
X62147683Y-137050000D01*
X62352317Y-137050000D01*
X62554417Y-137017990D01*
X62749031Y-136954755D01*
X62931349Y-136861859D01*
X62975921Y-136829474D01*
X62296447Y-136150000D01*
X62302661Y-136150000D01*
X62404394Y-136122741D01*
X62495606Y-136070080D01*
X62570080Y-135995606D01*
X62622741Y-135904394D01*
X62650000Y-135802661D01*
X62650000Y-135796447D01*
X63329474Y-136475921D01*
X63361859Y-136431349D01*
X63454755Y-136249031D01*
X63517990Y-136054417D01*
X63550000Y-135852317D01*
X63550000Y-135647682D01*
X63549995Y-135647648D01*
X65949500Y-135647648D01*
X65949500Y-135852351D01*
X65981522Y-136054534D01*
X66044781Y-136249223D01*
X66095804Y-136349360D01*
X66137585Y-136431359D01*
X66137715Y-136431613D01*
X66258028Y-136597213D01*
X66402786Y-136741971D01*
X66523226Y-136829474D01*
X66568390Y-136862287D01*
X66665357Y-136911694D01*
X66750776Y-136955218D01*
X66750778Y-136955218D01*
X66750781Y-136955220D01*
X66802822Y-136972129D01*
X66945465Y-137018477D01*
X67046557Y-137034488D01*
X67147648Y-137050500D01*
X67147649Y-137050500D01*
X67352351Y-137050500D01*
X67352352Y-137050500D01*
X67554534Y-137018477D01*
X67749219Y-136955220D01*
X67931610Y-136862287D01*
X68031466Y-136789738D01*
X68097213Y-136741971D01*
X68097215Y-136741968D01*
X68097219Y-136741966D01*
X68241966Y-136597219D01*
X68241968Y-136597215D01*
X68241971Y-136597213D01*
X68294732Y-136524590D01*
X68362287Y-136431610D01*
X68455220Y-136249219D01*
X68487251Y-136150639D01*
X71447500Y-136150639D01*
X71447500Y-136349361D01*
X71463043Y-136447498D01*
X71478587Y-136545637D01*
X71539993Y-136734629D01*
X71539994Y-136734632D01*
X71610070Y-136872162D01*
X71630213Y-136911694D01*
X71747019Y-137072464D01*
X71887536Y-137212981D01*
X72048306Y-137329787D01*
X72125258Y-137368996D01*
X72204780Y-137409515D01*
X72255576Y-137457490D01*
X72272371Y-137525311D01*
X72249833Y-137591446D01*
X72204780Y-137630485D01*
X72048305Y-137710213D01*
X71887533Y-137827021D01*
X71747021Y-137967533D01*
X71630213Y-138128305D01*
X71539994Y-138305367D01*
X71539993Y-138305370D01*
X71478587Y-138494362D01*
X71478587Y-138494364D01*
X71447500Y-138690639D01*
X71447500Y-138889361D01*
X71463043Y-138987498D01*
X71478587Y-139085637D01*
X71539993Y-139274629D01*
X71539994Y-139274632D01*
X71629214Y-139449734D01*
X71630213Y-139451694D01*
X71747019Y-139612464D01*
X71887536Y-139752981D01*
X72048306Y-139869787D01*
X72166832Y-139930179D01*
X72204780Y-139949515D01*
X72255576Y-139997490D01*
X72272371Y-140065311D01*
X72249833Y-140131446D01*
X72204780Y-140170485D01*
X72048305Y-140250213D01*
X71887533Y-140367021D01*
X71747021Y-140507533D01*
X71630213Y-140668305D01*
X71539994Y-140845367D01*
X71539993Y-140845370D01*
X71478587Y-141034362D01*
X71447500Y-141230639D01*
X71447500Y-141429360D01*
X71478587Y-141625637D01*
X71539993Y-141814629D01*
X71539994Y-141814632D01*
X71630213Y-141991694D01*
X71747019Y-142152464D01*
X71887536Y-142292981D01*
X72048306Y-142409787D01*
X72166832Y-142470179D01*
X72204780Y-142489515D01*
X72255576Y-142537490D01*
X72272371Y-142605311D01*
X72249833Y-142671446D01*
X72204780Y-142710485D01*
X72048305Y-142790213D01*
X71887533Y-142907021D01*
X71747021Y-143047533D01*
X71630213Y-143208305D01*
X71539994Y-143385367D01*
X71539993Y-143385370D01*
X71478587Y-143574362D01*
X71447500Y-143770639D01*
X71447500Y-143969360D01*
X71478587Y-144165637D01*
X71539993Y-144354629D01*
X71539994Y-144354632D01*
X71603693Y-144479646D01*
X71630213Y-144531694D01*
X71747019Y-144692464D01*
X71887536Y-144832981D01*
X72048306Y-144949787D01*
X72135149Y-144994035D01*
X72225367Y-145040005D01*
X72225370Y-145040006D01*
X72295466Y-145062781D01*
X72414364Y-145101413D01*
X72610639Y-145132500D01*
X72610640Y-145132500D01*
X72809360Y-145132500D01*
X72809361Y-145132500D01*
X73005636Y-145101413D01*
X73194632Y-145040005D01*
X73371694Y-144949787D01*
X73532464Y-144832981D01*
X73672981Y-144692464D01*
X73789787Y-144531694D01*
X73880005Y-144354632D01*
X73941413Y-144165636D01*
X73972500Y-143969361D01*
X73972500Y-143770639D01*
X73941413Y-143574364D01*
X73908195Y-143472129D01*
X73880006Y-143385370D01*
X73880005Y-143385367D01*
X73789786Y-143208305D01*
X73672981Y-143047536D01*
X73532464Y-142907019D01*
X73371694Y-142790213D01*
X73215218Y-142710484D01*
X73164423Y-142662510D01*
X73147628Y-142594689D01*
X73170165Y-142528554D01*
X73215218Y-142489515D01*
X73371694Y-142409787D01*
X73532464Y-142292981D01*
X73672981Y-142152464D01*
X73789787Y-141991694D01*
X73880005Y-141814632D01*
X73941413Y-141625636D01*
X73972500Y-141429361D01*
X73972500Y-141230639D01*
X73941413Y-141034364D01*
X73880005Y-140845368D01*
X73880005Y-140845367D01*
X73789786Y-140668305D01*
X73762368Y-140630567D01*
X73672981Y-140507536D01*
X73532464Y-140367019D01*
X73371694Y-140250213D01*
X73215218Y-140170484D01*
X73164423Y-140122510D01*
X73147628Y-140054689D01*
X73170165Y-139988554D01*
X73215218Y-139949515D01*
X73371694Y-139869787D01*
X73532464Y-139752981D01*
X73672981Y-139612464D01*
X73789787Y-139451694D01*
X73880005Y-139274632D01*
X73941413Y-139085636D01*
X73972500Y-138889361D01*
X73972500Y-138690639D01*
X73941413Y-138494364D01*
X73895754Y-138353839D01*
X73880006Y-138305370D01*
X73880005Y-138305367D01*
X73794564Y-138137682D01*
X73789787Y-138128306D01*
X73672981Y-137967536D01*
X73532464Y-137827019D01*
X73371694Y-137710213D01*
X73215218Y-137630484D01*
X73164423Y-137582510D01*
X73147628Y-137514689D01*
X73170165Y-137448554D01*
X73215218Y-137409515D01*
X73371694Y-137329787D01*
X73532464Y-137212981D01*
X73672981Y-137072464D01*
X73789787Y-136911694D01*
X73880005Y-136734632D01*
X73941413Y-136545636D01*
X73972500Y-136349361D01*
X73972500Y-136150639D01*
X73941413Y-135954364D01*
X73880005Y-135765368D01*
X73880005Y-135765367D01*
X73820023Y-135647648D01*
X73789787Y-135588306D01*
X73672981Y-135427536D01*
X73532464Y-135287019D01*
X73371694Y-135170213D01*
X73194632Y-135079994D01*
X73194629Y-135079993D01*
X73005637Y-135018587D01*
X72907498Y-135003043D01*
X72809361Y-134987500D01*
X72610639Y-134987500D01*
X72545214Y-134997862D01*
X72414362Y-135018587D01*
X72225370Y-135079993D01*
X72225367Y-135079994D01*
X72048305Y-135170213D01*
X71887533Y-135287021D01*
X71747021Y-135427533D01*
X71630213Y-135588305D01*
X71539994Y-135765367D01*
X71539993Y-135765370D01*
X71478587Y-135954362D01*
X71460259Y-136070080D01*
X71447500Y-136150639D01*
X68487251Y-136150639D01*
X68518477Y-136054534D01*
X68550500Y-135852352D01*
X68550500Y-135647648D01*
X68539202Y-135576314D01*
X68518477Y-135445465D01*
X68466994Y-135287019D01*
X68455220Y-135250781D01*
X68455218Y-135250778D01*
X68455218Y-135250776D01*
X68414168Y-135170213D01*
X68362287Y-135068390D01*
X68330092Y-135024077D01*
X68241971Y-134902786D01*
X68097213Y-134758028D01*
X67931613Y-134637715D01*
X67931612Y-134637714D01*
X67931610Y-134637713D01*
X67874653Y-134608691D01*
X67749223Y-134544781D01*
X67554534Y-134481522D01*
X67379995Y-134453878D01*
X67352352Y-134449500D01*
X67147648Y-134449500D01*
X67123329Y-134453351D01*
X66945465Y-134481522D01*
X66750776Y-134544781D01*
X66568386Y-134637715D01*
X66402786Y-134758028D01*
X66258028Y-134902786D01*
X66137715Y-135068386D01*
X66044781Y-135250776D01*
X65981522Y-135445465D01*
X65949500Y-135647648D01*
X63549995Y-135647648D01*
X63517990Y-135445582D01*
X63454755Y-135250968D01*
X63361859Y-135068650D01*
X63329474Y-135024077D01*
X63329474Y-135024076D01*
X62650000Y-135703551D01*
X62650000Y-135697339D01*
X62622741Y-135595606D01*
X62570080Y-135504394D01*
X62495606Y-135429920D01*
X62404394Y-135377259D01*
X62302661Y-135350000D01*
X62296446Y-135350000D01*
X62975922Y-134670524D01*
X62975921Y-134670523D01*
X62931359Y-134638147D01*
X62931350Y-134638141D01*
X62749031Y-134545244D01*
X62554417Y-134482009D01*
X62352317Y-134450000D01*
X62147683Y-134450000D01*
X61945582Y-134482009D01*
X61750968Y-134545244D01*
X61568644Y-134638143D01*
X61524077Y-134670523D01*
X61524077Y-134670524D01*
X62203554Y-135350000D01*
X62197339Y-135350000D01*
X62095606Y-135377259D01*
X62004394Y-135429920D01*
X61929920Y-135504394D01*
X61877259Y-135595606D01*
X61850000Y-135697339D01*
X61850000Y-135703553D01*
X61170524Y-135024077D01*
X61170523Y-135024077D01*
X61138143Y-135068644D01*
X61045244Y-135250968D01*
X60982009Y-135445582D01*
X60950000Y-135647682D01*
X58550500Y-135647682D01*
X58550500Y-135647648D01*
X58539202Y-135576314D01*
X58518477Y-135445465D01*
X58466994Y-135287019D01*
X58455220Y-135250781D01*
X58455218Y-135250778D01*
X58455218Y-135250776D01*
X58414168Y-135170213D01*
X58362287Y-135068390D01*
X58330092Y-135024077D01*
X58241971Y-134902786D01*
X58097213Y-134758028D01*
X57931613Y-134637715D01*
X57931612Y-134637714D01*
X57931610Y-134637713D01*
X57874653Y-134608691D01*
X57749223Y-134544781D01*
X57554534Y-134481522D01*
X57379995Y-134453878D01*
X57352352Y-134449500D01*
X57147648Y-134449500D01*
X57123329Y-134453351D01*
X56945465Y-134481522D01*
X56750776Y-134544781D01*
X56568386Y-134637715D01*
X56402786Y-134758028D01*
X56258028Y-134902786D01*
X56137715Y-135068386D01*
X56044781Y-135250776D01*
X55981522Y-135445465D01*
X55949500Y-135647648D01*
X51100500Y-135647648D01*
X51100500Y-130865973D01*
X51120185Y-130798934D01*
X51136814Y-130778297D01*
X52432173Y-129482937D01*
X52493494Y-129449454D01*
X52539247Y-129448147D01*
X52588604Y-129455964D01*
X52631904Y-129462823D01*
X52631908Y-129462823D01*
X52868097Y-129462823D01*
X53101368Y-129425876D01*
X53325992Y-129352891D01*
X53536433Y-129245666D01*
X53727510Y-129106840D01*
X53894517Y-128939833D01*
X54033343Y-128748756D01*
X54140568Y-128538315D01*
X54213553Y-128313691D01*
X54218865Y-128280150D01*
X54250500Y-128080420D01*
X54250500Y-127844225D01*
X54213553Y-127610954D01*
X54140566Y-127386326D01*
X54033342Y-127175889D01*
X53894517Y-126984813D01*
X53727510Y-126817806D01*
X53536433Y-126678980D01*
X53325996Y-126571756D01*
X53101368Y-126498769D01*
X52868097Y-126461823D01*
X52868092Y-126461823D01*
X52631908Y-126461823D01*
X52631903Y-126461823D01*
X52398631Y-126498769D01*
X52174003Y-126571756D01*
X51963566Y-126678980D01*
X51854550Y-126758185D01*
X51772490Y-126817806D01*
X51772488Y-126817808D01*
X51772487Y-126817808D01*
X51605485Y-126984810D01*
X51605485Y-126984811D01*
X51605483Y-126984813D01*
X51545862Y-127066873D01*
X51466657Y-127175889D01*
X51359433Y-127386326D01*
X51286446Y-127610954D01*
X51249500Y-127844225D01*
X51249500Y-128080420D01*
X51264174Y-128173072D01*
X51255219Y-128242365D01*
X51229382Y-128280150D01*
X49589375Y-129920157D01*
X49589372Y-129920161D01*
X49496299Y-130059453D01*
X49496292Y-130059466D01*
X49450962Y-130168906D01*
X49432185Y-130214236D01*
X49432182Y-130214248D01*
X49399500Y-130378551D01*
X49399500Y-135926349D01*
X49379815Y-135993388D01*
X49363181Y-136014030D01*
X40931049Y-144446161D01*
X40869726Y-144479646D01*
X40800034Y-144474662D01*
X40744101Y-144432790D01*
X40719684Y-144367326D01*
X40725437Y-144320161D01*
X40739825Y-144275882D01*
X40771848Y-144073700D01*
X40771848Y-143868996D01*
X40739825Y-143666814D01*
X40676568Y-143472129D01*
X40676566Y-143472126D01*
X40676566Y-143472124D01*
X40604547Y-143330781D01*
X40583635Y-143289738D01*
X40524472Y-143208306D01*
X40463319Y-143124134D01*
X40318561Y-142979376D01*
X40152961Y-142859063D01*
X40152960Y-142859062D01*
X40152958Y-142859061D01*
X40096001Y-142830039D01*
X39970571Y-142766129D01*
X39775882Y-142702870D01*
X39601343Y-142675226D01*
X39573700Y-142670848D01*
X39573699Y-142670848D01*
X39424999Y-142670848D01*
X39357960Y-142651163D01*
X39337318Y-142634529D01*
X36372165Y-139669375D01*
X36372161Y-139669372D01*
X36232866Y-139576297D01*
X36232863Y-139576296D01*
X36123416Y-139530962D01*
X36123414Y-139530961D01*
X36078086Y-139512185D01*
X36078074Y-139512182D01*
X35913771Y-139479500D01*
X35913767Y-139479500D01*
X26666233Y-139479500D01*
X26666228Y-139479500D01*
X26501925Y-139512182D01*
X26501913Y-139512185D01*
X26456583Y-139530962D01*
X26347143Y-139576292D01*
X26347130Y-139576299D01*
X26207838Y-139669372D01*
X26207834Y-139669375D01*
X25471758Y-140405451D01*
X25410435Y-140438936D01*
X25340743Y-140433952D01*
X25284810Y-140392080D01*
X25260393Y-140326616D01*
X25261603Y-140298379D01*
X25271848Y-140233700D01*
X25271848Y-140028996D01*
X25239825Y-139826814D01*
X25176568Y-139632129D01*
X25176566Y-139632126D01*
X25176566Y-139632124D01*
X25142851Y-139565955D01*
X25083635Y-139449738D01*
X25075904Y-139439097D01*
X24963319Y-139284134D01*
X24818561Y-139139376D01*
X24652961Y-139019063D01*
X24652960Y-139019062D01*
X24652958Y-139019061D01*
X24596001Y-138990039D01*
X24470571Y-138926129D01*
X24275882Y-138862870D01*
X24101343Y-138835226D01*
X24073700Y-138830848D01*
X23868996Y-138830848D01*
X23844677Y-138834699D01*
X23666813Y-138862870D01*
X23472124Y-138926129D01*
X23289734Y-139019063D01*
X23124134Y-139139376D01*
X22979376Y-139284134D01*
X22859063Y-139449734D01*
X22766129Y-139632124D01*
X22702870Y-139826813D01*
X22681775Y-139960005D01*
X22670848Y-140028996D01*
X22670848Y-140233700D01*
X22675226Y-140261343D01*
X22702870Y-140435882D01*
X22766129Y-140630571D01*
X22859063Y-140812961D01*
X22979376Y-140978561D01*
X23124134Y-141123319D01*
X23271850Y-141230639D01*
X23289738Y-141243635D01*
X23405955Y-141302851D01*
X23472124Y-141336566D01*
X23472126Y-141336566D01*
X23472129Y-141336568D01*
X23576485Y-141370475D01*
X23666813Y-141399825D01*
X23767905Y-141415836D01*
X23868996Y-141431848D01*
X23868997Y-141431848D01*
X24073698Y-141431848D01*
X24073700Y-141431848D01*
X24138374Y-141421604D01*
X24207664Y-141430558D01*
X24261117Y-141475554D01*
X24281757Y-141542305D01*
X24263033Y-141609619D01*
X24245451Y-141631758D01*
X14589375Y-151287834D01*
X14589372Y-151287838D01*
X14496299Y-151427130D01*
X14496294Y-151427140D01*
X14489061Y-151444603D01*
X14445219Y-151499007D01*
X14378925Y-151521071D01*
X14311226Y-151503791D01*
X14263616Y-151452654D01*
X14250500Y-151397150D01*
X14250500Y-137368996D01*
X26670848Y-137368996D01*
X26670848Y-137573699D01*
X26702870Y-137775882D01*
X26766129Y-137970571D01*
X26830039Y-138096001D01*
X26851277Y-138137682D01*
X26859063Y-138152961D01*
X26979376Y-138318561D01*
X27124134Y-138463319D01*
X27279097Y-138575904D01*
X27289738Y-138583635D01*
X27405955Y-138642851D01*
X27472124Y-138676566D01*
X27472126Y-138676566D01*
X27472129Y-138676568D01*
X27576485Y-138710475D01*
X27666813Y-138739825D01*
X27767905Y-138755836D01*
X27868996Y-138771848D01*
X27868997Y-138771848D01*
X28073699Y-138771848D01*
X28073700Y-138771848D01*
X28275882Y-138739825D01*
X28470567Y-138676568D01*
X28652958Y-138583635D01*
X28775833Y-138494362D01*
X28818561Y-138463319D01*
X28818563Y-138463316D01*
X28818567Y-138463314D01*
X28963314Y-138318567D01*
X28963316Y-138318563D01*
X28963319Y-138318561D01*
X29016080Y-138245938D01*
X29083635Y-138152958D01*
X29176568Y-137970567D01*
X29239825Y-137775882D01*
X29271848Y-137573700D01*
X29271848Y-137368996D01*
X29239825Y-137166814D01*
X29176568Y-136972129D01*
X29176566Y-136972126D01*
X29176566Y-136972124D01*
X29142851Y-136905955D01*
X29083635Y-136789738D01*
X29048927Y-136741966D01*
X28963319Y-136624134D01*
X28818561Y-136479376D01*
X28652961Y-136359063D01*
X28652960Y-136359062D01*
X28652958Y-136359061D01*
X28470567Y-136266128D01*
X28349809Y-136226891D01*
X28275882Y-136202870D01*
X28101343Y-136175226D01*
X28073700Y-136170848D01*
X27868996Y-136170848D01*
X27844677Y-136174699D01*
X27666813Y-136202870D01*
X27472124Y-136266129D01*
X27289734Y-136359063D01*
X27124134Y-136479376D01*
X26979376Y-136624134D01*
X26859063Y-136789734D01*
X26766129Y-136972124D01*
X26702870Y-137166813D01*
X26670848Y-137368996D01*
X14250500Y-137368996D01*
X14250500Y-136715401D01*
X14250512Y-136713655D01*
X14252422Y-136578082D01*
X14258888Y-136119008D01*
X42970848Y-136119008D01*
X42970848Y-137719026D01*
X42970849Y-137719043D01*
X42981348Y-137821821D01*
X42981349Y-137821824D01*
X43029633Y-137967533D01*
X43036534Y-137988359D01*
X43128636Y-138137681D01*
X43252692Y-138261737D01*
X43402014Y-138353839D01*
X43568551Y-138409024D01*
X43671339Y-138419525D01*
X45271356Y-138419524D01*
X45374145Y-138409024D01*
X45540682Y-138353839D01*
X45690004Y-138261737D01*
X45814060Y-138137681D01*
X45906162Y-137988359D01*
X45961347Y-137821822D01*
X45971848Y-137719034D01*
X45971847Y-136119017D01*
X45961347Y-136016228D01*
X45906162Y-135849691D01*
X45814060Y-135700369D01*
X45690004Y-135576313D01*
X45540682Y-135484211D01*
X45374145Y-135429026D01*
X45374143Y-135429025D01*
X45271358Y-135418525D01*
X43671346Y-135418525D01*
X43671329Y-135418526D01*
X43568551Y-135429025D01*
X43568548Y-135429026D01*
X43402016Y-135484210D01*
X43402011Y-135484212D01*
X43252690Y-135576314D01*
X43128637Y-135700367D01*
X43036535Y-135849688D01*
X43036533Y-135849693D01*
X43035652Y-135852352D01*
X42981349Y-136016228D01*
X42981349Y-136016229D01*
X42981348Y-136016229D01*
X42970848Y-136119008D01*
X14258888Y-136119008D01*
X14268374Y-135445465D01*
X14319706Y-131800927D01*
X42970848Y-131800927D01*
X42970848Y-132037122D01*
X43007794Y-132270393D01*
X43080781Y-132495021D01*
X43188005Y-132705458D01*
X43326831Y-132896535D01*
X43493838Y-133063542D01*
X43684915Y-133202368D01*
X43784339Y-133253027D01*
X43895351Y-133309591D01*
X43895353Y-133309591D01*
X43895356Y-133309593D01*
X44015760Y-133348714D01*
X44119979Y-133382578D01*
X44353251Y-133419525D01*
X44353256Y-133419525D01*
X44589445Y-133419525D01*
X44822716Y-133382578D01*
X45047340Y-133309593D01*
X45257781Y-133202368D01*
X45448858Y-133063542D01*
X45615865Y-132896535D01*
X45754691Y-132705458D01*
X45861916Y-132495017D01*
X45934901Y-132270393D01*
X45971848Y-132037122D01*
X45971848Y-131800927D01*
X45934901Y-131567656D01*
X45861914Y-131343028D01*
X45754690Y-131132591D01*
X45615865Y-130941515D01*
X45448858Y-130774508D01*
X45257781Y-130635682D01*
X45047344Y-130528458D01*
X44822716Y-130455471D01*
X44589445Y-130418525D01*
X44589440Y-130418525D01*
X44353256Y-130418525D01*
X44353251Y-130418525D01*
X44119979Y-130455471D01*
X43895351Y-130528458D01*
X43684914Y-130635682D01*
X43575898Y-130714887D01*
X43493838Y-130774508D01*
X43493836Y-130774510D01*
X43493835Y-130774510D01*
X43326833Y-130941512D01*
X43326833Y-130941513D01*
X43326831Y-130941515D01*
X43267210Y-131023575D01*
X43188005Y-131132591D01*
X43080781Y-131343028D01*
X43007794Y-131567656D01*
X42970848Y-131800927D01*
X14319706Y-131800927D01*
X14319799Y-131794315D01*
X14346916Y-129868996D01*
X22670848Y-129868996D01*
X22670848Y-130073699D01*
X22702870Y-130275882D01*
X22766129Y-130470571D01*
X22830039Y-130596001D01*
X22850258Y-130635682D01*
X22859063Y-130652961D01*
X22979376Y-130818561D01*
X23124134Y-130963319D01*
X23279097Y-131075904D01*
X23289738Y-131083635D01*
X23405955Y-131142851D01*
X23472124Y-131176566D01*
X23472126Y-131176566D01*
X23472129Y-131176568D01*
X23576485Y-131210475D01*
X23666813Y-131239825D01*
X23767905Y-131255836D01*
X23868996Y-131271848D01*
X23868997Y-131271848D01*
X24073699Y-131271848D01*
X24073700Y-131271848D01*
X24275882Y-131239825D01*
X24470567Y-131176568D01*
X24652958Y-131083635D01*
X24745938Y-131016080D01*
X24818561Y-130963319D01*
X24818563Y-130963316D01*
X24818567Y-130963314D01*
X24963314Y-130818567D01*
X24963316Y-130818563D01*
X24963319Y-130818561D01*
X25016080Y-130745938D01*
X25083635Y-130652958D01*
X25176568Y-130470567D01*
X25239825Y-130275882D01*
X25271848Y-130073700D01*
X25271848Y-129868996D01*
X25239825Y-129666814D01*
X25176568Y-129472129D01*
X25176566Y-129472126D01*
X25176566Y-129472124D01*
X25115812Y-129352889D01*
X25083635Y-129289738D01*
X25051615Y-129245666D01*
X24963319Y-129124134D01*
X24818561Y-128979376D01*
X24652961Y-128859063D01*
X24652960Y-128859062D01*
X24652958Y-128859061D01*
X24592361Y-128828185D01*
X24470571Y-128766129D01*
X24275882Y-128702870D01*
X24101343Y-128675226D01*
X24073700Y-128670848D01*
X23868996Y-128670848D01*
X23844677Y-128674699D01*
X23666813Y-128702870D01*
X23472124Y-128766129D01*
X23289734Y-128859063D01*
X23124134Y-128979376D01*
X22979376Y-129124134D01*
X22859063Y-129289734D01*
X22766129Y-129472124D01*
X22702870Y-129666813D01*
X22670848Y-129868996D01*
X14346916Y-129868996D01*
X14347009Y-129862378D01*
X14363927Y-128661182D01*
X14379358Y-127565573D01*
X33470848Y-127565573D01*
X33470848Y-127801768D01*
X33507794Y-128035039D01*
X33580781Y-128259667D01*
X33688005Y-128470104D01*
X33826831Y-128661181D01*
X33993838Y-128828188D01*
X34184915Y-128967014D01*
X34209189Y-128979382D01*
X34395351Y-129074237D01*
X34395353Y-129074237D01*
X34395356Y-129074239D01*
X34495682Y-129106837D01*
X34619979Y-129147224D01*
X34853251Y-129184171D01*
X34853256Y-129184171D01*
X35089445Y-129184171D01*
X35322716Y-129147224D01*
X35393779Y-129124134D01*
X35547340Y-129074239D01*
X35757781Y-128967014D01*
X35948858Y-128828188D01*
X36115865Y-128661181D01*
X36254691Y-128470104D01*
X36361916Y-128259663D01*
X36434901Y-128035039D01*
X36465123Y-127844225D01*
X36471848Y-127801768D01*
X36471848Y-127565573D01*
X36434901Y-127332302D01*
X36361914Y-127107674D01*
X36254690Y-126897237D01*
X36115865Y-126706161D01*
X35948858Y-126539154D01*
X35757781Y-126400328D01*
X35547344Y-126293104D01*
X35322716Y-126220117D01*
X35089445Y-126183171D01*
X35089440Y-126183171D01*
X34853256Y-126183171D01*
X34853251Y-126183171D01*
X34619979Y-126220117D01*
X34395351Y-126293104D01*
X34184914Y-126400328D01*
X34075898Y-126479533D01*
X33993838Y-126539154D01*
X33993836Y-126539156D01*
X33993835Y-126539156D01*
X33826833Y-126706158D01*
X33826833Y-126706159D01*
X33826831Y-126706161D01*
X33767210Y-126788221D01*
X33688005Y-126897237D01*
X33580781Y-127107674D01*
X33507794Y-127332302D01*
X33470848Y-127565573D01*
X14379358Y-127565573D01*
X14459385Y-121883654D01*
X33470848Y-121883654D01*
X33470848Y-123483672D01*
X33470849Y-123483689D01*
X33481348Y-123586467D01*
X33481349Y-123586470D01*
X33536533Y-123753002D01*
X33536534Y-123753005D01*
X33628636Y-123902327D01*
X33752692Y-124026383D01*
X33902014Y-124118485D01*
X34068551Y-124173670D01*
X34171339Y-124184171D01*
X35771356Y-124184170D01*
X35874145Y-124173670D01*
X36040682Y-124118485D01*
X36190004Y-124026383D01*
X36314060Y-123902327D01*
X36406162Y-123753005D01*
X36461347Y-123586468D01*
X36471848Y-123483680D01*
X36471847Y-122162306D01*
X51249500Y-122162306D01*
X51249500Y-123762324D01*
X51249501Y-123762341D01*
X51260000Y-123865119D01*
X51260001Y-123865122D01*
X51313438Y-124026381D01*
X51315186Y-124031657D01*
X51407288Y-124180979D01*
X51531344Y-124305035D01*
X51680666Y-124397137D01*
X51847203Y-124452322D01*
X51949991Y-124462823D01*
X53550008Y-124462822D01*
X53652797Y-124452322D01*
X53819334Y-124397137D01*
X53968656Y-124305035D01*
X54092712Y-124180979D01*
X54184814Y-124031657D01*
X54239999Y-123865120D01*
X54250500Y-123762332D01*
X54250499Y-122162315D01*
X54239999Y-122059526D01*
X54184814Y-121892989D01*
X54092712Y-121743667D01*
X53968656Y-121619611D01*
X53819334Y-121527509D01*
X53652797Y-121472324D01*
X53652795Y-121472323D01*
X53550010Y-121461823D01*
X51949998Y-121461823D01*
X51949981Y-121461824D01*
X51847203Y-121472323D01*
X51847200Y-121472324D01*
X51680668Y-121527508D01*
X51680663Y-121527510D01*
X51531342Y-121619612D01*
X51407289Y-121743665D01*
X51315187Y-121892986D01*
X51315186Y-121892989D01*
X51260001Y-122059526D01*
X51260001Y-122059527D01*
X51260000Y-122059527D01*
X51249500Y-122162306D01*
X36471847Y-122162306D01*
X36471847Y-121883663D01*
X36461347Y-121780874D01*
X36406162Y-121614337D01*
X36314060Y-121465015D01*
X36190004Y-121340959D01*
X36040682Y-121248857D01*
X35874145Y-121193672D01*
X35874143Y-121193671D01*
X35771358Y-121183171D01*
X34171346Y-121183171D01*
X34171329Y-121183172D01*
X34068551Y-121193671D01*
X34068548Y-121193672D01*
X33902016Y-121248856D01*
X33902011Y-121248858D01*
X33752690Y-121340960D01*
X33628637Y-121465013D01*
X33536535Y-121614334D01*
X33536534Y-121614337D01*
X33481349Y-121780874D01*
X33481349Y-121780875D01*
X33481348Y-121780875D01*
X33470848Y-121883654D01*
X14459385Y-121883654D01*
X14498278Y-119122253D01*
X14518905Y-119055498D01*
X14572348Y-119010491D01*
X14622266Y-119000000D01*
X78625500Y-119000000D01*
X78692539Y-119019685D01*
G37*
%TD.AperFunction*%
%TD*%
%TA.AperFunction,NonConductor*%
G36*
X35493388Y-141200185D02*
G01*
X35514030Y-141216819D01*
X38134529Y-143837318D01*
X38168014Y-143898641D01*
X38170848Y-143924999D01*
X38170848Y-144073699D01*
X38202870Y-144275882D01*
X38266129Y-144470571D01*
X38359063Y-144652961D01*
X38479376Y-144818561D01*
X38624134Y-144963319D01*
X38779097Y-145075904D01*
X38789738Y-145083635D01*
X38881716Y-145130500D01*
X38972124Y-145176566D01*
X38972126Y-145176566D01*
X38972129Y-145176568D01*
X39076485Y-145210475D01*
X39166813Y-145239825D01*
X39267905Y-145255836D01*
X39368996Y-145271848D01*
X39368997Y-145271848D01*
X39573699Y-145271848D01*
X39573700Y-145271848D01*
X39775882Y-145239825D01*
X39820160Y-145225437D01*
X39890000Y-145223441D01*
X39949834Y-145259520D01*
X39980663Y-145322221D01*
X39972700Y-145391635D01*
X39946161Y-145431049D01*
X36434030Y-148943181D01*
X36372707Y-148976666D01*
X36346349Y-148979500D01*
X28706544Y-148979500D01*
X28639505Y-148959815D01*
X28593750Y-148907011D01*
X28583806Y-148837853D01*
X28612831Y-148774297D01*
X28650249Y-148745014D01*
X28652958Y-148743635D01*
X28674118Y-148728261D01*
X28818561Y-148623319D01*
X28818563Y-148623316D01*
X28818567Y-148623314D01*
X28963314Y-148478567D01*
X28963316Y-148478563D01*
X28963319Y-148478561D01*
X29016080Y-148405938D01*
X29083635Y-148312958D01*
X29176568Y-148130567D01*
X29239825Y-147935882D01*
X29271848Y-147733700D01*
X29271848Y-147528996D01*
X29239825Y-147326814D01*
X29176568Y-147132129D01*
X29176566Y-147132126D01*
X29176566Y-147132124D01*
X29142851Y-147065955D01*
X29083635Y-146949738D01*
X29048927Y-146901966D01*
X28963319Y-146784134D01*
X28818561Y-146639376D01*
X28652961Y-146519063D01*
X28652960Y-146519062D01*
X28652958Y-146519061D01*
X28596001Y-146490039D01*
X28470571Y-146426129D01*
X28275882Y-146362870D01*
X28101343Y-146335226D01*
X28073700Y-146330848D01*
X27868996Y-146330848D01*
X27844677Y-146334699D01*
X27666813Y-146362870D01*
X27472124Y-146426129D01*
X27289734Y-146519063D01*
X27124134Y-146639376D01*
X26979376Y-146784134D01*
X26859063Y-146949734D01*
X26766129Y-147132124D01*
X26702870Y-147326813D01*
X26670848Y-147528996D01*
X26670848Y-147733699D01*
X26702870Y-147935882D01*
X26766129Y-148130571D01*
X26859063Y-148312961D01*
X26979376Y-148478561D01*
X27124134Y-148623319D01*
X27289733Y-148743632D01*
X27289735Y-148743633D01*
X27289738Y-148743635D01*
X27292445Y-148745014D01*
X27293290Y-148745812D01*
X27293890Y-148746180D01*
X27293812Y-148746305D01*
X27343242Y-148792988D01*
X27360038Y-148860808D01*
X27337502Y-148926944D01*
X27282788Y-148970396D01*
X27236152Y-148979500D01*
X25166228Y-148979500D01*
X25001925Y-149012182D01*
X25001917Y-149012184D01*
X24847139Y-149076295D01*
X24707837Y-149169373D01*
X24707834Y-149169376D01*
X18589375Y-155287834D01*
X18589372Y-155287838D01*
X18496299Y-155427130D01*
X18496292Y-155427143D01*
X18465321Y-155501917D01*
X18432185Y-155581913D01*
X18432182Y-155581925D01*
X18399500Y-155746228D01*
X18399500Y-156431578D01*
X18397084Y-156439803D01*
X18398370Y-156448281D01*
X18387388Y-156472823D01*
X18379815Y-156498617D01*
X18373336Y-156504231D01*
X18369834Y-156512058D01*
X18347327Y-156526767D01*
X18327011Y-156544372D01*
X18316997Y-156546590D01*
X18311348Y-156550283D01*
X18276453Y-156555574D01*
X18225453Y-156555966D01*
X18158264Y-156536798D01*
X18112105Y-156484347D01*
X18100500Y-156431970D01*
X18100500Y-154733650D01*
X18120185Y-154666611D01*
X18136819Y-154645969D01*
X28065969Y-144716819D01*
X28127292Y-144683334D01*
X28153650Y-144680500D01*
X32315890Y-144680500D01*
X32382929Y-144700185D01*
X32416209Y-144731616D01*
X32479378Y-144818563D01*
X32624134Y-144963319D01*
X32779097Y-145075904D01*
X32789738Y-145083635D01*
X32881716Y-145130500D01*
X32972124Y-145176566D01*
X32972126Y-145176566D01*
X32972129Y-145176568D01*
X33076485Y-145210475D01*
X33166813Y-145239825D01*
X33267905Y-145255836D01*
X33368996Y-145271848D01*
X33368997Y-145271848D01*
X33573699Y-145271848D01*
X33573700Y-145271848D01*
X33775882Y-145239825D01*
X33970567Y-145176568D01*
X34152958Y-145083635D01*
X34245938Y-145016080D01*
X34318561Y-144963319D01*
X34318563Y-144963316D01*
X34318567Y-144963314D01*
X34463314Y-144818567D01*
X34463316Y-144818563D01*
X34463319Y-144818561D01*
X34526487Y-144731616D01*
X34583635Y-144652958D01*
X34676568Y-144470567D01*
X34739825Y-144275882D01*
X34771848Y-144073700D01*
X34771848Y-143868996D01*
X34739825Y-143666814D01*
X34676568Y-143472129D01*
X34676566Y-143472126D01*
X34676566Y-143472124D01*
X34604547Y-143330781D01*
X34583635Y-143289738D01*
X34524472Y-143208306D01*
X34463319Y-143124134D01*
X34318561Y-142979376D01*
X34152961Y-142859063D01*
X34152960Y-142859062D01*
X34152958Y-142859061D01*
X34096001Y-142830039D01*
X33970571Y-142766129D01*
X33775882Y-142702870D01*
X33601343Y-142675226D01*
X33573700Y-142670848D01*
X33368996Y-142670848D01*
X33344677Y-142674699D01*
X33166813Y-142702870D01*
X32972124Y-142766129D01*
X32789734Y-142859063D01*
X32656561Y-142955818D01*
X32590754Y-142979298D01*
X32583676Y-142979500D01*
X27666228Y-142979500D01*
X27501925Y-143012182D01*
X27501917Y-143012184D01*
X27360292Y-143070848D01*
X27360291Y-143070848D01*
X27347142Y-143076293D01*
X27347130Y-143076300D01*
X27207838Y-143169373D01*
X27207834Y-143169376D01*
X16589375Y-153787834D01*
X16589372Y-153787838D01*
X16496297Y-153927133D01*
X16496296Y-153927136D01*
X16474607Y-153979499D01*
X16474607Y-153979500D01*
X16432184Y-154081917D01*
X16432182Y-154081925D01*
X16399500Y-154246228D01*
X16399500Y-156446962D01*
X16397084Y-156455187D01*
X16398370Y-156463665D01*
X16387388Y-156488207D01*
X16379815Y-156514001D01*
X16373336Y-156519615D01*
X16369834Y-156527442D01*
X16347327Y-156542151D01*
X16327011Y-156559756D01*
X16316997Y-156561974D01*
X16311348Y-156565667D01*
X16276453Y-156570958D01*
X16225453Y-156571350D01*
X16158264Y-156552182D01*
X16112105Y-156499731D01*
X16100500Y-156447354D01*
X16100500Y-152233651D01*
X16120185Y-152166612D01*
X16136819Y-152145970D01*
X27065970Y-141216819D01*
X27127293Y-141183334D01*
X27153651Y-141180500D01*
X35426349Y-141180500D01*
X35493388Y-141200185D01*
G37*
%TD.AperFunction*%
%TA.AperFunction,Conductor*%
%TO.N,HP150M*%
G36*
X18342539Y-157519685D02*
G01*
X18388294Y-157572489D01*
X18399500Y-157624000D01*
X18399500Y-160413771D01*
X18432182Y-160578074D01*
X18432185Y-160578086D01*
X18450961Y-160623414D01*
X18450962Y-160623416D01*
X18496296Y-160732863D01*
X18496297Y-160732866D01*
X18589372Y-160872161D01*
X18589375Y-160872165D01*
X21785031Y-164067819D01*
X21818516Y-164129142D01*
X21813532Y-164198834D01*
X21771660Y-164254767D01*
X21706196Y-164279184D01*
X21697350Y-164279500D01*
X21647648Y-164279500D01*
X21623329Y-164283351D01*
X21445465Y-164311522D01*
X21250776Y-164374781D01*
X21068386Y-164467715D01*
X20902786Y-164588028D01*
X20758028Y-164732786D01*
X20637715Y-164898386D01*
X20544781Y-165080776D01*
X20481522Y-165275465D01*
X20449500Y-165477648D01*
X20449500Y-165682351D01*
X20481522Y-165884534D01*
X20544781Y-166079223D01*
X20604440Y-166196309D01*
X20619229Y-166225334D01*
X20637715Y-166261613D01*
X20758028Y-166427213D01*
X20902786Y-166571971D01*
X21013908Y-166652704D01*
X21068390Y-166692287D01*
X21180677Y-166749500D01*
X21250776Y-166785218D01*
X21250778Y-166785218D01*
X21250781Y-166785220D01*
X21329342Y-166810746D01*
X21445465Y-166848477D01*
X21546557Y-166864488D01*
X21647648Y-166880500D01*
X21647649Y-166880500D01*
X21852351Y-166880500D01*
X21852352Y-166880500D01*
X22054534Y-166848477D01*
X22249219Y-166785220D01*
X22431610Y-166692287D01*
X22555484Y-166602288D01*
X22597213Y-166571971D01*
X22597215Y-166571968D01*
X22597219Y-166571966D01*
X22741966Y-166427219D01*
X22741968Y-166427215D01*
X22741971Y-166427213D01*
X22794732Y-166354590D01*
X22862287Y-166261610D01*
X22955220Y-166079219D01*
X23018477Y-165884534D01*
X23050500Y-165682352D01*
X23050500Y-165632650D01*
X23070185Y-165565611D01*
X23122989Y-165519856D01*
X23192147Y-165509912D01*
X23255703Y-165538937D01*
X23262181Y-165544969D01*
X24158374Y-166441162D01*
X24252430Y-166535218D01*
X24276839Y-166559627D01*
X24324705Y-166591610D01*
X24416137Y-166652703D01*
X24570918Y-166716816D01*
X24575125Y-166717652D01*
X24637037Y-166750033D01*
X24671616Y-166810746D01*
X24667881Y-166880516D01*
X24627018Y-166937191D01*
X24570340Y-166961744D01*
X24445464Y-166981523D01*
X24250776Y-167044781D01*
X24068386Y-167137715D01*
X23902786Y-167258028D01*
X23758028Y-167402786D01*
X23637715Y-167568386D01*
X23544781Y-167750776D01*
X23481522Y-167945465D01*
X23449500Y-168147648D01*
X23449500Y-168352351D01*
X23481522Y-168554534D01*
X23544781Y-168749223D01*
X23637715Y-168931613D01*
X23758028Y-169097213D01*
X23902786Y-169241971D01*
X24057749Y-169354556D01*
X24068390Y-169362287D01*
X24184607Y-169421503D01*
X24250776Y-169455218D01*
X24250778Y-169455218D01*
X24250781Y-169455220D01*
X24355137Y-169489127D01*
X24445465Y-169518477D01*
X24546557Y-169534488D01*
X24647648Y-169550500D01*
X24647649Y-169550500D01*
X24852351Y-169550500D01*
X24852352Y-169550500D01*
X25054534Y-169518477D01*
X25249219Y-169455220D01*
X25431610Y-169362287D01*
X25524590Y-169294732D01*
X25597213Y-169241971D01*
X25597215Y-169241968D01*
X25597219Y-169241966D01*
X25741966Y-169097219D01*
X25741968Y-169097215D01*
X25741971Y-169097213D01*
X25794732Y-169024590D01*
X25862287Y-168931610D01*
X25955220Y-168749219D01*
X26018477Y-168554534D01*
X26050500Y-168352352D01*
X26050500Y-168147648D01*
X26018477Y-167945466D01*
X26013893Y-167931359D01*
X25955218Y-167750776D01*
X25880203Y-167603553D01*
X25862287Y-167568390D01*
X25852135Y-167554417D01*
X25741971Y-167402786D01*
X25597213Y-167258028D01*
X25431613Y-167137715D01*
X25431612Y-167137714D01*
X25431610Y-167137713D01*
X25368320Y-167105465D01*
X25249223Y-167044781D01*
X25085028Y-166991431D01*
X25027353Y-166951993D01*
X25000155Y-166887634D01*
X25012070Y-166818788D01*
X25059314Y-166767312D01*
X25123347Y-166749500D01*
X29375049Y-166749500D01*
X29442088Y-166769185D01*
X29487843Y-166821989D01*
X29497787Y-166891147D01*
X29492980Y-166911817D01*
X29482011Y-166945574D01*
X29482010Y-166945581D01*
X29450000Y-167147682D01*
X29450000Y-167352317D01*
X29482009Y-167554417D01*
X29545244Y-167749031D01*
X29638141Y-167931350D01*
X29638147Y-167931359D01*
X29670523Y-167975921D01*
X29670524Y-167975922D01*
X30350000Y-167296446D01*
X30350000Y-167302661D01*
X30377259Y-167404394D01*
X30429920Y-167495606D01*
X30504394Y-167570080D01*
X30595606Y-167622741D01*
X30697339Y-167650000D01*
X30703553Y-167650000D01*
X30024076Y-168329474D01*
X30068650Y-168361859D01*
X30250968Y-168454755D01*
X30445582Y-168517990D01*
X30647683Y-168550000D01*
X30852317Y-168550000D01*
X31054417Y-168517990D01*
X31249031Y-168454755D01*
X31431349Y-168361859D01*
X31475921Y-168329474D01*
X30796447Y-167650000D01*
X30802661Y-167650000D01*
X30904394Y-167622741D01*
X30995606Y-167570080D01*
X31070080Y-167495606D01*
X31122741Y-167404394D01*
X31150000Y-167302661D01*
X31150000Y-167296447D01*
X31829474Y-167975921D01*
X31861859Y-167931349D01*
X31954755Y-167749031D01*
X32017990Y-167554417D01*
X32050000Y-167352317D01*
X32050000Y-167147682D01*
X32017989Y-166945581D01*
X32017988Y-166945574D01*
X32007020Y-166911817D01*
X32005025Y-166841976D01*
X32041106Y-166782144D01*
X32103807Y-166751316D01*
X32124951Y-166749500D01*
X32995349Y-166749500D01*
X33062388Y-166769185D01*
X33083030Y-166785819D01*
X35413181Y-169115970D01*
X35446666Y-169177293D01*
X35449500Y-169203651D01*
X35449500Y-169352351D01*
X35481522Y-169554534D01*
X35544781Y-169749223D01*
X35637715Y-169931613D01*
X35758028Y-170097213D01*
X35902786Y-170241971D01*
X36057749Y-170354556D01*
X36068390Y-170362287D01*
X36184607Y-170421503D01*
X36250776Y-170455218D01*
X36250778Y-170455218D01*
X36250781Y-170455220D01*
X36318884Y-170477348D01*
X36445465Y-170518477D01*
X36546557Y-170534488D01*
X36647648Y-170550500D01*
X36647649Y-170550500D01*
X36852351Y-170550500D01*
X36852352Y-170550500D01*
X37054534Y-170518477D01*
X37249219Y-170455220D01*
X37431610Y-170362287D01*
X37524590Y-170294732D01*
X37597213Y-170241971D01*
X37597215Y-170241968D01*
X37597219Y-170241966D01*
X37741966Y-170097219D01*
X37741968Y-170097215D01*
X37741971Y-170097213D01*
X37819409Y-169990627D01*
X37862287Y-169931610D01*
X37955220Y-169749219D01*
X38018477Y-169554534D01*
X38050500Y-169352352D01*
X38050500Y-169147648D01*
X38018477Y-168945466D01*
X37955220Y-168750781D01*
X37955218Y-168750778D01*
X37955218Y-168750776D01*
X37921503Y-168684607D01*
X37862287Y-168568390D01*
X37825670Y-168517990D01*
X37741971Y-168402786D01*
X37597213Y-168258028D01*
X37431613Y-168137715D01*
X37431612Y-168137714D01*
X37431610Y-168137713D01*
X37341128Y-168091610D01*
X37249223Y-168044781D01*
X37054534Y-167981522D01*
X36879995Y-167953878D01*
X36852352Y-167949500D01*
X36852351Y-167949500D01*
X36703651Y-167949500D01*
X36636612Y-167929815D01*
X36615970Y-167913181D01*
X33941165Y-165238375D01*
X33941161Y-165238372D01*
X33801869Y-165145299D01*
X33801856Y-165145292D01*
X33673638Y-165092184D01*
X33647082Y-165081184D01*
X33647074Y-165081182D01*
X33482771Y-165048500D01*
X33482767Y-165048500D01*
X25222650Y-165048500D01*
X25155611Y-165028815D01*
X25134969Y-165012181D01*
X20136819Y-160014030D01*
X20103334Y-159952707D01*
X20100500Y-159926349D01*
X20100500Y-157624000D01*
X20120185Y-157556961D01*
X20172989Y-157511206D01*
X20224500Y-157500000D01*
X20400356Y-157500000D01*
X20467395Y-157519685D01*
X20513150Y-157572489D01*
X20523094Y-157641647D01*
X20518287Y-157662319D01*
X20481522Y-157775465D01*
X20449500Y-157977648D01*
X20449500Y-158182351D01*
X20481522Y-158384534D01*
X20544781Y-158579223D01*
X20637715Y-158761613D01*
X20758028Y-158927213D01*
X20902786Y-159071971D01*
X21057749Y-159184556D01*
X21068390Y-159192287D01*
X21184607Y-159251503D01*
X21250776Y-159285218D01*
X21250778Y-159285218D01*
X21250781Y-159285220D01*
X21355137Y-159319127D01*
X21445465Y-159348477D01*
X21546557Y-159364488D01*
X21647648Y-159380500D01*
X21796349Y-159380500D01*
X21863388Y-159400185D01*
X21884030Y-159416819D01*
X25839374Y-163372162D01*
X25957838Y-163490626D01*
X26097137Y-163583703D01*
X26097138Y-163583703D01*
X26097139Y-163583704D01*
X26132201Y-163598227D01*
X26251918Y-163647816D01*
X26416228Y-163680499D01*
X26416232Y-163680500D01*
X26416233Y-163680500D01*
X32253768Y-163680500D01*
X32253769Y-163680499D01*
X32308538Y-163669605D01*
X32418074Y-163647818D01*
X32418078Y-163647816D01*
X32418082Y-163647816D01*
X32463415Y-163629037D01*
X32572863Y-163583704D01*
X32712162Y-163490627D01*
X34035969Y-162166818D01*
X34097292Y-162133334D01*
X34123650Y-162130500D01*
X34272351Y-162130500D01*
X34272352Y-162130500D01*
X34474534Y-162098477D01*
X34669219Y-162035220D01*
X34851610Y-161942287D01*
X34944590Y-161874732D01*
X35017213Y-161821971D01*
X35017215Y-161821968D01*
X35017219Y-161821966D01*
X35161966Y-161677219D01*
X35161968Y-161677215D01*
X35161971Y-161677213D01*
X35214732Y-161604590D01*
X35282287Y-161511610D01*
X35375220Y-161329219D01*
X35438477Y-161134534D01*
X35470500Y-160932352D01*
X35470500Y-160727648D01*
X35446811Y-160578082D01*
X35438477Y-160525465D01*
X35402184Y-160413767D01*
X35375220Y-160330781D01*
X35375218Y-160330778D01*
X35375218Y-160330776D01*
X35282287Y-160148390D01*
X35267026Y-160127385D01*
X35243547Y-160061578D01*
X35259373Y-159993524D01*
X35309479Y-159944830D01*
X35367345Y-159930500D01*
X42176349Y-159930500D01*
X42243388Y-159950185D01*
X42264030Y-159966819D01*
X42993181Y-160695970D01*
X43026666Y-160757293D01*
X43029500Y-160783651D01*
X43029500Y-160932351D01*
X43061522Y-161134534D01*
X43124781Y-161329223D01*
X43217715Y-161511613D01*
X43338028Y-161677213D01*
X43482786Y-161821971D01*
X43637749Y-161934556D01*
X43648390Y-161942287D01*
X43721425Y-161979500D01*
X43830776Y-162035218D01*
X43830778Y-162035218D01*
X43830781Y-162035220D01*
X43935137Y-162069127D01*
X44025465Y-162098477D01*
X44126557Y-162114488D01*
X44227648Y-162130500D01*
X44227649Y-162130500D01*
X44432351Y-162130500D01*
X44432352Y-162130500D01*
X44634534Y-162098477D01*
X44829219Y-162035220D01*
X45011610Y-161942287D01*
X45104590Y-161874732D01*
X45177213Y-161821971D01*
X45177215Y-161821968D01*
X45177219Y-161821966D01*
X45321966Y-161677219D01*
X45321968Y-161677215D01*
X45321971Y-161677213D01*
X45374732Y-161604590D01*
X45442287Y-161511610D01*
X45535220Y-161329219D01*
X45598477Y-161134534D01*
X45630500Y-160932352D01*
X45630500Y-160727648D01*
X45606811Y-160578082D01*
X45598477Y-160525465D01*
X45562184Y-160413767D01*
X45535220Y-160330781D01*
X45535218Y-160330778D01*
X45535218Y-160330776D01*
X45501503Y-160264607D01*
X45442287Y-160148390D01*
X45386763Y-160071967D01*
X45321971Y-159982786D01*
X45177213Y-159838028D01*
X45011613Y-159717715D01*
X45011612Y-159717714D01*
X45011610Y-159717713D01*
X44954653Y-159688691D01*
X44829223Y-159624781D01*
X44634534Y-159561522D01*
X44459995Y-159533878D01*
X44432352Y-159529500D01*
X44432351Y-159529500D01*
X44283651Y-159529500D01*
X44216612Y-159509815D01*
X44195970Y-159493181D01*
X43122165Y-158419375D01*
X43122161Y-158419372D01*
X42982866Y-158326297D01*
X42982863Y-158326296D01*
X42873416Y-158280962D01*
X42873414Y-158280961D01*
X42828086Y-158262185D01*
X42828074Y-158262182D01*
X42663771Y-158229500D01*
X42663767Y-158229500D01*
X28790047Y-158229500D01*
X28723008Y-158209815D01*
X28702366Y-158193181D01*
X28597213Y-158088028D01*
X28431613Y-157967715D01*
X28431612Y-157967714D01*
X28431610Y-157967713D01*
X28378171Y-157940484D01*
X28327376Y-157892510D01*
X28310581Y-157824689D01*
X28333118Y-157758554D01*
X28378172Y-157719515D01*
X28431610Y-157692287D01*
X28549889Y-157606353D01*
X28597213Y-157571971D01*
X28597215Y-157571968D01*
X28597219Y-157571966D01*
X28632866Y-157536319D01*
X28694189Y-157502834D01*
X28720547Y-157500000D01*
X58745849Y-157500000D01*
X58812888Y-157519685D01*
X58833530Y-157536319D01*
X67863181Y-166565969D01*
X67896666Y-166627292D01*
X67899500Y-166653650D01*
X67899500Y-170477348D01*
X67879815Y-170544387D01*
X67827011Y-170590142D01*
X67757853Y-170600086D01*
X67694297Y-170571061D01*
X67687819Y-170565029D01*
X65792165Y-168669375D01*
X65792161Y-168669372D01*
X65652865Y-168576297D01*
X65650450Y-168575006D01*
X65649421Y-168573995D01*
X65647798Y-168572911D01*
X65648003Y-168572603D01*
X65600604Y-168526045D01*
X65585142Y-168457908D01*
X65608971Y-168392228D01*
X65621206Y-168377978D01*
X65741966Y-168257219D01*
X65862287Y-168091610D01*
X65955220Y-167909219D01*
X66018477Y-167714534D01*
X66050500Y-167512352D01*
X66050500Y-167307648D01*
X66041369Y-167249999D01*
X66018477Y-167105465D01*
X65971779Y-166961744D01*
X65955220Y-166910781D01*
X65955218Y-166910778D01*
X65955218Y-166910776D01*
X65908347Y-166818788D01*
X65862287Y-166728390D01*
X65807986Y-166653650D01*
X65741971Y-166562786D01*
X65597213Y-166418028D01*
X65431613Y-166297715D01*
X65431612Y-166297714D01*
X65431610Y-166297713D01*
X65360754Y-166261610D01*
X65249223Y-166204781D01*
X65054534Y-166141522D01*
X64879995Y-166113878D01*
X64852352Y-166109500D01*
X64647648Y-166109500D01*
X64623329Y-166113351D01*
X64445465Y-166141522D01*
X64250776Y-166204781D01*
X64068386Y-166297715D01*
X63902786Y-166418028D01*
X63758028Y-166562786D01*
X63637715Y-166728386D01*
X63544781Y-166910776D01*
X63481522Y-167105465D01*
X63449500Y-167307648D01*
X63449500Y-167512351D01*
X63481522Y-167714534D01*
X63544781Y-167909223D01*
X63637715Y-168091613D01*
X63758028Y-168257213D01*
X63768634Y-168267819D01*
X63802119Y-168329142D01*
X63797135Y-168398834D01*
X63755263Y-168454767D01*
X63689799Y-168479184D01*
X63680953Y-168479500D01*
X62073650Y-168479500D01*
X62006611Y-168459815D01*
X61985969Y-168443181D01*
X59586819Y-166044030D01*
X59553334Y-165982707D01*
X59550500Y-165956349D01*
X59550500Y-165807648D01*
X59518477Y-165605465D01*
X59462229Y-165432352D01*
X59455220Y-165410781D01*
X59455218Y-165410778D01*
X59455218Y-165410776D01*
X59386273Y-165275466D01*
X59362287Y-165228390D01*
X59354556Y-165217749D01*
X59241971Y-165062786D01*
X59097213Y-164918028D01*
X58931613Y-164797715D01*
X58931612Y-164797714D01*
X58931610Y-164797713D01*
X58874653Y-164768691D01*
X58749223Y-164704781D01*
X58554534Y-164641522D01*
X58379995Y-164613878D01*
X58352352Y-164609500D01*
X58147648Y-164609500D01*
X58123329Y-164613351D01*
X57945465Y-164641522D01*
X57750776Y-164704781D01*
X57568386Y-164797715D01*
X57402786Y-164918028D01*
X57258028Y-165062786D01*
X57137715Y-165228386D01*
X57044781Y-165410776D01*
X56981522Y-165605465D01*
X56949500Y-165807648D01*
X56949500Y-166012351D01*
X56981522Y-166214534D01*
X57044781Y-166409223D01*
X57108691Y-166534653D01*
X57127706Y-166571971D01*
X57137715Y-166591613D01*
X57258028Y-166757213D01*
X57402786Y-166901971D01*
X57525920Y-166991431D01*
X57568390Y-167022287D01*
X57684607Y-167081503D01*
X57750776Y-167115218D01*
X57750778Y-167115218D01*
X57750781Y-167115220D01*
X57850689Y-167147682D01*
X57945465Y-167178477D01*
X58046557Y-167194488D01*
X58147648Y-167210500D01*
X58296349Y-167210500D01*
X58363388Y-167230185D01*
X58384030Y-167246819D01*
X59705598Y-168568386D01*
X61009374Y-169872162D01*
X61127838Y-169990626D01*
X61267137Y-170083703D01*
X61421918Y-170147816D01*
X61586228Y-170180499D01*
X61586232Y-170180500D01*
X61586233Y-170180500D01*
X64842801Y-170180500D01*
X64909840Y-170200185D01*
X64955595Y-170252989D01*
X64965539Y-170322147D01*
X64936514Y-170385703D01*
X64881120Y-170422430D01*
X64780210Y-170455218D01*
X64750778Y-170464781D01*
X64568386Y-170557715D01*
X64402786Y-170678028D01*
X64258028Y-170822786D01*
X64137715Y-170988386D01*
X64044781Y-171170776D01*
X63981522Y-171365465D01*
X63949500Y-171567648D01*
X63949500Y-171772351D01*
X63981522Y-171974534D01*
X64044781Y-172169223D01*
X64137715Y-172351613D01*
X64258028Y-172517213D01*
X64363181Y-172622366D01*
X64396666Y-172683689D01*
X64399500Y-172710047D01*
X64399500Y-176426348D01*
X64379815Y-176493387D01*
X64363181Y-176514029D01*
X54089375Y-186787834D01*
X54089372Y-186787838D01*
X53996299Y-186927131D01*
X53996292Y-186927144D01*
X53979728Y-186967136D01*
X53979728Y-186967137D01*
X53932184Y-187081917D01*
X53932182Y-187081925D01*
X53899500Y-187246228D01*
X53899500Y-187369953D01*
X53879815Y-187436992D01*
X53863181Y-187457634D01*
X53758032Y-187562782D01*
X53758028Y-187562786D01*
X53637715Y-187728386D01*
X53544781Y-187910776D01*
X53481522Y-188105465D01*
X53449500Y-188307648D01*
X53449500Y-188512351D01*
X53481522Y-188714534D01*
X53544781Y-188909223D01*
X53604622Y-189026666D01*
X53635637Y-189087536D01*
X53637715Y-189091613D01*
X53758028Y-189257213D01*
X53902786Y-189401971D01*
X54057025Y-189514030D01*
X54068390Y-189522287D01*
X54147864Y-189562781D01*
X54250776Y-189615218D01*
X54250778Y-189615218D01*
X54250781Y-189615220D01*
X54352855Y-189648386D01*
X54445465Y-189678477D01*
X54546557Y-189694488D01*
X54647648Y-189710500D01*
X54647649Y-189710500D01*
X54852351Y-189710500D01*
X54852352Y-189710500D01*
X55054534Y-189678477D01*
X55249219Y-189615220D01*
X55431610Y-189522287D01*
X55524590Y-189454732D01*
X55597213Y-189401971D01*
X55597215Y-189401968D01*
X55597219Y-189401966D01*
X55741966Y-189257219D01*
X55741968Y-189257215D01*
X55741971Y-189257213D01*
X55826024Y-189141522D01*
X55862287Y-189091610D01*
X55955220Y-188909219D01*
X56018477Y-188714534D01*
X56050500Y-188512352D01*
X56050500Y-188307648D01*
X56018477Y-188105466D01*
X55955220Y-187910781D01*
X55955218Y-187910778D01*
X55955218Y-187910776D01*
X55921503Y-187844607D01*
X55862287Y-187728390D01*
X55816694Y-187665636D01*
X55794975Y-187635741D01*
X55771495Y-187569934D01*
X55787321Y-187501881D01*
X55807612Y-187475175D01*
X58268916Y-185013871D01*
X58330239Y-184980386D01*
X58399931Y-184985370D01*
X58455864Y-185027242D01*
X58480281Y-185092706D01*
X58479070Y-185120950D01*
X58449500Y-185307648D01*
X58449500Y-185512351D01*
X58481522Y-185714534D01*
X58544781Y-185909223D01*
X58637715Y-186091613D01*
X58758028Y-186257213D01*
X58902786Y-186401971D01*
X59057749Y-186514556D01*
X59068390Y-186522287D01*
X59184607Y-186581503D01*
X59250776Y-186615218D01*
X59250778Y-186615218D01*
X59250781Y-186615220D01*
X59355137Y-186649127D01*
X59445465Y-186678477D01*
X59546557Y-186694488D01*
X59647648Y-186710500D01*
X59647649Y-186710500D01*
X59852351Y-186710500D01*
X59852352Y-186710500D01*
X60054534Y-186678477D01*
X60249219Y-186615220D01*
X60431610Y-186522287D01*
X60524590Y-186454732D01*
X60597213Y-186401971D01*
X60597215Y-186401968D01*
X60597219Y-186401966D01*
X60741966Y-186257219D01*
X60741968Y-186257215D01*
X60741971Y-186257213D01*
X60804283Y-186171446D01*
X60862287Y-186091610D01*
X60955220Y-185909219D01*
X61018477Y-185714534D01*
X61050500Y-185512352D01*
X61050500Y-185307648D01*
X61021672Y-185125636D01*
X61018477Y-185105465D01*
X60961257Y-184929361D01*
X60958293Y-184920241D01*
X60956299Y-184850401D01*
X60988542Y-184794245D01*
X63763873Y-182018915D01*
X63825194Y-181985432D01*
X63894886Y-181990416D01*
X63950819Y-182032288D01*
X63974025Y-182087198D01*
X63981523Y-182134536D01*
X64044781Y-182329223D01*
X64137715Y-182511613D01*
X64258028Y-182677213D01*
X64402786Y-182821971D01*
X64529135Y-182913767D01*
X64568390Y-182942287D01*
X64684607Y-183001503D01*
X64750776Y-183035218D01*
X64750778Y-183035218D01*
X64750781Y-183035220D01*
X64855137Y-183069127D01*
X64945465Y-183098477D01*
X65033775Y-183112464D01*
X65147648Y-183130500D01*
X65147649Y-183130500D01*
X65352351Y-183130500D01*
X65352352Y-183130500D01*
X65554534Y-183098477D01*
X65749219Y-183035220D01*
X65931610Y-182942287D01*
X66024590Y-182874732D01*
X66097213Y-182821971D01*
X66097215Y-182821968D01*
X66097219Y-182821966D01*
X66241966Y-182677219D01*
X66241968Y-182677215D01*
X66241971Y-182677213D01*
X66308504Y-182585636D01*
X66362287Y-182511610D01*
X66455220Y-182329219D01*
X66518477Y-182134534D01*
X66550500Y-181932352D01*
X66550500Y-181727648D01*
X66537856Y-181647816D01*
X66518477Y-181525465D01*
X66468201Y-181370732D01*
X66455220Y-181330781D01*
X66455218Y-181330778D01*
X66455218Y-181330776D01*
X66408479Y-181239047D01*
X66362287Y-181148390D01*
X66338979Y-181116309D01*
X66241971Y-180982786D01*
X66097213Y-180838028D01*
X65931613Y-180717715D01*
X65931612Y-180717714D01*
X65931610Y-180717713D01*
X65874653Y-180688691D01*
X65749223Y-180624781D01*
X65554536Y-180561523D01*
X65507198Y-180554025D01*
X65444064Y-180524094D01*
X65407134Y-180464782D01*
X65408132Y-180394920D01*
X65438915Y-180343873D01*
X67687819Y-178094970D01*
X67749142Y-178061485D01*
X67818834Y-178066469D01*
X67874767Y-178108341D01*
X67899184Y-178173805D01*
X67899500Y-178182651D01*
X67899500Y-186676349D01*
X67879815Y-186743388D01*
X67863181Y-186764030D01*
X65634030Y-188993181D01*
X65572707Y-189026666D01*
X65546349Y-189029500D01*
X65397648Y-189029500D01*
X65373329Y-189033351D01*
X65195465Y-189061522D01*
X65000776Y-189124781D01*
X64818386Y-189217715D01*
X64652786Y-189338028D01*
X64508028Y-189482786D01*
X64387715Y-189648386D01*
X64294781Y-189830776D01*
X64231522Y-190025465D01*
X64199500Y-190227648D01*
X64199500Y-190432351D01*
X64231522Y-190634534D01*
X64294781Y-190829223D01*
X64358691Y-190954653D01*
X64387585Y-191011359D01*
X64387715Y-191011613D01*
X64508028Y-191177213D01*
X64652786Y-191321971D01*
X64762892Y-191401966D01*
X64818390Y-191442287D01*
X64934607Y-191501503D01*
X65000776Y-191535218D01*
X65000778Y-191535218D01*
X65000781Y-191535220D01*
X65105137Y-191569127D01*
X65195465Y-191598477D01*
X65239592Y-191605466D01*
X65397648Y-191630500D01*
X65397649Y-191630500D01*
X65602351Y-191630500D01*
X65602352Y-191630500D01*
X65804534Y-191598477D01*
X65999219Y-191535220D01*
X66181610Y-191442287D01*
X66274590Y-191374732D01*
X66347213Y-191321971D01*
X66347215Y-191321968D01*
X66347219Y-191321966D01*
X66491966Y-191177219D01*
X66491968Y-191177215D01*
X66491971Y-191177213D01*
X66562595Y-191080006D01*
X66612287Y-191011610D01*
X66705220Y-190829219D01*
X66768477Y-190634534D01*
X66800500Y-190432352D01*
X66800500Y-190307648D01*
X69449500Y-190307648D01*
X69449500Y-190512351D01*
X69481522Y-190714534D01*
X69544781Y-190909223D01*
X69596818Y-191011349D01*
X69631800Y-191080006D01*
X69637715Y-191091613D01*
X69758028Y-191257213D01*
X69902786Y-191401971D01*
X70057749Y-191514556D01*
X70068390Y-191522287D01*
X70184607Y-191581503D01*
X70250776Y-191615218D01*
X70250778Y-191615218D01*
X70250781Y-191615220D01*
X70355137Y-191649127D01*
X70445465Y-191678477D01*
X70546557Y-191694488D01*
X70647648Y-191710500D01*
X70647649Y-191710500D01*
X70852351Y-191710500D01*
X70852352Y-191710500D01*
X71054534Y-191678477D01*
X71249219Y-191615220D01*
X71431610Y-191522287D01*
X71524590Y-191454732D01*
X71597213Y-191401971D01*
X71597215Y-191401968D01*
X71597219Y-191401966D01*
X71741966Y-191257219D01*
X71741968Y-191257215D01*
X71741971Y-191257213D01*
X71826104Y-191141412D01*
X71862287Y-191091610D01*
X71955220Y-190909219D01*
X72018477Y-190714534D01*
X72050500Y-190512352D01*
X72050500Y-190307648D01*
X72034343Y-190205636D01*
X72018477Y-190105465D01*
X71976556Y-189976446D01*
X71955220Y-189910781D01*
X71955218Y-189910778D01*
X71955218Y-189910776D01*
X71904195Y-189810639D01*
X71862287Y-189728390D01*
X71849289Y-189710500D01*
X71741971Y-189562786D01*
X71597213Y-189418028D01*
X71431613Y-189297715D01*
X71431612Y-189297714D01*
X71431610Y-189297713D01*
X71374653Y-189268691D01*
X71249223Y-189204781D01*
X71054534Y-189141522D01*
X70879995Y-189113878D01*
X70852352Y-189109500D01*
X70647648Y-189109500D01*
X70623329Y-189113351D01*
X70445465Y-189141522D01*
X70250776Y-189204781D01*
X70068386Y-189297715D01*
X69902786Y-189418028D01*
X69758028Y-189562786D01*
X69637715Y-189728386D01*
X69544781Y-189910776D01*
X69481522Y-190105465D01*
X69449500Y-190307648D01*
X66800500Y-190307648D01*
X66800500Y-190283650D01*
X66820185Y-190216611D01*
X66836819Y-190195969D01*
X69410620Y-187622168D01*
X69410626Y-187622162D01*
X69503704Y-187482863D01*
X69506889Y-187475175D01*
X69536077Y-187404707D01*
X69567816Y-187328081D01*
X69600500Y-187163767D01*
X69600500Y-181239047D01*
X69620185Y-181172008D01*
X69672989Y-181126253D01*
X69742147Y-181116309D01*
X69805703Y-181145334D01*
X69812181Y-181151366D01*
X69902786Y-181241971D01*
X70025018Y-181330776D01*
X70068390Y-181362287D01*
X70184607Y-181421503D01*
X70250776Y-181455218D01*
X70250778Y-181455218D01*
X70250781Y-181455220D01*
X70355137Y-181489127D01*
X70445465Y-181518477D01*
X70489592Y-181525466D01*
X70647648Y-181550500D01*
X70647649Y-181550500D01*
X70852351Y-181550500D01*
X70852352Y-181550500D01*
X71054534Y-181518477D01*
X71249219Y-181455220D01*
X71431610Y-181362287D01*
X71524590Y-181294732D01*
X71597213Y-181241971D01*
X71597215Y-181241968D01*
X71597219Y-181241966D01*
X71741966Y-181097219D01*
X71741968Y-181097215D01*
X71741971Y-181097213D01*
X71794732Y-181024590D01*
X71862287Y-180931610D01*
X71955220Y-180749219D01*
X72018477Y-180554534D01*
X72050500Y-180352352D01*
X72050500Y-180147648D01*
X72039198Y-180076292D01*
X72018477Y-179945465D01*
X71955218Y-179750776D01*
X71921503Y-179684607D01*
X71862287Y-179568390D01*
X71830267Y-179524318D01*
X71741971Y-179402786D01*
X71597213Y-179258028D01*
X71431613Y-179137715D01*
X71431612Y-179137714D01*
X71431610Y-179137713D01*
X71368320Y-179105465D01*
X71249223Y-179044781D01*
X71054534Y-178981522D01*
X70879995Y-178953878D01*
X70852352Y-178949500D01*
X70647648Y-178949500D01*
X70623329Y-178953351D01*
X70445465Y-178981522D01*
X70250776Y-179044781D01*
X70068386Y-179137715D01*
X69902786Y-179258028D01*
X69902782Y-179258032D01*
X69812181Y-179348634D01*
X69750858Y-179382119D01*
X69681166Y-179377135D01*
X69625233Y-179335263D01*
X69600816Y-179269799D01*
X69600500Y-179260953D01*
X69600500Y-176479047D01*
X69620185Y-176412008D01*
X69672989Y-176366253D01*
X69742147Y-176356309D01*
X69805703Y-176385334D01*
X69812181Y-176391366D01*
X69902786Y-176481971D01*
X70001011Y-176553334D01*
X70068390Y-176602287D01*
X70184607Y-176661503D01*
X70250776Y-176695218D01*
X70250778Y-176695218D01*
X70250781Y-176695220D01*
X70311747Y-176715029D01*
X70445465Y-176758477D01*
X70546557Y-176774488D01*
X70647648Y-176790500D01*
X70647649Y-176790500D01*
X70852351Y-176790500D01*
X70852352Y-176790500D01*
X71054534Y-176758477D01*
X71249219Y-176695220D01*
X71431610Y-176602287D01*
X71553088Y-176514029D01*
X71597213Y-176481971D01*
X71597215Y-176481968D01*
X71597219Y-176481966D01*
X71741966Y-176337219D01*
X71741968Y-176337215D01*
X71741971Y-176337213D01*
X71838187Y-176204781D01*
X71862287Y-176171610D01*
X71955220Y-175989219D01*
X72018477Y-175794534D01*
X72050500Y-175592352D01*
X72050500Y-175387648D01*
X72044909Y-175352351D01*
X72018477Y-175185465D01*
X71955218Y-174990776D01*
X71921503Y-174924607D01*
X71862287Y-174808390D01*
X71820432Y-174750781D01*
X71741971Y-174642786D01*
X71597213Y-174498028D01*
X71431613Y-174377715D01*
X71431612Y-174377714D01*
X71431610Y-174377713D01*
X71374653Y-174348691D01*
X71249223Y-174284781D01*
X71054534Y-174221522D01*
X70879995Y-174193878D01*
X70852352Y-174189500D01*
X70647648Y-174189500D01*
X70623329Y-174193351D01*
X70445465Y-174221522D01*
X70250776Y-174284781D01*
X70068386Y-174377715D01*
X69902786Y-174498028D01*
X69902782Y-174498032D01*
X69812181Y-174588634D01*
X69750858Y-174622119D01*
X69681166Y-174617135D01*
X69625233Y-174575263D01*
X69600816Y-174509799D01*
X69600500Y-174500953D01*
X69600500Y-166319047D01*
X69620185Y-166252008D01*
X69672989Y-166206253D01*
X69742147Y-166196309D01*
X69805703Y-166225334D01*
X69812181Y-166231366D01*
X69902786Y-166321971D01*
X70057749Y-166434556D01*
X70068390Y-166442287D01*
X70184607Y-166501503D01*
X70250776Y-166535218D01*
X70250778Y-166535218D01*
X70250781Y-166535220D01*
X70345417Y-166565969D01*
X70445465Y-166598477D01*
X70469527Y-166602288D01*
X70647648Y-166630500D01*
X70647649Y-166630500D01*
X70852351Y-166630500D01*
X70852352Y-166630500D01*
X71054534Y-166598477D01*
X71249219Y-166535220D01*
X71431610Y-166442287D01*
X71524590Y-166374732D01*
X71597213Y-166321971D01*
X71597215Y-166321968D01*
X71597219Y-166321966D01*
X71741966Y-166177219D01*
X71741968Y-166177215D01*
X71741971Y-166177213D01*
X71794732Y-166104590D01*
X71862287Y-166011610D01*
X71955220Y-165829219D01*
X71962229Y-165807648D01*
X73449500Y-165807648D01*
X73449500Y-166012351D01*
X73481522Y-166214534D01*
X73544781Y-166409223D01*
X73608691Y-166534653D01*
X73627706Y-166571971D01*
X73637715Y-166591613D01*
X73758028Y-166757213D01*
X73902786Y-166901971D01*
X74025920Y-166991431D01*
X74068390Y-167022287D01*
X74184607Y-167081503D01*
X74250776Y-167115218D01*
X74250778Y-167115218D01*
X74250781Y-167115220D01*
X74350689Y-167147682D01*
X74445465Y-167178477D01*
X74546557Y-167194488D01*
X74647648Y-167210500D01*
X74647649Y-167210500D01*
X74852351Y-167210500D01*
X74852352Y-167210500D01*
X75054534Y-167178477D01*
X75249219Y-167115220D01*
X75431610Y-167022287D01*
X75548736Y-166937191D01*
X75597213Y-166901971D01*
X75597215Y-166901968D01*
X75597219Y-166901966D01*
X75741966Y-166757219D01*
X75741968Y-166757215D01*
X75741971Y-166757213D01*
X75794732Y-166684590D01*
X75862287Y-166591610D01*
X75955220Y-166409219D01*
X76018477Y-166214534D01*
X76050500Y-166012352D01*
X76050500Y-165807648D01*
X76018477Y-165605466D01*
X76013248Y-165589374D01*
X75962229Y-165432352D01*
X75955220Y-165410781D01*
X75955218Y-165410778D01*
X75955218Y-165410776D01*
X75886273Y-165275466D01*
X75862287Y-165228390D01*
X75854556Y-165217749D01*
X75741971Y-165062786D01*
X75597213Y-164918028D01*
X75431613Y-164797715D01*
X75431612Y-164797714D01*
X75431610Y-164797713D01*
X75374653Y-164768691D01*
X75249223Y-164704781D01*
X75054534Y-164641522D01*
X74879995Y-164613878D01*
X74852352Y-164609500D01*
X74647648Y-164609500D01*
X74623329Y-164613351D01*
X74445465Y-164641522D01*
X74250776Y-164704781D01*
X74068386Y-164797715D01*
X73902786Y-164918028D01*
X73758028Y-165062786D01*
X73637715Y-165228386D01*
X73544781Y-165410776D01*
X73481522Y-165605465D01*
X73449500Y-165807648D01*
X71962229Y-165807648D01*
X72018477Y-165634534D01*
X72050500Y-165432352D01*
X72050500Y-165227648D01*
X72022125Y-165048500D01*
X72018477Y-165025465D01*
X71955218Y-164830776D01*
X71905286Y-164732781D01*
X71862287Y-164648390D01*
X71834032Y-164609500D01*
X71741971Y-164482786D01*
X71597213Y-164338028D01*
X71431613Y-164217715D01*
X71431612Y-164217714D01*
X71431610Y-164217713D01*
X71374653Y-164188691D01*
X71249223Y-164124781D01*
X71054534Y-164061522D01*
X70879995Y-164033878D01*
X70852352Y-164029500D01*
X70647648Y-164029500D01*
X70623329Y-164033351D01*
X70445465Y-164061522D01*
X70250776Y-164124781D01*
X70068386Y-164217715D01*
X69902786Y-164338028D01*
X69758028Y-164482786D01*
X69637715Y-164648386D01*
X69544781Y-164830776D01*
X69481522Y-165025465D01*
X69449500Y-165227648D01*
X69449500Y-165432352D01*
X69449882Y-165437203D01*
X69447878Y-165437360D01*
X69439990Y-165498265D01*
X69394978Y-165551704D01*
X69328220Y-165572324D01*
X69260912Y-165553579D01*
X69238805Y-165536017D01*
X61414470Y-157711681D01*
X61380985Y-157650358D01*
X61385969Y-157580666D01*
X61427841Y-157524733D01*
X61493305Y-157500316D01*
X61502151Y-157500000D01*
X63373712Y-157500000D01*
X63440751Y-157519685D01*
X63486506Y-157572489D01*
X63491643Y-157585681D01*
X63544781Y-157749223D01*
X63637715Y-157931613D01*
X63758028Y-158097213D01*
X63902786Y-158241971D01*
X64057749Y-158354556D01*
X64068390Y-158362287D01*
X64180427Y-158419373D01*
X64250776Y-158455218D01*
X64250778Y-158455218D01*
X64250781Y-158455220D01*
X64355137Y-158489127D01*
X64445465Y-158518477D01*
X64546557Y-158534488D01*
X64647648Y-158550500D01*
X64647649Y-158550500D01*
X64852351Y-158550500D01*
X64852352Y-158550500D01*
X65054534Y-158518477D01*
X65249219Y-158455220D01*
X65431610Y-158362287D01*
X65569390Y-158262185D01*
X65597213Y-158241971D01*
X65597215Y-158241968D01*
X65597219Y-158241966D01*
X65741966Y-158097219D01*
X65741968Y-158097215D01*
X65741971Y-158097213D01*
X65794732Y-158024590D01*
X65862287Y-157931610D01*
X65955220Y-157749219D01*
X66008357Y-157585681D01*
X66047795Y-157528006D01*
X66112154Y-157500808D01*
X66126288Y-157500000D01*
X71165849Y-157500000D01*
X71232888Y-157519685D01*
X71253530Y-157536319D01*
X76863181Y-163145969D01*
X76896666Y-163207292D01*
X76899500Y-163233650D01*
X76899500Y-189426349D01*
X76879815Y-189493388D01*
X76863181Y-189514030D01*
X72434030Y-193943181D01*
X72372707Y-193976666D01*
X72346349Y-193979500D01*
X25113650Y-193979500D01*
X25046611Y-193959815D01*
X25025969Y-193943181D01*
X24496454Y-193413666D01*
X24462969Y-193352343D01*
X24467953Y-193282651D01*
X24509825Y-193226718D01*
X24575289Y-193202301D01*
X24603525Y-193203511D01*
X24647648Y-193210500D01*
X24647651Y-193210500D01*
X24852351Y-193210500D01*
X24852352Y-193210500D01*
X25054534Y-193178477D01*
X25249219Y-193115220D01*
X25431610Y-193022287D01*
X25524590Y-192954732D01*
X25597213Y-192901971D01*
X25597215Y-192901968D01*
X25597219Y-192901966D01*
X25741966Y-192757219D01*
X25741968Y-192757215D01*
X25741971Y-192757213D01*
X25794732Y-192684590D01*
X25862287Y-192591610D01*
X25955220Y-192409219D01*
X26018477Y-192214534D01*
X26050500Y-192012352D01*
X26050500Y-191807648D01*
X26018477Y-191605466D01*
X25955220Y-191410781D01*
X25955218Y-191410778D01*
X25955218Y-191410776D01*
X25909966Y-191321966D01*
X25862287Y-191228390D01*
X25854556Y-191217749D01*
X25741971Y-191062786D01*
X25597213Y-190918028D01*
X25431613Y-190797715D01*
X25431612Y-190797714D01*
X25431610Y-190797713D01*
X25374653Y-190768691D01*
X25249223Y-190704781D01*
X25054534Y-190641522D01*
X24879995Y-190613878D01*
X24852352Y-190609500D01*
X24647648Y-190609500D01*
X24623329Y-190613351D01*
X24445465Y-190641522D01*
X24250776Y-190704781D01*
X24068386Y-190797715D01*
X23902786Y-190918028D01*
X23758028Y-191062786D01*
X23637715Y-191228386D01*
X23544781Y-191410776D01*
X23481522Y-191605465D01*
X23449500Y-191807648D01*
X23449500Y-192012351D01*
X23456487Y-192056466D01*
X23447532Y-192125760D01*
X23402536Y-192179212D01*
X23335784Y-192199851D01*
X23268471Y-192181126D01*
X23246333Y-192163545D01*
X21393245Y-190310457D01*
X21310436Y-190227648D01*
X30699500Y-190227648D01*
X30699500Y-190432351D01*
X30731522Y-190634534D01*
X30794781Y-190829223D01*
X30858691Y-190954653D01*
X30887585Y-191011359D01*
X30887715Y-191011613D01*
X31008028Y-191177213D01*
X31152786Y-191321971D01*
X31262892Y-191401966D01*
X31318390Y-191442287D01*
X31434607Y-191501503D01*
X31500776Y-191535218D01*
X31500778Y-191535218D01*
X31500781Y-191535220D01*
X31605137Y-191569127D01*
X31695465Y-191598477D01*
X31739592Y-191605466D01*
X31897648Y-191630500D01*
X31897649Y-191630500D01*
X32102351Y-191630500D01*
X32102352Y-191630500D01*
X32304534Y-191598477D01*
X32499219Y-191535220D01*
X32681610Y-191442287D01*
X32774590Y-191374732D01*
X32847213Y-191321971D01*
X32847215Y-191321968D01*
X32847219Y-191321966D01*
X32991966Y-191177219D01*
X32991968Y-191177215D01*
X32991971Y-191177213D01*
X33062595Y-191080006D01*
X33112287Y-191011610D01*
X33205220Y-190829219D01*
X33268477Y-190634534D01*
X33300500Y-190432352D01*
X33300500Y-190227648D01*
X38199500Y-190227648D01*
X38199500Y-190432351D01*
X38231522Y-190634534D01*
X38294781Y-190829223D01*
X38358691Y-190954653D01*
X38387585Y-191011359D01*
X38387715Y-191011613D01*
X38508028Y-191177213D01*
X38652786Y-191321971D01*
X38762892Y-191401966D01*
X38818390Y-191442287D01*
X38934607Y-191501503D01*
X39000776Y-191535218D01*
X39000778Y-191535218D01*
X39000781Y-191535220D01*
X39105137Y-191569127D01*
X39195465Y-191598477D01*
X39239592Y-191605466D01*
X39397648Y-191630500D01*
X39397649Y-191630500D01*
X39602351Y-191630500D01*
X39602352Y-191630500D01*
X39804534Y-191598477D01*
X39999219Y-191535220D01*
X40181610Y-191442287D01*
X40274590Y-191374732D01*
X40347213Y-191321971D01*
X40347215Y-191321968D01*
X40347219Y-191321966D01*
X40491966Y-191177219D01*
X40491968Y-191177215D01*
X40491971Y-191177213D01*
X40562595Y-191080006D01*
X40612287Y-191011610D01*
X40705220Y-190829219D01*
X40768477Y-190634534D01*
X40800500Y-190432352D01*
X40800500Y-190227682D01*
X42200000Y-190227682D01*
X42200000Y-190432317D01*
X42232009Y-190634417D01*
X42295244Y-190829031D01*
X42388141Y-191011350D01*
X42388147Y-191011359D01*
X42420523Y-191055921D01*
X42420524Y-191055922D01*
X43100000Y-190376446D01*
X43100000Y-190382661D01*
X43127259Y-190484394D01*
X43179920Y-190575606D01*
X43254394Y-190650080D01*
X43345606Y-190702741D01*
X43447339Y-190730000D01*
X43453553Y-190730000D01*
X42774076Y-191409474D01*
X42818650Y-191441859D01*
X43000968Y-191534755D01*
X43195582Y-191597990D01*
X43397683Y-191630000D01*
X43602317Y-191630000D01*
X43804417Y-191597990D01*
X43999031Y-191534755D01*
X44181349Y-191441859D01*
X44225921Y-191409474D01*
X43546447Y-190730000D01*
X43552661Y-190730000D01*
X43654394Y-190702741D01*
X43745606Y-190650080D01*
X43820080Y-190575606D01*
X43872741Y-190484394D01*
X43900000Y-190382661D01*
X43900000Y-190376447D01*
X44579474Y-191055921D01*
X44611859Y-191011349D01*
X44704755Y-190829031D01*
X44767990Y-190634417D01*
X44800000Y-190432317D01*
X44800000Y-190227682D01*
X44799995Y-190227648D01*
X49699500Y-190227648D01*
X49699500Y-190432351D01*
X49731522Y-190634534D01*
X49794781Y-190829223D01*
X49858691Y-190954653D01*
X49887585Y-191011359D01*
X49887715Y-191011613D01*
X50008028Y-191177213D01*
X50152786Y-191321971D01*
X50262892Y-191401966D01*
X50318390Y-191442287D01*
X50434607Y-191501503D01*
X50500776Y-191535218D01*
X50500778Y-191535218D01*
X50500781Y-191535220D01*
X50605137Y-191569127D01*
X50695465Y-191598477D01*
X50739592Y-191605466D01*
X50897648Y-191630500D01*
X50897649Y-191630500D01*
X51102351Y-191630500D01*
X51102352Y-191630500D01*
X51304534Y-191598477D01*
X51499219Y-191535220D01*
X51681610Y-191442287D01*
X51774590Y-191374732D01*
X51847213Y-191321971D01*
X51847215Y-191321968D01*
X51847219Y-191321966D01*
X51991966Y-191177219D01*
X51991968Y-191177215D01*
X51991971Y-191177213D01*
X52062595Y-191080006D01*
X52112287Y-191011610D01*
X52205220Y-190829219D01*
X52268477Y-190634534D01*
X52300500Y-190432352D01*
X52300500Y-190227648D01*
X56699500Y-190227648D01*
X56699500Y-190432351D01*
X56731522Y-190634534D01*
X56794781Y-190829223D01*
X56858691Y-190954653D01*
X56887585Y-191011359D01*
X56887715Y-191011613D01*
X57008028Y-191177213D01*
X57152786Y-191321971D01*
X57262892Y-191401966D01*
X57318390Y-191442287D01*
X57434607Y-191501503D01*
X57500776Y-191535218D01*
X57500778Y-191535218D01*
X57500781Y-191535220D01*
X57605137Y-191569127D01*
X57695465Y-191598477D01*
X57739592Y-191605466D01*
X57897648Y-191630500D01*
X57897649Y-191630500D01*
X58102351Y-191630500D01*
X58102352Y-191630500D01*
X58304534Y-191598477D01*
X58499219Y-191535220D01*
X58681610Y-191442287D01*
X58774590Y-191374732D01*
X58847213Y-191321971D01*
X58847215Y-191321968D01*
X58847219Y-191321966D01*
X58991966Y-191177219D01*
X58991968Y-191177215D01*
X58991971Y-191177213D01*
X59062595Y-191080006D01*
X59112287Y-191011610D01*
X59205220Y-190829219D01*
X59268477Y-190634534D01*
X59300500Y-190432352D01*
X59300500Y-190227648D01*
X59280196Y-190099456D01*
X59268477Y-190025465D01*
X59232184Y-189913767D01*
X59205220Y-189830781D01*
X59205218Y-189830778D01*
X59205218Y-189830776D01*
X59153047Y-189728386D01*
X59112287Y-189648390D01*
X59088188Y-189615220D01*
X58991971Y-189482786D01*
X58847213Y-189338028D01*
X58681613Y-189217715D01*
X58681612Y-189217714D01*
X58681610Y-189217713D01*
X58624653Y-189188691D01*
X58499223Y-189124781D01*
X58304534Y-189061522D01*
X58129995Y-189033878D01*
X58102352Y-189029500D01*
X57897648Y-189029500D01*
X57873329Y-189033351D01*
X57695465Y-189061522D01*
X57500776Y-189124781D01*
X57318386Y-189217715D01*
X57152786Y-189338028D01*
X57008028Y-189482786D01*
X56887715Y-189648386D01*
X56794781Y-189830776D01*
X56731522Y-190025465D01*
X56699500Y-190227648D01*
X52300500Y-190227648D01*
X52280196Y-190099456D01*
X52268477Y-190025465D01*
X52232184Y-189913767D01*
X52205220Y-189830781D01*
X52205218Y-189830778D01*
X52205218Y-189830776D01*
X52153047Y-189728386D01*
X52112287Y-189648390D01*
X52088188Y-189615220D01*
X51991971Y-189482786D01*
X51847213Y-189338028D01*
X51681613Y-189217715D01*
X51681612Y-189217714D01*
X51681610Y-189217713D01*
X51624653Y-189188691D01*
X51499223Y-189124781D01*
X51304534Y-189061522D01*
X51129995Y-189033878D01*
X51102352Y-189029500D01*
X50897648Y-189029500D01*
X50873329Y-189033351D01*
X50695465Y-189061522D01*
X50500776Y-189124781D01*
X50318386Y-189217715D01*
X50152786Y-189338028D01*
X50008028Y-189482786D01*
X49887715Y-189648386D01*
X49794781Y-189830776D01*
X49731522Y-190025465D01*
X49699500Y-190227648D01*
X44799995Y-190227648D01*
X44767990Y-190025582D01*
X44704755Y-189830968D01*
X44611859Y-189648650D01*
X44579474Y-189604077D01*
X44579474Y-189604076D01*
X43900000Y-190283551D01*
X43900000Y-190277339D01*
X43872741Y-190175606D01*
X43820080Y-190084394D01*
X43745606Y-190009920D01*
X43654394Y-189957259D01*
X43552661Y-189930000D01*
X43546446Y-189930000D01*
X44225922Y-189250524D01*
X44225921Y-189250523D01*
X44181359Y-189218147D01*
X44181350Y-189218141D01*
X43999031Y-189125244D01*
X43804417Y-189062009D01*
X43602317Y-189030000D01*
X43397683Y-189030000D01*
X43195582Y-189062009D01*
X43000968Y-189125244D01*
X42818644Y-189218143D01*
X42774077Y-189250523D01*
X42774077Y-189250524D01*
X43453554Y-189930000D01*
X43447339Y-189930000D01*
X43345606Y-189957259D01*
X43254394Y-190009920D01*
X43179920Y-190084394D01*
X43127259Y-190175606D01*
X43100000Y-190277339D01*
X43100000Y-190283553D01*
X42420524Y-189604077D01*
X42420523Y-189604077D01*
X42388143Y-189648644D01*
X42295244Y-189830968D01*
X42232009Y-190025582D01*
X42200000Y-190227682D01*
X40800500Y-190227682D01*
X40800500Y-190227648D01*
X40780196Y-190099456D01*
X40768477Y-190025465D01*
X40732184Y-189913767D01*
X40705220Y-189830781D01*
X40705218Y-189830778D01*
X40705218Y-189830776D01*
X40653047Y-189728386D01*
X40612287Y-189648390D01*
X40588188Y-189615220D01*
X40491971Y-189482786D01*
X40347213Y-189338028D01*
X40181613Y-189217715D01*
X40181612Y-189217714D01*
X40181610Y-189217713D01*
X40124653Y-189188691D01*
X39999223Y-189124781D01*
X39804534Y-189061522D01*
X39629995Y-189033878D01*
X39602352Y-189029500D01*
X39397648Y-189029500D01*
X39373329Y-189033351D01*
X39195465Y-189061522D01*
X39000776Y-189124781D01*
X38818386Y-189217715D01*
X38652786Y-189338028D01*
X38508028Y-189482786D01*
X38387715Y-189648386D01*
X38294781Y-189830776D01*
X38231522Y-190025465D01*
X38199500Y-190227648D01*
X33300500Y-190227648D01*
X33280196Y-190099456D01*
X33268477Y-190025465D01*
X33232184Y-189913767D01*
X33205220Y-189830781D01*
X33205218Y-189830778D01*
X33205218Y-189830776D01*
X33153047Y-189728386D01*
X33112287Y-189648390D01*
X33088188Y-189615220D01*
X32991971Y-189482786D01*
X32847213Y-189338028D01*
X32681613Y-189217715D01*
X32681612Y-189217714D01*
X32681610Y-189217713D01*
X32624653Y-189188691D01*
X32499223Y-189124781D01*
X32304534Y-189061522D01*
X32129995Y-189033878D01*
X32102352Y-189029500D01*
X31897648Y-189029500D01*
X31873329Y-189033351D01*
X31695465Y-189061522D01*
X31500776Y-189124781D01*
X31318386Y-189217715D01*
X31152786Y-189338028D01*
X31008028Y-189482786D01*
X30887715Y-189648386D01*
X30794781Y-189830776D01*
X30731522Y-190025465D01*
X30699500Y-190227648D01*
X21310436Y-190227648D01*
X21040047Y-189957259D01*
X18548819Y-187466030D01*
X18515334Y-187404707D01*
X18512500Y-187378349D01*
X18512500Y-187270639D01*
X18508634Y-187246228D01*
X18481413Y-187074364D01*
X18433579Y-186927144D01*
X18420006Y-186885370D01*
X18420005Y-186885367D01*
X18339674Y-186727711D01*
X18329787Y-186708306D01*
X18212981Y-186547536D01*
X18072464Y-186407019D01*
X17911694Y-186290213D01*
X17755218Y-186210484D01*
X17704423Y-186162510D01*
X17687628Y-186094689D01*
X17710165Y-186028554D01*
X17755218Y-185989515D01*
X17911694Y-185909787D01*
X18072464Y-185792981D01*
X18212981Y-185652464D01*
X18329787Y-185491694D01*
X18420005Y-185314632D01*
X18448268Y-185227648D01*
X29369500Y-185227648D01*
X29369500Y-185432351D01*
X29401522Y-185634534D01*
X29464781Y-185829223D01*
X29557715Y-186011613D01*
X29678028Y-186177213D01*
X29822786Y-186321971D01*
X29932892Y-186401966D01*
X29988390Y-186442287D01*
X30104607Y-186501503D01*
X30170776Y-186535218D01*
X30170778Y-186535218D01*
X30170781Y-186535220D01*
X30208677Y-186547533D01*
X30365465Y-186598477D01*
X30466557Y-186614488D01*
X30567648Y-186630500D01*
X30567649Y-186630500D01*
X30772351Y-186630500D01*
X30772352Y-186630500D01*
X30974534Y-186598477D01*
X31169219Y-186535220D01*
X31351610Y-186442287D01*
X31444590Y-186374732D01*
X31517213Y-186321971D01*
X31517215Y-186321968D01*
X31517219Y-186321966D01*
X31661966Y-186177219D01*
X31661968Y-186177215D01*
X31661971Y-186177213D01*
X31763484Y-186037490D01*
X31782287Y-186011610D01*
X31875220Y-185829219D01*
X31938477Y-185634534D01*
X31970500Y-185432352D01*
X31970500Y-185283651D01*
X31979144Y-185254210D01*
X31984923Y-185227648D01*
X39529500Y-185227648D01*
X39529500Y-185432351D01*
X39561522Y-185634534D01*
X39624781Y-185829223D01*
X39717715Y-186011613D01*
X39838028Y-186177213D01*
X39982786Y-186321971D01*
X40092892Y-186401966D01*
X40148390Y-186442287D01*
X40264607Y-186501503D01*
X40330776Y-186535218D01*
X40330778Y-186535218D01*
X40330781Y-186535220D01*
X40368677Y-186547533D01*
X40525465Y-186598477D01*
X40626557Y-186614488D01*
X40727648Y-186630500D01*
X40727649Y-186630500D01*
X40932351Y-186630500D01*
X40932352Y-186630500D01*
X41134534Y-186598477D01*
X41329219Y-186535220D01*
X41511610Y-186442287D01*
X41604590Y-186374732D01*
X41677213Y-186321971D01*
X41677215Y-186321968D01*
X41677219Y-186321966D01*
X41821966Y-186177219D01*
X41821968Y-186177215D01*
X41821971Y-186177213D01*
X41923484Y-186037490D01*
X41942287Y-186011610D01*
X42035220Y-185829219D01*
X42098477Y-185634534D01*
X42130500Y-185432352D01*
X42130500Y-185227648D01*
X42114343Y-185125636D01*
X42098477Y-185025465D01*
X42064288Y-184920243D01*
X42035220Y-184830781D01*
X42035218Y-184830778D01*
X42035218Y-184830776D01*
X41997735Y-184757213D01*
X41942287Y-184648390D01*
X41934556Y-184637749D01*
X41821971Y-184482786D01*
X41677213Y-184338028D01*
X41511613Y-184217715D01*
X41511612Y-184217714D01*
X41511610Y-184217713D01*
X41454653Y-184188691D01*
X41329223Y-184124781D01*
X41134534Y-184061522D01*
X40959995Y-184033878D01*
X40932352Y-184029500D01*
X40727648Y-184029500D01*
X40703329Y-184033351D01*
X40525465Y-184061522D01*
X40330776Y-184124781D01*
X40148386Y-184217715D01*
X39982786Y-184338028D01*
X39838028Y-184482786D01*
X39717715Y-184648386D01*
X39624781Y-184830776D01*
X39561522Y-185025465D01*
X39529500Y-185227648D01*
X31984923Y-185227648D01*
X31985668Y-185224224D01*
X31989422Y-185219208D01*
X31990185Y-185216612D01*
X32006819Y-185195970D01*
X33395141Y-183807648D01*
X44449500Y-183807648D01*
X44449500Y-184012351D01*
X44481522Y-184214534D01*
X44544781Y-184409223D01*
X44637715Y-184591613D01*
X44758028Y-184757213D01*
X44902786Y-184901971D01*
X45056806Y-185013871D01*
X45068390Y-185022287D01*
X45184607Y-185081503D01*
X45250776Y-185115218D01*
X45250778Y-185115218D01*
X45250781Y-185115220D01*
X45355137Y-185149127D01*
X45445465Y-185178477D01*
X45546557Y-185194488D01*
X45647648Y-185210500D01*
X45647649Y-185210500D01*
X45852351Y-185210500D01*
X45852352Y-185210500D01*
X46054534Y-185178477D01*
X46249219Y-185115220D01*
X46431610Y-185022287D01*
X46559513Y-184929361D01*
X46597213Y-184901971D01*
X46597215Y-184901968D01*
X46597219Y-184901966D01*
X46741966Y-184757219D01*
X46741968Y-184757215D01*
X46741971Y-184757213D01*
X46821037Y-184648386D01*
X46862287Y-184591610D01*
X46955220Y-184409219D01*
X47018477Y-184214534D01*
X47050500Y-184012352D01*
X47050500Y-183807648D01*
X47018477Y-183605466D01*
X46955220Y-183410781D01*
X46955218Y-183410778D01*
X46955218Y-183410776D01*
X46879844Y-183262848D01*
X46862287Y-183228390D01*
X46838616Y-183195809D01*
X46741971Y-183062786D01*
X46597213Y-182918028D01*
X46431613Y-182797715D01*
X46431612Y-182797714D01*
X46431610Y-182797713D01*
X46374653Y-182768691D01*
X46249223Y-182704781D01*
X46054534Y-182641522D01*
X45879995Y-182613878D01*
X45852352Y-182609500D01*
X45647648Y-182609500D01*
X45623329Y-182613351D01*
X45445465Y-182641522D01*
X45250776Y-182704781D01*
X45068386Y-182797715D01*
X44902786Y-182918028D01*
X44758028Y-183062786D01*
X44637715Y-183228386D01*
X44544781Y-183410776D01*
X44481522Y-183605465D01*
X44449500Y-183807648D01*
X33395141Y-183807648D01*
X35485970Y-181716819D01*
X35547293Y-181683334D01*
X35573651Y-181680500D01*
X54253768Y-181680500D01*
X54253769Y-181680499D01*
X54418082Y-181647816D01*
X54465183Y-181628306D01*
X54572863Y-181583704D01*
X54712162Y-181490627D01*
X59615970Y-176586819D01*
X59677293Y-176553334D01*
X59703651Y-176550500D01*
X59852351Y-176550500D01*
X59852352Y-176550500D01*
X60054534Y-176518477D01*
X60249219Y-176455220D01*
X60431610Y-176362287D01*
X60524590Y-176294732D01*
X60597213Y-176241971D01*
X60597215Y-176241968D01*
X60597219Y-176241966D01*
X60741966Y-176097219D01*
X60741968Y-176097215D01*
X60741971Y-176097213D01*
X60820432Y-175989219D01*
X60862287Y-175931610D01*
X60955220Y-175749219D01*
X61018477Y-175554534D01*
X61050500Y-175352352D01*
X61050500Y-175147648D01*
X61018477Y-174945466D01*
X60997668Y-174881424D01*
X60955218Y-174750776D01*
X60921503Y-174684607D01*
X60862287Y-174568390D01*
X60854556Y-174557749D01*
X60741971Y-174402786D01*
X60597213Y-174258028D01*
X60431613Y-174137715D01*
X60431612Y-174137714D01*
X60431610Y-174137713D01*
X60374653Y-174108691D01*
X60249223Y-174044781D01*
X60054534Y-173981522D01*
X59879995Y-173953878D01*
X59852352Y-173949500D01*
X59647648Y-173949500D01*
X59623329Y-173953351D01*
X59445465Y-173981522D01*
X59250776Y-174044781D01*
X59068386Y-174137715D01*
X58902786Y-174258028D01*
X58758028Y-174402786D01*
X58637715Y-174568386D01*
X58544781Y-174750776D01*
X58481522Y-174945465D01*
X58449500Y-175147648D01*
X58449500Y-175296348D01*
X58429815Y-175363387D01*
X58413181Y-175384029D01*
X56106689Y-177690520D01*
X56045366Y-177724005D01*
X55975674Y-177719021D01*
X55919741Y-177677149D01*
X55908523Y-177659134D01*
X55862284Y-177568385D01*
X55741971Y-177402786D01*
X55597213Y-177258028D01*
X55431613Y-177137715D01*
X55431612Y-177137714D01*
X55431610Y-177137713D01*
X55368320Y-177105465D01*
X55249223Y-177044781D01*
X55054534Y-176981522D01*
X54879995Y-176953878D01*
X54852352Y-176949500D01*
X54647648Y-176949500D01*
X54623329Y-176953351D01*
X54445465Y-176981522D01*
X54250776Y-177044781D01*
X54068386Y-177137715D01*
X53902786Y-177258028D01*
X53758028Y-177402786D01*
X53637715Y-177568386D01*
X53544781Y-177750776D01*
X53481522Y-177945465D01*
X53449500Y-178147648D01*
X53449500Y-178352351D01*
X53481522Y-178554534D01*
X53544781Y-178749223D01*
X53608691Y-178874653D01*
X53626306Y-178909223D01*
X53637715Y-178931613D01*
X53758028Y-179097213D01*
X53902786Y-179241971D01*
X54068385Y-179362284D01*
X54068387Y-179362285D01*
X54068390Y-179362287D01*
X54159135Y-179408523D01*
X54209930Y-179456497D01*
X54226725Y-179524318D01*
X54204188Y-179590453D01*
X54190521Y-179606689D01*
X53854028Y-179943182D01*
X53792707Y-179976666D01*
X53766349Y-179979500D01*
X38103056Y-179979500D01*
X38036017Y-179959815D01*
X37990262Y-179907011D01*
X37980318Y-179837853D01*
X37985125Y-179817182D01*
X38018476Y-179714538D01*
X38018476Y-179714537D01*
X38018477Y-179714534D01*
X38050500Y-179512352D01*
X38050500Y-179307648D01*
X38042642Y-179258034D01*
X38018477Y-179105465D01*
X37978205Y-178981522D01*
X37955220Y-178910781D01*
X37955218Y-178910778D01*
X37955218Y-178910776D01*
X37921503Y-178844607D01*
X37862287Y-178728390D01*
X37849289Y-178710500D01*
X37741971Y-178562786D01*
X37597213Y-178418028D01*
X37431613Y-178297715D01*
X37431612Y-178297714D01*
X37431610Y-178297713D01*
X37374653Y-178268691D01*
X37249223Y-178204781D01*
X37054534Y-178141522D01*
X36879995Y-178113878D01*
X36852352Y-178109500D01*
X36647648Y-178109500D01*
X36623329Y-178113351D01*
X36445465Y-178141522D01*
X36250776Y-178204781D01*
X36068386Y-178297715D01*
X35902786Y-178418028D01*
X35758028Y-178562786D01*
X35637715Y-178728386D01*
X35544781Y-178910776D01*
X35481522Y-179105465D01*
X35449500Y-179307648D01*
X35449500Y-179512351D01*
X35481523Y-179714535D01*
X35481523Y-179714538D01*
X35514875Y-179817182D01*
X35516870Y-179887023D01*
X35480790Y-179946856D01*
X35418089Y-179977684D01*
X35396944Y-179979500D01*
X35086228Y-179979500D01*
X34921925Y-180012182D01*
X34921913Y-180012185D01*
X34876583Y-180030962D01*
X34767143Y-180076292D01*
X34767130Y-180076299D01*
X34627838Y-180169372D01*
X34627834Y-180169375D01*
X30804030Y-183993181D01*
X30742707Y-184026666D01*
X30716349Y-184029500D01*
X30567648Y-184029500D01*
X30543329Y-184033351D01*
X30365465Y-184061522D01*
X30170776Y-184124781D01*
X29988386Y-184217715D01*
X29822786Y-184338028D01*
X29678028Y-184482786D01*
X29557715Y-184648386D01*
X29464781Y-184830776D01*
X29401522Y-185025465D01*
X29369500Y-185227648D01*
X18448268Y-185227648D01*
X18451010Y-185219208D01*
X18462301Y-185184458D01*
X18467668Y-185167938D01*
X18481413Y-185125636D01*
X18512500Y-184929361D01*
X18512500Y-184730639D01*
X18481413Y-184534364D01*
X18420005Y-184345368D01*
X18420005Y-184345367D01*
X18329786Y-184168305D01*
X18298164Y-184124781D01*
X18212981Y-184007536D01*
X18072464Y-183867019D01*
X17911694Y-183750213D01*
X17755218Y-183670484D01*
X17704423Y-183622510D01*
X17687628Y-183554689D01*
X17710165Y-183488554D01*
X17755218Y-183449515D01*
X17911694Y-183369787D01*
X18072464Y-183252981D01*
X18212981Y-183112464D01*
X18329787Y-182951694D01*
X18420005Y-182774632D01*
X18481413Y-182585636D01*
X18512500Y-182389361D01*
X18512500Y-182190639D01*
X18481413Y-181994364D01*
X18420005Y-181805368D01*
X18420005Y-181805367D01*
X18329786Y-181628304D01*
X18273258Y-181550500D01*
X18212981Y-181467536D01*
X18136819Y-181391374D01*
X18103334Y-181330051D01*
X18100500Y-181303693D01*
X18100500Y-178307648D01*
X23449500Y-178307648D01*
X23449500Y-178512351D01*
X23481522Y-178714534D01*
X23544781Y-178909223D01*
X23637715Y-179091613D01*
X23758028Y-179257213D01*
X23863181Y-179362366D01*
X23896666Y-179423689D01*
X23899500Y-179450047D01*
X23899500Y-180709953D01*
X23879815Y-180776992D01*
X23863181Y-180797634D01*
X23758032Y-180902782D01*
X23758028Y-180902786D01*
X23637715Y-181068386D01*
X23544781Y-181250776D01*
X23481522Y-181445465D01*
X23449500Y-181647648D01*
X23449500Y-181852351D01*
X23481522Y-182054534D01*
X23544781Y-182249223D01*
X23637715Y-182431613D01*
X23758028Y-182597213D01*
X23902786Y-182741971D01*
X24012892Y-182821966D01*
X24068390Y-182862287D01*
X24184607Y-182921503D01*
X24250776Y-182955218D01*
X24250778Y-182955218D01*
X24250781Y-182955220D01*
X24355137Y-182989127D01*
X24445465Y-183018477D01*
X24546557Y-183034488D01*
X24647648Y-183050500D01*
X24647649Y-183050500D01*
X24852351Y-183050500D01*
X24852352Y-183050500D01*
X25054534Y-183018477D01*
X25249219Y-182955220D01*
X25431610Y-182862287D01*
X25552262Y-182774629D01*
X25597213Y-182741971D01*
X25597215Y-182741968D01*
X25597219Y-182741966D01*
X25741966Y-182597219D01*
X25741968Y-182597215D01*
X25741971Y-182597213D01*
X25804164Y-182511610D01*
X25862287Y-182431610D01*
X25955220Y-182249219D01*
X26018477Y-182054534D01*
X26050500Y-181852352D01*
X26050500Y-181647648D01*
X26025630Y-181490627D01*
X26018477Y-181445465D01*
X25988983Y-181354693D01*
X25955220Y-181250781D01*
X25955218Y-181250778D01*
X25955218Y-181250776D01*
X25901492Y-181145334D01*
X25862287Y-181068390D01*
X25800093Y-180982786D01*
X25741971Y-180902786D01*
X25636819Y-180797634D01*
X25603334Y-180736311D01*
X25600500Y-180709953D01*
X25600500Y-179450047D01*
X25620185Y-179383008D01*
X25636819Y-179362366D01*
X25663922Y-179335263D01*
X25741966Y-179257219D01*
X25741968Y-179257215D01*
X25741971Y-179257213D01*
X25828791Y-179137713D01*
X25862287Y-179091610D01*
X25955220Y-178909219D01*
X26018477Y-178714534D01*
X26050500Y-178512352D01*
X26050500Y-178307648D01*
X26019116Y-178109500D01*
X26018477Y-178105465D01*
X25966490Y-177945466D01*
X25955220Y-177910781D01*
X25955218Y-177910778D01*
X25955218Y-177910776D01*
X25908772Y-177819622D01*
X25862287Y-177728390D01*
X25811970Y-177659134D01*
X25741971Y-177562786D01*
X25597213Y-177418028D01*
X25576657Y-177403094D01*
X25445285Y-177307648D01*
X29449500Y-177307648D01*
X29449500Y-177512351D01*
X29481522Y-177714534D01*
X29544781Y-177909223D01*
X29637715Y-178091613D01*
X29758028Y-178257213D01*
X29902786Y-178401971D01*
X30057749Y-178514556D01*
X30068390Y-178522287D01*
X30147864Y-178562781D01*
X30250776Y-178615218D01*
X30250778Y-178615218D01*
X30250781Y-178615220D01*
X30355137Y-178649127D01*
X30445465Y-178678477D01*
X30546557Y-178694488D01*
X30647648Y-178710500D01*
X30647649Y-178710500D01*
X30852351Y-178710500D01*
X30852352Y-178710500D01*
X31054534Y-178678477D01*
X31249219Y-178615220D01*
X31431610Y-178522287D01*
X31524590Y-178454732D01*
X31597213Y-178401971D01*
X31597215Y-178401968D01*
X31597219Y-178401966D01*
X31741966Y-178257219D01*
X31741968Y-178257215D01*
X31741971Y-178257213D01*
X31850131Y-178108341D01*
X31862287Y-178091610D01*
X31955220Y-177909219D01*
X32018477Y-177714534D01*
X32050500Y-177512352D01*
X32050500Y-177307648D01*
X32018477Y-177105466D01*
X32009579Y-177078082D01*
X31989127Y-177015137D01*
X31955220Y-176910781D01*
X31955218Y-176910778D01*
X31955218Y-176910776D01*
X31921503Y-176844607D01*
X31862287Y-176728390D01*
X31838188Y-176695220D01*
X31741971Y-176562786D01*
X31597213Y-176418028D01*
X31431613Y-176297715D01*
X31431612Y-176297714D01*
X31431610Y-176297713D01*
X31374653Y-176268691D01*
X31249223Y-176204781D01*
X31054534Y-176141522D01*
X30879995Y-176113878D01*
X30852352Y-176109500D01*
X30647648Y-176109500D01*
X30623329Y-176113351D01*
X30445465Y-176141522D01*
X30250776Y-176204781D01*
X30068386Y-176297715D01*
X29902786Y-176418028D01*
X29758028Y-176562786D01*
X29637715Y-176728386D01*
X29544781Y-176910776D01*
X29481522Y-177105465D01*
X29449500Y-177307648D01*
X25445285Y-177307648D01*
X25431613Y-177297715D01*
X25431612Y-177297714D01*
X25431610Y-177297713D01*
X25353724Y-177258028D01*
X25249223Y-177204781D01*
X25054534Y-177141522D01*
X24879995Y-177113878D01*
X24852352Y-177109500D01*
X24647648Y-177109500D01*
X24623329Y-177113351D01*
X24445465Y-177141522D01*
X24250776Y-177204781D01*
X24068386Y-177297715D01*
X23902786Y-177418028D01*
X23758028Y-177562786D01*
X23637715Y-177728386D01*
X23544781Y-177910776D01*
X23481522Y-178105465D01*
X23449500Y-178307648D01*
X18100500Y-178307648D01*
X18100500Y-173647648D01*
X44449500Y-173647648D01*
X44449500Y-173852351D01*
X44481522Y-174054534D01*
X44544781Y-174249223D01*
X44608691Y-174374653D01*
X44623026Y-174402786D01*
X44637715Y-174431613D01*
X44758028Y-174597213D01*
X44902786Y-174741971D01*
X45057749Y-174854556D01*
X45068390Y-174862287D01*
X45184607Y-174921503D01*
X45250776Y-174955218D01*
X45250778Y-174955218D01*
X45250781Y-174955220D01*
X45355137Y-174989127D01*
X45445465Y-175018477D01*
X45546557Y-175034488D01*
X45647648Y-175050500D01*
X45647649Y-175050500D01*
X45852351Y-175050500D01*
X45852352Y-175050500D01*
X46054534Y-175018477D01*
X46249219Y-174955220D01*
X46431610Y-174862287D01*
X46524590Y-174794732D01*
X46597213Y-174741971D01*
X46597215Y-174741968D01*
X46597219Y-174741966D01*
X46741966Y-174597219D01*
X46741968Y-174597215D01*
X46741971Y-174597213D01*
X46811907Y-174500953D01*
X46862287Y-174431610D01*
X46955220Y-174249219D01*
X47018477Y-174054534D01*
X47050500Y-173852352D01*
X47050500Y-173647648D01*
X47018477Y-173445466D01*
X46955220Y-173250781D01*
X46955218Y-173250778D01*
X46955218Y-173250776D01*
X46921503Y-173184607D01*
X46862287Y-173068390D01*
X46854556Y-173057749D01*
X46741971Y-172902786D01*
X46597213Y-172758028D01*
X46431613Y-172637715D01*
X46431612Y-172637714D01*
X46431610Y-172637713D01*
X46374653Y-172608691D01*
X46249223Y-172544781D01*
X46054534Y-172481522D01*
X45879995Y-172453878D01*
X45852352Y-172449500D01*
X45647648Y-172449500D01*
X45623329Y-172453351D01*
X45445465Y-172481522D01*
X45250776Y-172544781D01*
X45068386Y-172637715D01*
X44902786Y-172758028D01*
X44758028Y-172902786D01*
X44637715Y-173068386D01*
X44544781Y-173250776D01*
X44481522Y-173445465D01*
X44449500Y-173647648D01*
X18100500Y-173647648D01*
X18100500Y-157624000D01*
X18103050Y-157615314D01*
X18101762Y-157606353D01*
X18112740Y-157582312D01*
X18120185Y-157556961D01*
X18127025Y-157551033D01*
X18130787Y-157542797D01*
X18153021Y-157528507D01*
X18172989Y-157511206D01*
X18183503Y-157508918D01*
X18189565Y-157505023D01*
X18224500Y-157500000D01*
X18275500Y-157500000D01*
X18342539Y-157519685D01*
G37*
%TD.AperFunction*%
%TD*%
%TA.AperFunction,NonConductor*%
G36*
X26846492Y-157519685D02*
G01*
X26867134Y-157536319D01*
X26902786Y-157571971D01*
X27068388Y-157692286D01*
X27121828Y-157719516D01*
X27172623Y-157767490D01*
X27189418Y-157835312D01*
X27166880Y-157901446D01*
X27121828Y-157940484D01*
X27068388Y-157967713D01*
X26902786Y-158088028D01*
X26758028Y-158232786D01*
X26637715Y-158398386D01*
X26544781Y-158580776D01*
X26481522Y-158775465D01*
X26449500Y-158977648D01*
X26449500Y-159182351D01*
X26481522Y-159384534D01*
X26544781Y-159579223D01*
X26637715Y-159761613D01*
X26758028Y-159927213D01*
X26902786Y-160071971D01*
X27007970Y-160148390D01*
X27068390Y-160192287D01*
X27184607Y-160251503D01*
X27250776Y-160285218D01*
X27250778Y-160285218D01*
X27250781Y-160285220D01*
X27355137Y-160319127D01*
X27445465Y-160348477D01*
X27546557Y-160364488D01*
X27647648Y-160380500D01*
X27647649Y-160380500D01*
X27852351Y-160380500D01*
X27852352Y-160380500D01*
X28054534Y-160348477D01*
X28249219Y-160285220D01*
X28431610Y-160192287D01*
X28524590Y-160124732D01*
X28597213Y-160071971D01*
X28597215Y-160071968D01*
X28597219Y-160071966D01*
X28702366Y-159966819D01*
X28763689Y-159933334D01*
X28790047Y-159930500D01*
X32972655Y-159930500D01*
X33039694Y-159950185D01*
X33085449Y-160002989D01*
X33095393Y-160072147D01*
X33072974Y-160127385D01*
X33057712Y-160148390D01*
X32964781Y-160330776D01*
X32901522Y-160525465D01*
X32869500Y-160727648D01*
X32869500Y-160876349D01*
X32849815Y-160943388D01*
X32833181Y-160964030D01*
X31854030Y-161943181D01*
X31792707Y-161976666D01*
X31766349Y-161979500D01*
X26903650Y-161979500D01*
X26836611Y-161959815D01*
X26815969Y-161943181D01*
X23086819Y-158214030D01*
X23053334Y-158152707D01*
X23050500Y-158126349D01*
X23050500Y-157977648D01*
X23018477Y-157775465D01*
X22997752Y-157711681D01*
X22981712Y-157662317D01*
X22979718Y-157592478D01*
X23015798Y-157532645D01*
X23078499Y-157501816D01*
X23099644Y-157500000D01*
X26779453Y-157500000D01*
X26846492Y-157519685D01*
G37*
%TD.AperFunction*%
%TA.AperFunction,NonConductor*%
G36*
X78692539Y-157519685D02*
G01*
X78738294Y-157572489D01*
X78749500Y-157624000D01*
X78749500Y-162397152D01*
X78729815Y-162464191D01*
X78677011Y-162509946D01*
X78607853Y-162519890D01*
X78544297Y-162490865D01*
X78510940Y-162444606D01*
X78503706Y-162427143D01*
X78503704Y-162427139D01*
X78483667Y-162397152D01*
X78410626Y-162287838D01*
X78292162Y-162169374D01*
X76067618Y-159944830D01*
X73834470Y-157711681D01*
X73800985Y-157650358D01*
X73805969Y-157580666D01*
X73847841Y-157524733D01*
X73913305Y-157500316D01*
X73922151Y-157500000D01*
X78625500Y-157500000D01*
X78692539Y-157519685D01*
G37*
%TD.AperFunction*%
%TA.AperFunction,NonConductor*%
G36*
X66629211Y-172092106D02*
G01*
X66680687Y-172139350D01*
X66698500Y-172203384D01*
X66698500Y-176627348D01*
X66678815Y-176694387D01*
X66662181Y-176715029D01*
X66299426Y-177077784D01*
X66238103Y-177111269D01*
X66168411Y-177106285D01*
X66112478Y-177064413D01*
X66088061Y-176998949D01*
X66090128Y-176965911D01*
X66093392Y-176949500D01*
X66100500Y-176913767D01*
X66100500Y-172710047D01*
X66120185Y-172643008D01*
X66136819Y-172622366D01*
X66241966Y-172517219D01*
X66241968Y-172517215D01*
X66241971Y-172517213D01*
X66294732Y-172444590D01*
X66362287Y-172351610D01*
X66455220Y-172169219D01*
X66456569Y-172165066D01*
X66496006Y-172107391D01*
X66560364Y-172080192D01*
X66629211Y-172092106D01*
G37*
%TD.AperFunction*%
%TA.AperFunction,NonConductor*%
G36*
X16342539Y-157519685D02*
G01*
X16388294Y-157572489D01*
X16399500Y-157624000D01*
X16399500Y-181303693D01*
X16379815Y-181370732D01*
X16363181Y-181391374D01*
X16312181Y-181442374D01*
X16250858Y-181475859D01*
X16181166Y-181470875D01*
X16125233Y-181429003D01*
X16100816Y-181363539D01*
X16100500Y-181354693D01*
X16100500Y-157624000D01*
X16103050Y-157615314D01*
X16101762Y-157606353D01*
X16112740Y-157582312D01*
X16120185Y-157556961D01*
X16127025Y-157551033D01*
X16130787Y-157542797D01*
X16153021Y-157528507D01*
X16172989Y-157511206D01*
X16183503Y-157508918D01*
X16189565Y-157505023D01*
X16224500Y-157500000D01*
X16275500Y-157500000D01*
X16342539Y-157519685D01*
G37*
%TD.AperFunction*%
%TA.AperFunction,NonConductor*%
G36*
X14455703Y-183169135D02*
G01*
X14489059Y-183215392D01*
X14496296Y-183232863D01*
X14496298Y-183232866D01*
X14496299Y-183232868D01*
X14589372Y-183372161D01*
X14589375Y-183372165D01*
X15951181Y-184733969D01*
X15984666Y-184795292D01*
X15987500Y-184821650D01*
X15987500Y-184929360D01*
X16018587Y-185125637D01*
X16079993Y-185314629D01*
X16079994Y-185314632D01*
X16170213Y-185491694D01*
X16287019Y-185652464D01*
X16427536Y-185792981D01*
X16588306Y-185909787D01*
X16706832Y-185970179D01*
X16744780Y-185989515D01*
X16795576Y-186037490D01*
X16812371Y-186105311D01*
X16789833Y-186171446D01*
X16744780Y-186210485D01*
X16588305Y-186290213D01*
X16427533Y-186407021D01*
X16287021Y-186547533D01*
X16170213Y-186708305D01*
X16079994Y-186885367D01*
X16079993Y-186885370D01*
X16018587Y-187074362D01*
X16017389Y-187081925D01*
X15987500Y-187270639D01*
X15987500Y-187469361D01*
X15989639Y-187482863D01*
X16018587Y-187665637D01*
X16079993Y-187854629D01*
X16079994Y-187854632D01*
X16108604Y-187910781D01*
X16170213Y-188031694D01*
X16287019Y-188192464D01*
X16427536Y-188332981D01*
X16588306Y-188449787D01*
X16706832Y-188510179D01*
X16744780Y-188529515D01*
X16795576Y-188577490D01*
X16812371Y-188645311D01*
X16789833Y-188711446D01*
X16744780Y-188750485D01*
X16588305Y-188830213D01*
X16427533Y-188947021D01*
X16287021Y-189087533D01*
X16170213Y-189248305D01*
X16079994Y-189425367D01*
X16079993Y-189425370D01*
X16018587Y-189614362D01*
X15987500Y-189810639D01*
X15987500Y-190009360D01*
X16018587Y-190205637D01*
X16079993Y-190394629D01*
X16079994Y-190394632D01*
X16170213Y-190571694D01*
X16287019Y-190732464D01*
X16427536Y-190872981D01*
X16588306Y-190989787D01*
X16631136Y-191011610D01*
X16765367Y-191080005D01*
X16765370Y-191080006D01*
X16859866Y-191110709D01*
X16954364Y-191141413D01*
X17150639Y-191172500D01*
X17150640Y-191172500D01*
X17349360Y-191172500D01*
X17349361Y-191172500D01*
X17545636Y-191141413D01*
X17734632Y-191080005D01*
X17911694Y-190989787D01*
X18072464Y-190872981D01*
X18212981Y-190732464D01*
X18329787Y-190571694D01*
X18420005Y-190394632D01*
X18481413Y-190205636D01*
X18498230Y-190099455D01*
X18528159Y-190036321D01*
X18587470Y-189999389D01*
X18657333Y-190000387D01*
X18708384Y-190031172D01*
X24167831Y-195490620D01*
X24167834Y-195490622D01*
X24167838Y-195490626D01*
X24307137Y-195583704D01*
X24416584Y-195629037D01*
X24461918Y-195647816D01*
X24626228Y-195680499D01*
X24626232Y-195680500D01*
X24626233Y-195680500D01*
X72833768Y-195680500D01*
X72833769Y-195680499D01*
X72888538Y-195669605D01*
X72998074Y-195647818D01*
X72998078Y-195647816D01*
X72998082Y-195647816D01*
X73043415Y-195629037D01*
X73152863Y-195583704D01*
X73292162Y-195490627D01*
X78410627Y-190372162D01*
X78503704Y-190232863D01*
X78510939Y-190215395D01*
X78554779Y-190160994D01*
X78621073Y-190138928D01*
X78688772Y-190156207D01*
X78736383Y-190207343D01*
X78749500Y-190262849D01*
X78749500Y-196205500D01*
X78729815Y-196272539D01*
X78677011Y-196318294D01*
X78625500Y-196329500D01*
X14374500Y-196329500D01*
X14307461Y-196309815D01*
X14261706Y-196257011D01*
X14250500Y-196205500D01*
X14250500Y-183262848D01*
X14270185Y-183195809D01*
X14322989Y-183150054D01*
X14392147Y-183140110D01*
X14455703Y-183169135D01*
G37*
%TD.AperFunction*%
M02*
